<svg width="375" height="205" viewBox="0 0 375 205" xmlns="http://www.w3.org/2000/svg">
<g filter="url(#filter0_d)">
<g filter="url(#filter1_d)">
<path d="M341.93 19H33.0698C25.8516 19 20 23.8034 20 29.7286V163.271C20 169.197 25.8516 174 33.0698 174H341.93C349.148 174 355 169.197 355 163.271V29.7286C355 23.8034 349.148 19 341.93 19Z" fill="white"/>
</g>
</g>
<path opacity="0.04" d="M254 52.95C253.982 40.9171 257.427 29.1326 263.927 19H341.429C345.293 19 349 20.5329 351.732 23.2616C354.465 25.9902 356 29.6911 356 33.55V102.652C344.911 111.321 331.227 116.022 317.143 116C300.396 116 284.336 109.357 272.494 97.533C260.653 85.7088 254 69.6719 254 52.95Z"/>
<defs>
<filter id="filter0_d" x="16" y="17" width="343" height="163" filterUnits="userSpaceOnUse" color-interpolation-filters="sRGB">
<feFlood flood-opacity="0" result="BackgroundImageFix"/>
<feColorMatrix in="SourceAlpha" type="matrix" values="0 0 0 0 0 0 0 0 0 0 0 0 0 0 0 0 0 0 127 0" result="hardAlpha"/>
<feOffset dy="2"/>
<feGaussianBlur stdDeviation="2"/>
<feColorMatrix type="matrix" values="0 0 0 0 0 0 0 0 0 0 0 0 0 0 0 0 0 0 0.02 0"/>
<feBlend mode="normal" in2="BackgroundImageFix" result="effect1_dropShadow"/>
<feBlend mode="normal" in="SourceGraphic" in2="effect1_dropShadow" result="shape"/>
</filter>
<filter id="filter1_d" x="-5" y="0" width="385" height="205" filterUnits="userSpaceOnUse" color-interpolation-filters="sRGB">
<feFlood flood-opacity="0" result="BackgroundImageFix"/>
<feColorMatrix in="SourceAlpha" type="matrix" values="0 0 0 0 0 0 0 0 0 0 0 0 0 0 0 0 0 0 127 0" result="hardAlpha"/>
<feGaussianBlur stdDeviation="1"/>
<feColorMatrix type="matrix" values="0 0 0 0 0 0 0 0 0 0 0 0 0 0 0 0 0 0 0.1 0"/>
<feBlend mode="normal" in2="BackgroundImageFix" result="effect1_dropShadow"/>
<feBlend mode="normal" in="SourceGraphic" in2="effect1_dropShadow" result="shape"/>
</filter>
</defs>
</svg>
