<svg width="375" height="382" viewBox="0 0 375 382" xmlns="http://www.w3.org/2000/svg">
<path d="M415.397 381.222C415.503 381.222 415.61 381.216 415.718 381.204C416.678 381.102 417.309 380.425 417.326 379.477C417.344 378.436 416.571 377.116 415.548 376.97C415.035 376.901 414.348 377.124 414.043 377.973C413.745 377.379 413.572 376.749 413.516 376.529C394.816 302.77 333.978 197.144 312.923 167.544L311.272 168.718C332.264 198.228 392.918 303.525 411.552 377.025C412.226 379.681 413.649 381.222 415.397 381.222ZM415.051 378.898C415.11 378.947 415.179 379.059 415.23 379.173C414.789 379.079 414.435 378.672 414.165 378.199L415.939 378.677C415.894 378.758 415.76 378.903 415.54 378.959C415.303 379.022 415.109 378.945 415.051 378.898Z" fill="#D9E021"/>
<path d="M383.802 381.545L385.797 381.2C371.922 300.744 371.875 219.15 385.661 138.684L383.664 138.342C369.84 219.036 369.886 300.862 383.802 381.545Z" fill="#D9E021"/>
<g opacity="0.27">
<path opacity="0.27" d="M6.47695 380.184V296.298L14.2336 288.544V380.184H6.47695Z" fill="#D9E021"/>
</g>
<path d="M204.417 231.283C204.56 230.687 205.168 230.325 205.762 230.47C206.358 230.613 206.72 231.221 206.575 231.817C206.431 232.413 205.823 232.774 205.229 232.63C204.633 232.485 204.266 231.884 204.417 231.283ZM273.352 140.47C273.024 139.933 273.194 139.231 273.731 138.905C274.213 138.591 274.858 138.727 275.171 139.207C275.199 139.244 275.224 139.29 275.24 139.336C275.567 139.844 275.422 140.516 274.917 140.849C274.381 141.164 273.679 141.004 273.352 140.47ZM241.397 188.707C240.926 188.299 240.833 187.603 241.18 187.085C241.561 186.577 242.291 186.478 242.802 186.868C243.31 187.249 243.41 187.979 243.02 188.49C242.606 188.956 241.916 189.054 241.397 188.707ZM99.7944 144.077C98.8208 143.417 98.5532 142.098 99.1947 141.108C99.7793 140.134 101.04 139.816 102.011 140.394C102.046 140.416 102.078 140.431 102.106 140.455C103.08 141.116 103.347 142.435 102.706 143.424C102.086 144.406 100.779 144.702 99.7944 144.077ZM143.02 172.198C142.04 171.53 141.793 170.199 142.464 169.224C143.118 168.264 144.42 168 145.392 168.633C146.378 169.258 146.67 170.559 146.044 171.544C145.351 172.519 144.036 172.8 143.02 172.198ZM186.344 200.324C185.364 199.695 185.079 198.401 185.707 197.421C185.721 197.402 185.735 197.382 185.748 197.363C186.333 196.388 187.594 196.07 188.565 196.648C188.6 196.67 188.631 196.685 188.659 196.71C189.632 197.392 189.916 198.708 189.312 199.735C188.651 200.699 187.331 200.965 186.344 200.324ZM80.975 252.756C81.2245 251.613 82.3509 250.889 83.4982 251.144C84.6407 251.392 85.3648 252.521 85.1105 253.667C84.8647 254.787 83.7715 255.507 82.6451 255.292C81.4978 255.038 80.7567 253.914 80.975 252.756ZM131.731 262.192C131.981 261.049 133.107 260.325 134.254 260.58C135.397 260.828 136.121 261.957 135.867 263.103C135.621 264.223 134.528 264.943 133.401 264.728C132.258 264.48 131.513 263.349 131.731 262.192ZM187.561 87.8844C186.915 86.8986 187.172 85.5769 188.155 84.9156C189.098 84.2533 190.395 84.4905 191.057 85.4336C191.062 85.4393 191.066 85.445 191.071 85.4507C191.768 86.3407 191.609 87.6244 190.72 88.3228C190.677 88.355 190.635 88.3863 190.585 88.4243C189.587 89.0533 188.278 88.8247 187.561 87.8844ZM216.817 130.442C216.184 129.447 216.418 128.134 217.353 127.421C218.339 126.775 219.663 127.039 220.322 128.015C220.982 128.98 220.736 130.303 219.77 130.961C219.758 130.969 219.745 130.98 219.738 130.983C218.795 131.646 217.498 131.408 216.84 130.471C216.826 130.453 216.822 130.447 216.817 130.442ZM246.018 172.937C245.357 172.022 245.553 170.744 246.469 170.086C246.494 170.067 246.523 170.045 246.553 170.033C247.491 169.335 248.819 169.54 249.515 170.479C249.538 170.51 249.557 170.535 249.579 170.563C250.242 171.545 249.981 172.877 249.008 173.536C248.025 174.199 246.693 173.938 246.035 172.965C246.027 172.949 246.023 172.943 246.018 172.937ZM73.0475 302.745C73.1443 301.707 74.0562 300.936 75.0972 301.012C76.1372 301.098 76.9135 302.016 76.83 303.062C76.7474 304.107 75.826 304.878 74.7802 304.794C73.7421 304.694 72.9706 303.786 73.0475 302.745ZM163.209 132.284C162.554 131.438 162.67 130.235 163.477 129.531C164.252 128.872 165.411 128.965 166.071 129.739C166.09 129.763 166.103 129.781 166.121 129.806C166.812 130.595 166.728 131.795 165.934 132.477C165.923 132.485 165.917 132.49 165.903 132.5C165.094 133.139 163.918 133.051 163.209 132.284ZM192.785 167.496C192.13 166.689 192.253 165.507 193.05 164.85C193.825 164.192 194.984 164.285 195.644 165.058C195.663 165.083 195.676 165.101 195.694 165.126C196.385 165.915 196.301 167.114 195.514 167.803C195.502 167.812 195.497 167.816 195.482 167.826C194.644 168.455 193.449 168.315 192.785 167.496ZM222.409 202.87C221.718 202.081 221.801 200.882 222.589 200.193C222.6 200.184 222.606 200.18 222.62 200.17C223.353 199.504 224.489 199.567 225.154 200.299C225.196 200.343 225.234 200.392 225.27 200.44C225.961 201.23 225.877 202.429 225.089 203.118C225.078 203.127 225.072 203.131 225.058 203.141C224.245 203.763 223.079 203.648 222.409 202.87ZM120.457 223.778C119.544 223.261 119.203 222.111 119.7 221.185C120.181 220.26 121.311 219.899 122.235 220.376C123.158 220.876 123.541 222.011 123.102 222.963C122.592 223.908 121.419 224.266 120.457 223.778ZM161.353 245.044C160.443 244.61 160.052 243.521 160.486 242.611C160.502 242.58 160.521 242.545 160.534 242.509C161.014 241.584 162.144 241.223 163.068 241.7C163.991 242.2 164.374 243.335 163.936 244.286C163.431 245.201 162.281 245.541 161.353 245.044ZM253.768 108.315C253.45 107.37 253.953 106.351 254.894 106.027C254.934 106.015 254.968 105.998 255.002 105.993C255.988 105.653 257.071 106.178 257.414 107.167C257.422 107.189 257.43 107.213 257.433 107.229C257.705 108.237 257.137 109.285 256.138 109.608C255.156 109.927 254.103 109.382 253.785 108.399C253.781 108.373 253.78 108.344 253.768 108.315ZM267.592 152.291C267.281 151.281 267.827 150.203 268.83 149.86C269.852 149.567 270.925 150.156 271.217 151.18C271.5 152.152 270.972 153.179 270.018 153.523C269.047 153.872 267.968 153.365 267.62 152.393C267.61 152.365 267.597 152.325 267.592 152.291ZM33.4442 274.027C32.3975 273.409 32.0113 272.087 32.574 271.003C33.1452 269.934 34.4681 269.52 35.5394 270.081C36.5994 270.688 36.9875 272.029 36.4096 273.105C35.8383 274.174 34.5155 274.588 33.4442 274.027ZM80.3876 299.064C79.3124 298.498 78.9044 297.17 79.4652 296.099C80.026 295.028 81.3593 294.616 82.4306 295.177C83.5058 295.743 83.9139 297.071 83.353 298.142C82.7856 299.218 81.458 299.625 80.3876 299.064ZM205.478 130.671C205.155 129.481 205.814 128.249 206.987 127.865C208.172 127.547 209.392 128.254 209.704 129.443C210.011 130.587 209.36 131.765 208.235 132.125C207.076 132.45 205.861 131.815 205.478 130.671ZM220.926 181.554C220.6 180.396 221.235 179.182 222.379 178.8C223.542 178.44 224.775 179.09 225.134 180.253C225.494 181.415 224.844 182.648 223.681 183.007C222.523 183.345 221.3 182.697 220.926 181.554ZM118.17 206.936C117.451 205.968 117.594 204.609 118.487 203.803C119.447 203.072 120.813 203.239 121.568 204.178C122.345 205.083 122.246 206.448 121.333 207.229C121.321 207.238 121.308 207.248 121.296 207.257C120.352 208.036 118.956 207.892 118.17 206.936C118.175 206.942 118.17 206.936 118.17 206.936ZM151.96 248.079C151.184 247.124 151.326 245.727 152.271 244.949C152.271 244.949 152.271 244.949 152.277 244.945C153.195 244.196 154.554 244.338 155.295 245.262C156.063 246.192 155.935 247.57 155.008 248.334C154.101 249.107 152.738 248.984 151.96 248.079ZM85.1 222.359C84.3257 221.443 84.4434 220.064 85.3658 219.285C86.2881 218.503 87.6612 218.628 88.4422 219.55C89.1938 220.447 89.1084 221.781 88.2401 222.568C87.3054 223.374 85.9076 223.28 85.1 222.359ZM120.396 261.884C119.594 260.959 119.688 259.56 120.61 258.753C121.513 257.986 122.868 258.058 123.689 258.909C124.482 259.851 124.411 261.241 123.533 262.094C122.596 262.875 121.219 262.773 120.396 261.884ZM191.246 190.549C190.871 189.39 191.494 188.137 192.647 187.738C193.781 187.353 195.015 187.952 195.401 189.085C195.834 190.183 195.299 191.426 194.202 191.86C194.173 191.874 194.145 191.885 194.11 191.891C192.975 192.325 191.703 191.753 191.276 190.613C191.26 190.596 191.254 190.574 191.246 190.549Z" fill="#A1C3FC"/>
<path d="M452.45 146.743C452.593 146.147 453.202 145.786 453.796 145.93C454.392 146.073 454.753 146.681 454.608 147.277C454.465 147.873 453.856 148.235 453.262 148.09C452.668 147.946 452.301 147.345 452.45 146.743ZM347.829 59.5375C346.855 58.8771 346.588 57.5583 347.229 56.5687C347.814 55.5942 349.075 55.2764 350.046 55.8542C350.081 55.876 350.112 55.8912 350.141 55.9159C351.114 56.5762 351.382 57.8951 350.74 58.8847C350.121 59.8677 348.813 60.1637 347.829 59.5375ZM391.054 87.6595C390.074 86.9915 389.827 85.6603 390.498 84.6849C391.152 83.7257 392.454 83.4609 393.427 84.0947C394.413 84.7191 394.704 86.0199 394.079 87.0057C393.386 87.9792 392.071 88.261 391.054 87.6595ZM434.378 115.784C433.399 115.155 433.113 113.862 433.742 112.882C433.755 112.863 433.769 112.843 433.782 112.823C434.367 111.849 435.628 111.531 436.599 112.109C436.634 112.13 436.665 112.146 436.694 112.17C437.667 112.852 437.95 114.168 437.347 115.195C436.685 116.16 435.365 116.426 434.378 115.784ZM329.009 168.219C329.259 167.075 330.385 166.351 331.533 166.607C332.675 166.854 333.399 167.983 333.145 169.13C332.899 170.249 331.806 170.969 330.68 170.755C329.532 170.5 328.791 169.375 329.009 168.219ZM379.766 177.654C380.015 176.51 381.142 175.786 382.289 176.042C383.431 176.289 384.155 177.418 383.901 178.565C383.655 179.684 382.562 180.404 381.436 180.19C380.292 179.94 379.547 178.81 379.766 177.654ZM435.594 3.34484C434.949 2.35902 435.206 1.03733 436.188 0.376002C437.131 -0.286271 438.429 -0.049077 439.091 0.894046C439.096 0.899739 439.099 0.905437 439.104 0.91113C439.802 1.80112 439.642 3.08487 438.753 3.7832C438.71 3.81546 438.669 3.84677 438.618 3.88472C437.621 4.51378 436.312 4.28607 435.594 3.34484ZM464.851 45.903C464.217 44.9087 464.451 43.5955 465.386 42.882C466.372 42.2368 467.697 42.5006 468.355 43.476C469.016 44.4418 468.769 45.7645 467.803 46.422C467.792 46.4306 467.778 46.441 467.772 46.4448C466.829 47.1071 465.531 46.8699 464.874 45.9324C464.86 45.9144 464.856 45.9087 464.851 45.903ZM321.081 218.206C321.178 217.168 322.09 216.398 323.131 216.474C324.171 216.56 324.947 217.477 324.864 218.523C324.782 219.569 323.86 220.339 322.815 220.255C321.777 220.156 321.005 219.246 321.081 218.206ZM411.243 47.7456C410.588 46.8993 410.704 45.6962 411.512 44.9922C412.286 44.3337 413.446 44.4267 414.105 45.2C414.124 45.2246 414.137 45.2427 414.155 45.2673C414.846 46.0567 414.763 47.256 413.968 47.9382C413.957 47.9468 413.951 47.9515 413.937 47.961C413.129 48.6005 411.952 48.5113 411.243 47.7456ZM440.82 82.9571C440.165 82.1506 440.288 80.9684 441.086 80.3118C441.86 79.6533 443.02 79.7463 443.679 80.5196C443.698 80.5443 443.711 80.5623 443.729 80.587C444.42 81.3764 444.337 82.5757 443.549 83.2645C443.538 83.2731 443.532 83.2778 443.518 83.2873C442.679 83.9173 441.483 83.775 440.82 82.9571ZM470.443 118.332C469.752 117.542 469.836 116.343 470.623 115.654C470.635 115.646 470.64 115.641 470.655 115.631C471.387 114.965 472.523 115.028 473.188 115.761C473.23 115.805 473.268 115.854 473.304 115.902C473.995 116.691 473.911 117.891 473.124 118.579C473.112 118.588 473.107 118.593 473.093 118.602C472.279 119.224 471.113 119.109 470.443 118.332ZM368.492 139.239C367.579 138.723 367.239 137.573 367.736 136.647C368.216 135.722 369.346 135.36 370.27 135.837C371.193 136.337 371.576 137.472 371.138 138.424C370.626 139.37 369.453 139.728 368.492 139.239ZM409.387 160.506C408.477 160.071 408.086 158.982 408.521 158.072C408.537 158.042 408.556 158.007 408.568 157.97C409.048 157.045 410.178 156.684 411.103 157.161C412.025 157.661 412.408 158.796 411.97 159.748C411.464 160.661 410.315 161.002 409.387 160.506ZM281.479 189.488C280.432 188.871 280.046 187.548 280.608 186.464C281.18 185.395 282.503 184.981 283.574 185.542C284.634 186.149 285.022 187.49 284.444 188.566C283.873 189.634 282.55 190.048 281.479 189.488ZM328.422 214.525C327.347 213.958 326.939 212.631 327.5 211.56C328.06 210.488 329.394 210.077 330.465 210.637C331.54 211.204 331.948 212.531 331.387 213.602C330.82 214.678 329.492 215.086 328.422 214.525ZM453.511 46.1317C453.188 44.9419 453.848 43.7094 455.021 43.3251C456.205 43.0072 457.425 43.7141 457.738 44.903C458.044 46.0472 457.393 47.2257 456.269 47.5853C455.11 47.9117 453.895 47.276 453.511 46.1317ZM468.961 97.0157C468.634 95.8572 469.269 94.6437 470.414 94.2613C471.576 93.9017 472.81 94.5516 473.168 95.7139C473.528 96.8762 472.878 98.1097 471.716 98.4684C470.557 98.8052 469.335 98.1571 468.961 97.0157ZM366.204 122.397C365.486 121.43 365.628 120.07 366.521 119.265C367.482 118.533 368.847 118.7 369.602 119.64C370.38 120.545 370.28 121.911 369.367 122.692C369.356 122.7 369.342 122.711 369.33 122.719C368.386 123.497 366.99 123.353 366.204 122.397C366.208 122.403 366.204 122.397 366.204 122.397ZM399.994 163.54C399.218 162.586 399.36 161.187 400.306 160.411C400.306 160.411 400.306 160.411 400.311 160.406C401.23 159.657 402.589 159.8 403.33 160.723C404.097 161.654 403.969 163.031 403.042 163.795C402.135 164.569 400.771 164.445 399.994 163.54ZM333.134 137.82C332.36 136.904 332.478 135.525 333.4 134.746C334.323 133.964 335.696 134.09 336.477 135.011C337.228 135.909 337.143 137.243 336.275 138.029C335.341 138.836 333.943 138.742 333.134 137.82ZM368.43 177.345C367.629 176.42 367.723 175.022 368.644 174.214C369.547 173.448 370.902 173.52 371.723 174.371C372.517 175.312 372.445 176.702 371.568 177.555C370.629 178.336 369.253 178.234 368.43 177.345ZM439.281 106.01C438.906 104.85 439.528 103.597 440.681 103.198C441.815 102.813 443.05 103.413 443.435 104.546C443.869 105.643 443.334 106.886 442.237 107.321C442.207 107.334 442.18 107.345 442.145 107.351C441.01 107.786 439.737 107.214 439.31 106.073C439.295 106.057 439.287 106.034 439.281 106.01Z" fill="#A1C3FC"/>
<g opacity="0.26">
<path opacity="0.26" d="M147.388 381.196L160 368.586V381.196H147.388Z" fill="white"/>
<path opacity="0.26" d="M175.386 381.196V353.203L188.524 340.067V381.196H175.386Z" fill="white"/>
<path opacity="0.26" d="M203.91 381.196V324.682L217.047 311.548V381.196H203.91Z" fill="white"/>
<path opacity="0.26" d="M232.433 381.196V296.164L245.57 283.028V381.196H232.433Z" fill="white"/>
<path opacity="0.26" d="M260.957 381.196V267.644L274.093 254.51V381.196H260.957Z" fill="white"/>
<path opacity="0.26" d="M289.479 381.196V239.125L302.616 225.99V381.196H289.479Z" fill="white"/>
</g>
<g opacity="0.26">
<path opacity="0.26" d="M61.3138 318.346L56.2568 313.291H66.3698L61.3138 318.346Z" fill="white"/>
<path opacity="0.26" d="M89.2402 313.291L72.7485 329.779L67.4819 324.514L78.7069 313.291H89.2402Z" fill="white"/>
<path opacity="0.26" d="M112.111 313.291L84.1834 341.213L78.9177 335.947L101.578 313.291H112.111Z" fill="white"/>
<path opacity="0.26" d="M134.98 313.291L95.6191 352.648L90.3524 347.381L124.447 313.291H134.98Z" fill="white"/>
<path opacity="0.26" d="M157.851 313.291L107.054 364.081L101.788 358.815L147.318 313.291H157.851Z" fill="white"/>
<path opacity="0.26" d="M180.721 313.291L118.489 375.515L113.223 370.248L170.188 313.291H180.721Z" fill="white"/>
</g>
<path opacity="0.45" d="M422.534 142.237L375.16 174.82C374.358 174.778 373.561 174.727 372.772 174.666L421.349 141.255C421.762 141.578 422.157 141.905 422.534 142.237Z" fill="#D9E021"/>
<path opacity="0.45" d="M418.764 139.442L368.214 174.209C367.481 174.118 366.755 174.019 366.035 173.912L417.371 138.603C417.849 138.878 418.314 139.157 418.764 139.442Z" fill="#D9E021"/>
<path opacity="0.45" d="M414.401 137.055L361.865 173.188C361.192 173.053 360.526 172.912 359.868 172.764L412.827 136.34C413.363 136.574 413.888 136.812 414.401 137.055Z" fill="#D9E021"/>
<path opacity="0.45" d="M409.512 135.029L356.05 171.799C355.431 171.626 354.823 171.446 354.223 171.26L407.772 134.429C408.362 134.625 408.942 134.824 409.512 135.029Z" fill="#D9E021"/>
<path opacity="0.45" d="M404.126 133.346L350.734 170.068C350.169 169.856 349.615 169.638 349.072 169.415L402.219 132.861C402.864 133.016 403.5 133.178 404.126 133.346Z" fill="#D9E021"/>
<path opacity="0.45" d="M398.235 132.01L345.919 167.992C345.41 167.74 344.913 167.483 344.429 167.22L396.154 131.645C396.855 131.759 397.549 131.881 398.235 132.01Z" fill="#D9E021"/>
<path opacity="0.45" d="M391.805 131.044L341.635 165.551C341.187 165.255 340.754 164.954 340.337 164.647L389.531 130.812C390.295 130.881 391.053 130.959 391.805 131.044Z" fill="#D9E021"/>
<path opacity="0.45" d="M384.763 130.499L337.96 162.689C337.585 162.341 337.229 161.986 336.892 161.627L382.258 130.425C383.099 130.441 383.933 130.465 384.763 130.499Z" fill="#D9E021"/>
<path opacity="0.45" d="M376.972 130.47L335.039 159.311C334.76 158.891 334.509 158.465 334.284 158.035L374.164 130.607C375.091 130.548 376.027 130.502 376.972 130.47Z" fill="#D9E021"/>
<path opacity="0.45" d="M368.118 131.171L333.199 155.189C333.072 154.655 332.985 154.115 332.939 153.571L364.814 131.647C365.898 131.471 367 131.312 368.118 131.171Z" fill="#D9E021"/>
<path opacity="0.45" d="M352.673 134.61C354.149 134.111 355.689 133.651 357.286 133.234L333.32 149.718C333.562 148.868 333.905 148.034 334.346 147.216L352.673 134.61Z" fill="#D9E021"/>
<path opacity="0.45" d="M-10.8887 286.477L10.8754 271.509C6.54438 277.368 -1.04816 282.517 -10.8887 286.477Z" fill="white"/>
<path opacity="0.45" d="M14.6181 263.342L-25.7985 291.14C-27.7087 291.591 -29.6664 292.006 -31.6668 292.38L14.9246 260.335C14.9141 261.348 14.8097 262.351 14.6181 263.342Z" fill="white"/>
<path opacity="0.45" d="M14.1835 255.253L-42.0264 293.914C-43.5789 294.086 -45.1512 294.235 -46.7398 294.36L13.3522 253.029C13.6806 253.762 13.9567 254.504 14.1835 255.253Z" fill="white"/>
<path opacity="0.45" d="M11.0262 249.038L-55.5176 294.805C-56.7247 294.832 -57.9374 294.847 -59.1587 294.847C-59.3191 294.847 -59.4795 294.845 -59.6398 294.844L9.59049 247.228C10.102 247.823 10.584 248.427 11.0262 249.038Z" fill="white"/>
<path opacity="0.45" d="M6.28625 243.909L-67.4582 294.629C-68.707 294.564 -69.9463 294.485 -71.1761 294.391L4.44246 242.382C5.0849 242.883 5.69886 243.392 6.28625 243.909Z" fill="white"/>
<path opacity="0.45" d="M0.417969 239.558L-78.2715 293.68C-79.4131 293.537 -80.5432 293.384 -81.663 293.217L-1.75038 238.255C-1.0064 238.681 -0.283302 239.115 0.417969 239.558Z" fill="white"/>
<path opacity="0.45" d="M364.935 251.19L372.074 246.28C370.653 248.202 368.162 249.891 364.935 251.19Z" fill="#A1C3FC"/>
<path opacity="0.45" d="M373.301 243.601L360.044 252.719C359.416 252.867 358.775 253.003 358.119 253.126L373.402 242.614C373.399 242.946 373.364 243.276 373.301 243.601Z" fill="#A1C3FC"/>
<path opacity="0.45" d="M373.159 240.947L354.72 253.629C354.212 253.685 353.694 253.734 353.174 253.775L372.887 240.218C372.994 240.458 373.084 240.701 373.159 240.947Z" fill="#A1C3FC"/>
<path opacity="0.45" d="M372.123 238.908L350.294 254.056C349.899 254.065 349.5 254.204 349.1 254.204C349.046 254.204 348.995 254.204 348.942 254.204L371.652 238.449C371.82 238.645 371.978 238.707 372.123 238.908Z" fill="#A1C3FC"/>
<path opacity="0.45" d="M370.568 237.226L346.378 253.864C345.968 253.843 345.562 253.817 345.159 253.787L369.964 236.726C370.174 236.889 370.376 237.056 370.568 237.226Z" fill="#A1C3FC"/>
<path opacity="0.45" d="M368.643 235.799L342.83 253.553C342.455 253.506 342.084 253.455 341.718 253.401L367.931 235.372C368.176 235.511 368.413 235.654 368.643 235.799Z" fill="#A1C3FC"/>
<path opacity="0.45" d="M366.415 234.58L339.588 253.03C339.245 252.962 338.904 252.89 338.569 252.814L365.612 234.214C365.885 234.334 366.153 234.455 366.415 234.58Z" fill="#A1C3FC"/>
<path opacity="0.45" d="M363.918 233.546L336.618 252.323C336.302 252.233 335.992 252.142 335.685 252.047L363.029 233.24C363.331 233.339 363.628 233.44 363.918 233.546Z" fill="#A1C3FC"/>
<path opacity="0.45" d="M361.168 232.686L333.904 251.437C333.616 251.329 333.333 251.218 333.055 251.104L360.194 232.439C360.523 232.517 360.848 232.6 361.168 232.686Z" fill="#A1C3FC"/>
<path opacity="0.45" d="M358.16 232.004L331.445 250.377C331.185 250.248 330.932 250.117 330.684 249.984L357.097 231.818C357.455 231.876 357.81 231.937 358.16 232.004Z" fill="#A1C3FC"/>
<path opacity="0.45" d="M354.877 231.51L329.258 249.13C329.029 248.979 328.808 248.824 328.595 248.669L353.715 231.392C354.106 231.427 354.492 231.467 354.877 231.51Z" fill="#A1C3FC"/>
<path opacity="0.45" d="M351.281 231.232L327.382 247.67C327.19 247.492 327.009 247.311 326.836 247.127L350.002 231.194C350.431 231.202 350.857 231.214 351.281 231.232Z" fill="#A1C3FC"/>
<path opacity="0.45" d="M347.302 231.217L325.889 245.945C325.747 245.73 325.619 245.513 325.503 245.293L345.867 231.286C346.342 231.257 346.82 231.234 347.302 231.217Z" fill="#A1C3FC"/>
<path opacity="0.45" d="M342.781 231.575L324.949 243.839C324.883 243.567 324.839 243.291 324.816 243.014L341.092 231.819C341.647 231.729 342.21 231.647 342.781 231.575Z" fill="#A1C3FC"/>
<path opacity="0.45" d="M334.894 233.331C335.647 233.077 336.434 232.841 337.249 232.628L325.011 241.045C325.134 240.611 325.309 240.184 325.534 239.768L334.894 233.331Z" fill="#A1C3FC"/>
<path d="M363.374 358.088C363.533 358 363.733 358.061 363.821 358.219C363.91 358.378 363.849 358.58 363.69 358.667C363.53 358.755 363.33 358.694 363.242 358.536C363.153 358.376 363.211 358.175 363.374 358.088ZM397.059 354.945C397.11 354.765 397.298 354.662 397.477 354.714C397.642 354.756 397.742 354.925 397.7 355.089C397.698 355.102 397.692 355.117 397.686 355.13C397.639 355.303 397.464 355.407 397.29 355.362C397.114 355.309 397.008 355.124 397.059 354.945ZM380.101 357.634C380.096 357.449 380.23 357.29 380.412 357.262C380.599 357.244 380.768 357.383 380.785 357.573C380.803 357.76 380.663 357.929 380.474 357.946C380.289 357.948 380.129 357.817 380.101 357.634ZM361.46 317.724C361.409 317.378 361.644 317.055 361.989 316.997C362.319 316.929 362.642 317.141 362.71 317.469C362.712 317.482 362.715 317.491 362.716 317.502C362.766 317.848 362.532 318.171 362.186 318.229C361.847 318.291 361.52 318.064 361.46 317.724ZM363.98 332.814C363.93 332.466 364.171 332.145 364.519 332.096C364.86 332.047 365.179 332.278 365.235 332.618C365.297 332.959 365.07 333.283 364.73 333.345C364.378 333.388 364.052 333.158 363.98 332.814ZM366.518 347.927C366.46 347.587 366.684 347.265 367.025 347.206C367.032 347.205 367.039 347.204 367.046 347.203C367.376 347.136 367.699 347.347 367.767 347.676C367.769 347.688 367.772 347.698 367.773 347.709C367.818 348.058 367.588 348.385 367.242 348.459C366.899 348.507 366.576 348.273 366.518 347.927ZM333.918 335.408C334.218 335.233 334.602 335.334 334.777 335.636C334.952 335.935 334.85 336.32 334.548 336.495C334.254 336.666 333.877 336.571 333.699 336.281C333.524 335.98 333.621 335.592 333.918 335.408ZM342.035 348.397C342.334 348.222 342.719 348.323 342.893 348.625C343.068 348.924 342.966 349.31 342.665 349.484C342.371 349.655 341.994 349.56 341.815 349.272C341.64 348.971 341.738 348.581 342.035 348.397ZM391.351 325.641C391.438 325.303 391.778 325.094 392.12 325.176C392.454 325.25 392.662 325.581 392.589 325.915C392.588 325.917 392.588 325.919 392.587 325.921C392.532 326.252 392.22 326.475 391.888 326.421C391.873 326.418 391.857 326.416 391.839 326.412C391.503 326.319 391.29 325.987 391.351 325.641ZM387.913 340.574C388.003 340.235 388.337 340.024 388.681 340.085C389.02 340.172 389.228 340.514 389.147 340.854C389.068 341.192 388.729 341.403 388.392 341.323C388.387 341.322 388.382 341.322 388.38 341.322C388.046 341.247 387.838 340.916 387.91 340.585C387.912 340.578 387.912 340.576 387.913 340.574ZM384.476 355.482C384.544 355.153 384.862 354.94 385.191 355.008C385.2 355.01 385.211 355.012 385.219 355.016C385.56 355.081 385.781 355.412 385.716 355.753C385.714 355.764 385.712 355.773 385.71 355.784C385.628 356.126 385.285 356.337 384.946 356.256C384.604 356.174 384.394 355.831 384.474 355.492C384.475 355.485 384.476 355.484 384.476 355.482ZM321.396 343.7C321.643 343.513 321.994 343.558 322.186 343.801C322.376 344.046 322.331 344.4 322.086 344.591C321.841 344.783 321.487 344.735 321.295 344.491C321.108 344.243 321.153 343.893 321.396 343.7ZM376.757 329.223C376.811 328.91 377.098 328.694 377.413 328.73C377.712 328.768 377.925 329.039 377.888 329.339C377.886 329.348 377.885 329.354 377.883 329.364C377.849 329.673 377.57 329.895 377.261 329.859C377.257 329.858 377.255 329.857 377.25 329.857C376.949 329.807 376.732 329.532 376.757 329.223ZM374.99 342.751C375.034 342.446 375.318 342.236 375.622 342.279C375.921 342.317 376.133 342.588 376.096 342.888C376.094 342.897 376.093 342.903 376.091 342.913C376.057 343.222 375.778 343.444 375.47 343.41C375.465 343.409 375.463 343.408 375.458 343.408C375.152 343.35 374.944 343.061 374.99 342.751ZM373.195 356.323C373.229 356.014 373.508 355.792 373.817 355.826C373.821 355.827 373.823 355.828 373.828 355.828C374.121 355.855 374.335 356.115 374.308 356.408C374.306 356.426 374.304 356.444 374.301 356.461C374.266 356.77 373.988 356.992 373.679 356.958C373.674 356.957 373.672 356.956 373.668 356.956C373.369 356.904 373.159 356.626 373.195 356.323ZM348.174 338.227C348.104 337.925 348.287 337.619 348.589 337.542C348.888 337.462 349.193 337.636 349.274 337.934C349.349 338.237 349.178 338.548 348.882 338.643C348.574 338.72 348.261 338.535 348.174 338.227ZM351.725 351.434C351.638 351.147 351.797 350.844 352.084 350.757C352.094 350.754 352.106 350.752 352.116 350.746C352.415 350.665 352.721 350.84 352.801 351.138C352.876 351.441 352.705 351.752 352.409 351.847C352.108 351.919 351.804 351.736 351.725 351.434ZM400.163 344.214C400.306 343.954 400.629 343.861 400.889 344.001C400.9 344.008 400.91 344.011 400.918 344.018C401.19 344.165 401.292 344.507 401.144 344.781C401.141 344.787 401.138 344.793 401.135 344.798C400.969 345.06 400.626 345.146 400.355 344.992C400.088 344.842 399.996 344.502 400.147 344.235C400.153 344.229 400.159 344.223 400.163 344.214ZM393.319 356.057C393.478 355.786 393.823 355.689 394.099 355.839C394.368 356.004 394.455 356.357 394.289 356.626C394.133 356.883 393.802 356.974 393.537 356.834C393.265 356.691 393.16 356.354 393.303 356.082C393.306 356.076 393.313 356.065 393.319 356.057ZM319.733 329.282C319.658 328.929 319.87 328.579 320.22 328.485C320.569 328.396 320.924 328.602 321.016 328.948C321.096 329.302 320.881 329.655 320.53 329.745C320.18 329.834 319.825 329.628 319.733 329.282ZM323.673 344.567C323.58 344.219 323.789 343.863 324.136 343.771C324.482 343.679 324.84 343.888 324.932 344.234C325.024 344.583 324.815 344.938 324.469 345.03C324.121 345.122 323.766 344.914 323.673 344.567ZM385.588 338.14C385.784 337.831 386.185 337.728 386.505 337.908C386.813 338.103 386.902 338.511 386.704 338.818C386.515 339.114 386.127 339.208 385.824 339.035C385.52 338.847 385.415 338.453 385.588 338.14ZM377.559 351.723C377.747 351.42 378.14 351.314 378.453 351.488C378.764 351.67 378.871 352.07 378.689 352.382C378.506 352.693 378.107 352.799 377.795 352.617C377.488 352.431 377.385 352.035 377.559 351.723ZM351.399 334.349C351.466 333.998 351.793 333.756 352.148 333.79C352.501 333.852 352.738 334.185 352.684 334.538C352.642 334.889 352.323 335.142 351.969 335.099C351.964 335.098 351.96 335.097 351.956 335.097C351.596 335.047 351.348 334.713 351.399 334.349C351.398 334.352 351.399 334.349 351.399 334.349ZM349.178 349.989C349.231 349.628 349.565 349.379 349.925 349.429C349.925 349.429 349.925 349.429 349.927 349.43C350.275 349.48 350.516 349.806 350.463 350.154C350.413 350.508 350.086 350.757 349.733 350.707C349.382 350.664 349.137 350.34 349.178 349.989ZM341.392 330.213C341.437 329.86 341.762 329.609 342.117 329.654C342.473 329.699 342.721 330.024 342.676 330.38C342.631 330.724 342.322 330.973 341.976 330.941C341.613 330.898 341.353 330.573 341.392 330.213ZM339.828 345.857C339.869 345.496 340.195 345.235 340.556 345.275C340.905 345.319 341.161 345.629 341.14 345.98C341.092 346.343 340.774 346.605 340.412 346.585C340.053 346.536 339.799 346.215 339.828 345.857ZM369.639 347.039C369.818 346.725 370.216 346.609 370.535 346.781C370.846 346.952 370.963 347.342 370.792 347.654C370.639 347.969 370.26 348.102 369.945 347.948C369.936 347.944 369.928 347.94 369.919 347.935C369.597 347.773 369.467 347.381 369.63 347.058C369.632 347.051 369.635 347.046 369.639 347.039Z" fill="white"/>
<path d="M186.411 182.803L186.122 168.173L180.011 168.294L180.3 182.924L175.86 183.012L176.579 219.491L191.571 219.195L190.851 182.715L186.411 182.803Z" fill="url(#paint0_linear)"/>
<path d="M190.664 193.383L183.549 186.535L176.709 193.659L183.824 200.507L190.664 193.383Z" fill="#A1C3FC"/>
<path d="M186.962 166.656L178.991 166.814L179.085 171.564L187.056 171.406L186.962 166.656Z" fill="#E94A47"/>
<path d="M163.777 189.343L152.247 266.636L182.562 272.242C182.562 272.242 180.201 198.37 171.481 189.755L163.777 189.343Z" fill="#EEEEEE"/>
<path d="M191.984 185.254C185.632 187.289 171.414 189.725 171.414 189.725L182.567 272.216L218.651 256.307C218.651 256.307 193.705 197.539 191.984 185.254ZM178.745 192.403C178.284 192.403 177.911 192.03 177.911 191.568C177.911 191.107 178.284 190.733 178.745 190.733C179.205 190.733 179.579 191.107 179.579 191.568C179.579 192.03 179.205 192.403 178.745 192.403ZM187.981 191.141C187.52 191.141 187.147 190.767 187.147 190.305C187.147 189.844 187.52 189.47 187.981 189.47C188.442 189.47 188.815 189.844 188.815 190.305C188.815 190.767 188.442 191.141 187.981 191.141Z" fill="#D6D7D8"/>
<path d="M312.29 243.107H306.012V193.596C306.377 191.916 311.799 191.635 312.29 193.596L312.29 243.107Z" fill="#A1C3FC"/>
<path d="M312.29 243.107H306.012V193.596C308.162 194.892 310.251 194.808 312.29 193.596L312.29 243.107Z" fill="url(#paint1_linear)"/>
<path d="M298.365 207.378C297.834 202.56 299.093 197.501 298.626 192.525C298.203 188.025 297.139 182.679 300.603 179.037C301.878 177.696 304.865 176.288 306.777 176.498C309.374 176.784 310.017 179.228 310.918 181.346C312.849 185.884 314.366 190.438 315.883 195.128C316.521 197.1 322.365 208.417 319.267 208.607C315.32 208.849 314.086 199.534 313.405 197.17C312.225 193.076 311.199 188.807 310.105 184.665C308.733 179.467 302.377 177.769 301.481 184.155C300.899 188.298 301.623 194.626 302.444 198.65C303.266 202.683 304.987 207.264 305.463 211.372C304.327 210.769 303.04 210.449 301.934 209.88C301.365 209.588 300.677 209.26 300.15 208.928C299.882 208.76 296.968 206.581 298.365 207.378Z" fill="#4189DE"/>
<path d="M301.141 190.657C298.774 202.587 294.229 222.588 293.354 235.086C292.633 245.363 292.933 262.624 301.086 270.122C309.461 277.825 325.598 278.995 333.592 270.046C341.983 260.655 338.419 240.981 335.395 229.936C331.007 213.906 319.388 202.152 311.826 187.941C318.445 225.766 308.54 217.945 301.141 190.657Z" fill="url(#paint2_linear)"/>
<path d="M299.298 192.375C299.125 192.375 298.949 192.324 298.796 192.217C298.396 191.939 298.297 191.388 298.576 190.988C300.208 188.637 302.334 187.164 304.39 185.739C305.649 184.868 306.95 183.966 308.109 182.875C309.648 181.425 310.368 179.278 309.782 177.882C309.258 176.635 307.821 176.429 306.709 176.475C306.216 176.497 305.812 176.116 305.792 175.629C305.772 175.142 306.15 174.731 306.637 174.71C309.801 174.579 310.993 176.211 311.407 177.197C312.277 179.271 311.399 182.199 309.316 184.16C308.061 185.342 306.705 186.281 305.393 187.19C303.378 188.587 301.474 189.905 300.023 191.995C299.852 192.243 299.577 192.375 299.298 192.375Z" fill="#23286B"/>
<path d="M298.62 173.18C298.151 174.695 296.355 174.905 295.617 176.293C294.988 177.475 295.278 178.796 295.554 180.083C296.074 182.518 298.373 187.471 299.13 182.367C299.329 181.024 298.322 179.508 298.884 178.285C299.462 177.025 301.199 176.692 302.444 175.91C305.97 173.694 304.121 172.017 302.909 168.618C301.604 169.226 300.284 169.479 298.914 169.907C298.754 170.886 298.946 172.266 298.863 172.918C299.544 173.943 297.933 172.159 298.62 173.18Z" fill="#FFBEB6"/>
<path d="M298.675 192.375C298.188 192.375 297.793 191.98 297.793 191.492C297.793 190.433 297.742 189.388 297.693 188.378C297.497 184.345 297.312 180.536 300.375 177.004C300.694 176.636 301.251 176.596 301.619 176.916C301.987 177.236 302.026 177.793 301.707 178.161C299.106 181.159 299.268 184.464 299.454 188.292C299.504 189.323 299.556 190.39 299.556 191.492C299.556 191.98 299.161 192.375 298.675 192.375Z" fill="#23286B"/>
<path d="M281.18 91.9504C274.199 112.304 265.005 127.587 260.643 126.088C256.281 124.588 258.404 106.873 265.385 86.5204C272.365 66.1673 281.56 50.8836 285.922 52.383C290.283 53.8825 288.16 71.5974 281.18 91.9504Z" fill="url(#paint3_linear)"/>
<path d="M287.122 67.1237C287.268 68.4348 284.4 69.8302 280.717 70.2398C277.034 70.6499 273.931 69.919 273.785 68.6079C273.639 67.2967 276.507 65.9014 280.19 65.4918C283.873 65.0822 286.977 65.8125 287.122 67.1237Z" fill="url(#paint4_linear)"/>
<path d="M283.636 77.2898C283.781 78.601 280.914 79.9963 277.23 80.4059C273.547 80.8161 270.444 80.0852 270.298 78.774C270.152 77.4628 273.02 76.0675 276.703 75.6579C280.386 75.2483 283.49 75.9787 283.636 77.2898Z" fill="url(#paint5_linear)"/>
<path d="M280.149 87.4561C280.295 88.7672 277.427 90.1626 273.744 90.5722C270.061 90.9823 266.957 90.2514 266.811 88.9403C266.666 87.6291 269.533 86.2338 273.216 85.8242C276.9 85.4146 280.004 86.1449 280.149 87.4561Z" fill="url(#paint6_linear)"/>
<path d="M276.663 97.6223C276.808 98.9335 273.941 100.329 270.258 100.738C266.574 101.149 263.471 100.418 263.325 99.1065C263.179 97.7954 266.047 96.4 269.73 95.9904C273.413 95.5809 276.517 96.3112 276.663 97.6223Z" fill="url(#paint7_linear)"/>
<path d="M273.176 107.789C273.322 109.1 270.454 110.495 266.771 110.905C263.088 111.315 259.984 110.584 259.838 109.273C259.693 107.962 262.56 106.566 266.244 106.157C269.927 105.746 273.03 106.477 273.176 107.789Z" fill="url(#paint8_linear)"/>
<path d="M289.484 101.848C281.477 121.819 271.517 136.614 267.238 134.894C262.958 133.174 265.979 115.59 273.985 95.6197C281.992 75.6492 291.952 60.8538 296.231 62.574C300.511 64.2942 297.49 81.8778 289.484 101.848Z" fill="url(#paint9_linear)"/>
<path d="M296.681 77.357C296.76 78.6741 293.825 79.9211 290.125 80.1429C286.426 80.3648 283.364 79.4768 283.285 78.1597C283.206 76.8427 286.141 75.5956 289.84 75.3738C293.54 75.1525 296.602 76.0405 296.681 77.357Z" fill="url(#paint10_linear)"/>
<path d="M292.682 87.3325C292.76 88.6496 289.826 89.8966 286.126 90.1184C282.427 90.3403 279.364 89.4523 279.285 88.1352C279.207 86.8182 282.141 85.5711 285.841 85.3493C289.541 85.1274 292.603 86.0155 292.682 87.3325Z" fill="url(#paint11_linear)"/>
<path d="M288.682 97.3076C288.761 98.6246 285.826 99.8717 282.127 100.094C278.428 100.315 275.365 99.4273 275.286 98.1103C275.207 96.7932 278.142 95.5462 281.842 95.3244C285.541 95.1031 288.604 95.9905 288.682 97.3076Z" fill="url(#paint12_linear)"/>
<path d="M284.684 107.282C284.762 108.6 281.828 109.847 278.128 110.068C274.429 110.29 271.366 109.402 271.287 108.085C271.209 106.768 274.143 105.521 277.843 105.299C281.542 105.078 284.605 105.966 284.684 107.282Z" fill="url(#paint13_linear)"/>
<path d="M280.684 117.258C280.763 118.575 277.828 119.822 274.129 120.044C270.43 120.266 267.367 119.378 267.288 118.061C267.209 116.744 270.144 115.497 273.844 115.275C277.543 115.054 280.606 115.941 280.684 117.258Z" fill="url(#paint14_linear)"/>
<path d="M172.08 168.599C170.852 168.988 170.899 169.368 169.548 169.155C168.584 169.003 167.785 168.864 166.838 168.888C164.66 168.943 162.414 169.531 160.281 169.458C159.968 173.166 161.125 177.372 160.095 181.106C157.891 178.873 156.178 176.175 155.026 173.283C154.036 170.799 152.338 168.412 155.194 166.795C157.784 165.327 161.295 164.8 164.2 163.804C167.449 162.692 168.489 159.438 171.104 157.761C172.263 160.181 175.53 161.262 177.383 163.096C175.639 165.334 173.713 166.199 172.08 168.599Z" fill="#FFBEB6"/>
<path d="M163.302 169.548C155.28 172.648 136.564 182.542 126.036 189.673C111.382 199.598 103.183 211.018 97.3276 227.432C94.9276 234.161 94.2481 237.126 98.3145 242.626C101.858 247.419 108.149 252.434 112.966 255.864C117.304 258.952 123.509 260.628 128.721 262.179C135.621 264.234 139.205 262.981 142.218 255.826C147.949 242.217 159.318 188.648 162.416 174.031C164.541 164.011 135.174 204.528 137.737 193.515C137.699 187.631 163.414 174.095 163.302 169.548Z" fill="url(#paint15_linear)"/>
<path d="M167.144 170.458C164.28 175.931 160.872 186.566 159.882 193.309C159.027 199.134 158.983 217.569 161.397 211.121C164.456 202.955 168.231 186.856 167.515 179.475C167.263 176.884 165.117 164.778 169.554 173.691C171.584 177.768 170.73 187.601 170.939 192.824C171.615 209.78 173.085 227.314 171.447 244.137C170.155 257.4 170.125 268.35 154.028 266.914C146.497 266.242 126.683 265.25 125.37 256.718C123.732 246.064 136.342 231.216 138.275 220.662C139.316 214.976 158.158 160.044 167.144 170.458Z" fill="url(#paint16_linear)"/>
<path d="M178.326 163.886C174.481 165.044 172.786 168.948 170.767 172.253C169.9 173.674 165.431 184.579 162.944 181.872C162.073 180.924 165.968 172.867 166.571 171.119C167.31 168.98 167.358 167.937 169.236 165.492C170.478 163.875 171.981 162.192 173.189 160.554C173.902 161.855 178.326 163.886 178.326 163.886Z" fill="#FFBEB6"/>
<path d="M316.323 191.15L378.464 242.39L392.562 208.537L328.743 175.749L322.917 178.436L316.323 191.15Z" fill="#D62929"/>
<path d="M323.152 187.383C323.152 187.383 318.336 189.669 316.279 191.178C321.488 200.536 343.771 260.065 343.771 260.065C343.771 260.065 380.514 245.627 388.391 241.341C379.645 235.754 323.152 187.383 323.152 187.383Z" fill="#ED6764"/>
<path d="M299.384 173.18C299.692 175.035 300.254 176.787 300.907 178.533C301.247 179.441 301.758 180.381 301.933 181.346C302.077 182.137 301.609 183.818 301.793 184.352C302.085 185.197 302.648 186.144 303.717 185.951C305.247 185.675 304.365 184.283 305.241 183.425C305.842 182.837 307.254 182.684 308.011 181.855C308.329 181.509 308.507 181.141 308.878 180.708C309.266 180.255 309.767 179.914 309.962 179.687C312.755 176.42 310.205 171.717 308.758 167.82C307.7 164.97 307.142 164.71 304.219 165.013C302.259 165.215 300.111 165.506 298.147 165.108C298.106 166.998 297.589 172.265 299.384 173.18Z" fill="#FFBEB6"/>
<path d="M211.265 90.4192C198.095 96.9327 196.843 105.408 192.241 118.563C187.728 131.464 179.533 138.629 172.257 149.681C170.051 153.032 167.49 160.645 167.49 160.645C167.49 160.645 168.475 163.322 170.939 165.179C172.447 166.316 174.807 167.267 174.807 167.267C174.807 167.267 183.516 160.886 185.643 157.968C189.468 152.718 190.881 144.953 194.209 139.259C197.966 132.831 203.354 127.694 206.257 120.666C208.008 116.427 215.274 88.4366 211.265 90.4192Z" fill="url(#paint17_linear)"/>
<path d="M278.524 265.158C284.414 265.158 289.189 260.378 289.189 254.48C289.189 248.583 284.414 243.802 278.524 243.802C272.633 243.802 267.858 248.583 267.858 254.48C267.858 260.378 272.633 265.158 278.524 265.158Z" fill="url(#paint18_linear)"/>
<path d="M302.392 253.07C307.225 253.07 311.143 249.148 311.143 244.309C311.143 239.47 307.225 235.547 302.392 235.547C297.559 235.547 293.641 239.47 293.641 244.309C293.641 249.148 297.559 253.07 302.392 253.07Z" fill="url(#paint19_linear)"/>
<path d="M274.345 245.495C277.29 245.495 279.677 243.105 279.677 240.156C279.677 237.208 277.29 234.817 274.345 234.817C271.4 234.817 269.013 237.208 269.013 240.156C269.013 243.105 271.4 245.495 274.345 245.495Z" fill="url(#paint20_linear)"/>
<path d="M287.909 248.242C292.138 248.242 295.566 244.809 295.566 240.575C295.566 236.341 292.138 232.909 287.909 232.909C283.68 232.909 280.252 236.341 280.252 240.575C280.252 244.809 283.68 248.242 287.909 248.242Z" fill="#EEEEEE"/>
<path d="M292.793 269.078C299.968 269.078 305.784 263.255 305.784 256.072C305.784 248.889 299.968 243.066 292.793 243.066C285.619 243.066 279.803 248.889 279.803 256.072C279.803 263.255 285.619 269.078 292.793 269.078Z" fill="url(#paint21_linear)"/>
<path d="M242.425 282.451C242.411 284.311 240.751 290.22 243.153 290.794C244.971 291.229 247.279 290.793 249.142 290.793C250.273 290.793 251.405 290.793 252.536 290.793C253.697 290.793 254.912 290.897 256.068 290.797C256.597 290.752 258.872 290.603 258.991 290.275C257.908 289.863 257.021 288.997 255.988 288.481C255.092 288.033 254.152 287.831 253.236 287.423C251.596 286.693 250.089 283.854 249.957 282.112C248.374 281.79 246.618 282.008 244.995 282.008C244.31 282.007 242.995 282.081 242.425 282.451Z" fill="#F2A19C"/>
<path d="M241.716 286.71C241.273 287.332 241.184 297.892 241.893 298.335C243.807 299.533 249.91 299.611 252.166 299.732C258.745 300.086 265.68 299.993 272.268 299.029C275.353 297.848 270.027 292.387 261.659 289.283C255.047 286.831 245.941 286.436 241.716 286.71Z" fill="#A1C3FC"/>
<path d="M225.793 282.451C225.807 284.311 227.466 290.22 225.064 290.794C223.246 291.229 220.938 290.793 219.075 290.793C217.944 290.793 216.813 290.793 215.682 290.793C214.521 290.793 213.306 290.897 212.15 290.797C211.621 290.752 209.347 290.603 209.227 290.275C210.31 289.863 211.198 288.997 212.23 288.481C213.126 288.033 214.067 287.831 214.982 287.423C216.621 286.693 218.129 283.854 218.262 282.112C219.844 281.79 221.6 282.008 223.223 282.008C223.907 282.007 225.223 282.081 225.793 282.451Z" fill="#F2A19C"/>
<path d="M248.549 72.9928C248.546 72.9928 248.543 72.9928 248.541 72.9928C248.379 72.9887 248.251 72.8533 248.255 72.6909C248.314 70.4723 247.374 69.5013 245.503 68.3866C245.381 68.3143 245.237 68.2325 245.078 68.1424C243.928 67.491 242.189 66.5064 242.156 65.3088L242.148 65.0305L242.426 65.0075C242.954 64.9663 243.451 65.0599 243.934 65.1529C244.776 65.3147 245.442 65.4424 246.054 64.8645C246.916 64.0542 247.225 62.1963 246.974 60.9687C246.48 58.5506 245.131 56.2207 244.37 55.0472C244.307 54.949 244.221 54.823 244.121 54.6765C243.239 53.3806 241.596 50.9696 242.694 49.9785C242.814 49.8697 243 49.8797 243.109 50.0003C243.218 50.1216 243.208 50.3069 243.088 50.4164C242.37 51.0631 243.995 53.4477 244.606 54.3458C244.71 54.497 244.797 54.6265 244.864 54.7277C245.646 55.9359 247.036 58.3387 247.55 60.8516C247.832 62.2281 247.493 64.3184 246.457 65.2935C245.624 66.0768 244.708 65.9008 243.823 65.7308C243.491 65.6672 243.149 65.6013 242.811 65.5884C243.138 66.3687 244.56 67.1743 245.366 67.631C245.529 67.7234 245.677 67.807 245.803 67.8817C247.776 69.0575 248.906 70.2239 248.841 72.7074C248.839 72.8663 248.707 72.9928 248.549 72.9928Z" fill="#E94A47"/>
<path d="M245.737 117.119C253.178 104.627 255.955 88.4125 264.732 76.8274C271.202 80.6967 276.485 86.627 283.462 90.4028C289.573 93.7101 298.807 95.1637 304.079 99.355C295.792 104.476 290.541 113.419 284.131 120.553C278.427 126.9 272.61 132.732 267.722 139.827C261.129 136.234 239.274 126.03 245.445 116.367C246.138 115.84 244.934 116.525 245.737 117.119Z" fill="#D62929"/>
<path d="M280.248 156.598C277.419 168.738 277.804 181.033 275.593 193.766C271.597 216.798 262.86 221.703 261.999 235.281C260.639 256.718 251.429 272.798 250.907 278.617C250.611 281.918 250.965 285.468 250.965 285.468C250.965 285.468 246.314 285.586 241.933 286.33C242.134 274.05 234.727 262.194 235.981 250.108C236.538 244.738 236.581 238.088 237.15 232.698C237.772 226.806 236.206 221.29 234.579 215.824C230.76 202.999 230.812 193.174 230.778 179.615C230.762 173.362 230.398 166.764 230.778 160.715C231.285 152.635 234.86 155.253 241.837 155.539C248.795 155.824 255.117 155.656 261.997 156.335C267.773 156.906 274.657 155.184 279.791 155.895C279.714 155.342 280.326 157.151 280.248 156.598Z" fill="#151A4F"/>
<path d="M195.292 165.529C189.185 175.372 196.437 206.27 200.295 218.39C203.596 228.761 209.375 237.792 211.181 248.136C212.243 254.225 213.27 260.083 213.939 266.057C214.576 271.749 217.745 279.65 216.929 285.38C220.297 285.646 223.4 285.735 226.34 286.128C225.152 282.08 228.449 275.794 229.553 271.963C231.115 266.54 234.084 261.24 235.189 255.634C236.285 250.073 234.812 245.196 234.533 239.874C234.223 233.949 233.984 219.966 236.008 214.394C243.952 192.514 243.6 177.245 243.26 154.604C227.076 158.111 213.256 156.439 196.867 156.784C197.048 160.628 197.335 162.236 195.292 165.529Z" fill="url(#paint22_linear)"/>
<path d="M194.354 120.374C196.372 110.493 201.493 97.6371 208.38 92.5884C219.353 84.5455 229.149 77.6801 244.437 79.3479C258.793 80.9145 277.292 104.048 280.21 116.467C283.773 131.634 284.376 137.97 283.462 153.585C283.165 158.657 281.898 162.757 278.993 164.502C276.443 166.034 258.136 167.048 247.639 167.565C234.962 168.189 208.494 169.746 196.956 163.354C192.581 160.93 191.753 155.539 192.403 142.515C192.644 137.696 191.311 135.268 194.354 120.374Z" fill="url(#paint23_linear)"/>
<path d="M228.176 68.2783C229.409 73.2246 229.621 77.4847 228.043 82.0614C226.907 86.6729 242.492 88.1888 243.866 81.204C243.746 76.4554 242.293 68.6508 242.202 63.671C237.518 63.5921 234.191 69.1669 229.331 69.124C228.922 68.1371 227.237 69.1575 228.176 68.2783Z" fill="#F2A19C"/>
<path d="M217.932 58.6041C213.561 73.8055 240.019 83.0013 241.85 64.3713C242.219 60.6167 239.331 50.1827 235.345 48.5491C230.348 46.5005 221.637 50.208 219.657 54.4587C219.883 55.0808 218.632 56.1689 217.932 58.6041Z" fill="#FFBEB6"/>
<path d="M226.502 286.71C226.945 287.332 227.034 297.892 226.324 298.335C224.411 299.533 218.308 299.611 216.052 299.732C209.473 300.086 202.537 299.993 195.949 299.029C192.865 297.848 198.19 292.387 206.559 289.283C213.171 286.831 222.276 286.436 226.502 286.71Z" fill="#A1C3FC"/>
<path d="M226.329 48.3542C220.837 49.34 218.278 53.1911 217.702 57.9126C234.197 56.0894 234.235 62.7541 240.849 61.6348C241.338 61.5518 241.747 66.1485 242.318 65.9738C247.609 63.9011 245.423 58.8336 243.238 53.6513C241.574 49.7054 237.197 47.784 232.771 47.3173C231.266 47.159 228.492 47.9658 226.329 48.3542Z" fill="#E94A47"/>
<path d="M235.981 45.4859C239.175 35.6198 252.096 39.8988 250.99 50.0597C249.807 60.9257 234.66 49.5671 235.981 45.4859Z" fill="#E94A47"/>
<path d="M198.448 70.9277C198.171 70.9277 197.848 70.7512 197.441 70.4758C197.306 70.3851 197.271 70.2021 197.362 70.0673C197.453 69.9326 197.637 69.8979 197.77 69.9885C198.294 70.3428 198.436 70.3434 198.45 70.3392C198.487 70.3086 198.565 70.1021 198.622 69.952C198.697 69.756 198.789 69.5118 198.93 69.2417C199.382 68.3819 200.226 67.638 201.246 67.2014C203.113 66.4028 205.095 66.6135 207.011 66.8177C209.585 67.0919 212.016 67.3509 213.79 65.0369C214.97 63.4974 215.123 61.5848 215.285 59.5592C215.475 57.1711 215.672 54.7024 217.55 52.5838C219.708 50.1509 224.905 47.6304 227.665 49.1352C227.807 49.2129 227.86 49.3918 227.782 49.5342C227.705 49.6772 227.526 49.7296 227.383 49.6519C225.083 48.3996 220.215 50.4652 217.99 52.9745C216.242 54.9454 216.053 57.3147 215.87 59.6063C215.701 61.7207 215.541 63.7181 214.256 65.3947C212.282 67.9705 209.569 67.6816 206.949 67.4026C205.107 67.2061 203.203 67.0036 201.477 67.7422C200.579 68.1265 199.84 68.7727 199.45 69.5153C199.325 69.7537 199.243 69.9697 199.171 70.1597C199.04 70.5058 198.928 70.8041 198.625 70.9007C198.57 70.9189 198.51 70.9277 198.448 70.9277Z" fill="#E94A47"/>
<path d="M217.357 64.3619C219.162 63.3208 218.807 61.2435 223.454 62.1739C225.2 62.5234 231.851 65.7437 237.141 64.938C237.141 64.938 234.841 73.3452 239.819 71.7128C236.697 75.9705 227.589 76.4425 221.843 73.3447C220.348 72.5384 217.127 67.8169 217.357 64.3619Z" fill="#23286B"/>
<path d="M242.682 112.804C242.67 112.804 242.658 112.804 242.646 112.803C242.485 112.783 242.37 112.637 242.389 112.475C242.845 108.693 243.587 105.18 244.305 101.784C245.836 94.5317 247.283 87.6822 245.616 79.6363C245.583 79.4768 245.685 79.3214 245.844 79.2885C245.999 79.2561 246.159 79.3573 246.192 79.5168C247.884 87.6834 246.424 94.5917 244.88 101.906C244.166 105.29 243.426 108.79 242.973 112.545C242.955 112.695 242.828 112.804 242.682 112.804Z" fill="#23286B"/>
<path d="M266.474 215.932L265.187 216.125C255.063 217.643 245.626 210.657 244.109 200.519L238.762 164.777L276.714 159.085L282.061 194.828C283.577 204.965 276.599 214.414 266.474 215.932Z" fill="#1D72D8"/>
<path d="M240.692 165.558C239.684 165.558 239.059 165.438 238.714 164.826C233.713 155.958 213.575 103.814 211.089 93.2952C210.939 92.6608 210.464 91.0219 210.353 90.7535L212.523 89.8461C212.722 90.3233 213.23 92.1335 213.377 92.7532C215.802 103.016 235.166 153.225 240.511 163.211C244.629 163.444 270.034 160.23 275.289 158.85L276.301 158.345C279.469 156.764 282.639 144.751 282.916 136.391L285.266 136.469C285.03 143.567 282.335 157.224 277.765 160.213C277.313 160.841 275.576 161.601 261.736 163.444C253.215 164.578 244.865 165.442 241.431 165.544C241.164 165.552 240.918 165.558 240.692 165.558Z" fill="#4189DE"/>
<path d="M275.312 84.8232C284.604 90.8306 293.861 94.0961 303.625 98.215C312.065 101.775 322.872 115.754 314.875 125.078C305.426 136.095 296.446 115.986 294.031 109.304C290.899 100.644 285.595 93.0139 277.856 87.5233C276.534 86.6064 275.884 85.8125 275.312 84.8232Z" fill="#E94A47"/>
<path d="M288.311 270.691C281.132 270.691 272.219 268.113 268.735 260.876C263.267 249.519 271.563 231.897 276.02 222.431C281.6 210.581 288.639 197.588 298.548 191.062L298.838 190.872L298.978 191.189C299.395 192.133 299.656 193.384 299.909 194.594C300.155 195.774 300.388 196.889 300.741 197.639C301.492 199.235 302.13 200.805 302.807 202.467L303.276 203.617C303.632 204.488 303.994 205.351 304.354 206.213C305.842 209.771 307.38 213.45 308.464 217.31C310.677 225.19 311.953 235.07 311.966 244.418C311.984 257.964 305.94 267.238 295.384 269.864C293.208 270.405 290.762 270.691 288.311 270.691ZM298.574 191.753C288.942 198.263 282.04 211.026 276.552 222.682C272.136 232.06 263.918 249.516 269.264 260.621C272.63 267.612 281.31 270.103 288.311 270.103C288.312 270.103 288.311 270.103 288.311 270.103C290.715 270.103 293.112 269.823 295.243 269.293C309.831 265.663 311.387 250.689 311.378 244.418C311.366 235.122 310.097 225.299 307.898 217.469C306.824 213.643 305.361 210.144 303.811 206.439C303.451 205.577 303.089 204.712 302.732 203.84L302.262 202.689C301.589 201.034 300.954 199.471 300.21 197.889C299.827 197.077 299.588 195.929 299.334 194.714C299.117 193.673 298.893 192.601 298.574 191.753Z" fill="#23286B"/>
<path d="M267.504 253.357L267.141 252.895C269.433 251.09 271.497 247.471 271.94 244.477C272.223 242.564 271.812 240.649 271.414 238.797C271.095 237.304 270.792 235.894 270.822 234.484L271.41 234.497C271.381 235.838 271.677 237.216 271.989 238.673C272.397 240.576 272.819 242.546 272.521 244.563C272.059 247.69 269.902 251.47 267.504 253.357Z" fill="#23286B"/>
<path d="M271.88 264.496L271.377 264.193C276.279 256.017 276.127 255.624 275.136 253.066C274.933 252.541 274.702 251.944 274.467 251.179C274.096 249.966 273.728 248.981 273.403 248.111C272.072 244.549 271.575 243.216 275.771 238.717C279.677 234.53 279.389 230.448 279.056 225.722C278.803 222.139 278.542 218.435 280.104 214.28L280.654 214.487C279.138 218.522 279.394 222.161 279.642 225.68C279.971 230.342 280.281 234.745 276.201 239.119C272.253 243.351 272.647 244.407 273.954 247.906C274.282 248.784 274.652 249.778 275.029 251.007C275.258 251.752 275.484 252.338 275.684 252.854C276.74 255.582 276.931 256.074 271.88 264.496Z" fill="#23286B"/>
<path d="M279.117 268.814L278.541 268.693C279.185 265.633 278.189 263.372 277.227 261.185C275.98 258.353 274.802 255.677 277.64 251.893C281.926 246.177 281.068 244.588 279.88 242.389C279.188 241.108 278.403 239.655 278.37 237.192C278.323 233.808 280.227 230.564 282.068 227.427C283.319 225.295 284.5 223.282 285.106 221.245C286.784 215.601 287.334 211.657 285.915 204.509L286.491 204.394C287.935 211.664 287.376 215.675 285.669 221.413C285.043 223.519 283.788 225.658 282.575 227.725C280.774 230.793 278.913 233.966 278.957 237.185C278.989 239.504 279.737 240.888 280.397 242.11C281.64 244.411 282.622 246.229 278.109 252.247C275.479 255.755 276.538 258.162 277.765 260.949C278.718 263.113 279.799 265.569 279.117 268.814Z" fill="#23286B"/>
<path d="M281.829 269.833C280.681 267.004 282.206 265.173 283.679 263.403C284.52 262.393 285.388 261.349 285.722 260.136C286.515 257.247 285.633 256.08 284.412 254.466C283.79 253.645 283.087 252.715 282.515 251.419C280.74 247.391 281.024 246.912 282.87 243.793C283.067 243.461 283.282 243.098 283.515 242.696L283.685 242.404C286.059 238.312 286.859 236.934 285.903 232.025C284.299 223.791 284.538 220.918 290.46 213.725C292.912 210.746 292.202 207.921 291.451 204.928C290.739 202.093 290.003 199.161 292.358 196.291L292.813 196.665C290.645 199.305 291.313 201.967 292.021 204.785C292.775 207.787 293.554 210.892 290.913 214.099C285.15 221.099 284.918 223.896 286.48 231.913C287.477 237.038 286.583 238.58 284.192 242.699L284.023 242.992C283.789 243.396 283.572 243.76 283.375 244.094C281.585 247.115 281.399 247.431 283.051 251.182C283.595 252.415 284.277 253.316 284.878 254.112C286.101 255.728 287.157 257.124 286.287 260.292C285.92 261.629 285.009 262.723 284.128 263.781C282.703 265.493 281.356 267.111 282.371 269.613L281.829 269.833Z" fill="#23286B"/>
<path d="M292.074 270.467L291.486 270.445C291.568 268.252 290.426 266.679 289.218 265.013C288.335 263.795 287.421 262.536 286.941 260.967C285.913 257.611 286.421 256.704 287.263 255.201C287.697 254.425 288.238 253.46 288.705 251.851C289.556 248.917 288.984 247.729 288.117 245.931C287.697 245.057 287.22 244.067 286.818 242.696C285.378 237.777 286.667 236.439 289.237 233.774C289.616 233.38 290.027 232.954 290.465 232.481C294.732 227.862 293.767 225.74 292.431 222.803C291.538 220.839 290.526 218.612 290.895 215.2C291.235 212.067 293.05 210.497 294.805 208.98C297.834 206.36 300.696 203.886 296.06 193.429L296.598 193.19C301.41 204.046 298.248 206.78 295.189 209.425C293.443 210.935 291.795 212.361 291.48 215.263C291.128 218.515 292.104 220.664 292.966 222.56C294.288 225.465 295.428 227.974 290.897 232.88C290.456 233.357 290.042 233.786 289.66 234.182C287.098 236.84 286.038 237.939 287.382 242.53C287.77 243.855 288.236 244.822 288.647 245.675C289.539 247.527 290.183 248.864 289.27 252.015C288.784 253.689 288.225 254.687 287.775 255.489C286.984 256.901 286.548 257.68 287.503 260.795C287.954 262.269 288.838 263.488 289.695 264.668C290.907 266.34 292.162 268.07 292.074 270.467Z" fill="#23286B"/>
<path d="M292.709 270.273L292.182 270.013C292.461 269.444 292.855 268.732 293.311 267.907C294.681 265.429 296.556 262.034 296.558 260.148C296.561 257.227 294.941 256.193 293.227 255.099C291.895 254.249 290.519 253.37 290.006 251.574C289.129 248.508 290.753 247.625 292.474 246.689C293.506 246.128 294.573 245.547 295.328 244.449C297.378 241.469 297.185 239.923 295.563 236.793L295.179 236.057C293.273 232.428 291.767 229.56 295.541 224.774C296.361 223.734 297.178 223.096 297.9 222.533C299.198 221.52 300.137 220.788 300.331 218.325C300.532 215.758 299.827 213.38 299.145 211.08C297.944 207.03 296.907 203.532 301.727 200.98L302.001 201.5C297.607 203.828 298.536 206.955 299.709 210.913C300.374 213.154 301.127 215.695 300.917 218.372C300.703 221.093 299.572 221.976 298.261 222.998C297.566 223.54 296.779 224.155 296.003 225.138C292.465 229.626 293.822 232.209 295.699 235.784L296.084 236.522C297.8 239.832 298.017 241.578 295.812 244.784C294.977 245.998 293.796 246.64 292.754 247.206C291.052 248.132 289.823 248.8 290.57 251.412C291.023 252.994 292.247 253.776 293.543 254.603C295.316 255.734 297.149 256.904 297.146 260.149C297.144 262.186 295.304 265.516 293.826 268.192C293.373 269.01 292.982 269.716 292.709 270.273Z" fill="#23286B"/>
<path d="M301.267 267.183C300.94 266.74 300.565 266.273 300.174 265.787C298.425 263.612 296.442 261.147 296.75 258.53C296.929 257.008 298.056 255.939 299.146 254.906C300.242 253.866 301.278 252.884 301.426 251.487C301.703 248.866 300.387 247.301 299.114 245.786C297.433 243.785 295.844 241.895 298.367 238.076C299.489 236.377 300.47 235.244 301.258 234.333C303.323 231.946 304.018 231.141 302.522 225.333C302.284 224.405 301.849 223.667 301.427 222.954C300.677 221.682 299.967 220.48 300.567 218.538C300.918 217.405 301.828 216.315 302.79 215.162C303.993 213.72 305.237 212.229 305.423 210.591L306.007 210.657C305.802 212.471 304.5 214.031 303.241 215.539C302.317 216.646 301.444 217.692 301.129 218.712C300.606 220.405 301.221 221.447 301.934 222.655C302.376 223.404 302.832 224.178 303.092 225.186C304.664 231.294 303.858 232.226 301.703 234.718C300.925 235.616 299.959 236.734 298.857 238.401C296.576 241.852 297.895 243.421 299.565 245.407C300.853 246.94 302.314 248.679 302.01 251.549C301.839 253.162 300.676 254.265 299.55 255.333C298.489 256.339 297.487 257.289 297.333 258.599C297.055 260.97 298.956 263.333 300.632 265.418C301.028 265.911 301.409 266.384 301.74 266.833L301.267 267.183Z" fill="#23286B"/>
<path d="M304.819 264.628L304.266 264.428C306.37 258.593 304.789 256.999 303.261 255.458C302.4 254.591 301.51 253.694 301.359 252.107C301.162 250.041 302.425 248.417 303.763 246.697C304.929 245.198 306.135 243.648 306.41 241.715C306.766 239.212 305.823 237.128 304.825 234.921C303.97 233.029 303.084 231.072 303.132 228.865C303.186 226.396 304.362 224.634 305.5 222.93C306.702 221.13 307.838 219.429 307.693 216.96L308.279 216.925C308.436 219.591 307.191 221.455 305.988 223.257C304.847 224.966 303.77 226.58 303.72 228.878C303.675 230.951 304.493 232.761 305.36 234.678C306.35 236.864 307.372 239.125 306.992 241.798C306.695 243.886 305.44 245.499 304.227 247.059C302.964 248.683 301.77 250.218 301.945 252.051C302.076 253.429 302.854 254.213 303.677 255.043C305.257 256.637 307.048 258.442 304.819 264.628Z" fill="#23286B"/>
<path d="M310.816 254.293L310.241 254.17C310.76 251.733 309.592 249.407 308.463 247.157C307.397 245.034 306.295 242.839 306.561 240.508C306.813 238.312 307.627 236.519 308.415 234.784C309.573 232.237 310.666 229.831 309.914 226.361L310.488 226.237C311.282 229.896 310.097 232.505 308.951 235.028C308.181 236.721 307.386 238.471 307.146 240.575C306.899 242.731 307.914 244.752 308.989 246.892C310.164 249.233 311.379 251.654 310.816 254.293Z" fill="#23286B"/>
<path d="M238.973 72.7061L238.8 72.5808C238.576 72.4178 238.498 72.1612 238.586 71.8769L238.948 71.9882C239.692 71.3532 240.082 70.238 240.46 69.1569C240.613 68.7191 240.758 68.306 240.924 67.9281L241.032 67.6857C241.622 66.3569 242.356 64.7026 242.142 63.2537C242.031 62.5069 241.824 62.0614 241.542 61.9643C241.007 61.7837 239.982 62.7576 239.644 63.0784C239.485 63.2296 239.33 63.3803 239.178 63.528C238.137 64.539 237.153 65.4941 235.609 65.9131L235.455 65.3452C236.853 64.9657 237.741 64.1041 238.769 63.1054C238.923 62.9565 239.078 62.8047 239.239 62.6517C240.083 61.849 240.972 61.1434 241.735 61.4082C242.251 61.5865 242.574 62.1621 242.723 63.1678C242.963 64.7856 242.19 66.5264 241.569 67.9252L241.462 68.1665C241.305 68.5225 241.164 68.9256 241.014 69.3517C240.603 70.5299 240.136 71.8652 239.145 72.5814L238.973 72.7061Z" fill="#23286B"/>
<path d="M238.732 63.9134C239.069 62.6252 239.227 61.2275 239.79 59.9975C240.475 58.5016 242.392 58.7452 242.892 60.6767C243.377 62.5463 241.857 66.5498 240.247 67.9322C239.98 66.9418 238.497 64.8108 238.732 63.9134Z" fill="#FFBEB6"/>
<path d="M260.64 88.2806C277.072 91.2119 281.602 117.532 288.504 128.84C292.945 136.118 299.794 141.614 303.786 149.027C307.55 156.016 309.162 163.196 310.715 170.563C306.327 170.923 302.601 170.903 298.39 173.868C296.523 170.277 292.791 167.659 290.601 164.005C288.387 160.309 288.303 155.834 287.4 151.779C285.83 144.719 282.909 138.36 279.07 132.062C271.389 119.462 255.312 103.058 260.64 88.2806Z" fill="url(#paint24_linear)"/>
<path d="M277.45 162.932C277.142 162.932 276.841 162.769 276.68 162.479C275.469 160.307 274.196 157.765 273.693 156.724L273.041 155.517C267.296 144.866 261.869 134.805 258.705 122.549C256.258 113.07 257.71 87.0819 263.512 77.194C263.76 76.7732 264.301 76.6344 264.719 76.8798C265.139 77.1269 265.279 77.6678 265.032 78.0879C259.886 86.8589 257.853 112.196 260.412 122.107C263.523 134.156 268.9 144.124 274.593 154.678L275.263 155.92C275.776 156.979 277.029 159.482 278.22 161.619C278.457 162.045 278.305 162.582 277.88 162.82C277.744 162.896 277.596 162.932 277.45 162.932Z" fill="#D62929"/>
<path d="M267.664 214.401L266.377 214.594C256.252 216.112 246.815 209.126 245.299 198.989L239.952 163.246L277.904 157.555L283.251 193.297C284.767 203.434 277.788 212.883 267.664 214.401Z" fill="#4189DE"/>
<path d="M271.704 203.404L263.84 204.181C262.439 204.319 261.191 203.295 261.053 201.892C260.915 200.489 261.938 199.24 263.339 199.101L271.203 198.324C272.604 198.185 273.852 199.21 273.991 200.613C274.129 202.016 273.105 203.265 271.704 203.404Z" fill="#E94A47"/>
<path d="M137.433 189.157L117.359 162.973L91.2065 183.071L111.28 209.255L137.433 189.157Z" fill="#E94A47"/>
<path d="M149.794 188.251L129.72 162.068L117.365 162.97L137.438 189.153L149.794 188.251Z" fill="#EB5754"/>
<path d="M111.286 209.25L123.689 208.333L149.841 188.236L137.438 189.153L111.286 209.25Z" fill="#D62929"/>
<path d="M187.982 191.435C187.359 191.435 186.853 190.928 186.853 190.306C186.853 189.682 187.359 189.176 187.982 189.176C188.604 189.176 189.11 189.683 189.11 190.306C189.11 190.928 188.604 191.435 187.982 191.435ZM187.982 189.765C187.684 189.765 187.441 190.008 187.441 190.306C187.441 190.604 187.684 190.846 187.982 190.846C188.28 190.846 188.522 190.604 188.522 190.306C188.522 190.007 188.28 189.765 187.982 189.765Z" fill="white"/>
<path d="M178.745 192.698C178.122 192.698 177.616 192.191 177.616 191.568C177.616 190.945 178.122 190.439 178.745 190.439C179.367 190.439 179.873 190.946 179.873 191.568C179.873 192.191 179.367 192.698 178.745 192.698ZM178.745 191.028C178.447 191.028 178.204 191.271 178.204 191.568C178.204 191.866 178.447 192.109 178.745 192.109C179.043 192.109 179.285 191.867 179.285 191.568C179.285 191.27 179.043 191.028 178.745 191.028Z" fill="white"/>
<path d="M187.884 190.421C187.778 190.421 187.676 190.364 187.624 190.263C185.169 185.576 181.249 183.126 177.1 180.532C174.538 178.931 171.89 177.276 169.647 175.053C169.532 174.939 169.53 174.752 169.644 174.637C169.758 174.521 169.944 174.52 170.06 174.634C172.256 176.811 174.876 178.449 177.411 180.032C181.444 182.553 185.616 185.16 188.144 189.989C188.22 190.134 188.164 190.311 188.021 190.387C187.976 190.41 187.93 190.421 187.884 190.421Z" fill="#428DFC"/>
<path d="M178.731 191.679C178.651 191.679 178.571 191.646 178.512 191.581C178.153 191.181 177.412 190.426 176.474 189.472C174.351 187.31 171.443 184.349 169.909 182.397C168.815 181.004 163.368 172.821 165.588 170.102C165.691 169.976 165.876 169.958 166.001 170.06C166.127 170.163 166.145 170.348 166.043 170.474C164.34 172.56 168.449 179.588 170.37 182.034C171.885 183.96 174.779 186.908 176.893 189.059C177.835 190.019 178.581 190.777 178.949 191.189C179.058 191.31 179.047 191.495 178.927 191.604C178.871 191.654 178.801 191.679 178.731 191.679Z" fill="#428DFC"/>
<path d="M101.92 198.825C101.801 198.825 101.688 198.751 101.644 198.632C99.677 193.304 108.682 186.752 114.063 182.837C115.129 182.061 116.05 181.39 116.689 180.872C122.603 176.065 126.768 173.22 134.081 174.629C133.445 172.292 133.021 166.358 134.994 164.309C135.697 163.58 136.614 163.404 137.72 163.785C138.495 164.052 139.005 164.522 139.235 165.183C139.938 167.206 137.8 170.553 136.237 172.997C136.132 173.161 136.029 173.322 135.931 173.477C136.85 172.922 138.024 172.538 139.242 172.342C147.303 169.065 160.326 167.518 166.599 170.421C166.747 170.49 166.81 170.665 166.743 170.812C166.674 170.96 166.501 171.025 166.352 170.956C160.641 168.313 149.213 169.439 141.275 172.193C142.272 172.208 143.219 172.358 143.995 172.652C145.707 173.302 146.467 174.568 146.133 176.217C145.959 177.072 145.483 177.749 144.717 178.231C143.264 179.145 141.222 179.081 139.913 178.747C138.258 178.326 137.57 177.597 136.904 176.893C136.344 176.301 135.815 175.741 134.686 175.369L134.453 175.305C127.086 173.724 122.969 176.525 117.06 181.329C116.41 181.858 115.483 182.533 114.409 183.314C109.163 187.131 100.383 193.519 102.196 198.428C102.253 198.581 102.175 198.75 102.023 198.806C101.988 198.819 101.953 198.825 101.92 198.825ZM135.388 175.008C136.317 175.416 136.831 175.96 137.331 176.488C137.967 177.161 138.567 177.798 140.058 178.177C141.348 178.505 143.19 178.496 144.404 177.733C145.029 177.341 145.417 176.791 145.557 176.1C145.903 174.393 144.785 173.583 143.786 173.204C142.523 172.725 140.851 172.678 139.285 172.95C137.772 173.579 136.445 174.272 135.388 175.008ZM136.658 164.18C136.173 164.18 135.763 164.359 135.416 164.718C133.655 166.548 134.073 172.316 134.647 174.468C134.901 173.996 135.286 173.393 135.741 172.681C137.154 170.47 139.288 167.13 138.679 165.377C138.509 164.888 138.132 164.55 137.528 164.342C137.215 164.233 136.926 164.18 136.658 164.18Z" fill="#A1C3FC"/>
<path d="M328.711 175.732L322.378 187.9L388.297 241.646L398.617 205.287L328.711 175.732ZM328.754 187.796C328.294 187.796 327.92 187.422 327.92 186.961C327.92 186.5 328.294 186.126 328.754 186.126C329.215 186.126 329.588 186.5 329.588 186.961C329.588 187.422 329.215 187.796 328.754 187.796ZM330.702 182.367C330.241 182.367 329.868 181.993 329.868 181.532C329.868 181.07 330.241 180.697 330.702 180.697C331.163 180.697 331.536 181.07 331.536 181.532C331.536 181.993 331.163 182.367 330.702 182.367Z" fill="#E94A47"/>
<path d="M330.702 182.661C330.08 182.661 329.574 182.154 329.574 181.532C329.574 180.908 330.08 180.402 330.702 180.402C331.325 180.402 331.83 180.909 331.83 181.532C331.83 182.155 331.325 182.661 330.702 182.661ZM330.702 180.991C330.404 180.991 330.162 181.234 330.162 181.532C330.162 181.829 330.404 182.072 330.702 182.072C331 182.072 331.242 181.83 331.242 181.532C331.242 181.233 331 180.991 330.702 180.991Z" fill="white"/>
<path d="M328.754 188.09C328.132 188.09 327.626 187.584 327.626 186.961C327.626 186.338 328.132 185.832 328.754 185.832C329.377 185.832 329.882 186.338 329.882 186.961C329.882 187.584 329.377 188.09 328.754 188.09ZM328.754 186.42C328.456 186.42 328.214 186.663 328.214 186.961C328.214 187.258 328.456 187.501 328.754 187.501C329.052 187.501 329.295 187.259 329.295 186.961C329.295 186.662 329.052 186.42 328.754 186.42Z" fill="white"/>
<path d="M330.628 181.705C330.549 181.705 330.471 181.674 330.414 181.612C327.255 178.247 319.928 177.061 314.579 176.195C313.334 175.993 312.158 175.803 311.148 175.605C310.988 175.574 310.884 175.419 310.916 175.259C310.946 175.1 311.104 174.995 311.26 175.027C312.261 175.223 313.432 175.413 314.672 175.613C320.106 176.493 327.546 177.698 330.842 181.209C330.953 181.327 330.948 181.514 330.83 181.625C330.773 181.679 330.701 181.705 330.628 181.705Z" fill="#D6D7D8"/>
<path d="M328.891 187.292C328.838 187.292 328.785 187.278 328.737 187.249C325.501 185.261 320.917 185.662 316.875 186.017C315.868 186.105 314.918 186.188 314.013 186.234C313.659 186.251 313.294 186.272 312.922 186.293C310.611 186.421 307.991 186.567 305.797 186.231C304.296 186 300.109 183.753 299.857 181.787C299.787 181.236 299.981 180.459 301.308 179.885C301.456 179.821 301.629 179.889 301.694 180.039C301.758 180.188 301.69 180.361 301.54 180.425C300.342 180.944 300.416 181.522 300.441 181.712C300.644 183.302 304.552 185.444 305.887 185.649C308.019 185.978 310.607 185.833 312.89 185.705C313.264 185.685 313.629 185.664 313.984 185.646C314.878 185.601 315.824 185.518 316.824 185.43C320.958 185.068 325.643 184.657 329.045 186.747C329.183 186.832 329.226 187.013 329.141 187.152C329.086 187.242 328.989 187.292 328.891 187.292Z" fill="#D6D7D8"/>
<path d="M218.074 112.615C218.054 112.615 218.033 112.613 218.013 112.608C217.854 112.574 217.753 112.418 217.786 112.259C218.375 109.49 218.398 106.69 218.422 103.726C218.474 97.3887 218.533 90.2068 224.603 81.899C224.699 81.7678 224.884 81.7395 225.014 81.8354C225.145 81.9314 225.173 82.1155 225.077 82.2468C219.118 90.4015 219.063 97.1781 219.01 103.731C218.985 106.726 218.962 109.555 218.361 112.382C218.332 112.52 218.21 112.615 218.074 112.615Z" fill="#23286B"/>
<path d="M243.136 111.909H217.769V137.957H243.136V111.909Z" fill="#23286B"/>
<path d="M244.218 118.171H241.216L242.164 112H243.27L244.218 118.171Z" fill="#E94A47"/>
<path d="M208.578 167.623C208.617 167.656 208.674 167.65 208.707 167.612C208.739 167.574 208.734 167.516 208.695 167.484C208.657 167.451 208.6 167.457 208.567 167.495C208.535 167.533 208.54 167.59 208.578 167.623ZM217.502 170.314C217.506 170.365 217.551 170.403 217.602 170.399C217.649 170.397 217.685 170.357 217.683 170.31C217.683 170.306 217.682 170.302 217.682 170.298C217.679 170.249 217.637 170.212 217.588 170.214C217.536 170.218 217.498 170.263 217.502 170.314ZM213.07 168.66C213.059 168.71 213.086 168.761 213.134 168.778C213.184 168.793 213.237 168.765 213.251 168.714C213.266 168.664 213.238 168.611 213.188 168.597C213.138 168.586 213.087 168.612 213.07 168.66ZM205.858 178.431C205.825 178.522 205.871 178.622 205.962 178.656C206.047 178.693 206.146 178.653 206.182 178.568C206.183 178.564 206.184 178.563 206.186 178.559C206.218 178.469 206.173 178.369 206.082 178.334C205.994 178.299 205.893 178.343 205.858 178.431ZM207.362 174.489C207.33 174.581 207.377 174.681 207.469 174.713C207.558 174.745 207.657 174.7 207.691 174.611C207.726 174.522 207.683 174.422 207.594 174.387C207.501 174.356 207.401 174.4 207.362 174.489ZM208.873 170.542C208.838 170.631 208.882 170.73 208.971 170.765C208.972 170.765 208.974 170.766 208.976 170.766C209.061 170.803 209.16 170.763 209.196 170.678C209.197 170.675 209.199 170.673 209.2 170.669C209.231 170.577 209.186 170.477 209.097 170.437C209.008 170.406 208.908 170.452 208.873 170.542ZM199.388 172.145C199.459 172.209 199.569 172.202 199.632 172.13C199.696 172.059 199.689 171.949 199.617 171.886C199.547 171.824 199.44 171.829 199.376 171.897C199.313 171.969 199.317 172.079 199.388 172.145ZM202.288 169.077C202.359 169.141 202.469 169.134 202.532 169.063C202.596 168.991 202.589 168.881 202.517 168.818C202.447 168.756 202.34 168.761 202.276 168.83C202.213 168.9 202.218 169.011 202.288 169.077ZM214.361 177.924C214.366 178.021 214.446 178.095 214.543 178.092C214.638 178.091 214.712 178.012 214.71 177.918C214.71 177.918 214.71 177.917 214.71 177.917C214.714 177.824 214.641 177.746 214.549 177.744C214.545 177.744 214.54 177.744 214.536 177.743C214.439 177.749 214.363 177.827 214.361 177.924ZM214.248 173.699C214.254 173.796 214.332 173.872 214.428 173.874C214.525 173.869 214.599 173.788 214.596 173.692C214.593 173.596 214.513 173.52 214.418 173.523C214.416 173.523 214.415 173.523 214.415 173.523C214.321 173.525 214.246 173.603 214.248 173.696C214.248 173.698 214.248 173.699 214.248 173.699ZM214.134 169.482C214.134 169.574 214.208 169.649 214.301 169.648C214.303 169.648 214.306 169.648 214.309 169.648C214.404 169.648 214.482 169.571 214.483 169.476C214.483 169.473 214.483 169.47 214.483 169.467C214.48 169.37 214.399 169.295 214.303 169.298C214.207 169.302 214.13 169.383 214.134 169.479C214.134 169.48 214.134 169.481 214.134 169.482ZM196.459 169.219C196.515 169.283 196.613 169.29 196.678 169.235C196.743 169.18 196.75 169.081 196.694 169.016C196.638 168.951 196.54 168.944 196.475 169C196.412 169.056 196.405 169.153 196.459 169.219ZM210.616 176.158C210.614 176.246 210.679 176.319 210.767 176.328C210.85 176.334 210.922 176.272 210.928 176.189C210.928 176.187 210.928 176.185 210.928 176.182C210.935 176.097 210.872 176.022 210.787 176.015C210.786 176.015 210.786 176.015 210.784 176.015C210.7 176.011 210.626 176.073 210.616 176.158ZM210.877 172.404C210.873 172.489 210.938 172.561 211.022 172.567C211.105 172.573 211.177 172.511 211.183 172.428C211.183 172.426 211.183 172.424 211.183 172.421C211.191 172.336 211.127 172.261 211.042 172.252C211.041 172.252 211.041 172.252 211.04 172.252C210.954 172.251 210.882 172.318 210.877 172.404ZM211.134 168.637C211.126 168.722 211.189 168.798 211.274 168.806H211.277C211.358 168.815 211.429 168.756 211.438 168.675C211.439 168.671 211.439 168.665 211.439 168.66C211.446 168.575 211.383 168.499 211.298 168.492C211.297 168.492 211.296 168.492 211.295 168.492C211.212 168.489 211.141 168.554 211.134 168.637ZM203.391 172.162C203.355 172.24 203.388 172.332 203.465 172.369C203.542 172.408 203.633 172.377 203.672 172.301C203.709 172.223 203.679 172.13 203.605 172.088C203.525 172.05 203.431 172.083 203.391 172.162ZM205.071 168.785C205.032 168.858 205.059 168.949 205.13 168.988C205.133 168.989 205.136 168.99 205.139 168.992C205.215 169.03 205.307 169 205.345 168.924C205.382 168.846 205.353 168.753 205.278 168.711C205.2 168.675 205.108 168.708 205.071 168.785ZM217.754 173.385C217.778 173.462 217.86 173.506 217.938 173.482C217.941 173.48 217.944 173.48 217.947 173.479C218.028 173.453 218.074 173.367 218.05 173.285C218.049 173.283 218.048 173.282 218.048 173.28C218.017 173.2 217.93 173.158 217.848 173.185C217.768 173.212 217.724 173.298 217.751 173.378C217.752 173.38 217.753 173.382 217.754 173.385ZM216.552 169.809C216.581 169.891 216.668 169.936 216.751 169.91C216.833 169.88 216.875 169.79 216.845 169.708C216.817 169.63 216.733 169.588 216.653 169.611C216.572 169.634 216.525 169.72 216.549 169.801C216.55 169.803 216.551 169.807 216.552 169.809ZM195.224 173.026C195.185 173.117 195.223 173.223 195.312 173.267C195.401 173.311 195.508 173.275 195.552 173.186C195.592 173.094 195.554 172.987 195.464 172.944C195.375 172.901 195.267 172.937 195.224 173.026ZM197.122 169.109C197.078 169.197 197.115 169.305 197.204 169.349C197.292 169.392 197.4 169.356 197.443 169.267C197.487 169.178 197.45 169.07 197.362 169.027C197.273 168.983 197.165 169.02 197.122 169.109ZM213.487 174.23C213.523 174.324 213.626 174.374 213.722 174.343C213.816 174.307 213.862 174.201 213.826 174.108C213.792 174.017 213.692 173.971 213.6 174.001C213.507 174.035 213.458 174.136 213.487 174.23ZM212.061 170.119C212.095 170.211 212.196 170.261 212.29 170.231C212.384 170.199 212.434 170.097 212.402 170.002C212.37 169.908 212.267 169.858 212.173 169.89C212.081 169.924 212.031 170.025 212.061 170.119ZM204.05 173.386C204.049 173.485 204.124 173.568 204.221 173.579C204.32 173.581 204.402 173.504 204.407 173.406C204.415 173.309 204.342 173.223 204.245 173.215C204.245 173.215 204.242 173.215 204.241 173.215C204.141 173.209 204.055 173.285 204.05 173.386ZM204.304 169.037C204.298 169.138 204.375 169.223 204.475 169.229H204.476C204.572 169.234 204.656 169.16 204.66 169.063C204.666 168.964 204.591 168.879 204.493 168.873C204.396 168.866 204.312 168.94 204.304 169.037ZM201.122 173.958C201.115 174.056 201.189 174.142 201.288 174.149C201.387 174.156 201.471 174.082 201.479 173.983C201.485 173.888 201.416 173.804 201.32 173.793C201.219 173.785 201.132 173.858 201.122 173.958ZM201.554 169.643C201.546 169.743 201.62 169.831 201.719 169.84C201.816 169.848 201.901 169.777 201.915 169.682C201.922 169.581 201.85 169.493 201.751 169.479C201.652 169.472 201.566 169.545 201.554 169.643ZM209.667 170.953C209.698 171.048 209.799 171.101 209.895 171.071C209.988 171.042 210.041 170.943 210.011 170.849C209.987 170.756 209.892 170.699 209.799 170.723C209.796 170.724 209.793 170.725 209.792 170.726C209.695 170.752 209.639 170.851 209.666 170.948C209.666 170.949 209.666 170.951 209.667 170.953Z" fill="white"/>
<path d="M31.0769 106.001C46.4456 106.001 58.9044 93.5085 58.9044 78.098C58.9044 62.6874 46.4456 50.1947 31.0769 50.1947C15.7082 50.1947 3.24939 62.6874 3.24939 78.098C3.24939 93.5085 15.7082 106.001 31.0769 106.001Z" fill="url(#paint25_linear)"/>
<path opacity="0.62" d="M51.5648 63.6372H-6.03223V67.5583H51.5648V63.6372Z" fill="url(#paint26_linear)"/>
<path opacity="0.62" d="M64.9618 92.5051H14.8385V93.9789H64.9618V92.5051Z" fill="url(#paint27_linear)"/>
<path opacity="0.62" d="M62.9041 85.4133H9.68958V92.0319H62.9041V85.4133Z" fill="url(#paint28_linear)"/>
<path opacity="0.62" d="M34.7558 71.774H6.66113V75.6952H34.7558V71.774Z" fill="url(#paint29_linear)"/>
<path d="M58.6105 58.3584H0.977905V59.5194H58.6105V58.3584Z" fill="#FFB300"/>
<path d="M37.7665 80.7776H-9.80029V81.9386H37.7665V80.7776Z" fill="#FFB300"/>
<path d="M83.7302 84.7075H26.1868V85.8685H83.7302V84.7075Z" fill="#FFB300"/>
<defs>
<linearGradient id="paint0_linear" x1="176.084" y1="193.929" x2="191.076" y2="193.632" gradientUnits="userSpaceOnUse">
<stop stop-color="#23286B"/>
<stop offset="1" stop-color="#151A4F"/>
</linearGradient>
<linearGradient id="paint1_linear" x1="306.012" y1="218.352" x2="312.29" y2="218.352" gradientUnits="userSpaceOnUse">
<stop stop-color="#EEEEEE"/>
<stop offset="1" stop-color="#D6D7D8"/>
</linearGradient>
<linearGradient id="paint2_linear" x1="293.099" y1="232.138" x2="338.799" y2="232.138" gradientUnits="userSpaceOnUse">
<stop stop-color="#428DFC"/>
<stop offset="1" stop-color="#1D72D8"/>
</linearGradient>
<linearGradient id="paint3_linear" x1="258.377" y1="89.2351" x2="288.188" y2="89.2351" gradientUnits="userSpaceOnUse">
<stop stop-color="#EEEEEE"/>
<stop offset="1" stop-color="#D6D7D8"/>
</linearGradient>
<linearGradient id="paint4_linear" x1="287.34" y1="68.851" x2="270.881" y2="66.5026" gradientUnits="userSpaceOnUse">
<stop stop-color="#EEEEEE"/>
<stop offset="1" stop-color="#D6D7D8"/>
</linearGradient>
<linearGradient id="paint5_linear" x1="285.849" y1="79.3025" x2="269.39" y2="76.954" gradientUnits="userSpaceOnUse">
<stop stop-color="#EEEEEE"/>
<stop offset="1" stop-color="#D6D7D8"/>
</linearGradient>
<linearGradient id="paint6_linear" x1="284.358" y1="89.754" x2="267.899" y2="87.4056" gradientUnits="userSpaceOnUse">
<stop stop-color="#EEEEEE"/>
<stop offset="1" stop-color="#D6D7D8"/>
</linearGradient>
<linearGradient id="paint7_linear" x1="282.866" y1="100.206" x2="266.408" y2="97.8571" gradientUnits="userSpaceOnUse">
<stop stop-color="#EEEEEE"/>
<stop offset="1" stop-color="#D6D7D8"/>
</linearGradient>
<linearGradient id="paint8_linear" x1="281.375" y1="110.657" x2="264.916" y2="108.309" gradientUnits="userSpaceOnUse">
<stop stop-color="#EEEEEE"/>
<stop offset="1" stop-color="#D6D7D8"/>
</linearGradient>
<linearGradient id="paint9_linear" x1="278.118" y1="97.7575" x2="294.699" y2="102.242" gradientUnits="userSpaceOnUse">
<stop stop-color="#EEEEEE"/>
<stop offset="1" stop-color="#D6D7D8"/>
</linearGradient>
<linearGradient id="paint10_linear" x1="300.576" y1="81.1958" x2="282.228" y2="75.2622" gradientUnits="userSpaceOnUse">
<stop stop-color="#EEEEEE"/>
<stop offset="1" stop-color="#D6D7D8"/>
</linearGradient>
<linearGradient id="paint11_linear" x1="297.277" y1="91.3978" x2="278.929" y2="85.4642" gradientUnits="userSpaceOnUse">
<stop stop-color="#EEEEEE"/>
<stop offset="1" stop-color="#D6D7D8"/>
</linearGradient>
<linearGradient id="paint12_linear" x1="293.977" y1="101.6" x2="275.63" y2="95.6664" gradientUnits="userSpaceOnUse">
<stop stop-color="#EEEEEE"/>
<stop offset="1" stop-color="#D6D7D8"/>
</linearGradient>
<linearGradient id="paint13_linear" x1="290.678" y1="111.802" x2="272.33" y2="105.868" gradientUnits="userSpaceOnUse">
<stop stop-color="#EEEEEE"/>
<stop offset="1" stop-color="#D6D7D8"/>
</linearGradient>
<linearGradient id="paint14_linear" x1="287.378" y1="122.004" x2="269.031" y2="116.07" gradientUnits="userSpaceOnUse">
<stop stop-color="#EEEEEE"/>
<stop offset="1" stop-color="#D6D7D8"/>
</linearGradient>
<linearGradient id="paint15_linear" x1="112.084" y1="208.149" x2="170.208" y2="221.389" gradientUnits="userSpaceOnUse">
<stop stop-color="#428DFC"/>
<stop offset="1" stop-color="#1D72D8"/>
</linearGradient>
<linearGradient id="paint16_linear" x1="112.108" y1="208.04" x2="170.233" y2="221.28" gradientUnits="userSpaceOnUse">
<stop stop-color="#428DFC"/>
<stop offset="1" stop-color="#1D72D8"/>
</linearGradient>
<linearGradient id="paint17_linear" x1="202.492" y1="115.881" x2="182.607" y2="142.362" gradientUnits="userSpaceOnUse">
<stop stop-color="#A1C3FC"/>
<stop offset="1" stop-color="#89B3F4"/>
</linearGradient>
<linearGradient id="paint18_linear" x1="267.927" y1="253.399" x2="289.149" y2="255.556" gradientUnits="userSpaceOnUse">
<stop stop-color="#FBB03B"/>
<stop offset="1" stop-color="#F7931E"/>
</linearGradient>
<linearGradient id="paint19_linear" x1="293.7" y1="243.42" x2="311.113" y2="245.189" gradientUnits="userSpaceOnUse">
<stop stop-color="#FBB03B"/>
<stop offset="1" stop-color="#F7931E"/>
</linearGradient>
<linearGradient id="paint20_linear" x1="269.052" y1="239.615" x2="279.664" y2="240.693" gradientUnits="userSpaceOnUse">
<stop stop-color="#FBB03B"/>
<stop offset="1" stop-color="#F7931E"/>
</linearGradient>
<linearGradient id="paint21_linear" x1="279.884" y1="254.755" x2="305.732" y2="257.381" gradientUnits="userSpaceOnUse">
<stop stop-color="#EEEEEE"/>
<stop offset="1" stop-color="#D6D7D8"/>
</linearGradient>
<linearGradient id="paint22_linear" x1="192.936" y1="220.365" x2="243.398" y2="220.365" gradientUnits="userSpaceOnUse">
<stop stop-color="#23286B"/>
<stop offset="1" stop-color="#151A4F"/>
</linearGradient>
<linearGradient id="paint23_linear" x1="238.024" y1="138.484" x2="238.024" y2="165.27" gradientUnits="userSpaceOnUse">
<stop stop-color="#A1C3FC"/>
<stop offset="1" stop-color="#89B3F4"/>
</linearGradient>
<linearGradient id="paint24_linear" x1="259.578" y1="131.074" x2="310.715" y2="131.074" gradientUnits="userSpaceOnUse">
<stop stop-color="#A1C3FC"/>
<stop offset="1" stop-color="#89B3F4"/>
</linearGradient>
<linearGradient id="paint25_linear" x1="3.25034" y1="78.1019" x2="58.9027" y2="78.1019" gradientUnits="userSpaceOnUse">
<stop stop-color="#FBB03B"/>
<stop offset="1" stop-color="#FFCA28"/>
</linearGradient>
<linearGradient id="paint26_linear" x1="-6.03095" y1="65.6023" x2="51.5632" y2="65.6023" gradientUnits="userSpaceOnUse">
<stop stop-color="#FBB03B"/>
<stop offset="1" stop-color="white"/>
</linearGradient>
<linearGradient id="paint27_linear" x1="14.8387" y1="93.2452" x2="64.9597" y2="93.2452" gradientUnits="userSpaceOnUse">
<stop stop-color="#FBB03B"/>
<stop offset="1" stop-color="white"/>
</linearGradient>
<linearGradient id="paint28_linear" x1="62.9008" y1="88.7443" x2="9.68904" y2="88.7443" gradientUnits="userSpaceOnUse">
<stop stop-color="#FBB03B"/>
<stop offset="1" stop-color="white"/>
</linearGradient>
<linearGradient id="paint29_linear" x1="6.66187" y1="73.7389" x2="34.7553" y2="73.7389" gradientUnits="userSpaceOnUse">
<stop stop-color="#FBB03B"/>
<stop offset="1" stop-color="white"/>
</linearGradient>
</defs>
</svg>
