<svg width="375" height="288" viewBox="0 0 375 288" xmlns="http://www.w3.org/2000/svg">
<path d="M341.423 141.215C340.792 140.73 340.052 140.406 339.268 140.27C338.443 140.081 337.6 139.961 336.761 139.829L325.893 138.262C324.796 138.059 323.677 137.999 322.565 138.086C322.006 138.131 321.463 138.288 320.966 138.545C320.469 138.803 320.028 139.157 319.669 139.586C319.345 139.986 319.167 140.484 319.165 140.999C319.226 141.516 319.394 142.015 319.66 142.464C319.765 142.674 319.855 142.89 319.929 143.113C320.033 143.612 320.163 144.105 320.318 144.591C320.366 144.697 320.428 144.795 320.503 144.883C320.505 144.908 320.505 144.933 320.503 144.958C320.384 145.567 320.768 146.202 320.596 146.789C320.446 147.293 319.956 147.597 319.647 148.016C319.441 148.314 319.326 148.665 319.319 149.027C319.311 149.389 319.409 149.745 319.603 150.051C319.934 150.563 320.534 150.912 320.706 151.499C320.931 152.271 320.322 153.017 319.779 153.613C318.78 154.71 317.857 155.873 317.016 157.095C316.779 157.396 316.627 157.754 316.574 158.132C316.526 158.9 317.263 159.576 317.135 160.339C317.033 160.94 316.446 161.306 315.939 161.663C314.063 162.899 312.557 164.885 312.407 167.132C311.925 163.558 310.444 160.192 308.134 157.422C307.503 156.663 306.81 155.899 306.549 154.937C306.452 154.553 306.435 154.143 306.302 153.772C305.861 152.602 304.457 152.099 303.843 151.022C303.402 150.263 303.402 149.287 302.855 148.621C302.307 147.955 301.446 147.804 300.974 147.16C300.738 146.724 300.537 146.269 300.374 145.801C300.176 145.419 299.897 145.084 299.557 144.821C299.492 144.769 299.424 144.72 299.354 144.675C299.427 144.61 299.486 144.529 299.526 144.44C299.567 144.35 299.588 144.253 299.588 144.154C299.588 143.638 299.076 143.298 298.63 143.042C298.056 142.716 297.496 142.362 296.948 141.996C297.545 141.718 298.063 141.295 298.453 140.765C298.943 139.974 299.146 139.039 299.027 138.117C298.997 137.372 298.719 136.659 298.237 136.091C297.959 135.795 297.61 135.583 297.319 135.305C296.564 134.568 296.308 133.478 295.995 132.471C295.58 131.147 294.931 129.757 293.721 129.055C293.139 128.715 292.459 128.557 291.889 128.199C291.32 127.842 290.843 127.166 291.042 126.517C291.174 126.076 291.585 125.772 291.863 125.396C292.195 124.911 292.322 124.315 292.217 123.736C292.112 123.158 291.784 122.644 291.302 122.307C290.976 122.099 290.574 121.918 290.508 121.539C290.252 121.472 290.02 121.335 289.839 121.143C289.658 120.951 289.535 120.712 289.483 120.453C289.384 119.934 289.384 119.401 289.483 118.882C289.598 118.061 289.712 117.243 289.823 116.428C290.018 116.509 290.226 116.55 290.437 116.55C290.648 116.55 290.856 116.509 291.051 116.428C291.433 117.048 291.876 117.627 292.375 118.158C293.719 119.745 294.766 121.562 295.465 123.521C295.717 124.227 295.973 125.017 296.626 125.392C296.851 125.52 297.107 125.586 297.328 125.723C297.6 125.913 297.834 126.152 298.016 126.429C298.546 127.131 299.076 127.828 299.601 128.53L299.628 128.636C299.642 128.698 299.666 128.758 299.698 128.813C299.796 128.923 299.931 128.992 300.078 129.007C301.702 129.382 303.526 129.726 304.934 128.839C306.205 128.045 306.761 126.473 307.838 125.423C308.602 124.677 309.684 124.099 309.9 123.048C309.642 122.969 309.389 122.876 309.141 122.77C309.361 122.55 309.582 122.294 309.882 122.002C310.318 121.575 310.712 121.107 311.056 120.603C311.429 119.982 311.725 119.318 311.939 118.626C312.79 116.201 313.643 113.775 314.5 111.348C314.906 110.2 315.312 109.044 315.824 107.927C316.354 106.718 316.98 105.557 317.559 104.37C319.051 101.282 320.203 98.0409 320.993 94.7038C321.133 94.2485 321.18 93.7696 321.13 93.2958C321.006 92.5323 320.428 91.932 319.876 91.3891C319.321 90.7885 318.689 90.2646 317.996 89.8311C317.648 89.6147 317.26 89.4697 316.855 89.4045C316.451 89.3393 316.037 89.3553 315.638 89.4515C314.508 89.7826 313.798 90.9389 313.537 92.0997C313.277 93.2605 313.374 94.4566 313.264 95.6307C313.105 97.3299 312.522 98.9718 312.381 100.675C312.306 101.66 312.381 102.657 312.261 103.641C312.044 104.93 311.596 106.168 310.937 107.296C309.506 109.987 307.568 112.376 305.229 114.331C304.96 114.556 304.682 114.773 304.417 115.015C304.417 114.826 304.448 114.631 304.475 114.442C304.282 114.492 304.095 114.558 303.914 114.64C303.936 114.417 303.914 114.192 303.848 113.978C303.495 112.923 301.923 112.654 301.641 111.582C301.594 111.316 301.568 111.048 301.566 110.778C301.473 109.838 300.833 109.044 300.612 108.13C300.409 107.287 300.563 106.365 300.171 105.583C299.836 105.095 299.441 104.65 298.996 104.259C298.466 103.654 298.084 102.933 297.88 102.154C297.822 101.938 297.769 101.713 297.707 101.496C297.774 101.007 297.72 100.508 297.549 100.044C297.147 99.0468 296.109 98.4068 295.734 97.3961C295.443 96.6105 295.571 95.6307 295.019 95.0216C294.726 94.7305 294.367 94.5141 293.973 94.3904C291.953 93.6037 289.832 93.1031 287.674 92.903C286.464 92.7927 285.131 92.7309 284.266 91.879C283.255 90.8904 283.206 89.1117 282.023 88.3481C280.981 87.6728 279.507 88.1716 278.699 89.1205C278.578 89.2601 278.466 89.4075 278.364 89.5619C278.216 88.9703 278.185 88.3558 278.271 87.7523C278.271 87.6022 278.302 87.4477 278.315 87.3109C280.308 86.6597 282.005 85.3204 283.1 83.5328C283.1 83.5328 283.1 83.5328 283.1 83.5593L283.153 83.6961C283.281 84.0183 283.484 84.3273 283.785 84.3626C283.984 84.3602 284.177 84.2902 284.332 84.164C284.598 83.9789 284.844 83.7659 285.065 83.5284C285.177 83.4048 285.283 83.2768 285.383 83.1444C285.586 82.8688 285.761 82.573 285.903 82.2617C286.123 81.7933 286.271 81.295 286.345 80.7831C286.424 80.2711 286.433 79.7459 286.521 79.2339C286.604 78.8376 286.712 78.4469 286.844 78.0643C286.888 77.9363 286.932 77.8083 286.972 77.6803C287.011 77.5523 287.069 77.3802 287.113 77.2389C287.389 76.3312 287.538 75.3894 287.554 74.4407C287.554 74.2818 287.554 74.1229 287.554 73.964C287.538 73.3448 287.399 72.7351 287.144 72.1705C286.89 71.6059 286.525 71.0977 286.071 70.6758C285.312 70.0535 284.305 69.7931 283.749 68.9501C283.387 68.3851 283.308 67.6569 283.096 66.9948C282.867 66.2025 282.421 65.4902 281.807 64.9387C281.194 64.3872 280.438 64.0185 279.626 63.8744C278.648 63.7672 277.666 64.0371 276.881 64.6291L276.819 64.6777C276.381 65.0119 276.01 65.4251 275.724 65.8958C275.141 65.7352 274.607 65.4318 274.17 65.0131C273.729 64.6026 273.389 64.0862 272.943 63.689C272.526 63.3075 272.015 63.0448 271.462 62.9283C270.909 62.8119 270.335 62.846 269.8 63.027C269.249 63.2478 268.758 63.5961 268.367 64.0434C267.976 64.4907 267.698 65.0242 267.553 65.6001C267.31 66.5093 267.354 67.5554 266.847 68.3145C266.454 68.906 265.809 69.1973 265.359 69.7357C265.079 70.0767 264.888 70.4815 264.803 70.9142C264.749 71.1561 264.724 71.4035 264.728 71.6512C264.728 71.7616 264.728 71.8719 264.754 71.9779C264.754 71.9779 264.754 72.0132 264.754 72.0308C264.77 72.1518 264.795 72.2713 264.829 72.3883C264.955 72.8358 265.18 73.2491 265.487 73.5977C265.779 73.9314 266.142 74.1942 266.551 74.3657C266.718 74.4307 266.889 74.4852 267.063 74.529L267.588 74.6481L267.774 74.6923C267.14 75.8823 266.788 77.2021 266.745 78.5497C266.702 79.8973 266.97 81.2368 267.527 82.4647C267.527 82.5883 267.496 82.7119 267.482 82.8355C267.411 84.5734 267.487 86.3143 267.712 88.0392C267.774 88.7233 267.809 89.478 267.39 90.0209C267.199 90.2344 266.984 90.4255 266.75 90.5903C266.988 90.2813 267.231 89.9768 267.478 89.6722C266.856 89.0455 265.871 88.966 264.988 89.0278C263.28 89.1554 261.621 89.662 260.133 90.5108C259.144 91.0802 258.128 91.8349 256.998 91.7025C256.332 91.6275 255.674 91.2611 255.025 91.4377C254.66 91.5869 254.32 91.7891 254.014 92.0379C253.773 92.2111 253.482 92.301 253.184 92.2939C252.491 91.4421 251.419 90.8639 250.589 90.171C249.644 89.3303 248.78 88.4039 248.006 87.4036C246.576 85.6778 245.15 83.9477 243.747 82.2043C242.564 80.739 241.35 79.1545 241.142 77.2787C241.121 77.0926 241.111 76.9054 241.111 76.7181C241.14 75.8269 241.252 74.9402 241.447 74.0699C241.499 73.8598 241.499 73.6401 241.447 73.43C241.314 72.9886 240.807 72.8253 240.37 72.7282C240.427 72.3883 240.467 72.0397 240.489 71.7086C240.736 67.9129 240.467 64.0554 241.27 60.3391C241.575 58.909 242.074 57.4613 243.102 56.4241C244.713 54.7955 247.41 54.4027 248.646 52.4739C249.679 50.8673 249.269 48.5943 247.971 47.1775C246.673 45.7607 244.674 45.1826 242.771 45.2532C242.237 45.2349 241.71 45.3762 241.257 45.6592C240.833 46.0352 240.517 46.5164 240.339 47.0539L238.445 51.6574C237.896 52.8559 237.433 54.0919 237.059 55.356C236.529 57.2892 236.41 59.3283 235.991 61.2792C235.991 62.7798 235.024 64.6512 234.494 66.0327C233.903 67.5863 233.262 69.1222 232.728 70.7067C232.596 71.104 232.132 72.2824 231.845 73.3549C231.737 73.418 231.636 73.4936 231.545 73.58C231.315 73.8754 231.105 74.1866 230.918 74.5113C230.517 75.0409 229.863 75.3234 229.422 75.8354C228.981 76.3474 228.888 77.2875 229.501 77.5435C229.626 77.5854 229.755 77.6135 229.886 77.6273C229.966 77.6341 230.046 77.6474 230.124 77.6671C230.786 77.8524 231.047 78.6866 230.949 79.3751C230.852 80.0637 230.508 80.6993 230.451 81.3878C230.331 82.606 231.046 83.7403 231.735 84.7642C232.448 85.8742 233.236 86.9345 234.092 87.9377C234.715 88.635 235.417 89.2617 236.044 89.9326C238.432 92.3866 240.33 95.2555 242.475 97.9213C243.247 98.9275 244.125 99.8479 245.093 100.667C245.725 101.161 246.387 101.617 247.075 102.03L250.765 104.37C251.184 104.676 251.657 104.9 252.16 105.027C252.324 105.049 252.491 105.049 252.655 105.027C252.677 105.138 252.694 105.244 252.721 105.354C253.008 106.51 253.639 107.561 253.71 108.739C253.78 109.918 253.674 111.123 253.758 112.314C253.838 113.413 254.081 114.521 254.142 115.602C254.266 117.686 253.754 119.742 253.259 121.782C252.513 124.765 252.063 127.811 250.611 130.516C250.205 131.262 249.728 132.021 249.728 132.873C249.728 132.975 249.728 133.081 249.754 133.182L249.092 133.557C248.898 133.668 248.704 133.778 248.527 133.893C247.689 134.44 246.792 135.045 246.448 135.989C246.17 136.753 246.298 137.627 245.963 138.368C245.947 138.401 245.929 138.434 245.91 138.465C245.556 139.154 244.855 139.666 244.696 140.42C244.576 140.999 244.806 141.612 244.696 142.186C244.696 142.186 244.696 142.186 244.696 142.208C244.595 142.496 244.516 142.791 244.457 143.091C244.453 143.189 244.461 143.287 244.484 143.382C244.568 143.716 244.753 144.017 245.013 144.243C245.172 144.395 245.345 144.533 245.53 144.653C245.718 144.777 245.913 144.891 246.113 144.997L246.227 145.059C246.395 145.147 246.563 145.231 246.735 145.311L246.85 145.359C247.048 145.448 247.252 145.527 247.455 145.598L247.596 145.642C247.755 145.695 247.918 145.743 248.081 145.783L248.192 145.818L248.293 145.84L248.735 145.933L248.898 145.964C249.092 145.996 249.291 146.023 249.494 146.043H249.671C249.821 146.043 249.966 146.066 250.112 146.07H250.32C250.474 146.07 250.624 146.07 250.761 146.07H250.92C251.127 146.07 251.335 146.039 251.542 146.013H251.608C251.794 145.986 251.979 145.955 252.165 145.915L252.306 145.885C252.478 145.845 252.65 145.805 252.822 145.752L252.915 145.726C253.123 145.664 253.33 145.598 253.533 145.518C254.236 145.229 254.917 144.892 255.573 144.507C256.014 144.265 256.455 144.018 256.897 143.792C257.224 143.628 257.56 143.48 257.903 143.351C258.738 142.994 259.646 142.843 260.552 142.91C260.999 142.971 261.441 143.061 261.876 143.179C261.876 143.228 261.876 143.276 261.876 143.325C262.235 145.443 262.59 147.562 262.94 149.68C263.518 149.264 264.129 148.897 264.768 148.581C264.648 148.901 264.57 149.235 264.534 149.574C264.507 149.837 264.507 150.102 264.534 150.364C264.573 150.784 264.662 151.247 264.41 151.578C264.256 151.781 263.969 151.896 263.885 152.125C263.823 152.36 263.808 152.604 263.841 152.845C263.823 153.119 263.706 153.378 263.514 153.574C263.321 153.77 263.064 153.89 262.79 153.913C262.916 154.268 262.919 154.656 262.798 155.013C262.677 155.37 262.44 155.676 262.123 155.881C261.939 155.97 261.767 156.083 261.611 156.217C261.46 156.412 261.359 156.641 261.316 156.883C260.732 159.069 259.532 161.041 257.859 162.564C257.231 163.057 256.659 163.616 256.151 164.232C255.837 164.709 255.578 165.22 255.378 165.755C254.201 168.633 253.006 171.512 251.794 174.392C251.123 176.003 250.47 177.641 250.258 179.375C249.728 184.133 245.49 188.167 246.285 192.89C246.445 194.07 246.921 195.184 247.662 196.116C248.545 197.18 249.869 197.789 251.194 198.283C254.597 199.608 258.186 200.331 261.761 201.06L267.376 202.212C268.478 202.465 269.596 202.642 270.723 202.741C272.078 202.834 273.468 202.706 274.788 203.05C275.605 203.262 276.386 203.655 277.229 203.699C277.953 203.739 278.845 203.584 279.273 204.176C279.701 204.767 279.37 205.548 279.776 206.074C280.43 206.908 282.023 206.074 282.734 206.859C282.928 207.161 283.077 207.49 283.175 207.835C283.283 208.048 283.434 208.237 283.617 208.391C283.66 208.64 283.678 208.893 283.67 209.145C283.578 210.17 283.364 211.181 283.034 212.156C282.504 213.948 281.976 215.741 281.449 217.536C281.248 218.17 281.101 218.819 281.008 219.478C280.975 219.798 280.975 220.12 281.008 220.44C281.101 221.415 281.661 222.422 282.593 222.74C283.315 222.931 284.084 222.836 284.738 222.475C285.37 222.145 285.962 221.745 286.504 221.283C287.481 220.544 288.34 219.66 289.051 218.661C291.258 215.36 290.543 210.893 292.092 207.243C293.121 204.807 295.125 202.83 295.792 200.261C295.948 199.772 295.966 199.25 295.845 198.751C295.566 197.869 294.626 197.365 293.748 197.048H293.708C292.986 196.791 292.249 196.58 291.501 196.417C291.315 196.377 291.126 196.346 290.936 196.315C290.516 195.973 290.182 195.538 289.96 195.044C289.926 194.781 289.856 194.524 289.753 194.28C289.683 194.175 289.588 194.088 289.478 194.027C289.367 193.965 289.244 193.931 289.117 193.927C288.676 193.883 288.084 194.042 287.603 194.007C286.619 193.936 285.965 192.969 285.082 192.524C284.2 192.078 283.242 192.188 282.301 192.254C281.965 192.3 281.623 192.279 281.295 192.193C280.903 192.012 280.544 191.766 280.235 191.464C279.692 191.042 279.058 190.751 278.383 190.615C277.708 190.48 277.011 190.503 276.346 190.683C275.924 190.854 275.477 190.955 275.022 190.983C274.161 190.935 273.552 190.167 272.917 189.584C271.177 187.991 268.701 187.572 266.591 186.525C266.268 186.405 265.998 186.174 265.831 185.872C265.589 185.272 266.136 184.672 266.63 184.261L270.259 181.247C274.232 177.945 279.198 175.46 281.043 170.619C281.236 169.97 281.534 169.357 281.926 168.805C282.069 168.636 282.234 168.488 282.416 168.363C283.219 167.843 284.192 167.654 285.131 167.834C286.276 168.09 287.361 168.563 288.327 169.228C289.907 170.185 291.445 171.215 292.94 172.318C294.421 173.376 295.829 174.532 297.156 175.778C299.473 177.985 301.402 180.602 303.561 182.981C305.719 185.36 308.187 187.58 311.184 188.719C314.182 189.858 317.806 189.809 320.379 187.898C323.35 185.691 324.304 181.746 325.054 178.126C326.71 176.529 327.208 174.097 328.016 171.947C328.524 170.583 329.173 169.299 329.72 167.94C330.374 166.342 330.886 164.691 331.398 163.045C331.978 161.392 332.372 159.679 332.572 157.938C332.784 155.189 332.047 152.262 332.819 149.68C333.839 149.455 334.766 148.881 335.768 148.546C337.26 148.056 338.858 148.136 340.438 148.144H340.54C341.084 148.202 341.632 148.073 342.094 147.778C342.623 147.337 342.707 146.582 342.734 145.898C342.795 144.207 342.69 142.309 341.423 141.215ZM277.463 65.9267C277.098 66.017 276.721 66.0439 276.346 66.0062L277.463 65.9267Z" fill="url(#paint0_linear)"/>
<path d="M279.202 93.8476C278.668 94.3015 278.041 94.6343 277.366 94.823L274.236 95.9441C272.537 96.5532 270.762 97.1667 268.97 96.946C267.968 96.8224 263.673 96.1913 263.024 95.4101C262.035 94.2007 265.5 92.422 266.683 91.4025C266.952 91.2097 267.2 90.9909 267.425 90.7492C267.866 90.2108 267.809 89.456 267.747 88.7763C267.523 87.0544 267.446 85.3164 267.518 83.5814C267.552 83.1678 267.611 82.7567 267.694 82.35C268.136 80.3198 270.025 81.0613 271.517 81.5997C273.313 82.1831 275.05 82.9353 276.704 83.8463C277.208 84.106 277.646 84.4774 277.984 84.932C278.637 85.9207 278.377 87.2183 278.271 88.463C278.178 89.4296 278.183 90.3564 278.788 91.0582C279.092 91.3265 279.371 91.622 279.622 91.9409C279.763 92.2621 279.799 92.62 279.723 92.9627C279.648 93.3054 279.465 93.6153 279.202 93.8476Z" fill="#BE6F72"/>
<path d="M235.969 62.0384C236.41 60.0832 236.507 58.0661 237.037 56.1285C237.411 54.8687 237.874 53.6371 238.423 52.4431L240.37 47.9015C240.548 47.3652 240.864 46.8856 241.288 46.5112C241.742 46.2301 242.268 46.0889 242.802 46.1051C244.704 46.0345 246.704 46.6259 248.002 48.0251C249.3 49.4242 249.71 51.6884 248.677 53.2905C247.441 55.2193 244.744 55.6077 243.133 57.2319C242.104 58.2692 241.606 59.7124 241.301 61.138C240.498 64.8455 240.767 68.6898 240.52 72.4767C240.44 73.6552 240.211 75.0013 239.195 75.6104C238.582 75.9111 237.899 76.0436 237.218 75.9944L234.322 76.043C233.836 76.043 232.075 76.3475 231.753 75.9812C231.188 75.3412 232.477 72.1545 232.711 71.4439C233.232 69.8682 233.872 68.3323 234.476 66.7831C235.002 65.4016 235.969 63.5346 235.969 62.0384Z" fill="#BE6F72"/>
<path d="M295.761 200.698C295.094 203.249 293.09 205.235 292.061 207.667C290.512 211.308 291.209 215.762 289.02 219.054C288.31 220.054 287.451 220.94 286.473 221.68C285.931 222.141 285.339 222.54 284.707 222.868C284.053 223.229 283.284 223.323 282.562 223.132C281.63 222.815 281.07 221.808 280.977 220.837C280.944 220.519 280.944 220.198 280.977 219.88C281.07 219.223 281.217 218.574 281.418 217.942C281.948 216.156 282.476 214.367 283.003 212.575C283.333 211.603 283.546 210.596 283.639 209.574C283.696 208.461 282.99 207.014 283.29 205.977C283.427 205.509 283.939 205.094 284.173 204.701C284.505 204.136 284.76 203.529 284.932 202.896C285.294 201.664 285.541 200.349 286.301 199.312C286.796 198.697 287.376 198.154 288.022 197.701C288.5 197.283 289.059 196.969 289.664 196.779C290.252 196.675 290.855 196.704 291.43 196.862C292.179 197.022 292.916 197.232 293.637 197.489H293.677C294.56 197.807 295.496 198.297 295.774 199.188C295.909 199.683 295.904 200.206 295.761 200.698Z" fill="#3F3D56"/>
<path d="M342.729 146.436C342.703 147.121 342.619 147.884 342.089 148.312C341.628 148.607 341.08 148.736 340.535 148.679H340.416C338.84 148.679 337.238 148.59 335.746 149.08C334.611 149.455 333.569 150.144 332.386 150.281C330.758 150.466 329.226 149.575 327.782 148.798C326.423 148.066 325.028 147.403 323.602 146.812C322.666 146.428 320.755 146.18 320.304 145.156C320.15 144.672 320.02 144.18 319.916 143.682C319.842 143.46 319.752 143.243 319.647 143.033C319.382 142.586 319.213 142.089 319.152 141.573C319.154 141.058 319.332 140.56 319.655 140.16C320.016 139.734 320.456 139.383 320.953 139.128C321.449 138.873 321.991 138.718 322.547 138.673C323.659 138.586 324.778 138.646 325.875 138.849L336.743 140.412C337.582 140.531 338.425 140.65 339.251 140.853C340.035 140.989 340.774 141.313 341.405 141.798C342.689 142.875 342.795 144.768 342.729 146.436Z" fill="#3F3D56"/>
<path d="M333.177 149.261C331.852 152.055 332.806 155.361 332.567 158.45C332.367 160.187 331.973 161.895 331.393 163.544C330.881 165.186 330.369 166.832 329.716 168.425C329.168 169.749 328.519 171.073 328.012 172.424C327.204 174.578 326.687 177.001 325.05 178.603C324.299 182.213 323.346 186.159 320.375 188.348C317.793 190.255 314.195 190.321 311.18 189.169C308.165 188.017 305.715 185.811 303.556 183.432C301.398 181.053 299.469 178.462 297.151 176.246C295.823 175 294.412 173.845 292.927 172.79C291.432 171.705 289.894 170.684 288.314 169.727C287.346 169.065 286.262 168.593 285.118 168.337C284.178 168.157 283.206 168.347 282.403 168.867C282.221 168.991 282.056 169.139 281.913 169.308C281.52 169.858 281.222 170.469 281.03 171.118C279.176 175.946 274.201 178.427 270.228 181.719L266.6 184.725C266.105 185.135 265.558 185.736 265.801 186.331C265.968 186.633 266.237 186.864 266.56 186.985C268.67 188.026 271.146 188.446 272.886 190.034C273.521 190.617 274.13 191.385 274.991 191.429C275.446 191.403 275.893 191.303 276.315 191.133C276.98 190.954 277.677 190.93 278.351 191.065C279.026 191.2 279.66 191.489 280.205 191.91C280.514 192.212 280.872 192.458 281.264 192.639C281.592 192.725 281.934 192.746 282.27 192.7C283.211 192.634 284.208 192.55 285.051 192.97C285.895 193.389 286.588 194.377 287.572 194.448C288.053 194.483 288.627 194.325 289.086 194.369C289.213 194.373 289.336 194.407 289.447 194.468C289.557 194.53 289.652 194.617 289.722 194.722C289.825 194.964 289.895 195.22 289.929 195.481C290.11 196.103 290.719 196.483 291.117 196.995C291.726 197.78 291.814 198.849 291.752 199.842C291.553 202.947 290.168 205.857 287.885 207.972C287.237 208.634 286.411 209.094 285.506 209.296C285.053 209.39 284.582 209.34 284.159 209.153C283.736 208.965 283.383 208.649 283.149 208.25C283.05 207.906 282.902 207.579 282.707 207.279C281.997 206.497 280.403 207.327 279.75 206.493C279.344 205.972 279.635 205.138 279.247 204.6C278.858 204.061 277.922 204.158 277.203 204.127C276.36 204.083 275.578 203.686 274.762 203.478C273.437 203.134 272.051 203.262 270.696 203.169C269.57 203.07 268.452 202.893 267.35 202.64L261.735 201.492C258.159 200.764 254.57 200.027 251.167 198.725C249.865 198.231 248.554 197.622 247.636 196.562C246.895 195.631 246.42 194.518 246.258 193.34C245.459 188.631 249.697 184.606 250.231 179.861C250.421 178.131 251.114 176.498 251.767 174.891C252.965 172.019 254.16 169.146 255.352 166.271C255.545 165.736 255.796 165.224 256.102 164.744C256.61 164.13 257.183 163.572 257.811 163.08C259.483 161.562 260.683 159.595 261.267 157.413C261.31 157.17 261.412 156.942 261.563 156.747C261.719 156.616 261.891 156.504 262.075 156.416C262.39 156.21 262.627 155.905 262.748 155.549C262.869 155.193 262.867 154.806 262.741 154.452C263.015 154.429 263.272 154.309 263.465 154.113C263.658 153.917 263.774 153.658 263.792 153.383C263.76 153.145 263.775 152.902 263.836 152.668C263.942 152.439 264.207 152.324 264.361 152.121C264.613 151.79 264.525 151.327 264.485 150.912C264.459 150.649 264.459 150.384 264.485 150.122C264.582 149.187 265 148.315 265.668 147.655C266.723 146.617 268.224 146.887 269.681 146.639C271.134 146.326 272.553 145.872 273.919 145.284C277.749 143.775 281.782 142.843 285.886 142.517C290.01 142.193 294.153 142.852 297.972 144.441C298.528 144.666 299.052 144.963 299.53 145.324C299.87 145.586 300.149 145.919 300.347 146.3C300.51 146.767 300.711 147.22 300.948 147.655C301.42 148.299 302.312 148.506 302.828 149.115C303.344 149.725 303.389 150.753 303.817 151.508C304.43 152.585 305.852 153.083 306.276 154.253C306.408 154.624 306.426 155.03 306.523 155.414C306.761 156.376 307.476 157.135 308.108 157.894C310.422 160.662 311.903 164.029 312.381 167.604C312.522 165.367 314.027 163.385 315.912 162.149C316.42 161.818 317.007 161.452 317.108 160.851C317.236 160.092 316.499 159.417 316.548 158.645C316.601 158.267 316.754 157.911 316.989 157.612C317.83 156.393 318.754 155.232 319.753 154.138C320.296 153.542 320.905 152.814 320.68 152.028C320.507 151.441 319.907 151.097 319.576 150.585C319.383 150.28 319.284 149.925 319.292 149.563C319.3 149.202 319.414 148.851 319.62 148.555C319.929 148.136 320.419 147.831 320.569 147.332C320.741 146.745 320.357 146.11 320.477 145.505C320.638 145.021 320.958 144.605 321.386 144.327C321.972 143.793 322.637 143.356 323.359 143.029C324.524 142.588 325.822 142.751 327.058 142.923C329.124 143.21 331.442 143.651 332.607 145.381C333.353 146.463 333.733 148.105 333.177 149.261Z" fill="#65617D"/>
<path opacity="0.1" d="M342.729 146.436C342.703 147.12 342.619 147.884 342.089 148.312C341.628 148.607 341.08 148.736 340.535 148.679H340.416C340.597 147.76 341.714 147.235 341.908 146.304C341.941 146.018 341.915 145.728 341.832 145.452C341.748 145.177 341.609 144.921 341.423 144.702C340.478 143.426 338.959 142.72 337.45 142.204C333.185 140.742 328.615 140.4 324.18 141.211C322.974 141.407 321.801 141.768 320.693 142.283C320.326 142.513 319.972 142.763 319.633 143.033C319.369 142.586 319.2 142.089 319.139 141.573C319.141 141.058 319.318 140.56 319.642 140.16C320.002 139.734 320.443 139.383 320.939 139.128C321.436 138.873 321.977 138.718 322.534 138.673C323.646 138.586 324.765 138.646 325.862 138.849L336.73 140.412C337.569 140.531 338.412 140.65 339.237 140.853C340.021 140.989 340.761 141.313 341.392 141.798C342.689 142.875 342.795 144.768 342.729 146.436Z" fill="black"/>
<path opacity="0.1" d="M295.761 200.698C295.094 203.249 293.09 205.235 292.061 207.667C290.512 211.308 291.21 215.762 289.02 219.054C288.31 220.054 287.451 220.94 286.473 221.68C285.931 222.141 285.339 222.54 284.707 222.868C284.053 223.229 283.284 223.323 282.562 223.132C281.63 222.815 281.07 221.808 280.977 220.837C280.944 220.519 280.944 220.198 280.977 219.88L281.004 219.95C281.388 220.877 282.014 221.848 283.003 222.011C283.374 222.038 283.747 221.988 284.098 221.864C284.449 221.74 284.77 221.546 285.043 221.292C286.499 220.122 287.347 218.379 288.155 216.697C288.787 215.485 289.287 214.208 289.647 212.888C289.823 212.138 289.907 211.37 290.088 210.62C290.927 206.974 293.783 203.999 294.414 200.305C294.466 200.051 294.478 199.79 294.45 199.533C294.366 199.196 294.239 198.873 294.07 198.57C293.917 198.229 293.804 197.87 293.735 197.502C294.617 197.82 295.553 198.31 295.831 199.202C295.945 199.697 295.921 200.215 295.761 200.698Z" fill="black"/>
<path opacity="0.1" d="M289.095 194.369C288.686 195.437 287.999 196.375 287.104 197.088C285.847 198.045 284.376 198.681 282.818 198.941C282.093 199.126 281.331 199.117 280.611 198.915C279.631 198.575 278.924 197.657 277.922 197.392C277.207 197.198 276.439 197.37 275.715 197.264C274.413 197.083 273.402 196.09 272.351 195.296C269.133 192.877 264.909 192.096 261.691 189.677C261.548 189.589 261.429 189.466 261.347 189.319C261.285 189.161 261.262 188.99 261.28 188.821C261.292 187.354 261.622 185.907 262.247 184.579C262.759 183.653 263.369 182.784 264.066 181.988C266.948 178.457 269.844 174.9 273.296 171.921C274.744 170.672 276.324 169.507 278.152 168.942C279.167 168.628 281.171 168.332 282.407 168.862C282.225 168.987 282.06 169.135 281.917 169.304C281.524 169.853 281.226 170.465 281.034 171.113C279.176 175.946 274.201 178.427 270.228 181.719L266.6 184.725C266.105 185.135 265.558 185.736 265.801 186.331C265.968 186.633 266.237 186.864 266.56 186.985C268.67 188.026 271.146 188.446 272.886 190.034C273.521 190.617 274.13 191.385 274.991 191.429C275.446 191.403 275.893 191.303 276.316 191.133C276.98 190.954 277.677 190.93 278.351 191.065C279.026 191.2 279.66 191.489 280.205 191.91C280.514 192.212 280.872 192.458 281.264 192.639C281.592 192.725 281.934 192.746 282.27 192.7C283.211 192.634 284.208 192.55 285.052 192.97C285.895 193.389 286.588 194.378 287.572 194.448C288.062 194.483 288.636 194.316 289.095 194.369Z" fill="black"/>
<path d="M248.496 134.466C247.658 135.005 246.766 135.614 246.422 136.55C246.139 137.313 246.272 138.187 245.932 138.929C245.592 139.67 244.828 140.187 244.66 140.981C244.541 141.559 244.775 142.168 244.66 142.747C244.56 143.047 244.479 143.354 244.418 143.665C244.373 144.322 244.938 144.856 245.49 145.223C246.665 145.987 248.003 146.464 249.396 146.618C250.789 146.771 252.198 146.595 253.511 146.105C254.69 145.664 255.754 144.945 256.884 144.38C257.986 143.745 259.246 143.439 260.517 143.497C261.245 143.576 261.942 143.841 262.671 143.938C263.031 144.009 263.402 143.992 263.754 143.887C264.105 143.783 264.426 143.594 264.688 143.338C264.913 143.027 265.064 142.67 265.13 142.292C265.743 139.869 265.465 137.3 264.882 134.864C264.3 132.427 263.417 130.084 262.794 127.661C262.353 125.864 262.013 124.024 261.276 122.325C260.539 120.625 259.298 119.045 257.563 118.396C257.427 118.329 257.271 118.309 257.122 118.339C257.011 118.386 256.912 118.458 256.835 118.551C255.463 120.005 254.429 121.744 253.807 123.644C253.114 125.758 252.924 128 252.288 130.123C252.015 131.006 251.661 132.189 250.964 132.864C250.267 133.54 249.287 133.959 248.496 134.466Z" fill="#3F3D56"/>
<path opacity="0.1" d="M265.143 142.279C265.069 142.658 264.91 143.015 264.679 143.325C264.418 143.582 264.097 143.771 263.745 143.874C263.393 143.978 263.021 143.994 262.662 143.921C261.938 143.832 261.241 143.563 260.512 143.479C259.242 143.42 257.981 143.727 256.879 144.362C255.749 144.927 254.672 145.629 253.502 146.083C251.791 146.732 249.921 146.838 248.148 146.388C247.206 146.151 246.31 145.757 245.499 145.223C244.943 144.861 244.382 144.34 244.426 143.665C244.488 143.355 244.569 143.05 244.669 142.751C244.784 142.173 244.554 141.564 244.669 140.986C244.837 140.191 245.605 139.661 245.94 138.929C246.276 138.196 246.148 137.318 246.426 136.554C246.77 135.614 247.666 135.009 248.505 134.467C249.344 133.924 250.342 133.509 251.013 132.851C251.099 132.749 251.177 132.64 251.246 132.525C251.73 131.778 252.085 130.956 252.297 130.093C252.946 127.965 253.123 125.727 253.811 123.609C254.436 121.71 255.471 119.973 256.844 118.52C256.917 118.425 257.015 118.352 257.126 118.308C257.275 118.278 257.43 118.296 257.568 118.361C259.298 119.014 260.539 120.594 261.28 122.294C262.022 123.993 262.335 125.825 262.799 127.625C263.417 130.048 264.304 132.401 264.887 134.833C265.469 137.265 265.756 139.851 265.143 142.279Z" fill="#FF0000"/>
<path opacity="0.1" d="M278.271 88.4498C276.195 89.1092 273.949 88.9783 271.964 88.0821C269.979 87.1859 268.396 85.5877 267.518 83.5948C267.552 83.1812 267.611 82.77 267.694 82.3634C268.136 80.3331 270.025 81.0746 271.517 81.613C273.313 82.1964 275.05 82.9486 276.704 83.8596C277.208 84.1193 277.646 84.4907 277.984 84.9453C278.637 85.9208 278.377 87.2184 278.271 88.4498Z" fill="black"/>
<path d="M275.605 88.4232C280.481 88.4232 284.433 84.4711 284.433 79.5959C284.433 74.7207 280.481 70.7686 275.605 70.7686C270.729 70.7686 266.776 74.7207 266.776 79.5959C266.776 84.4711 270.729 88.4232 275.605 88.4232Z" fill="#BE6F72"/>
<path opacity="0.1" d="M299.561 145.562C299.561 146.295 298.568 146.529 297.831 146.489C295.182 146.335 292.591 145.607 289.969 145.827C286.654 146.127 283.608 147.959 280.284 148.127C279.004 148.193 277.702 148.003 276.439 148.237C274.806 148.542 273.349 149.535 271.685 149.676C270.241 149.8 268.816 149.257 267.372 149.314C266.363 149.374 265.379 149.654 264.49 150.135C264.586 149.2 265.004 148.328 265.673 147.668C266.728 146.631 268.228 146.9 269.685 146.653C271.138 146.339 272.557 145.885 273.923 145.298C277.753 143.789 281.786 142.856 285.89 142.53C290.012 142.202 294.153 142.857 297.972 144.441C298.528 144.666 299.052 144.963 299.531 145.324C299.555 145.401 299.565 145.482 299.561 145.562Z" fill="black"/>
<path d="M271.522 95.7146L267.946 94.3905L266.436 93.8343C265.821 93.5766 265.174 93.4043 264.512 93.3223C262.781 93.1899 261.152 94.3419 260.23 95.8117C259.307 97.2814 258.958 99.0336 258.663 100.742C258.256 103.078 257.912 105.423 257.63 107.777C257.325 109.903 257.171 112.047 257.166 114.195C257.268 119.659 258.424 125.048 259.696 130.366C260.318 132.724 260.789 135.12 261.104 137.538C261.21 138.536 261.258 139.538 261.364 140.54C261.479 141.665 261.664 142.777 261.85 143.894L262.914 150.236C264.238 149.296 265.743 148.471 267.372 148.422C268.816 148.369 270.246 148.908 271.685 148.784C273.34 148.648 274.806 147.654 276.439 147.35C277.702 147.116 279.004 147.301 280.288 147.24C283.608 147.072 286.658 145.236 289.969 144.94C292.596 144.702 295.204 145.443 297.835 145.598C298.568 145.642 299.561 145.408 299.561 144.671C299.561 144.159 299.049 143.819 298.604 143.563C296.502 142.298 294.502 140.871 292.622 139.295C290.883 137.918 289.117 136.506 287.921 134.643C285.038 130.163 286.027 124.103 283.568 119.376C281.569 115.536 283.568 110.505 283.568 106.175C283.568 104.017 283.568 101.832 283.061 99.7354C282.743 98.5628 282.348 97.4127 281.878 96.2927L280.16 91.9453C280.125 91.8182 280.054 91.7036 279.957 91.6143C279.842 91.5347 279.705 91.4931 279.564 91.4951C278.533 91.4333 277.516 91.7591 276.713 92.4087C275.905 93.0663 275.389 94.0109 274.594 94.695C273.724 95.4497 272.603 96.1118 271.522 95.7146Z" fill="#E3E8F4"/>
<path d="M277.291 93.2076C277.574 91.9983 277.878 90.7404 278.686 89.7959C279.494 88.8514 280.968 88.3526 282.01 89.0279C283.193 89.7959 283.242 91.5702 284.252 92.5588C285.135 93.4063 286.46 93.4725 287.66 93.5828C289.819 93.7793 291.94 94.2785 293.96 95.0658C294.354 95.1879 294.712 95.4028 295.006 95.6925C295.558 96.3193 295.447 97.2815 295.721 98.0627C296.096 99.069 297.134 99.709 297.535 100.711C297.977 101.823 297.535 103.068 297.164 104.211C296.498 106.263 296.078 108.395 295.43 110.456C294.781 112.517 293.858 114.548 292.34 116.101C291.669 116.79 290.671 117.425 289.788 117.015L289.448 119.464C289.349 119.982 289.349 120.514 289.448 121.031C289.499 121.29 289.623 121.53 289.804 121.722C289.985 121.914 290.217 122.051 290.472 122.117C290.538 122.497 290.94 122.678 291.267 122.885C291.508 123.05 291.714 123.261 291.873 123.506C292.032 123.751 292.141 124.025 292.193 124.313C292.245 124.6 292.239 124.895 292.177 125.18C292.114 125.466 291.995 125.736 291.827 125.975C291.549 126.35 291.139 126.646 291.006 127.091C290.808 127.736 291.28 128.415 291.854 128.768C292.428 129.122 293.103 129.285 293.686 129.625C294.895 130.322 295.544 131.695 295.959 133.028C296.268 134.034 296.524 135.124 297.284 135.857C297.575 136.135 297.924 136.347 298.202 136.638C298.683 137.207 298.961 137.92 298.992 138.664C299.113 139.586 298.91 140.522 298.418 141.312C297.535 142.574 295.889 142.95 294.445 143.519C292.101 144.481 290.172 146.202 288.106 147.668C287.265 148.345 286.273 148.811 285.215 149.027C283.785 149.217 282.376 148.586 280.937 148.528C280.076 148.536 279.22 148.649 278.386 148.864L275.737 149.438C275.878 147.385 274.748 145.329 274.117 143.373C272.925 139.692 272.705 135.755 272.987 131.898C273.27 128.04 274.055 124.236 274.832 120.449C275.375 117.801 275.322 115.033 276.157 112.46C276.938 109.984 278.055 107.605 278.465 105.027C279.136 100.857 276.346 97.3212 277.291 93.2076Z" fill="#B9092D"/>
<path d="M297.372 101.368C297.615 101.817 297.787 102.301 297.88 102.803C298.084 103.58 298.466 104.3 298.996 104.904C299.441 105.295 299.835 105.74 300.171 106.228C300.577 106.996 300.422 107.932 300.612 108.77C300.833 109.684 301.473 110.478 301.566 111.418C301.568 111.688 301.593 111.956 301.641 112.222C301.927 113.29 303.499 113.546 303.848 114.614C304.082 115.307 303.68 116.062 303.755 116.79C303.81 117.015 303.823 117.248 303.795 117.478C303.695 117.738 303.52 117.963 303.292 118.123C301.831 119.518 300.819 121.318 300.387 123.291C299.962 125.254 299.738 127.255 299.72 129.263L297.994 126.981C297.812 126.704 297.578 126.464 297.306 126.275C297.085 126.142 296.829 126.076 296.604 125.944C295.95 125.573 295.694 124.787 295.443 124.081C294.744 122.126 293.697 120.314 292.353 118.732C291.651 117.906 290.834 117.077 290.68 116.004C290.634 115.512 290.66 115.015 290.759 114.53C291.201 111.639 291.673 108.677 293.081 106.113C293.739 104.913 294.591 103.827 295.222 102.609C295.646 101.801 296.242 99.7001 297.372 101.368Z" fill="#B9092D"/>
<path d="M253.824 104.145C253.833 104.516 253.738 104.883 253.551 105.204C253.382 105.4 253.162 105.544 252.916 105.622C252.67 105.7 252.406 105.708 252.156 105.645C251.653 105.519 251.18 105.297 250.761 104.992C249.531 104.215 248.301 103.437 247.071 102.657C246.384 102.243 245.722 101.79 245.088 101.298C244.12 100.481 243.243 99.5618 242.471 98.557C240.325 95.9088 238.427 93.0356 236.039 90.6125C235.39 89.9504 234.715 89.3148 234.088 88.6219C233.231 87.6202 232.444 86.5615 231.731 85.4529C231.042 84.4333 230.327 83.3034 230.446 82.0853C230.517 81.3967 230.848 80.7612 230.945 80.0771C231.042 79.3929 230.782 78.5588 230.119 78.3734C230.041 78.3537 229.961 78.3404 229.881 78.3337C229.75 78.3198 229.622 78.2917 229.497 78.2498C228.883 77.9938 228.976 77.0449 229.418 76.5461C229.859 76.0474 230.512 75.7693 230.914 75.222C231.101 74.8973 231.31 74.5861 231.541 74.2907C231.836 74.0374 232.19 73.8601 232.569 73.7744C235.116 73.0241 237.809 72.9224 240.405 73.4786C240.846 73.5757 241.35 73.7523 241.482 74.1804C241.535 74.389 241.535 74.6074 241.482 74.816C241.287 75.6862 241.175 76.5729 241.146 77.4642C241.146 77.65 241.156 77.8357 241.177 78.0203C241.385 79.8917 242.599 81.4762 243.782 82.9371C245.186 84.6761 246.611 86.4018 248.042 88.1231C248.815 89.1206 249.68 90.0441 250.624 90.8817C251.507 91.6143 252.65 92.2058 253.339 93.1459C253.9 93.905 253.719 94.9423 253.78 95.8559C253.986 98.6145 254 101.384 253.824 104.145Z" fill="#B9092D"/>
<path d="M309.887 122.559C310.323 122.135 310.716 121.669 311.061 121.168C311.432 120.548 311.728 119.885 311.944 119.195L314.504 111.935C314.91 110.787 315.316 109.635 315.828 108.519C316.358 107.314 316.985 106.153 317.563 104.988C319.05 101.921 320.2 98.7026 320.993 95.388C321.132 94.9326 321.179 94.4538 321.13 93.9801C321.006 93.2165 320.428 92.6206 319.876 92.0778C319.321 91.4785 318.689 90.956 317.996 90.5241C317.648 90.3077 317.26 90.1627 316.855 90.0975C316.45 90.0324 316.037 90.0484 315.638 90.1446C314.508 90.4756 313.798 91.632 313.537 92.7928C313.277 93.9536 313.374 95.1408 313.264 96.3237C313.105 98.0185 312.522 99.656 312.381 101.355C312.306 102.34 312.381 103.333 312.261 104.312C312.044 105.599 311.596 106.836 310.937 107.963C309.503 110.646 307.565 113.029 305.229 114.98C304.59 115.452 304.014 116.006 303.517 116.627C303.102 117.247 302.82 117.948 302.691 118.683C302.398 119.803 302.525 120.992 303.049 122.024C303.768 123.251 305.15 123.79 306.47 124.064C308.253 124.434 308.664 123.825 309.887 122.559Z" fill="#BE6F72"/>
<path d="M275.658 66.8051C276.038 66.0911 276.62 65.5048 277.331 65.1194C278.042 64.734 278.851 64.5666 279.657 64.638C280.469 64.7817 281.224 65.1498 281.837 65.7005C282.45 66.2512 282.897 66.9626 283.127 67.7541C283.334 68.4117 283.418 69.14 283.78 69.7049C284.328 70.5567 285.343 70.8039 286.102 71.4218C286.555 71.8429 286.92 72.3502 287.175 72.9141C287.43 73.478 287.569 74.0871 287.585 74.7056C287.628 75.9689 287.428 77.2288 286.998 78.4175C286.816 78.9246 286.668 79.4437 286.557 79.9711C286.468 80.483 286.46 81.0039 286.38 81.5158C286.282 82.1797 286.053 82.8173 285.705 83.3911C285.357 83.9649 284.898 84.4633 284.354 84.857C284.199 84.9832 284.006 85.0532 283.807 85.0556C283.462 85.0159 283.25 84.6142 283.122 84.2523C282.421 82.2264 282.588 79.7504 281.295 78.135C280.706 77.4833 279.995 76.9539 279.202 76.577C278.879 76.3684 278.515 76.2315 278.134 76.1753C277.574 76.2054 277.036 76.4022 276.589 76.7403C275.658 77.3651 274.624 77.8222 273.534 78.0909C272.991 78.2196 272.426 78.2254 271.879 78.1078C271.333 77.9902 270.821 77.7522 270.378 77.4111C269.769 76.908 269.323 76.1533 268.648 75.7604C267.972 75.3676 267.266 75.3897 266.6 75.1205C266.175 74.9398 265.797 74.6646 265.495 74.3158C265.192 73.9669 264.974 73.5537 264.855 73.1076C264.737 72.6615 264.722 72.1942 264.812 71.7415C264.901 71.2887 265.093 70.8623 265.372 70.4949C265.814 69.9653 266.467 69.6652 266.86 69.0782C267.368 68.319 267.323 67.2774 267.566 66.3682C267.71 65.7929 267.989 65.2602 268.38 64.8143C268.77 64.3683 269.262 64.0219 269.813 63.8038C270.348 63.6222 270.922 63.5875 271.475 63.7031C272.027 63.8188 272.539 64.0807 272.956 64.4615C273.398 64.8587 273.751 65.3707 274.183 65.7856C274.61 66.1943 275.133 66.4894 275.704 66.6436C276.275 66.7978 276.875 66.8063 277.45 66.6683" fill="#3F3D56"/>
<path opacity="0.1" d="M282.915 131.77C282.658 131.999 282.476 132.3 282.392 132.633C282.309 132.967 282.328 133.318 282.447 133.641C282.544 133.849 287.1 132.97 287.581 132.904C288.782 132.732 290.887 132.816 291.695 131.717C293.134 129.77 288.676 130.203 287.859 130.274C286.305 130.406 284.098 130.618 282.915 131.77Z" fill="black"/>
<path d="M241.473 74.8336C241.278 75.7039 241.166 76.5905 241.138 77.4818C239.813 77.7511 238.436 77.3097 237.165 76.8683L233.514 75.6237C233.292 75.4818 233.024 75.4297 232.765 75.4781C232.506 75.5265 232.275 75.6716 232.119 75.8841C231.532 76.4932 230.724 77.6495 229.912 78.3336C229.781 78.3198 229.653 78.2917 229.528 78.2498C228.914 77.9938 229.007 77.0449 229.449 76.5461C229.89 76.0474 230.543 75.7693 230.945 75.222C231.132 74.8973 231.341 74.5861 231.572 74.2907C231.867 74.0374 232.221 73.8601 232.6 73.7744C235.147 73.0241 237.84 72.9224 240.436 73.4786C240.877 73.5757 241.38 73.7523 241.513 74.1804C241.556 74.3979 241.542 74.6229 241.473 74.8336Z" fill="#3F3D56"/>
<path opacity="0.1" d="M241.473 74.8336C241.278 75.7039 241.166 76.5905 241.138 77.4818C239.813 77.7511 238.436 77.3097 237.165 76.8683L233.514 75.6237C233.292 75.4818 233.024 75.4297 232.765 75.4781C232.506 75.5265 232.275 75.6716 232.119 75.8841C231.532 76.4932 230.724 77.6495 229.912 78.3336C229.781 78.3198 229.653 78.2917 229.528 78.2498C228.914 77.9938 229.007 77.0449 229.449 76.5461C229.89 76.0474 230.543 75.7693 230.945 75.222C231.132 74.8973 231.341 74.5861 231.572 74.2907C231.867 74.0374 232.221 73.8601 232.6 73.7744C235.147 73.0241 237.84 72.9224 240.436 73.4786C240.877 73.5757 241.38 73.7523 241.513 74.1804C241.556 74.3979 241.542 74.6229 241.473 74.8336Z" fill="black"/>
<path opacity="0.1" d="M274.868 158.627C275.503 158.839 276.192 159.148 276.408 159.783L271.296 158.486L268.648 157.81C268.18 157.691 266.502 157.554 266.193 157.188C265.752 156.65 267.319 157.02 267.602 157.06C268.458 157.188 269.314 157.32 270.166 157.475C271.773 157.762 273.318 158.234 274.868 158.627Z" fill="black"/>
<path opacity="0.1" d="M276.85 163.151C276.408 162.855 275.141 162.89 274.598 162.762C273.804 162.573 273.022 162.321 272.241 162.078C270.656 161.562 269.085 160.975 267.456 160.595C267.156 160.529 266.132 160.511 266.18 160.132C266.229 159.752 267.204 159.62 267.447 159.602C268.891 159.496 270.692 160.172 272.034 160.653C273.744 161.265 275.364 162.106 276.85 163.151Z" fill="black"/>
<path opacity="0.1" d="M273.61 154.593C271.989 154.151 270.519 153.145 268.851 152.951C268.416 152.967 267.988 152.837 267.637 152.58C267.441 152.387 267.304 152.142 267.244 151.874C268.361 151.817 269.659 152.289 270.674 152.735C271.233 152.974 271.77 153.261 272.281 153.591C272.652 153.816 273.208 154.465 273.61 154.593Z" fill="black"/>
<path d="M304.492 115.073C304.218 116.908 304.615 118.78 305.608 120.347C306.602 121.914 308.127 123.07 309.904 123.604C309.688 124.651 308.606 125.229 307.843 125.975C306.766 127.021 306.209 128.588 304.938 129.382C303.521 130.265 301.698 129.92 300.082 129.55C299.935 129.533 299.8 129.462 299.703 129.351C299.669 129.298 299.646 129.24 299.632 129.179C299.098 127.224 298.749 125.136 299.297 123.176C299.738 121.508 300.797 120.087 301.645 118.613C302.493 117.138 302.572 115.558 304.492 115.073Z" fill="#B9092D"/>
<path d="M265.024 89.765C263.315 89.8893 261.656 90.3945 260.168 91.2436C259.179 91.8085 258.164 92.5677 257.034 92.4308C256.367 92.3558 255.709 91.9895 255.06 92.166C254.695 92.3135 254.354 92.5159 254.05 92.7663C253.895 92.8892 253.712 92.9701 253.517 93.001C253.322 93.0319 253.122 93.0119 252.937 92.9428L252.496 99.0513C252.328 101.373 252.165 103.743 252.721 106.007C253.008 107.164 253.639 108.214 253.71 109.388C253.78 110.562 253.674 111.767 253.758 112.954C253.838 114.053 254.081 115.135 254.142 116.234C254.266 118.308 253.754 120.365 253.259 122.382C252.513 125.357 252.063 128.398 250.611 131.09C250.205 131.836 249.728 132.595 249.728 133.443C249.728 133.548 249.728 133.65 249.754 133.751C249.313 133.994 248.902 134.224 248.527 134.462C247.689 135.005 246.792 135.61 246.448 136.55C246.17 137.313 246.298 138.187 245.963 138.924C245.627 139.661 244.859 140.187 244.691 140.981C244.572 141.559 244.802 142.168 244.691 142.747C244.591 143.046 244.51 143.351 244.448 143.66C244.404 144.322 244.965 144.856 245.521 145.218C246.332 145.753 247.228 146.147 248.17 146.383L250.805 135.923C253.208 131.481 255.207 126.833 256.778 122.033C257.227 120.464 257.804 118.935 258.504 117.461C259.003 116.627 259.446 115.759 259.828 114.865C260.23 113.753 260.269 112.548 260.464 111.374C260.694 110.004 261.041 108.656 261.501 107.345C261.978 105.928 262.53 104.515 262.627 103.028C262.772 100.901 262 98.6541 262.821 96.6856C263.169 95.9488 263.623 95.2664 264.167 94.6597C265.306 93.265 266.344 91.8041 267.482 90.4094C266.891 89.7782 265.907 89.712 265.024 89.765Z" fill="#B9092D"/>
<g opacity="0.1">
<path opacity="0.1" d="M277.463 65.353L276.911 65.3927L276.85 65.4369C277.056 65.4285 277.262 65.4004 277.463 65.353Z" fill="black"/>
<path opacity="0.1" d="M287.563 74.5158C287.471 75.3933 287.282 76.2578 286.998 77.0934C286.816 77.6005 286.668 78.1196 286.557 78.647C286.468 79.1589 286.46 79.6798 286.38 80.1917C286.282 80.8556 286.053 81.4932 285.705 82.067C285.357 82.6408 284.897 83.1392 284.354 83.5329C284.199 83.6591 284.006 83.7291 283.807 83.7315C283.462 83.6918 283.25 83.2901 283.122 82.9282C282.421 80.9023 282.588 78.4263 281.295 76.8109C280.706 76.1592 279.995 75.6298 279.202 75.2529C278.879 75.0443 278.515 74.9074 278.134 74.8512C277.574 74.8813 277.036 75.0781 276.589 75.4162C275.658 76.041 274.624 76.4981 273.534 76.7668C272.991 76.8955 272.426 76.9013 271.88 76.7837C271.333 76.6661 270.821 76.4281 270.378 76.087C269.769 75.5839 269.323 74.8292 268.648 74.4363C267.972 74.0435 267.266 74.0656 266.6 73.7964C266.183 73.6185 265.812 73.3493 265.514 73.0085C265.216 72.6677 264.999 72.2642 264.878 71.8279C264.862 71.7728 264.851 71.7168 264.843 71.6602C264.732 72.1528 264.744 72.6651 264.878 73.152C264.999 73.5883 265.216 73.9918 265.514 74.3326C265.812 74.6734 266.183 74.9426 266.6 75.1205C267.266 75.3897 268.017 75.3941 268.648 75.7604C269.279 76.1268 269.769 76.908 270.378 77.4111C270.821 77.7522 271.333 77.9902 271.88 78.1078C272.426 78.2254 272.991 78.2196 273.534 78.0909C274.624 77.8222 275.658 77.3651 276.589 76.7403C277.036 76.4022 277.574 76.2054 278.134 76.1753C278.515 76.2315 278.879 76.3684 279.202 76.577C279.986 76.9613 280.686 77.495 281.264 78.1482C282.557 79.7636 282.39 82.2397 283.091 84.2655C283.22 84.6319 283.431 85.0291 283.776 85.0688C283.988 85.0699 284.193 84.9947 284.354 84.857C284.9 84.4622 285.361 83.9619 285.71 83.3857C286.058 82.8095 286.288 82.1691 286.385 81.5026C286.464 80.9906 286.473 80.4698 286.561 79.9578C286.673 79.4305 286.82 78.9114 287.003 78.4042C287.433 77.2155 287.632 75.9557 287.59 74.6923C287.581 74.6394 287.572 74.5776 287.563 74.5158Z" fill="black"/>
</g>
<path d="M259.634 109.931L259.334 113.961C259.289 114.508 258.243 127.537 250.527 142.764C243.905 155.824 231.02 172.834 206.693 182.394C204.794 183.145 202.824 183.845 200.782 184.495L198.504 177.345C204.223 175.546 209.731 173.137 214.934 170.16C227.334 163.001 236.975 152.783 243.698 139.635C247.265 132.634 249.807 125.158 251.247 117.434H223.569V109.931H259.634Z" fill="#AF7F32"/>
<path opacity="0.1" d="M203.713 182.399C228.036 172.839 240.926 155.833 247.543 142.773C255.259 127.546 256.31 114.526 256.349 113.969L256.65 109.94H259.74L259.44 113.969C259.4 114.517 258.349 127.546 250.633 142.773C244.011 155.833 231.126 172.839 206.803 182.399C204.905 183.149 202.933 183.851 200.888 184.504L200.588 183.564C201.653 183.184 202.695 182.796 203.713 182.399Z" fill="white"/>
<path d="M155.014 177.345L152.736 184.495C150.691 183.842 148.719 183.14 146.821 182.39C122.498 172.83 109.608 155.824 102.991 142.764C95.2748 127.537 94.2242 114.517 94.1844 113.961L93.8843 109.931H129.932V117.434H102.249C103.696 125.159 106.246 132.635 109.82 139.635C116.543 152.783 126.18 163.001 138.579 170.155C143.783 173.136 149.293 175.546 155.014 177.345Z" fill="#AF7F32"/>
<path opacity="0.1" d="M149.796 182.399C125.473 172.839 112.583 155.833 105.966 142.773C98.2501 127.546 97.1994 114.526 97.1597 113.969L96.8595 109.94H93.7695L94.0697 113.969C94.1094 114.517 95.16 127.546 102.876 142.773C109.498 155.833 122.383 172.839 146.706 182.399C148.604 183.149 150.576 183.851 152.621 184.504L152.922 183.564C151.859 183.184 150.817 182.796 149.796 182.399Z" fill="white"/>
<path d="M218.399 246.463V286.923H135.114V246.463L137.763 242.932C164.752 233.355 170.221 208.378 171.312 198.495C171.474 197.13 171.567 195.757 171.59 194.382H181.888C181.911 195.757 182.004 197.13 182.167 198.495C183.275 208.378 188.744 233.363 215.716 242.932L218.399 246.463Z" fill="#D1912C"/>
<path opacity="0.1" d="M218.399 246.463H135.114V251.539H218.399V246.463Z" fill="black"/>
<path opacity="0.1" d="M142.177 242.932C169.166 233.355 174.636 208.378 175.726 198.495C175.888 197.13 175.981 195.757 176.004 194.382H171.59C171.567 195.757 171.474 197.13 171.312 198.495C170.204 208.378 164.734 233.363 137.763 242.932L135.114 246.463V286.923H139.529V246.463L142.177 242.932Z" fill="white"/>
<path opacity="0.1" d="M122.463 109.931H129.932V117.434H123.125C122.857 114.963 122.636 112.461 122.463 109.931Z" fill="black"/>
<path opacity="0.1" d="M155.014 177.345L152.736 184.495C150.691 183.842 148.719 183.14 146.821 182.39C143.698 178.577 140.939 174.481 138.579 170.155C143.783 173.136 149.293 175.546 155.014 177.345Z" fill="black"/>
<path opacity="0.1" d="M198.5 177.345C204.218 175.546 209.726 173.137 214.93 170.16C212.569 174.486 209.809 178.584 206.688 182.399C204.79 183.149 202.82 183.849 200.777 184.5L198.5 177.345Z" fill="black"/>
<path opacity="0.1" d="M231.046 109.931C230.873 112.461 230.652 114.963 230.384 117.434H223.582V109.931H231.046Z" fill="black"/>
<path opacity="0.1" d="M182.184 198.495C178.599 199.19 174.914 199.19 171.329 198.495C171.492 197.13 171.584 195.757 171.607 194.382H181.906C181.929 195.757 182.022 197.13 182.184 198.495Z" fill="black"/>
<path d="M123.346 97.5021C123.535 153.141 147.373 198.133 176.759 198.133C206.145 198.133 229.978 153.141 230.172 97.5021H123.346Z" fill="#FFB300"/>
<path opacity="0.1" d="M132.836 97.5021H123.346C123.535 153.141 147.373 198.133 176.759 198.133C178.349 198.131 179.936 197.996 181.504 197.732C154.339 193.195 133.017 150.113 132.836 97.5021Z" fill="white"/>
<path d="M205.081 261.951H148.432V276.516H205.081V261.951Z" fill="#3F3D56"/>
<path opacity="0.1" d="M151.081 263.937H205.081V261.951H148.432V276.516H151.081V263.937Z" fill="white"/>
<path d="M93.1338 151.221C92.1141 150.881 86.1106 146.132 85.6559 143.982C85.2013 141.833 88.8298 121.808 88.8298 121.808C88.8298 121.808 88.4944 121.808 87.947 121.742V121.42L88.693 95.1143C88.693 95.1143 91.7521 77.4597 85.9738 78.4881C80.1954 79.5165 83.8196 95.1143 83.8196 95.1143C83.8196 95.1143 83.1618 103.032 82.6983 105.407C82.2569 107.698 80.2351 117.028 81.6124 119.928C81.6628 120.031 81.7188 120.131 81.7802 120.228C81.7802 120.228 82.0097 130.181 79.5156 131.54C77.1363 132.833 76.1475 139.344 76.0636 139.926L75.9356 139.873C75.2252 139.429 74.6014 138.859 74.0948 138.192C74.0418 138.125 74.0021 138.055 73.9535 137.984C75.5777 136.157 76.453 133.785 76.4047 131.341C76.3564 128.898 75.3881 126.562 73.6931 124.801C72.905 123.982 71.9803 123.307 70.9606 122.806C70.931 121.962 70.7313 121.134 70.3735 120.369C69.2258 117.915 62.8691 114.707 58.3533 114.632C56.2697 114.57 54.5614 115.161 53.9389 116.79C53.6211 117.615 53.7182 118.555 53.5858 119.411C53.3209 121.177 52.1865 122.558 50.7297 123.657C50.1415 123.001 49.5056 122.389 48.8271 121.826C47.3528 120.696 44.4128 116.971 44.4128 116.971C44.4128 116.971 35.2354 107.468 34.5556 104.864C33.8758 102.26 24.7072 86.6224 22.6678 89.3457C20.6284 92.0689 29.691 103.937 29.691 103.937C29.691 103.937 31.4126 108.249 32.7369 109.706C34.0612 111.162 44.2142 125.904 44.2142 125.904L44.6997 126.91C42.5544 128.04 40.5944 129.479 39.9014 131.721C38.8861 135.023 41.1065 138.342 42.6427 141.431C45.6356 147.46 46.0638 155.149 42.2012 160.657C38.7404 165.521 32.7369 167.834 27.1174 169.855C29.8313 171.986 33.2028 173.105 36.6524 173.02C35.3546 176.78 30.7549 178.025 26.8349 178.722C28.892 180.7 31.8364 181.419 34.6615 181.856C36.0452 182.091 37.4473 182.202 38.8507 182.187H39.1951L39.5394 182.16C40.0179 182.129 40.494 182.068 40.9652 181.979C43.0046 181.565 44.9867 180.452 46.0284 178.652C46.9113 177.111 47.2203 175.01 48.8227 174.238C49.24 174.05 49.6896 173.943 50.147 173.925H50.0985C50.3986 173.925 50.7077 173.925 51.0078 173.925L57.6867 173.991C57.9648 173.991 58.2518 173.991 58.5387 173.991C60.4236 173.947 62.4365 173.62 63.3945 172.062C63.7885 171.305 63.9959 170.465 63.9992 169.612C64.1405 167.498 63.9992 165.322 64.0566 163.191C64.6261 167.07 65.222 173.117 63.805 175.35C62.6538 177.042 61.2585 178.555 59.6643 179.839C59.2634 180.176 58.8967 180.551 58.5696 180.96C58.3533 181.114 58.2253 181.198 58.2253 181.198L58.0884 181.609C57.5853 182.372 57.2207 183.217 57.0113 184.107C56.9343 184.335 56.9057 184.577 56.9274 184.817C57.0819 185.131 55.8239 186.424 56.1903 186.967C53.0472 190.652 52.4513 196.236 52.4513 196.236L46.7127 204.948C43.7639 212.694 39.3496 213.489 39.3496 213.489C39.3496 213.489 28.9803 206.533 28.6978 206.193C28.4153 205.853 24.4512 204.154 24.4512 204.154C23.9838 203.334 23.2703 202.683 22.4118 202.291C21.0521 201.726 20.9374 199.643 20.9374 199.643C20.7696 194.722 17.8782 194.347 17.8782 194.347C15.5475 194.148 13.7685 194.563 12.4 195.322L11.9851 195.353C9.981 195.516 7.57077 195.697 4.92217 195.874C-2.44536 196.359 -4.19785 201.13 -4.19785 201.13C-4.19785 201.13 -5.10279 202.15 -3.91533 203.253C-2.72788 204.357 4.87361 203.253 5.19585 203.227C4.61653 203.29 4.03068 203.249 3.46543 203.108C4.66172 203.064 6.30826 203.019 7.71202 203.019H8.05193C7.96356 203.763 7.9208 204.512 7.92391 205.262C7.92391 206.674 11.8306 207.579 11.8306 207.579L23.7272 218.171C23.7272 218.171 31.2051 221.513 35.9638 226.319C40.7224 231.126 44.9293 226.977 44.9293 226.977C49.966 225.732 64.4583 208.214 64.4715 208.197C64.4715 208.709 64.7761 225.745 65.3544 229.166C65.3774 229.339 65.4203 229.51 65.4824 229.673C66.1622 231.143 65.2529 235.16 64.86 236.855C64.6094 238.273 64.5132 239.714 64.5731 241.153C64.5731 241.153 59.139 261.898 59.5893 263.72C60.0396 265.543 56.6449 274.013 56.6449 274.013V281.075L57.2365 281.044C57.1595 281.158 57.0888 281.276 57.0246 281.397L56.9848 281.472C56.9848 281.472 60.609 282.262 63.0457 282.037C65.4824 281.812 69.6672 283.913 69.6672 283.913C69.6672 283.913 71.0842 284.584 75.4456 284.866C79.8069 285.149 79.8069 282.942 79.8069 282.942C79.3081 279.936 72.4174 278.93 72.2055 278.899C71.6493 278.55 71.1284 278.171 70.7002 277.844L70.6119 277.774C70.6408 277.707 70.6658 277.64 70.6869 277.571C71.4241 274.569 67.3453 273.267 67.3453 273.267V272.535C69.9939 271.175 70.5192 261.845 70.5192 261.845C70.5192 261.845 74.4921 250.307 75.0483 248.383C75.6045 246.459 75.0483 243.577 75.0483 243.577L75.4456 241.087C75.4456 241.087 76.2975 239.392 76.2975 239.053C76.4078 238.191 76.7394 237.373 77.2599 236.678C77.8823 235.941 76.5801 234.189 76.5801 234.189L77.7146 231.249V228.023L80.3632 216.318C80.3632 216.318 83.1398 202.684 82.1774 198.222C81.2151 193.76 83.3119 191.491 83.3119 191.491C83.1229 191.59 82.9284 191.679 82.7292 191.756C82.9943 191.143 83.2228 190.515 83.4135 189.876L89.3728 190.613V190.701H91.5226C91.5226 190.701 90.8428 182.315 90.8428 178.934C90.8428 175.553 93.1338 163.42 93.1338 163.42C93.1338 163.42 94.1535 151.561 93.1338 151.221ZM66.6787 141.431C66.6787 141.762 66.6478 142.107 66.6257 142.46L66.5066 142.641L66.2858 142.455L66.0166 142.875L65.9371 142.914C65.3544 142.614 65.0542 140.897 64.6349 141.268L64.5775 141.316C64.4848 141.211 64.3921 141.18 64.295 141.268L64.2067 141.343C64.2067 141.215 64.2067 141.083 64.2067 140.95C65.0143 141.158 65.8448 141.263 66.6787 141.264C66.6831 141.321 66.6787 141.378 66.6787 141.431ZM86.4991 180.483H86.6271L86.4152 181.039C86.4417 180.854 86.4682 180.673 86.4991 180.483ZM64.7408 280.572L63.9286 280.369L64.37 280.294L64.7805 280.563L64.8291 280.598L64.7408 280.572ZM73.0398 279.385C72.7705 279.243 72.4968 279.08 72.2319 278.912C72.3202 278.961 72.669 279.142 73.0398 279.385Z" fill="url(#paint1_linear)"/>
<path d="M89.4302 172.146L84.0844 186.075H85.3823L80.3543 190.083L89.4302 191.213V172.146Z" fill="#F86D70"/>
<path opacity="0.1" d="M89.4302 172.146L84.0844 186.075L82.7381 185.713L80.3543 190.083L89.4302 191.213V172.146Z" fill="black"/>
<path d="M81.0474 181.057H89.4302L92.507 155.745H81.0474V181.057Z" fill="#F86D70"/>
<path opacity="0.1" d="M81.0474 181.057H89.4302L92.507 155.745H81.0474V181.057Z" fill="black"/>
<path d="M64.6746 161.739L66.4845 161.434L70.6428 160.728C70.6428 160.728 83.1309 157.912 85.7089 157.682C87.2706 157.476 88.7936 157.042 90.2292 156.394C90.9046 156.102 91.3328 155.882 91.3328 155.882L86.8346 147.668L79.8555 142.495C79.8555 142.495 75.4412 141.555 73.5739 138.986C73.1572 138.433 72.8859 137.785 72.7848 137.1C72.6838 136.415 72.7563 135.716 72.9956 135.067C74.1345 131.536 66.1932 138.443 66.1932 138.443C66.1932 138.443 66.2682 140.098 66.1932 142.208C66.1932 142.623 66.1534 143.055 66.1225 143.497C66.1225 143.788 66.0828 144.079 66.0519 144.38C65.8577 146.476 65.4604 148.634 64.6746 149.923C62.7544 153.074 64.6746 161.739 64.6746 161.739Z" fill="#FBBEBE"/>
<path opacity="0.1" d="M66.1931 142.385H66.3697C66.6875 142.385 66.9436 141.709 67.2526 141.678C69.7379 141.44 72.0068 140.919 73.5827 139.158C73.1671 138.606 72.8965 137.958 72.7955 137.274C72.6945 136.59 72.7663 135.892 73.0045 135.243C74.1434 131.712 66.202 138.615 66.202 138.615C66.202 138.615 66.2858 140.275 66.1931 142.385Z" fill="black"/>
<path d="M56.5258 132.374C56.5252 133.645 56.7751 134.903 57.2611 136.077C57.7472 137.252 58.4599 138.318 59.3586 139.217C60.2572 140.115 61.3241 140.828 62.4984 141.314C63.6726 141.8 64.9311 142.05 66.202 142.049C66.5198 142.049 66.8332 142.049 67.1467 142.005C69.0111 141.822 70.7824 141.102 72.2455 139.932C73.7086 138.762 74.8005 137.193 75.3888 135.415C75.9771 133.636 76.0364 131.725 75.5595 129.914C75.0826 128.102 74.09 126.468 72.7023 125.21C71.3146 123.952 69.5914 123.123 67.7418 122.825C65.8923 122.527 63.996 122.772 62.2831 123.531C60.5702 124.289 59.1144 125.529 58.0924 127.099C57.0704 128.669 56.5262 130.501 56.5258 132.374Z" fill="#FBBEBE"/>
<path d="M53.5549 117.69C53.2371 118.511 53.3342 119.429 53.2062 120.299C52.7338 123.437 49.5423 125.317 46.6553 126.632C43.7683 127.948 40.5105 129.506 39.5924 132.538C38.5859 135.817 40.7842 139.105 42.3116 142.182C45.2869 148.175 45.7106 155.82 41.8702 161.302C38.4579 166.157 32.5118 168.46 26.9144 170.482C29.6083 172.601 32.9565 173.715 36.3832 173.633C35.0986 177.372 30.5297 178.612 26.6363 179.3C28.6801 181.269 31.6068 181.984 34.4099 182.416C36.4538 182.734 38.5506 182.942 40.59 182.531C42.6294 182.121 44.5629 181.013 45.6135 179.221C46.4964 177.689 46.7966 175.602 48.3901 174.829C49.1095 174.546 49.8844 174.433 50.6547 174.498L57.2762 174.569C59.3377 174.569 61.7788 174.41 62.8427 172.649C63.2351 171.897 63.441 171.061 63.443 170.213C63.73 165.87 62.8956 161.279 64.6834 157.316C65.222 156.12 61.7656 154.226 62.1275 152.96C63.3724 148.603 63.6858 145.174 63.6726 140.641C63.6726 137.132 65.9548 134.109 67.8397 131.147C69.7246 128.186 71.3005 124.447 69.8129 121.27C68.1355 117.725 55.5369 112.575 53.5549 117.69Z" fill="#3F3D56"/>
<path d="M62.3703 279.301L64.0566 280.417L64.3171 280.589L64.3656 280.62L66.3653 281.944L71.0357 282.73L75.141 282.448C75.141 282.448 76.324 279.976 74.4656 280.033C73.8704 280.003 73.2902 279.835 72.7705 279.543L72.5145 279.415C72.2452 279.274 71.9759 279.115 71.7111 278.948C71.1593 278.599 70.6384 278.219 70.219 277.897C69.601 277.42 69.1905 277.058 69.1905 277.058L62.3703 279.301Z" fill="#FBBEBE"/>
<path opacity="0.1" d="M64.0787 280.417L64.3391 280.589L64.3877 280.62L66.3874 281.944L71.0577 282.73L75.1631 282.448C75.1631 282.448 76.3461 279.976 74.4877 280.033C73.8924 280.003 73.3123 279.835 72.7926 279.543C73.1192 279.799 73.3929 280.077 73.4194 280.311C73.4944 280.943 70.3823 282.077 70.3823 282.077L65.9945 280.916C65.9945 280.916 65.2485 280.704 64.2288 280.439L64.1316 280.413L64.0787 280.417Z" fill="black"/>
<path d="M56.5743 281.494C56.5743 281.494 60.172 282.28 62.591 282.055C65.0101 281.83 69.1772 283.913 69.1772 283.913C69.1772 283.913 70.5854 284.575 74.9158 284.857C79.2463 285.14 79.2463 282.942 79.2463 282.942C78.7519 279.954 71.9097 278.97 71.6978 278.926C71.7817 278.97 72.1392 279.151 72.5012 279.393C72.9868 279.711 73.5121 280.126 73.5518 280.461C73.6269 281.088 70.5148 282.227 70.5148 282.227L66.1269 281.071C66.1269 281.071 65.3809 280.854 64.3612 280.589H64.2641C62.7521 280.178 61.2158 279.861 59.6643 279.641C57.775 279.438 56.8082 281.044 56.6096 281.406C56.5952 281.434 56.5834 281.464 56.5743 281.494Z" fill="#3F3D56"/>
<path d="M-0.132263 202.123L1.77915 203.589C1.77915 203.589 2.33535 203.562 3.16525 203.536H3.43011C4.61757 203.492 6.25529 203.448 7.6458 203.448C8.54468 203.407 9.44535 203.457 10.3341 203.598C11.2876 203.933 12.9827 198.142 12.9827 198.142L11.0669 197.701L10.4312 197.551L9.98981 197.445L8.43155 197.079L3.70822 197.617L0.388632 199.753L-0.132263 202.123Z" fill="#FBBEBE"/>
<path opacity="0.1" d="M-0.132263 202.123L1.77914 203.589C1.77914 203.589 2.33535 203.562 3.16525 203.536C2.78442 203.389 2.47043 203.108 2.28238 202.746C1.04636 199.316 7.17788 197.851 7.17788 197.851L10.034 197.727L10.5902 197.701H11.0316L10.3959 197.551L9.95449 197.445L8.39624 197.079L3.6729 197.617L0.353316 199.753L-0.132263 202.123Z" fill="black"/>
<path d="M-3.9021 203.673C-2.74555 204.741 4.82945 203.673 5.14728 203.646C4.5724 203.711 3.99053 203.671 3.43011 203.527C3.15265 203.477 2.88978 203.366 2.66067 203.202C2.43156 203.038 2.242 202.825 2.10581 202.578C0.869794 199.144 7.0013 197.683 7.0013 197.683L9.85738 197.56L10.4092 197.533L17.3529 197.233L17.6884 195.322C17.6884 195.322 15.4327 195.534 11.8924 195.816C9.90152 195.98 7.47806 196.161 4.86036 196.333C-2.4542 196.818 -4.19345 201.563 -4.19345 201.563C-4.19345 201.563 -5.08073 202.578 -3.9021 203.673Z" fill="#3F3D56"/>
<path d="M81.0518 120.828C81.0988 120.933 81.1549 121.034 81.2195 121.129L82.9058 123.6L87.2937 124.042L87.3422 122.303L88.0794 96.1384C88.0794 96.1384 91.1165 78.5897 85.3779 79.6004C79.6392 80.6111 83.2413 96.1384 83.2413 96.1384C83.2413 96.1384 82.588 104.012 82.1289 106.378C81.6831 108.664 79.6834 117.959 81.0518 120.828Z" fill="#FBBEBE"/>
<path d="M71.2034 185.815L72.4527 187.951L75.2469 192.731C75.2469 192.731 80.3146 194.589 81.6124 193.173C82.3231 192.4 83.0912 189.703 83.6298 187.435C84.0712 185.599 84.367 184.05 84.367 184.05L71.2034 185.815Z" fill="#FBBEBE"/>
<path opacity="0.1" d="M71.2034 185.815L72.4527 187.951C72.531 187.884 72.602 187.808 72.6646 187.726C74.0771 185.925 80.2969 187.342 83.6298 187.457C84.0712 185.621 84.367 184.072 84.367 184.072L71.2034 185.815Z" fill="black"/>
<path opacity="0.1" d="M7.64581 203.439C8.54469 203.398 9.44535 203.449 10.3341 203.589C11.2876 203.924 12.9827 198.134 12.9827 198.134L10.4313 197.533L17.375 197.233L17.7105 195.322C17.7105 195.322 15.4548 195.534 11.9145 195.816C11.1829 196.238 10.5302 196.783 9.98541 197.427L9.87946 197.56C8.40066 199.374 7.85329 201.713 7.64581 203.439Z" fill="black"/>
<path opacity="0.1" d="M62.3703 279.301L64.3171 280.589C67.2217 280.064 69.8747 279.239 70.1881 277.941C70.1896 277.921 70.1896 277.9 70.1881 277.88C69.5701 277.403 69.1596 277.041 69.1596 277.041L62.3703 279.301Z" fill="black"/>
<path opacity="0.1" d="M56.614 281.419C59.1791 281.292 61.7347 281.018 64.2685 280.598C62.7552 280.183 61.2175 279.864 59.6643 279.641C57.7794 279.438 56.8127 281.044 56.614 281.419Z" fill="black"/>
<path d="M7.85767 205.668C7.85767 207.076 11.7379 207.976 11.7379 207.976L23.555 218.494C23.555 218.494 30.98 221.813 35.7033 226.593C40.4266 231.373 44.5938 227.268 44.5938 227.268C49.5996 226.032 64.0168 208.594 64.0168 208.594C64.0168 208.594 64.3523 228.508 65.0277 229.969C65.7031 231.43 64.8026 235.424 64.4097 237.115C64.1618 238.525 64.0671 239.957 64.1272 241.387C64.1272 241.387 58.7285 262.03 59.1787 263.831C59.629 265.632 56.252 274.07 56.252 274.07V281.101C56.252 281.101 69.473 280.594 70.2013 277.615C70.9297 274.635 66.8862 273.338 66.8862 273.338V272.605C69.5348 271.255 70.0336 261.977 70.0336 261.977C70.0336 261.977 73.9756 250.502 74.5362 248.59C75.0968 246.679 74.5362 243.806 74.5362 243.806L74.9291 241.334C74.9291 241.334 75.7722 239.644 75.7722 239.309C75.8824 238.452 76.2124 237.639 76.7301 236.947C77.3482 236.215 76.0547 234.471 76.0547 234.471L77.1804 231.545V228.341L79.829 216.697C79.829 216.697 82.588 203.139 81.6301 198.694C80.6721 194.249 82.7557 192.003 82.7557 192.003C78.2398 194.369 75.9621 189.103 75.216 186.839C75.0262 186.256 74.9335 185.868 74.9335 185.868C74.9335 185.868 68.7314 183.582 62.9574 184.129C61.7848 184.224 60.6291 184.469 59.5187 184.857C53.1046 187.166 52.0937 196.726 52.0937 196.726L46.4125 205.39C43.4858 213.096 39.0979 213.881 39.0979 213.881C39.0979 213.881 28.8037 206.965 28.5035 206.625C28.2033 206.286 24.2834 204.599 24.2834 204.599C23.8199 203.784 23.1109 203.135 22.2572 202.746C20.9064 202.181 20.7961 200.098 20.7961 200.098C20.6283 195.203 17.759 194.801 17.759 194.801C7.80029 193.971 7.85767 204.264 7.85767 205.668Z" fill="#3F3D56"/>
<path d="M65.1293 178.166H71.2034V159.324H65.1293V178.166Z" fill="#F86D70"/>
<path opacity="0.1" d="M65.1293 178.166H71.2034V159.324H65.1293V178.166Z" fill="black"/>
<path opacity="0.1" d="M81.0474 120.789C81.0464 120.802 81.0464 120.815 81.0474 120.828C81.0944 120.933 81.1505 121.033 81.2151 121.128L82.9014 123.6L87.2892 124.041L87.3378 122.302C85.9694 122.197 82.8528 121.821 81.0474 120.789Z" fill="black"/>
<path d="M81.2195 121.128C81.2195 121.128 81.4447 131.024 78.9682 132.374C76.4918 133.725 75.5295 140.76 75.5295 140.76C75.5295 140.76 83.0338 145.695 84.7069 147.866C86.3799 150.038 90.2204 155.211 89.4302 156.447C88.64 157.682 91.346 163.31 91.346 163.31C91.346 163.31 86.3931 173.435 87.5188 177.261C88.6445 181.088 88.7548 191.209 88.7548 191.209H90.8958C90.8958 191.209 90.2204 182.884 90.2204 179.508C90.2204 176.131 92.4673 164.095 92.4673 164.095C92.4673 164.095 93.4826 152.284 92.4673 151.949C91.452 151.614 85.4926 146.887 85.0423 144.746C84.5921 142.605 88.1942 122.678 88.1942 122.678C88.1942 122.678 83.5812 122.479 81.2195 121.128Z" fill="#F86D70"/>
<path opacity="0.1" d="M65.0145 157.576C65.2199 158.953 65.7214 160.269 66.4845 161.434L70.6428 160.728C70.6428 160.728 83.1309 157.912 85.7089 157.682C87.2706 157.476 88.7936 157.042 90.2292 156.394C89.2397 152.888 87.3084 149.72 84.6451 147.235L83.0603 145.765C80.725 143.598 78.0186 141.868 75.0704 140.659C75.2558 140.813 88.3575 151.998 85.4882 154.191C82.6189 156.385 74.8938 151.044 74.8938 151.044L66.1093 143.497L65.7914 143.223L65.2838 144.013C65.5421 144.119 65.7941 144.24 66.0386 144.375C69.0325 146.018 71.2544 148.779 72.2187 152.055C74.0242 158.124 65.0145 157.576 65.0145 157.576Z" fill="black"/>
<path d="M62.3129 185.7C62.3129 185.7 70.6384 190.312 72.6601 187.726C73.1016 187.157 74.033 186.91 75.194 186.843C75.0042 186.261 74.9115 185.872 74.9115 185.872C74.9115 185.872 68.7093 183.586 62.9354 184.133C62.5557 185.087 62.3129 185.7 62.3129 185.7Z" fill="#444053"/>
<path d="M66.1446 143.232L75.2469 151.062C75.2469 151.062 82.9411 156.42 85.8413 154.209C88.7416 151.998 75.4191 140.672 75.4191 140.672C78.361 141.885 81.0647 143.609 83.4046 145.765L84.9894 147.235C89.1565 151.097 90.0968 151.097 90.238 156.773C90.2733 158.172 89.7966 160.181 89.4302 160.542C88.0794 161.867 87.1348 171.484 87.3422 172.609C87.5497 173.735 84.8261 183.449 85.7089 186.15C86.5918 188.852 74.6731 184.8 72.6557 187.391C70.6384 189.982 62.3129 185.365 62.3129 185.365C62.3129 185.365 66.9259 173.549 68.0516 172.764C69.1772 171.978 70.528 165.901 68.0516 163.089C65.5751 160.278 65.3544 157.576 65.3544 157.576C65.3544 157.576 74.3597 158.133 72.5542 152.064C72.0463 150.305 71.1651 148.676 69.9706 147.288C68.7761 145.9 67.2965 144.786 65.6325 144.022L66.1446 143.232Z" fill="#E8E8F0"/>
<path opacity="0.1" d="M78.2928 163.146C78.2928 163.146 74.8011 169.727 70.2852 171.435C70.1395 171.488 69.9983 171.537 69.8438 171.581C65.1293 173.015 78.646 165.186 78.2928 163.146Z" fill="black"/>
<path d="M29.4614 104.926C29.4614 104.926 31.1477 109.203 32.4985 110.664C33.8493 112.125 43.861 126.751 43.861 126.751L44.7086 128.517L45.4369 130.022L51.851 129.347L52.2924 126.76L52.0452 126.46C51.4007 125.688 49.6438 123.613 48.4652 122.709C47.004 121.587 44.0773 117.876 44.0773 117.876C44.0773 117.876 34.9661 108.422 34.2907 105.835C33.6153 103.249 24.4997 87.7391 22.478 90.4226C20.4562 93.1061 29.4614 104.926 29.4614 104.926Z" fill="#FBBEBE"/>
<g opacity="0.1">
<path opacity="0.1" d="M48.0723 174.498C47.3024 174.432 46.5275 174.544 45.8077 174.825C44.2186 175.597 43.9184 177.685 43.0355 179.217C42.0026 181.009 40.0338 182.116 38.0076 182.527C37.6049 182.605 37.1981 182.661 36.7892 182.695C38.0797 182.82 39.3815 182.764 40.6562 182.527C42.6824 182.116 44.6512 181.009 45.6841 179.217C46.567 177.685 46.8672 175.597 48.4563 174.825C48.8736 174.637 49.3234 174.532 49.7806 174.516L48.0723 174.498Z" fill="black"/>
<path opacity="0.1" d="M63.752 140.641C63.752 137.132 66.0342 134.109 67.9147 131.147C69.7952 128.186 71.3756 124.448 69.8879 121.27C68.6166 118.555 60.9533 114.914 56.5302 115.633C60.8606 116.194 66.1976 119.045 67.2393 121.27C68.727 124.448 67.1466 128.186 65.2661 131.147C63.3856 134.109 61.0946 137.132 61.1034 140.641C61.1034 145.17 60.7988 148.586 59.554 152.96C59.1964 154.218 62.644 156.12 62.1143 157.312C60.3221 161.284 61.1608 165.865 60.8739 170.208C60.8679 171.057 60.6606 171.892 60.2691 172.645C59.3862 174.097 57.5764 174.472 55.815 174.551H57.3556C59.4127 174.551 61.8538 174.392 62.9177 172.631C63.3092 171.879 63.5165 171.044 63.5225 170.195C63.8094 165.852 62.9707 161.266 64.7629 157.298C65.3014 156.107 61.845 154.209 62.2026 152.946C63.4474 148.603 63.7608 145.17 63.752 140.641Z" fill="black"/>
</g>
<path opacity="0.1" d="M44.7086 128.508L45.4369 130.013L51.851 129.338L52.2924 126.751L52.0452 126.451C51.361 126.787 46.2359 129.254 44.7086 128.508Z" fill="black"/>
<path opacity="0.1" d="M68.3915 145.426C68.3915 145.426 66.8155 142.954 65.915 143.625C65.0145 144.296 64.6658 141.599 64.1493 142.049C63.6328 142.499 62.1275 143.753 61.5007 142.001C61.0107 140.606 55.6782 131.783 53.5152 128.234C52.959 127.316 52.6102 126.751 52.6102 126.751C52.6102 126.751 46.5361 129.788 45.075 128.777V130.914L46.311 131.028L52.9325 143.387C52.9325 143.387 55.016 146.701 54.8748 147.858C54.7335 149.014 57.5454 154.076 57.9957 154.412C58.446 154.747 63.2929 160.375 63.2929 160.375C63.2929 160.375 65.7694 172.526 63.6284 175.902C61.4874 179.278 57.7794 181.75 57.7794 181.75C57.7794 181.75 56.6626 185.012 56.8259 185.352C56.9892 185.691 55.5281 187.152 56.2035 187.603C56.8789 188.053 57.7794 191.2 57.7794 191.2C57.7794 191.2 60.9312 186.137 62.6352 185.352C64.3391 184.566 66.5198 174.212 66.5198 174.212C66.5198 174.212 67.1422 168.112 67.1908 164.175C67.2393 160.238 67.0407 145.426 68.3915 145.426Z" fill="black"/>
<path d="M68.0516 145.426C68.0516 145.426 66.4801 142.954 65.5795 143.625C64.679 144.296 64.3259 141.599 63.8138 142.049C63.3017 142.499 61.7965 143.753 61.1652 142.001C60.6708 140.606 55.3383 131.783 53.1797 128.234L52.2747 126.751C52.2747 126.751 46.2006 129.788 44.735 128.777V130.914L45.9755 131.028L52.597 143.387C52.597 143.387 54.685 146.701 54.5393 147.858C54.3936 149.014 57.1879 154.076 57.6602 154.412C58.1326 154.747 62.9574 160.375 62.9574 160.375C62.9574 160.375 65.4339 172.525 63.2973 175.902C62.1687 177.598 60.7957 179.118 59.2229 180.413C57.9018 181.502 56.9719 182.993 56.5743 184.659C56.4977 184.886 56.4706 185.126 56.4948 185.365C56.6582 185.7 55.197 187.166 55.8724 187.616C56.5478 188.066 57.4572 191.226 57.4572 191.226C57.4572 191.226 60.609 186.164 62.3129 185.378C64.0169 184.592 66.202 174.238 66.202 174.238C66.202 174.238 66.82 168.138 66.8729 164.201C66.9259 160.264 66.7273 145.426 68.0516 145.426Z" fill="#F86D70"/>
<path opacity="0.1" d="M52.6367 196.615C52.6367 196.615 57.3645 197.498 59.2582 198.862C61.152 200.226 52.0584 196.726 52.0584 196.726L52.6367 196.615Z" fill="black"/>
<path opacity="0.1" d="M64.0036 208.594C64.0036 208.594 68.9345 212.703 68.0516 216.415C67.1687 220.127 64.8909 229.466 64.8909 229.466L64.0036 208.594Z" fill="black"/>
<path opacity="0.1" d="M20.88 200.693C20.88 200.693 13.9318 201.453 14.3821 202.353C14.8324 203.253 20.88 201.523 20.88 201.523V200.693Z" fill="black"/>
<path opacity="0.1" d="M74.2316 234.864C74.2316 234.864 74.6731 235.425 72.0951 234.864C69.5171 234.303 71.4197 232.573 71.4197 232.573L74.2316 234.864Z" fill="black"/>
<path opacity="0.1" d="M73.3488 242.628C73.3488 242.628 69.8173 243.188 67.9236 242.628C66.0298 242.067 73.3488 242.628 73.3488 242.628Z" fill="black"/>
<path opacity="0.1" d="M66.0828 273.002C66.0828 273.002 65.4648 272.327 62.3703 273.563C59.2759 274.799 58.0399 274.856 57.1393 274.446C56.2388 274.035 66.0828 273.002 66.0828 273.002Z" fill="black"/>
<path opacity="0.1" d="M69.5171 199.736L65.1293 205.84C65.1293 205.84 67.4909 200.495 69.5171 199.736Z" fill="black"/>
<path opacity="0.1" d="M60.9886 143.625C60.9886 143.625 60.7988 145.651 57.9692 146.441C55.1396 147.231 54.6011 147.871 54.6011 147.871" fill="black"/>
<path opacity="0.1" d="M53.6343 128.941C53.6343 128.941 49.8998 131.589 46.002 131.028L53.6343 128.941Z" fill="black"/>
<path opacity="0.1" d="M56.4772 185.643C56.4772 185.643 57.5675 186.327 60.1852 183.334L56.4772 185.643Z" fill="black"/>
<path opacity="0.1" d="M83.6651 153.913C83.771 153.366 83.3914 152.858 83.0338 152.43L82.301 151.547C82.1578 151.367 81.9966 151.201 81.8199 151.053C81.3785 150.713 80.8134 150.612 80.3543 150.307" fill="black"/>
<path opacity="0.1" d="M320.68 0.0486322C320.68 0.0486322 283.515 -2.1935 287.885 23.8471C287.885 23.8471 287.003 28.4505 291.187 30.5382C291.187 30.5382 291.254 28.6094 295.001 29.267C296.336 29.4882 297.691 29.5534 299.041 29.4613C300.863 29.3354 302.596 28.6196 303.976 27.4221C303.976 27.4221 314.425 23.1056 318.486 6.03355C318.486 6.03355 321.492 2.30843 321.373 1.35066L315.1 4.02975C315.1 4.02975 317.245 8.55375 315.541 12.3142C315.541 12.3142 315.338 4.19306 314.133 4.3696C313.89 4.40933 310.875 5.93645 310.875 5.93645C310.875 5.93645 314.561 13.8148 311.78 19.5438C311.78 19.5438 312.835 9.83371 309.723 6.50581L305.309 9.08339C305.309 9.08339 309.617 17.2222 306.695 23.8647C306.695 23.8647 307.445 13.678 304.377 9.71013L300.378 12.8306C300.378 12.8306 304.426 20.8546 301.958 26.3629C301.958 26.3629 301.636 14.5034 299.513 13.6074C299.513 13.6074 296.012 16.6969 295.478 17.9593C295.478 17.9593 298.25 23.7853 296.529 26.8572C296.529 26.8572 295.474 18.9567 294.608 18.9126C294.608 18.9126 291.121 24.1472 290.759 27.7399C290.759 27.7399 290.909 22.4038 293.765 18.4183C293.765 18.4183 290.393 18.9965 288.424 21.1812C288.424 21.1812 288.967 17.4826 294.626 17.1604C294.626 17.1604 297.509 13.1881 298.277 12.9453C298.277 12.9453 292.653 12.4775 289.241 13.987C289.241 13.987 292.242 10.4958 299.31 12.0847L303.261 8.85829C303.261 8.85829 295.853 7.84757 292.71 8.96422C292.71 8.96422 296.326 5.87466 304.324 8.12562L308.624 5.55688C308.624 5.55688 302.307 4.19747 298.546 4.67415C298.546 4.67415 302.519 2.53352 309.887 4.85511L312.977 3.47363C312.977 3.47363 308.35 2.56442 306.995 2.41877C305.64 2.27312 305.569 1.90237 305.569 1.90237C308.5 1.41371 311.509 1.74834 314.261 2.86896C314.261 2.86896 320.794 0.459102 320.68 0.0486322Z" fill="#6C63FF"/>
<path opacity="0.1" d="M274.841 6.67347C274.841 6.67347 258.067 5.65833 260.031 17.4251C260.031 17.4251 259.638 19.5084 261.519 20.4529C261.519 20.4529 261.55 19.5702 263.245 19.8747C263.847 19.976 264.459 20.0057 265.068 19.963C265.892 19.907 266.675 19.583 267.297 19.0405C267.297 19.0405 272.02 17.0941 273.857 9.37905C273.857 9.37905 275.212 7.69303 275.159 7.26049L272.325 8.46983C272.325 8.46983 273.296 10.5178 272.532 12.217C272.532 12.217 272.44 8.54486 271.897 8.63314C271.786 8.63314 270.422 9.33932 270.422 9.33932C270.422 9.33932 272.091 12.9011 270.833 15.492C270.833 15.492 271.31 11.1048 269.902 9.59973L267.906 10.7649C267.906 10.7649 269.857 14.4415 268.533 17.4428C268.533 17.4428 268.873 12.8394 267.487 11.0474L265.681 12.473C265.681 12.473 267.509 16.101 266.397 18.5859C266.397 18.5859 266.251 13.2278 265.289 12.8261C265.289 12.8261 263.708 14.2208 263.465 14.7946C263.465 14.7946 264.719 17.4428 263.942 18.811C263.942 18.811 263.465 15.2404 263.059 15.2271C263.059 15.2271 261.488 17.5929 261.32 19.1994C261.399 17.7001 261.867 16.2472 262.68 14.9844C261.77 15.1566 260.931 15.5908 260.265 16.2335C260.265 16.2335 260.512 14.5651 263.068 14.415C263.068 14.415 264.392 12.6231 264.719 12.5127C264.719 12.5127 262.176 12.3009 260.636 12.985C260.636 12.985 261.991 11.4049 265.187 12.1023L266.953 10.6458C266.953 10.6458 263.607 10.2044 262.185 10.6943C262.185 10.6943 263.819 9.2996 267.434 10.3147L269.376 9.15394C269.376 9.15394 266.525 8.53603 264.821 8.76113C264.821 8.76113 266.617 7.79013 269.946 8.84058L271.336 8.21825C271.336 8.21825 269.244 7.80337 268.63 7.74158C268.017 7.67978 267.986 7.50765 267.986 7.50765C269.311 7.28724 270.671 7.44007 271.914 7.94902C271.914 7.94902 274.894 6.85884 274.841 6.67347Z" fill="#6C63FF"/>
<path d="M333.437 287.223C343.24 287.223 351.187 285.879 351.187 284.222C351.187 282.564 343.24 281.221 333.437 281.221C323.634 281.221 315.687 282.564 315.687 284.222C315.687 285.879 323.634 287.223 333.437 287.223Z" fill="#6C63FF"/>
<path d="M340.778 279.314C341.588 278.654 342.178 277.762 342.469 276.758C342.689 275.748 342.257 274.552 341.286 274.159C340.2 273.744 339.039 274.499 338.16 275.258C337.282 276.017 336.271 276.886 335.123 276.723C335.715 276.186 336.157 275.505 336.408 274.746C336.658 273.988 336.709 273.177 336.554 272.393C336.503 272.069 336.366 271.764 336.156 271.511C335.551 270.866 334.461 271.14 333.737 271.647C331.442 273.263 330.802 276.383 330.788 279.186C330.559 278.175 330.753 277.12 330.749 276.096C330.744 275.072 330.457 273.89 329.579 273.347C329.037 273.055 328.428 272.912 327.813 272.932C326.785 272.892 325.632 272.998 324.931 273.753C324.048 274.688 324.282 276.26 325.041 277.284C325.8 278.308 326.961 278.965 328.029 279.676C328.884 280.185 329.613 280.881 330.162 281.711C330.228 281.827 330.281 281.949 330.32 282.077H336.792C338.239 281.34 339.58 280.411 340.778 279.314Z" fill="#6C63FF"/>
<defs>
<linearGradient id="paint0_linear" x1="285.903" y1="222.859" x2="285.903" y2="45.2973" gradientUnits="userSpaceOnUse">
<stop stop-color="#808080" stop-opacity="0.25"/>
<stop offset="0.54" stop-color="#808080" stop-opacity="0.12"/>
<stop offset="1" stop-color="#808080" stop-opacity="0.1"/>
</linearGradient>
<linearGradient id="paint1_linear" x1="17520.7" y1="110600" x2="39323.8" y2="110600" gradientUnits="userSpaceOnUse">
<stop stop-color="#808080" stop-opacity="0.25"/>
<stop offset="0.54" stop-color="#808080" stop-opacity="0.12"/>
<stop offset="1" stop-color="#808080" stop-opacity="0.1"/>
</linearGradient>
</defs>
</svg>
