<svg width="16" height="16" viewBox="0 0 16 16" xmlns="http://www.w3.org/2000/svg">
<path d="M0.5 4H15.5V12.5H0.5V4Z" fill="#57A4FF"/>
<path d="M1.5 13.5H2.25V14.5H1.5V13.5Z" fill="#57A4FF"/>
<path d="M13.75 13.5H14.5V14.5H13.75V13.5Z" fill="#57A4FF"/>
<path d="M15.5 3.75H0.5C0.433696 3.75 0.370107 3.77634 0.323223 3.82322C0.276339 3.87011 0.25 3.9337 0.25 4V13.5C0.25 13.5663 0.276339 13.6299 0.323223 13.6768C0.370107 13.7237 0.433696 13.75 0.5 13.75H1.25V14.25H1C0.933696 14.25 0.870107 14.2763 0.823223 14.3232C0.776339 14.3701 0.75 14.4337 0.75 14.5C0.75 14.5663 0.776339 14.6299 0.823223 14.6768C0.870107 14.7237 0.933696 14.75 1 14.75H2.75C2.8163 14.75 2.87989 14.7237 2.92678 14.6768C2.97366 14.6299 3 14.5663 3 14.5C3 14.4337 2.97366 14.3701 2.92678 14.3232C2.87989 14.2763 2.8163 14.25 2.75 14.25H2.5V13.75H13.5V14.25H13.25C13.1837 14.25 13.1201 14.2763 13.0732 14.3232C13.0263 14.3701 13 14.4337 13 14.5C13 14.5663 13.0263 14.6299 13.0732 14.6768C13.1201 14.7237 13.1837 14.75 13.25 14.75H15C15.0663 14.75 15.1299 14.7237 15.1768 14.6768C15.2237 14.6299 15.25 14.5663 15.25 14.5C15.25 14.4337 15.2237 14.3701 15.1768 14.3232C15.1299 14.2763 15.0663 14.25 15 14.25H14.75V13.75H15.5C15.5663 13.75 15.6299 13.7237 15.6768 13.6768C15.7237 13.6299 15.75 13.5663 15.75 13.5V4C15.75 3.9337 15.7237 3.87011 15.6768 3.82322C15.6299 3.77634 15.5663 3.75 15.5 3.75ZM2 14.25H1.75V13.75H2V14.25ZM14.25 14.25H14V13.75H14.25V14.25ZM15.25 13.25H0.75V12.75H15.25V13.25ZM15.25 12.25H0.75V4.25H15.25V12.25Z" fill="#004FAC"/>
<path d="M8 3.25C8.13807 3.25 8.25 3.13807 8.25 3C8.25 2.86193 8.13807 2.75 8 2.75C7.86193 2.75 7.75 2.86193 7.75 3C7.75 3.13807 7.86193 3.25 8 3.25Z" fill="#004FAC"/>
<path d="M8.49996 2.69091C8.5506 2.69093 8.60004 2.67557 8.64175 2.64687C8.68346 2.61817 8.71548 2.57749 8.73356 2.53019C8.75164 2.4829 8.75494 2.43123 8.74301 2.38203C8.73109 2.33282 8.7045 2.2884 8.66678 2.25463C8.48343 2.09062 8.24606 1.99994 8.00006 1.99994C7.75405 1.99994 7.51668 2.09062 7.33334 2.25463C7.30857 2.27644 7.28836 2.30293 7.27388 2.33259C7.2594 2.36225 7.25094 2.39448 7.24898 2.42742C7.24702 2.46036 7.2516 2.49337 7.26246 2.52453C7.27332 2.5557 7.29024 2.5844 7.31225 2.60899C7.33426 2.63358 7.36092 2.65358 7.39069 2.66781C7.42046 2.68205 7.45276 2.69025 7.48572 2.69194C7.51868 2.69363 7.55165 2.68878 7.58272 2.67767C7.6138 2.66656 7.64236 2.6494 7.66677 2.62719C7.75844 2.54523 7.87709 2.49992 8.00006 2.49992C8.12302 2.49992 8.24167 2.54523 8.33334 2.62719C8.3791 2.66829 8.43846 2.69098 8.49996 2.69091Z" fill="#004FAC"/>
<path d="M7.16677 2.06817C7.39594 1.86322 7.69261 1.74992 8.00006 1.74992C8.3075 1.74992 8.60417 1.86322 8.83334 2.06817C8.85775 2.09038 8.88632 2.10754 8.91739 2.11865C8.94847 2.12976 8.98143 2.13462 9.01439 2.13292C9.04735 2.13123 9.07965 2.12303 9.10942 2.10879C9.1392 2.09456 9.16586 2.07457 9.18787 2.04998C9.20987 2.02539 9.2268 1.99668 9.23766 1.96552C9.24852 1.93435 9.2531 1.90135 9.25114 1.8684C9.24918 1.83546 9.24071 1.80323 9.22623 1.77357C9.21175 1.74392 9.19155 1.71742 9.16678 1.69561C8.84592 1.40861 8.43054 1.24994 8.00006 1.24994C7.56957 1.24994 7.15419 1.40861 6.83334 1.69561C6.80856 1.71742 6.78836 1.74392 6.77388 1.77357C6.7594 1.80323 6.75094 1.83546 6.74898 1.8684C6.74702 1.90135 6.7516 1.93435 6.76246 1.96552C6.77332 1.99668 6.79024 2.02539 6.81225 2.04998C6.83426 2.07457 6.86092 2.09456 6.89069 2.10879C6.92046 2.12303 6.95276 2.13123 6.98572 2.13292C7.01868 2.13462 7.05165 2.12976 7.08272 2.11865C7.1138 2.10754 7.14236 2.09038 7.16677 2.06817Z" fill="#004FAC"/>
</svg>
