<svg width="16" height="16" viewBox="0 0 16 16" xmlns="http://www.w3.org/2000/svg">
<path d="M14.7368 10.5347C13.762 10.5366 12.7931 10.3825 11.8669 10.0783C11.4339 9.92689 10.9526 10.0288 10.6181 10.3427L8.80086 11.7137C6.84924 10.7339 5.26572 9.15064 4.2855 7.19918L5.62023 5.4257C5.95722 5.08848 6.07773 4.59139 5.93266 4.13728C5.62729 3.20984 5.47236 2.23954 5.4737 1.26316C5.4737 0.56554 4.90816 0 4.21054 0H1.26316C0.56554 0 0 0.56554 0 1.26316C0.00927632 9.39826 6.60174 15.9907 14.7368 16C15.4345 16 16 15.4345 16 14.7368V11.7979C16 11.1003 15.4345 10.5347 14.7368 10.5347Z" fill="#009688"/>
<path d="M15.579 6.73686C15.3465 6.73686 15.158 6.54833 15.158 6.31579C15.1542 3.29428 12.7058 0.845803 9.68425 0.842093C9.45171 0.842093 9.26318 0.653566 9.26318 0.421027C9.26318 0.188487 9.45171 0 9.68425 0C13.1708 0.00371053 15.9963 2.8292 16.0001 6.31579C16.0001 6.54833 15.8116 6.73686 15.579 6.73686Z" fill="#455A64"/>
<path d="M12.2106 6.73686C11.978 6.73686 11.7895 6.54834 11.7895 6.3158C11.7895 5.1531 10.8469 4.21054 9.68425 4.21054C9.45171 4.21054 9.26318 4.02201 9.26318 3.78947C9.26318 3.55693 9.45171 3.36841 9.68425 3.36841C11.3121 3.36841 12.6316 4.68802 12.6316 6.3158C12.6316 6.54834 12.4431 6.73686 12.2106 6.73686Z" fill="#455A64"/>
</svg>
