<svg width="33" height="33" viewBox="0 0 33 33" xmlns="http://www.w3.org/2000/svg">
<path d="M21.963 0H11C4.92487 0 0 4.92487 0 11V21.963C0 28.0381 4.92487 32.963 11 32.963H21.963C28.0381 32.963 32.963 28.0381 32.963 21.963V11C32.963 4.92487 28.0381 0 21.963 0Z" fill="url(#paint0_linear)"/>
<path d="M22.594 11.3841H21.229L20.368 10.5231C19.8007 9.99604 19.0629 9.69046 18.289 9.66211H14.845C14.0715 9.69069 13.3341 9.99626 12.767 10.5231L11.906 11.3841H10.54C9.85522 11.3849 9.19869 11.6573 8.71445 12.1415C8.23022 12.6258 7.95783 13.2823 7.95703 13.9671V20.8551C7.95783 21.5399 8.23022 22.1965 8.71445 22.6807C9.19869 23.1649 9.85522 23.4373 10.54 23.4381H22.594C23.2788 23.4373 23.9354 23.1649 24.4196 22.6807C24.9038 22.1965 25.1762 21.5399 25.177 20.8551V13.9671C25.1762 13.2823 24.9038 12.6258 24.4196 12.1415C23.9354 11.6573 23.2788 11.3849 22.594 11.3841ZM16.567 19.9941C15.9709 19.9941 15.3882 19.8173 14.8925 19.4862C14.3969 19.155 14.0106 18.6843 13.7825 18.1335C13.5543 17.5828 13.4946 16.9768 13.6109 16.3921C13.7272 15.8074 14.0143 15.2704 14.4358 14.8489C14.8573 14.4274 15.3944 14.1403 15.979 14.024C16.5637 13.9077 17.1697 13.9674 17.7204 14.1955C18.2712 14.4237 18.7419 14.81 19.0731 15.3056C19.4043 15.8013 19.581 16.384 19.581 16.9801C19.581 17.7795 19.2635 18.5461 18.6983 19.1113C18.133 19.6766 17.3664 19.9941 16.567 19.9941ZM21.733 15.9461C21.5119 15.9451 21.296 15.8786 21.1126 15.755C20.9292 15.6314 20.7866 15.4563 20.7027 15.2516C20.6188 15.047 20.5974 14.8221 20.6412 14.6054C20.685 14.3886 20.7921 14.1897 20.9489 14.0338C21.1057 13.8778 21.3052 13.7718 21.5222 13.7291C21.7392 13.6865 21.9639 13.7091 22.1681 13.7941C22.3723 13.8791 22.5467 14.0226 22.6693 14.2067C22.7919 14.3907 22.8572 14.607 22.857 14.8281C22.8573 14.9756 22.8284 15.1216 22.7719 15.2578C22.7155 15.394 22.6326 15.5177 22.5281 15.6217C22.4236 15.7258 22.2996 15.8081 22.1631 15.8639C22.0266 15.9198 21.8805 15.948 21.733 15.9471V15.9461Z" fill="white"/>
<defs>
<linearGradient id="paint0_linear" x1="2.67" y1="2.67" x2="30.293" y2="30.293" gradientUnits="userSpaceOnUse">
<stop stop-color="#92275D"/>
<stop offset="1" stop-color="#9E1F37"/>
</linearGradient>
</defs>
</svg>
