<svg width="32" height="32" viewBox="0 0 32 32" fill="none" xmlns="http://www.w3.org/2000/svg">
<rect width="32" height="32" rx="8" fill="#D00B0B"/>
<g clip-path="url(#clip0)">
<path d="M11.2142 17.2375C11.4583 17.4815 11.4583 17.8772 11.2142 18.1213C10.9701 18.3654 10.5744 18.3654 10.3304 18.1213L8.65099 16.4419C8.40505 16.196 8.41002 15.799 8.65099 15.5581L10.3304 13.8787C10.5745 13.6346 10.9702 13.6346 11.2143 13.8787C11.4584 14.1227 11.4584 14.5185 11.2143 14.7626L10.6018 15.375L15.7793 15.375C16.1245 15.375 16.4043 15.6548 16.4043 16C16.4043 16.3451 16.1245 16.625 15.7793 16.625L10.6018 16.625L11.2142 17.2375Z" fill="white"/>
<path d="M22.906 8H12.7185C12.3733 8 12.0935 8.27981 12.0935 8.625V11C12.0935 11.3452 12.3733 11.625 12.7185 11.625C13.0637 11.625 13.3435 11.3452 13.3435 11V9.25H22.281V22.75H13.3435V21C13.3435 20.6548 13.0637 20.375 12.7185 20.375C12.3733 20.375 12.0935 20.6548 12.0935 21V23.375C12.0935 23.7202 12.3733 24 12.7185 24H22.906C23.2512 24 23.531 23.7202 23.531 23.375V8.625C23.531 8.27981 23.2512 8 22.906 8Z" fill="white"/>
</g>
<defs>
<clipPath id="clip0">
<rect width="16" height="16" fill="white" transform="translate(7.99976 8)"/>
</clipPath>
</defs>
</svg>
