<svg width="16" height="16" viewBox="0 0 16 16" xmlns="http://www.w3.org/2000/svg">
<path d="M6.48962 13.0001C4.92761 13.0001 3.65625 11.7288 3.65625 10.1667V3.3335H2.48962C1.47827 3.3335 0.65625 4.1554 0.65625 5.16675V14.1667C0.65625 15.1781 1.47827 16.0001 2.48962 16.0001H10.8229C11.8342 16.0001 12.6562 15.1781 12.6562 14.1667V13.0001H6.48962Z" fill="url(#paint0_linear)"/>
<path d="M15.3229 1.83337C15.3229 0.820679 14.5022 0 13.4896 0H6.48962C5.47693 0 4.65625 0.820679 4.65625 1.83337V10.1666C4.65625 11.1793 5.47693 12 6.48962 12H13.4896C14.5022 12 15.3229 11.1793 15.3229 10.1666V1.83337Z" fill="url(#paint1_linear)"/>
<defs>
<linearGradient id="paint0_linear" x1="1.04025" y1="3.3335" x2="5.21242" y2="20.5794" gradientUnits="userSpaceOnUse">
<stop stop-color="#D12323"/>
<stop offset="1" stop-color="#750404"/>
</linearGradient>
<linearGradient id="paint1_linear" x1="4.99758" y1="-4.17387e-08" x2="9.17882" y2="16.2164" gradientUnits="userSpaceOnUse">
<stop stop-color="#D12323"/>
<stop offset="1" stop-color="#750404"/>
</linearGradient>
</defs>
</svg>
