<svg width="16" height="16" viewBox="0 0 16 16" xmlns="http://www.w3.org/2000/svg">
<g clip-path="url(#clip0)">
<path d="M7.96875 12.5156C8.53829 12.5156 9 12.9773 9 13.5469C9 14.1164 8.53829 14.5781 7.96875 14.5781C7.39922 14.5781 6.9375 14.1164 6.9375 13.5469C6.9375 12.9773 7.39919 12.5156 7.96875 12.5156ZM15.8011 5.72284C16.0536 5.4875 16.0675 5.092 15.8322 4.8395C13.7782 2.63566 10.9967 1.42191 7.99988 1.42188C5.00332 1.42191 2.22185 2.63566 0.167784 4.8395C-0.0675597 5.092 -0.0536222 5.48747 0.198878 5.72284C0.451409 5.95816 0.846878 5.94428 1.08222 5.69175C2.89722 3.74437 5.35394 2.67191 8.0001 2.67188C10.646 2.67191 13.1028 3.74437 14.9178 5.69175C15.0408 5.82384 15.2078 5.89062 15.3751 5.89062C15.5277 5.89062 15.6807 5.83506 15.8011 5.72284ZM13.5339 8.30444C13.7789 8.06128 13.7804 7.66556 13.5372 7.42056C12.0189 5.89075 10.0523 5.04828 7.99985 5.04834C5.94688 5.04837 3.98032 5.89088 2.46244 7.42063C2.21932 7.66566 2.22088 8.06137 2.46588 8.3045C2.71091 8.54759 3.10663 8.54606 3.34975 8.30106C4.63116 7.00962 6.2826 6.29838 7.99985 6.29834C9.71666 6.29828 11.3681 7.00956 12.65 8.30112C12.7722 8.42422 12.9328 8.48584 13.0936 8.48584C13.2528 8.48584 13.412 8.42541 13.5339 8.30444ZM5.78594 10.8971C6.36478 10.3236 7.21344 9.95312 7.94819 9.95312C7.94829 9.95312 7.94841 9.95312 7.9485 9.95312H7.99372C7.99385 9.95312 7.99388 9.95312 7.994 9.95312C8.72866 9.95312 9.57738 10.3237 10.1562 10.8971C10.4013 11.14 10.7971 11.1383 11.04 10.893C11.283 10.6478 11.2811 10.2521 11.0359 10.0091C10.2228 9.20353 9.05729 8.70312 7.9941 8.70312C7.99397 8.70312 7.99375 8.70312 7.99363 8.70312H7.9486C7.94841 8.70312 7.94832 8.70312 7.94813 8.70312C6.88491 8.70312 5.71929 9.20356 4.90619 10.0091C4.66097 10.2521 4.65913 10.6478 4.9021 10.893C5.02432 11.0163 5.18519 11.0781 5.3461 11.0781C5.50507 11.0781 5.6641 11.0178 5.78594 10.8971Z" fill="url(#paint0_linear)"/>
</g>
<defs>
<linearGradient id="paint0_linear" x1="2.83898e-06" y1="8" x2="16" y2="8" gradientUnits="userSpaceOnUse">
<stop stop-color="#00F2FE"/>
<stop offset="0.021" stop-color="#03EFFE"/>
<stop offset="0.293" stop-color="#24D2FE"/>
<stop offset="0.554" stop-color="#3CBDFE"/>
<stop offset="0.796" stop-color="#4AB0FE"/>
<stop offset="1" stop-color="#4FACFE"/>
</linearGradient>
<clipPath id="clip0">
<rect width="16" height="16" fill="white"/>
</clipPath>
</defs>
</svg>
