<svg width="16" height="16" viewBox="0 0 16 16" xmlns="http://www.w3.org/2000/svg">
<g clip-path="url(#clip0)">
<path d="M6.75174 15.9162L12.9232 5.2898C13.063 5.04921 12.8648 4.75315 12.5891 4.79065L8.48399 5.34862L9.46484 0.199178C9.4979 0.025584 9.27409 -0.0738848 9.1674 0.066959L3.09946 8.07665C2.92271 8.30993 3.10987 8.64165 3.40093 8.61102L7.92681 8.13462L6.44309 15.8005C6.40731 15.9854 6.65715 16.0791 6.75174 15.9162Z" fill="#FFDC64"/>
<path d="M4.99702 7.50898C4.88368 7.51805 4.8084 7.39414 4.86865 7.29773L9.40549 0.0387968C9.33799 -0.0146095 9.23174 -0.018047 9.1674 0.0668905L3.09946 8.07658C2.92271 8.30989 3.10987 8.64158 3.40093 8.61095L7.92681 8.13455L6.44309 15.8004C6.42309 15.9038 6.49284 15.9766 6.57437 15.994L9.11684 7.94877C9.23602 7.57167 8.93534 7.19389 8.54112 7.22545L4.99702 7.50898Z" fill="#FFC850"/>
</g>
<defs>
<clipPath id="clip0">
<rect width="16" height="16" fill="white"/>
</clipPath>
</defs>
</svg>
