<svg width="16" height="16" viewBox="0 0 16 16" fill="none" xmlns="http://www.w3.org/2000/svg">
<path d="M4.39297 14.5541C3.65857 13.7196 2.92421 12.8517 2.45686 11.8169C1.98954 10.7153 1.856 9.44683 2.08968 8.24512C2.32336 7.0434 2.85743 5.90844 3.62521 4.9404C3.55846 5.77493 3.85889 6.64283 4.42636 7.27708C4.09254 5.67479 4.62664 3.93897 5.69483 2.6705C6.76301 1.40203 8.23179 0.567466 9.7673 0C8.99954 0.801144 8.8994 2.06961 9.19983 3.13782C9.50026 4.20601 10.1345 5.14068 10.702 6.10872C11.2694 7.07676 11.8035 8.07819 11.8369 9.17976C12.1374 8.6123 12.4712 8.0448 12.6715 7.41058C12.8718 6.77633 12.9719 6.10872 12.805 5.47447C13.4059 6.20886 13.7397 6.94323 13.9066 7.8779C14.0735 8.81258 14.0401 9.78062 13.94 10.7153C13.8064 11.7501 13.5394 12.8183 12.9719 13.6862C12.3043 14.721 11.2361 15.4554 10.0678 15.856C7.99811 16.2232 5.96186 15.9227 4.39297 14.5541Z" fill="white"/>
<path d="M6.92959 15.7891C9.66681 16.8574 12.3707 13.6194 10.8685 11.1158C10.8685 11.0824 10.8351 11.0824 10.8351 11.0491C10.9687 12.4177 10.6348 13.4191 10.0006 13.9866C10.3344 13.1855 10.1007 12.2508 9.70017 11.4496C9.2996 10.6819 8.73213 9.98089 8.29817 9.2465C7.8642 8.47874 7.53041 7.61082 7.7307 6.74292C6.92956 7.34378 6.36209 8.24506 6.12841 9.2131C5.89473 10.1811 6.02827 11.2494 6.46223 12.1506C5.96152 11.7835 5.59434 11.1826 5.56095 10.5484C5.02684 11.1826 4.69305 12.0171 4.72641 12.8516C4.72644 14.1535 5.76123 15.3218 6.92959 15.7891Z" fill="#A2A2A2"/>
</svg>
