<svg width="33" height="33" viewBox="0 0 33 33" xmlns="http://www.w3.org/2000/svg">
<path d="M21.963 0H11C4.92487 0 0 4.92487 0 11V21.963C0 28.0381 4.92487 32.963 11 32.963H21.963C28.0381 32.963 32.963 28.0381 32.963 21.963V11C32.963 4.92487 28.0381 0 21.963 0Z" fill="url(#paint0_linear)"/>
<path d="M22.8979 7.55909H10.0589C9.45605 7.55909 8.8779 7.79857 8.45163 8.22484C8.02536 8.65111 7.78589 9.22925 7.78589 9.83209V20.0591H25.1769V9.83209C25.1769 9.53309 25.1179 9.23703 25.0033 8.96086C24.8887 8.6847 24.7207 8.43386 24.509 8.22271C24.2973 8.01157 24.046 7.84426 23.7696 7.73039C23.4931 7.61651 23.1969 7.5583 22.8979 7.55909ZM18.5109 11.9351C18.7355 11.9363 18.9528 12.0153 19.1257 12.1587C19.2987 12.302 19.4167 12.5008 19.4596 12.7213C19.5025 12.9418 19.4678 13.1703 19.3612 13.3681C19.2547 13.5658 19.083 13.7206 18.8752 13.806C18.6675 13.8915 18.4365 13.9023 18.2217 13.8367C18.0069 13.7711 17.8214 13.6332 17.6968 13.4463C17.5722 13.2594 17.5161 13.0351 17.5382 12.8115C17.5603 12.588 17.6591 12.379 17.8179 12.2201C18.0016 12.0371 18.2506 11.9346 18.5099 11.9351H18.5109ZM10.6569 18.4251L14.7769 12.6051C15.8229 14.1811 16.8649 15.7554 17.9029 17.3281L20.1759 15.0891L22.3069 18.3231L10.6569 18.4251Z" fill="white"/>
<path d="M25.1769 21.5107V23.1307C25.1769 23.7336 24.9374 24.3117 24.5111 24.738C24.0849 25.1643 23.5067 25.4037 22.9039 25.4037H10.0589C9.45605 25.4037 8.8779 25.1643 8.45163 24.738C8.02536 24.3117 7.78589 23.7336 7.78589 23.1307V21.5107H25.1769Z" fill="white"/>
<defs>
<linearGradient id="paint0_linear" x1="2.67" y1="2.67" x2="30.293" y2="30.293" gradientUnits="userSpaceOnUse">
<stop stop-color="#92278F"/>
<stop offset="1" stop-color="#9E1F63"/>
</linearGradient>
</defs>
</svg>
