<svg width="20" height="20" viewBox="0 0 20 20" xmlns="http://www.w3.org/2000/svg">
<path fill-rule="evenodd" clip-rule="evenodd" d="M9.99998 3.86667C11.8778 3.86667 13.1444 4.67778 13.8667 5.35556L16.6889 2.6C14.9555 0.988889 12.7 0 9.99998 0C6.08887 0 2.71109 2.24444 1.06665 5.51111L4.29998 8.02222C5.11109 5.61111 7.35554 3.86667 9.99998 3.86667Z" fill="#EA4335"/>
<path fill-rule="evenodd" clip-rule="evenodd" d="M19.6 10.2222C19.6 9.40002 19.5333 8.80002 19.3889 8.1778H10V11.8889H15.5111C15.4 12.8111 14.8 14.2 13.4667 15.1334L16.6222 17.5778C18.5111 15.8334 19.6 13.2667 19.6 10.2222Z" fill="#4285F4"/>
<path fill-rule="evenodd" clip-rule="evenodd" d="M4.31111 11.9778C4.1 11.3556 3.97778 10.6889 3.97778 10C3.97778 9.31111 4.1 8.64444 4.3 8.02222L1.06667 5.51111C0.388889 6.86666 0 8.38889 0 10C0 11.6111 0.388889 13.1333 1.06667 14.4889L4.31111 11.9778Z" fill="#FBBC05"/>
<path fill-rule="evenodd" clip-rule="evenodd" d="M10.0002 20C12.7002 20 14.9669 19.1111 16.6224 17.5778L13.4669 15.1333C12.6224 15.7222 11.4891 16.1333 10.0002 16.1333C7.35578 16.1333 5.11134 14.3889 4.31134 11.9778L1.078 14.4889C2.72245 17.7556 6.08911 20 10.0002 20Z" fill="#F43939"/>
</svg>
