<svg width="375" height="130" viewBox="0 0 375 130" xmlns="http://www.w3.org/2000/svg">
<g opacity="0.1">
<path d="M111.778 59.0894C103.052 60.3953 94.3858 66.9247 90.4681 75.0567C88.2719 79.6866 86.8473 86.394 87.3222 89.9555C87.6783 92.5672 87.4409 92.6859 85.3634 91.0833C83.5826 89.7181 82.6329 89.5993 82.2174 90.7271C81.98 91.2614 83.1078 92.2704 85.3634 93.695C87.2628 94.8822 89.1029 95.8319 89.3997 95.8319C89.7558 95.8319 91.0024 94.2292 92.1895 92.2111C93.7922 89.6587 94.2077 88.4122 93.7922 87.9967C93.0205 87.225 91.5366 88.2341 91.0024 89.9555C90.2901 92.1517 89.5184 91.0833 89.5184 87.9373C89.5184 80.9331 92.0708 74.8192 97.2943 69.3583C102.28 64.1942 109.938 60.8108 116.526 60.8108C125.608 60.8702 134.927 66.0936 139.735 73.8695C141.1 76.1251 142.169 77.2529 142.703 77.0155C143.89 76.5406 143.771 75.947 141.575 72.5043C135.105 62.5322 123.53 57.3087 111.778 59.0894Z" fill="white"/>
<path d="M115.695 69.0021C115.28 69.7738 115.339 70.3674 115.814 70.9016C116.407 71.4952 116.348 71.6139 115.517 71.3171C114.567 70.9609 113.618 72.2075 114.271 72.9197C114.864 73.5133 115.755 73.3353 115.339 72.7417C115.161 72.4449 115.517 72.0294 116.17 71.792C116.823 71.6139 117.476 71.0203 117.654 70.4861C117.951 69.7738 117.891 69.7144 117.239 70.1893C116.289 71.0203 115.576 70.5454 116.051 69.3583C116.229 68.8834 116.645 68.7053 117.001 68.9428C117.357 69.1208 117.417 69.0021 117.179 68.646C116.586 67.6963 116.348 67.7556 115.695 69.0021Z" fill="white"/>
<path d="M117.832 71.7325C117.298 73.0384 120.444 79.4491 121.097 78.44C121.453 77.9651 121.572 78.1432 121.453 78.9148C121.215 80.7549 122.046 81.5859 124.124 81.5266C125.905 81.4672 125.964 81.4672 124.539 81.0517C123.174 80.6362 123.174 80.5769 124.243 80.2801C125.014 80.0426 124.896 79.9833 123.827 80.102C122.937 80.1613 122.343 80.0426 122.403 79.8646C122.521 79.6865 121.631 77.5496 120.444 75.1159C118.841 71.97 118.069 71.0202 117.832 71.7325ZM120.919 77.7277C120.919 78.0245 120.266 77.1341 119.494 75.6502C118.722 74.1662 118.069 72.6823 118.069 72.3855C118.069 72.0293 118.722 72.9791 119.494 74.463C120.266 75.9469 120.919 77.3715 120.919 77.7277Z" fill="white"/>
<path d="M112.727 74.8787C112.134 76.1845 112.134 76.3626 112.846 75.769C113.321 75.3535 113.796 75.2348 114.033 75.4129C114.211 75.5909 114.211 75.2348 114.033 74.5225C113.618 72.9198 113.618 72.9792 112.727 74.8787Z" fill="white"/>
<path d="M112.965 76.8374C112.727 77.1935 112.371 77.3123 112.134 77.1342C111.837 77.0155 111.362 77.4903 111.006 78.3213C110.65 79.093 109.759 79.8646 108.988 79.9834C108.216 80.1021 108.513 80.1614 109.581 80.0427C110.828 79.924 111.362 80.1021 111.125 80.5176C110.887 80.8737 109.403 80.9924 106.969 80.6957C104.595 80.4582 103.171 80.5176 103.171 80.8737C103.171 81.2299 102.636 81.3486 101.983 81.1705C100.262 80.6957 97.8284 81.4673 97.8284 82.4764C97.8284 83.4855 105.307 90.1929 106.495 90.1929C106.969 90.1929 107.622 90.6084 107.919 91.0833C108.216 91.5581 108.513 91.6769 108.513 91.3801C108.513 91.0239 106.91 89.1838 104.892 87.225C102.933 85.2662 101.39 83.901 101.449 84.2571C101.627 85.5036 101.33 85.9785 100.856 85.2069C100.499 84.6726 100.499 83.901 100.856 83.248C101.33 82.417 101.212 82.1796 100.44 82.1796C99.8465 82.1796 99.6091 82.4764 99.7872 83.0106C100.025 83.6042 99.8465 83.7823 99.253 83.5448C98.8375 83.3668 98.4219 83.0106 98.4219 82.7732C98.4219 82.0015 100.856 81.408 101.449 82.0015C102.043 82.5951 110.056 81.6454 111.303 80.8144C111.659 80.5769 111.837 79.8053 111.659 79.0336C111.481 78.1433 111.54 77.9652 111.896 78.4994C112.312 79.0336 112.608 78.8556 113.143 77.7278C113.796 76.2438 113.677 75.6502 112.965 76.8374ZM106.317 81.408C105.901 81.5267 105.07 81.5267 104.536 81.408C103.942 81.2299 104.298 81.1112 105.248 81.1112C106.257 81.1112 106.673 81.2299 106.317 81.408ZM104.892 87.8186C107.266 90.4897 106.554 90.4303 103.527 87.8186C102.161 86.5721 101.568 85.7411 102.102 85.7411C102.577 85.7411 103.824 86.6908 104.892 87.8186Z" fill="white"/>
<path d="M143.059 79.924C142.762 80.3395 141.635 82.1203 140.566 83.901C139.141 86.394 138.904 87.225 139.498 87.5812C140.685 88.3528 140.863 88.2341 142.05 85.8598L143.118 83.6636L143.593 85.7411C143.89 86.9282 143.831 89.5993 143.475 91.9143C141.813 103.608 132.612 112.868 120.859 114.886C110.294 116.666 99.253 111.324 93.2579 101.649C92.0707 99.7495 90.7649 98.2062 90.3494 98.2062C89.2216 98.2062 89.2809 99.0372 90.6462 101.708C94.0296 108.356 100.737 113.877 108.038 116.073C111.362 117.082 113.261 117.319 118.188 117.082C123.708 116.904 124.658 116.666 128.873 114.708C139.616 109.544 145.908 99.7495 145.908 87.9373C145.908 85.4443 146.086 83.3668 146.264 83.3668C146.443 83.3668 147.392 83.8416 148.342 84.3758C149.707 85.1475 150.182 85.2662 150.776 84.6726C151.666 83.7823 151.31 83.4855 147.036 81.0518C144.424 79.6272 143.534 79.3898 143.059 79.924Z" fill="white"/>
<path d="M127.804 80.9331L129.585 81.4673L127.804 81.586C126.202 81.7641 126.261 81.7641 128.398 82.1202C129.704 82.2983 130.891 82.2983 130.95 82.0015C131.069 81.7641 131.603 81.586 132.137 81.586C132.731 81.586 132.909 81.7641 132.553 82.0609C132.256 82.2983 131.959 82.8919 131.959 83.3667C131.959 83.8416 132.256 84.4945 132.553 84.732C132.909 85.0288 132.612 85.1475 131.841 84.9694C130.416 84.6726 128.338 86.4533 128.932 87.4031C129.11 87.6999 128.813 88.3528 128.279 88.7683C127.389 89.4806 127.329 89.4806 127.685 88.4715C128.101 87.5218 127.982 87.4624 127.151 88.1747C126.558 88.6496 126.439 89.0651 126.854 89.1838C127.211 89.3025 127.389 89.6587 127.211 89.8961C127.033 90.1929 126.498 90.3116 126.083 90.1335C124.896 89.6587 124.599 90.549 125.133 92.864C125.549 94.6447 125.608 94.7041 125.727 93.4576C125.845 92.033 125.905 92.033 126.38 93.7544C126.854 95.4757 126.854 95.4757 126.617 93.4576C126.439 91.5581 126.736 91.0833 130.95 87.1063C133.503 84.732 135.165 82.7732 134.808 82.7732C134.393 82.7732 134.037 83.0699 134.037 83.4261C134.037 83.7229 133.74 83.8416 133.384 83.6042C132.909 83.3667 133.206 82.8919 134.096 82.3577C134.868 81.8828 135.046 81.6454 134.512 81.8234C133.977 82.0015 133.443 81.8828 133.324 81.6454C133.206 81.3486 131.544 80.9924 129.585 80.8144C127.27 80.5769 126.617 80.6363 127.804 80.9331ZM131.425 85.8598C131.662 86.2753 131.603 86.3346 131.188 86.0972C130.772 85.8598 130.475 85.9785 130.475 86.2753C130.475 86.6314 130.178 86.9282 129.822 86.9282C129.347 86.9282 129.347 86.6314 129.882 86.0378C130.772 84.9694 130.891 84.9694 131.425 85.8598Z" fill="white"/>
<path d="M106.317 91.7956C106.317 92.2111 106.139 93.8731 106.02 95.5351C105.842 97.1378 105.842 97.672 106.02 96.7223L106.317 94.9415L106.791 96.7223C107.148 97.9688 107.207 97.5533 107.029 95.2383C106.851 92.9234 106.91 92.3891 107.266 93.4576C107.622 94.4073 107.801 94.5854 107.86 93.9324C107.919 92.6859 107.326 91.0833 106.791 91.0833C106.554 91.0833 106.317 91.4394 106.317 91.7956Z" fill="white"/>
<path d="M125.786 96.4848C125.786 97.019 125.905 98.3249 126.083 99.3933C126.38 100.699 126.617 101.055 126.973 100.462C127.329 99.9276 127.507 100.106 127.507 101.055C127.507 101.946 127.27 102.302 126.795 102.064C126.38 101.827 126.558 102.124 127.151 102.599C128.635 103.786 127.389 103.845 125.133 102.658C124.124 102.124 123.352 101.886 123.352 102.005C123.352 102.48 126.736 104.142 127.745 104.142C128.398 104.142 128.516 103.667 128.279 101.886C128.101 100.699 127.745 99.6308 127.507 99.5121C127.329 99.4527 127.211 98.503 127.27 97.4345L127.448 95.5351L126.973 97.3158L126.498 99.0966L126.201 97.3158C126.023 96.3067 125.845 95.9506 125.786 96.4848Z" fill="white"/>
<path d="M115.042 97.6126C114.271 98.0875 114.271 98.2062 114.983 98.2062C115.636 98.2062 115.517 98.4436 114.686 99.0966C113.618 99.9276 113.677 99.9869 115.102 99.334C116.408 98.7998 117.12 98.9185 119.791 100.284C121.453 101.115 122.7 101.53 122.403 101.115C122.106 100.581 122.284 100.521 123.115 100.818C127.033 102.421 126.677 101.946 122.225 99.7495C120.503 98.8591 119.257 98.4436 119.554 98.8591C119.85 99.3934 119.672 99.4527 118.96 99.2153C118.367 98.9779 117.773 98.7998 117.654 98.7998C117.535 98.7998 117.417 98.503 117.417 98.1468C117.417 97.8501 117.773 97.7313 118.188 97.9688C118.545 98.2062 118.723 98.1468 118.426 97.9094C117.773 97.1378 116.052 97.019 115.042 97.6126ZM121.572 99.9869C122.047 100.284 122.225 100.581 121.869 100.581C121.572 100.581 120.86 100.284 120.385 99.9869C119.91 99.6901 119.791 99.3934 120.088 99.3934C120.444 99.3934 121.097 99.6901 121.572 99.9869Z" fill="white"/>
<path d="M112.668 98.7997C112.134 99.1559 112.074 99.3933 112.49 99.3933C112.846 99.3933 113.38 99.0965 113.558 98.7997C114.033 98.0874 113.796 98.0874 112.668 98.7997Z" fill="white"/>
<path d="M104.951 100.046C104.951 100.343 105.307 100.462 105.723 100.224C106.198 99.9276 106.138 100.106 105.604 100.818C104.951 101.59 104.892 101.946 105.485 102.539C106.079 103.074 106.138 103.014 105.842 102.064C105.545 101.115 105.545 101.055 106.02 101.768C106.791 102.836 106.316 103.726 105.189 103.311C104.714 103.133 104.358 103.252 104.358 103.548C104.358 104.32 106.554 104.32 106.969 103.608C107.563 102.658 106.613 99.3933 105.782 99.3933C105.307 99.3933 104.951 99.6901 104.951 100.046Z" fill="white"/>
<path d="M111.303 100.343C111.421 100.759 111.956 100.937 112.431 100.759C113.558 100.343 113.499 100.165 112.134 99.8089C111.362 99.6308 111.065 99.7496 111.303 100.343Z" fill="white"/>
<path d="M109.166 100.521C107.979 101.293 107.801 102.955 108.928 102.539C109.641 102.243 109.641 102.124 108.988 101.649C108.454 101.233 108.572 101.174 109.522 101.352C110.412 101.53 110.709 101.412 110.472 100.818C110.116 99.8682 110.234 99.8682 109.166 100.521Z" fill="white"/>
<path d="M189.268 -18.3564C189.031 -18.0002 189.149 -17.5253 189.565 -17.4066C191.167 -16.8724 194.313 -13.6077 195.441 -11.2928C196.332 -9.45268 196.688 -9.15589 196.866 -9.9869C197.044 -10.5805 197.103 -9.27461 197.103 -7.07837C197.044 -4.94149 196.866 -3.39819 196.688 -3.75433C196.45 -4.05112 196.153 -3.63562 196.035 -2.80461C195.857 -1.9736 195.975 -1.43938 196.213 -1.61745C196.51 -1.79553 196.747 -1.55809 196.747 -1.14259C196.806 0.460071 197.816 -2.21103 198.172 -4.82277C198.409 -6.9003 198.35 -7.13773 197.934 -6.00993C197.519 -4.82277 197.459 -5.11956 197.697 -7.25644C197.994 -10.0463 197.459 -12.5393 196.806 -11.4115C196.569 -11.0553 196.094 -11.2928 195.619 -12.0644C194.966 -13.1329 194.966 -13.2516 195.797 -12.9548C197.103 -12.4206 196.213 -14.0826 194.076 -16.1008C192.77 -17.3473 192.592 -17.4066 192.948 -16.3975C193.364 -15.3291 193.304 -15.2697 192.414 -16.0414C191.82 -16.5163 191.524 -16.9911 191.702 -17.1692C192.058 -17.5253 190.871 -19.0686 190.158 -19.0686C189.921 -19.0686 189.505 -18.7719 189.268 -18.3564ZM191.108 -17.8815C191.286 -17.5847 191.227 -17.2879 190.871 -17.2879C190.574 -17.2879 190.099 -17.5847 189.921 -17.8815C189.743 -18.2376 189.802 -18.4751 190.158 -18.4751C190.455 -18.4751 190.93 -18.2376 191.108 -17.8815ZM195.026 -14.4981C195.797 -13.6077 195.738 -13.6077 194.551 -14.2607C193.126 -14.973 192.829 -15.5072 193.72 -15.5072C194.017 -15.5072 194.61 -15.0917 195.026 -14.4981Z" fill="white"/>
<path d="M173.419 -15.0323C171.579 -12.8954 170.985 -10.8772 170.867 -6.60347C170.807 -3.63558 170.985 -2.56714 171.342 -3.33879C171.698 -4.22916 171.757 -4.05109 171.579 -2.6265C171.282 -0.72705 173.063 2.7157 175.319 4.5558C177.574 6.39589 181.136 7.6424 183.985 7.52369L186.953 7.46433L183.688 7.04882L180.423 6.63332L183.985 6.45525L187.546 6.27717L183.985 5.92103C180.008 5.50552 178.405 4.79323 175.378 2.06277C174.25 1.05369 173.716 0.697538 174.131 1.29112C174.606 1.82534 174.784 2.47827 174.606 2.65635C174.428 2.89378 173.716 2.12213 173.063 1.05369C171.757 -1.0832 171.46 -2.15164 172.351 -1.55806C172.707 -1.37999 172.647 -2.15164 172.291 -3.39815C171.995 -4.64467 171.816 -6.18797 171.995 -6.95962C172.113 -7.73127 171.995 -8.20613 171.757 -8.02806C171.46 -7.84999 171.223 -8.32485 171.223 -9.0965C171.223 -10.2243 171.342 -10.2837 171.816 -9.57137C172.291 -8.91843 172.351 -9.15586 172.054 -10.4617C171.876 -11.4708 171.935 -11.9457 172.232 -11.5895C172.529 -11.174 173.36 -11.827 174.547 -13.4296C176.09 -15.4478 176.209 -15.8633 175.319 -15.9227C174.784 -15.982 173.894 -15.5665 173.419 -15.0323ZM174.191 -14.2013C173.538 -13.489 173.004 -12.658 173.004 -12.3018C173.004 -12.005 172.826 -11.8863 172.647 -12.0644C172.232 -12.5393 174.131 -15.5071 174.903 -15.5071C175.2 -15.5071 174.903 -14.9136 174.191 -14.2013ZM175.971 3.36864C175.971 3.66543 177.099 4.37772 178.405 5.03066C179.77 5.62424 180.542 6.21782 180.186 6.33653C179.77 6.45525 178.405 5.86167 177.159 5.03066C174.784 3.428 174.309 2.89378 175.378 2.89378C175.734 2.89378 175.971 3.13121 175.971 3.36864Z" fill="white"/>
<path d="M206.244 -6.4847C206.244 -5.71305 206.838 -5.29754 208.025 -5.06011C209.865 -4.6446 210.34 -3.99167 209.093 -3.45745C208.678 -3.27938 196.153 5.03072 181.314 15.0622C166.474 25.0343 153.891 33.4631 153.416 33.7599C152.703 34.1754 152.703 34.4128 153.356 35.1845C154.187 36.1342 155.256 35.4219 201.852 3.96228L213.189 -3.75424L215.801 -3.22002C218.412 -2.6858 218.412 -2.6858 218.234 -0.311485C218.116 1.46925 217.641 2.35962 216.157 3.60613C215.148 4.4965 201.733 13.6376 186.419 23.9065C171.104 34.1754 158.461 42.7229 158.283 42.901C158.105 43.0791 158.283 43.6133 158.699 44.0882C159.292 44.7411 164.278 41.5951 187.903 25.6872C203.573 15.1215 216.513 6.45531 216.632 6.45531C216.75 6.45531 216.691 7.40503 216.513 8.59219C216.216 10.4323 216.335 10.7291 217.225 10.551C218.056 10.3729 218.591 8.94833 219.718 4.08099C220.49 0.638241 221.024 -2.6858 220.965 -3.27938C220.787 -4.28846 219.6 -4.70396 213.545 -6.00983C206.6 -7.49378 206.244 -7.55314 206.244 -6.4847Z" fill="white"/>
<path d="M154.247 -3.33874C153.297 -2.56708 153.297 -2.50773 154.187 -2.80451C155.671 -3.33874 155.434 -2.74516 153.594 -1.558C152.229 -0.667634 152.11 -0.608276 152.407 -1.49864C152.703 -2.21094 152.347 -2.15158 150.745 -1.08314C148.548 0.282091 148.252 0.816312 149.261 1.40989C149.617 1.64732 149.795 1.46925 149.736 1.05374C149.617 0.697596 149.914 0.222733 150.389 0.0446601C150.923 -0.133413 151.041 0.0446601 150.745 0.519523C150.389 1.05374 150.507 1.17246 151.101 0.816312C153.416 -0.548918 156.977 -3.27938 156.977 -3.75424C156.977 -4.52589 155.553 -4.28846 154.247 -3.33874Z" fill="white"/>
<path d="M188.318 -1.43933C188.318 -1.2019 188.199 -0.727037 188.14 -0.37089C188.021 -0.074101 187.962 0.460119 187.903 0.816266C187.843 1.11306 187.606 1.0537 187.309 0.578835C186.953 0.0446146 186.656 -0.0147433 186.419 0.460119C186.181 0.816266 186.359 1.11306 186.775 1.17241C187.19 1.17241 187.012 1.40984 186.359 1.70663C185.35 2.12214 185.35 2.24085 186.181 2.24085C187.19 2.30021 189.624 0.16333 189.624 -0.727037C189.624 -1.37997 188.437 -2.03291 188.318 -1.43933Z" fill="white"/>
<path d="M183.688 0.222717C182.916 1.05373 182.501 1.88474 182.679 2.12217C182.916 2.30024 183.094 2.18152 183.094 1.82538C183.094 1.40987 183.391 1.17244 183.747 1.2318C184.103 1.35052 184.638 0.816295 184.934 0.0446436C185.587 -1.61738 185.409 -1.61738 183.688 0.222717Z" fill="white"/>
<path d="M195.085 -0.370955C195.263 -0.133523 194.432 0.934917 193.126 2.12207C191.88 3.24987 190.989 4.49639 191.227 4.85253C191.464 5.20868 191.227 5.3274 190.574 5.08996C189.921 4.85253 189.683 4.91189 189.98 5.3274C190.218 5.7429 189.921 5.86162 188.971 5.62418C188.199 5.44611 187.903 5.44611 188.318 5.62418C188.912 5.92097 188.852 6.1584 188.021 6.81134C187.072 7.58299 187.131 7.58299 188.615 7.04877C191.405 6.03969 192.77 5.14932 192.176 4.73382C191.82 4.55574 192.058 3.90281 192.77 3.19051C193.957 2.00336 193.957 2.00336 193.601 3.36859C193.364 4.49639 193.423 4.6151 194.135 4.02152C194.61 3.66538 194.847 3.19051 194.669 3.01244C194.491 2.83437 194.907 2.3595 195.56 1.88464C197.044 0.875559 197.044 0.163266 195.738 -0.311597C195.144 -0.549028 194.847 -0.549028 195.085 -0.370955ZM196.153 0.816201C196.153 0.934917 195.56 1.35042 194.847 1.70657C193.542 2.3595 193.542 2.30015 194.61 1.46914C195.857 0.460054 196.153 0.341339 196.153 0.816201Z" fill="white"/>
<path d="M164.694 1.76596C163.507 2.71569 163.447 2.8344 164.397 2.53761C165.584 2.12211 165.584 2.18147 164.456 3.24991C163.625 4.08092 163.269 4.19963 163.091 3.60606C162.854 3.01248 162.616 3.01248 161.963 3.5467C161.488 3.90284 161.251 4.43706 161.429 4.6745C161.785 5.20872 159.47 7.04881 158.58 7.04881C158.283 7.04881 158.402 6.57395 158.817 5.98037C159.589 5.09 159.53 5.03064 158.639 5.80229C158.046 6.2178 157.749 6.87073 157.986 7.22688C158.224 7.58303 157.986 7.70174 157.393 7.46431C156.799 7.28624 156.384 7.3456 156.384 7.64239C156.384 7.99853 156.206 8.17661 155.968 8.11725C155.671 7.99853 154.84 8.41404 154.009 8.94826C152.941 9.71991 152.763 10.1948 153.238 10.6696C153.772 11.2039 154.306 11.0851 155.434 10.1948C156.265 9.54184 156.74 8.82954 156.562 8.59211C156.384 8.41404 156.621 8.23596 157.215 8.23596C157.749 8.23596 160.361 6.81138 162.972 5.03064C166.593 2.59697 167.543 1.7066 166.949 1.23174C166.356 0.75688 165.762 0.934954 164.694 1.76596ZM155.196 9.71991C154.781 10.1948 154.128 10.6103 153.772 10.6103C153.416 10.6103 153.653 10.1948 154.247 9.71991C155.731 8.59211 156.146 8.59211 155.196 9.71991Z" fill="white"/>
<path d="M179.711 0.934889C180.246 1.0536 181.077 1.0536 181.492 0.934889C181.848 0.756816 181.433 0.6381 180.424 0.6381C179.474 0.6381 179.118 0.756816 179.711 0.934889Z" fill="white"/>
<path d="M179.414 2.12209C179.83 2.30017 180.364 2.24081 180.542 2.06274C180.78 1.88466 180.423 1.70659 179.77 1.76595C179.117 1.76595 178.939 1.94402 179.414 2.12209Z" fill="white"/>
<path d="M183.688 2.89373C183.688 3.19052 183.985 3.4873 184.341 3.4873C184.638 3.4873 184.756 3.19052 184.578 2.89373C184.4 2.53758 184.103 2.30015 183.925 2.30015C183.807 2.30015 183.688 2.53758 183.688 2.89373Z" fill="white"/>
<path d="M139.348 6.51467C137.211 7.8799 136.855 8.41412 138.458 7.82054C139.348 7.46439 139.348 7.52375 138.636 8.47347C138.101 9.12641 137.567 9.24513 137.211 8.88898C136.617 8.2954 132.047 10.9071 132.047 11.8569C132.047 12.8066 133.115 12.9253 134.184 12.0943C135.252 11.2039 135.252 11.2039 134.124 11.5601C133.234 11.8569 133.412 11.5007 134.718 10.4323C136.677 8.82962 137.448 8.77026 136.143 10.3729C135.668 10.9665 136.855 10.3729 138.695 9.18577C140.891 7.70182 141.96 6.63338 141.722 6.09916C141.366 5.09008 141.603 5.03072 139.348 6.51467ZM140.357 7.04889C140.357 7.34568 140.06 7.64247 139.704 7.64247C139.407 7.64247 139.289 7.34568 139.467 7.04889C139.645 6.69274 139.941 6.45531 140.12 6.45531C140.238 6.45531 140.357 6.69274 140.357 7.04889Z" fill="white"/>
<path d="M171.995 9.00766C171.104 9.77931 169.086 11.1445 167.543 12.0943C165.465 13.4001 164.931 14.0531 165.347 14.5873C165.821 15.1215 166.534 14.8841 168.433 13.5189C169.798 12.5098 170.926 11.4413 170.926 11.0852C170.926 10.729 171.282 10.3135 171.757 10.1355C172.291 9.95739 172.41 10.1355 172.113 10.6103C171.817 11.1445 171.876 11.2633 172.351 10.9665C172.766 10.729 172.944 10.1948 172.826 9.83867C172.707 9.42317 173.122 8.82959 173.835 8.41409C174.547 7.99858 174.784 7.70179 174.369 7.64243C174.013 7.64243 172.944 8.23601 171.995 9.00766ZM168.849 12.5098C167.721 13.2221 166.593 14.1124 166.356 14.4686C166.059 14.8841 165.881 14.8247 165.881 14.3499C165.881 13.6969 169.205 11.3226 170.333 11.2633C170.689 11.2633 169.976 11.7975 168.849 12.5098Z" fill="white"/>
<path d="M145.521 14.5279C143.325 16.0119 141.544 17.5552 141.544 18.03C141.544 18.5049 141.722 18.9204 141.9 18.9204C142.553 18.9204 150.448 13.4001 150.448 12.9253C150.448 11.6788 149.201 12.0943 145.521 14.5279ZM149.795 13.1627C149.676 13.2814 148.548 14.0531 147.361 14.9434C146.174 15.8338 144.987 16.5461 144.749 16.5461C144.512 16.5461 143.8 17.021 143.147 17.5552C142.494 18.1488 142.078 18.2675 142.197 17.9113C142.494 17.0803 149.439 12.3317 149.795 12.7472C149.913 12.8659 149.913 13.044 149.795 13.1627Z" fill="white"/>
<path d="M155.375 20.1669C153.297 21.4728 152.822 22.0664 154.306 21.5321C155.731 20.9979 155.375 21.6509 153.594 22.7786C152.11 23.7877 152.05 23.7877 152.407 22.7193C152.763 21.7102 152.763 21.7102 152.11 22.5412C151.694 23.0754 151.101 23.5503 150.745 23.669C148.845 24.2032 148.667 24.3813 149.32 25.2123C149.854 25.8653 150.626 25.5685 153.475 23.6097C155.434 22.3038 156.977 20.8198 156.977 20.2263C156.977 19.3359 157.096 19.3359 157.571 20.1075C158.046 20.8792 158.164 20.8198 158.164 19.9295C158.164 18.6236 157.689 18.683 155.375 20.1669ZM156.384 20.7011C156.384 20.9979 156.087 21.2947 155.731 21.2947C155.434 21.2947 155.315 20.9979 155.493 20.7011C155.671 20.345 155.968 20.1075 156.146 20.1075C156.265 20.1075 156.384 20.345 156.384 20.7011ZM150.567 24.9749C150.151 25.3904 149.854 25.4498 149.854 25.0936C149.854 24.7375 150.032 24.2626 150.27 24.0845C150.448 23.8471 150.804 23.7877 150.982 23.9658C151.101 24.1439 150.923 24.6187 150.567 24.9749Z" fill="white"/>
<path d="M377.195 -14.3838C375.651 -14.0277 375.948 -13.9683 378.5 -14.2057C380.519 -14.3838 382.003 -14.2651 382.24 -13.909C382.477 -13.4934 382.181 -13.3747 381.528 -13.6122C380.637 -13.909 380.578 -13.8496 381.35 -13.3154C382.181 -12.7218 381.765 -12.3656 380.519 -12.6031C379.747 -12.7812 377.788 -10.763 378.144 -10.2288C378.322 -9.93198 378.144 -9.69455 377.729 -9.69455C377.313 -9.69455 377.195 -9.51647 377.432 -9.27904C377.669 -8.98225 379.925 -8.68546 382.418 -8.50739L386.929 -8.2106L380.341 -3.34326C376.779 -0.612801 373.514 1.58344 373.158 1.58344C372.743 1.58344 372.624 0.930504 372.861 -0.197292C373.099 -1.50317 372.98 -1.97803 372.387 -1.97803C371.734 -1.97803 371.734 -2.09674 372.446 -2.57161C373.04 -2.92775 373.099 -3.16518 372.624 -3.16518C372.209 -3.16518 371.852 -3.40261 371.852 -3.75876C371.852 -4.05555 372.209 -4.17427 372.624 -3.99619C373.04 -3.87748 374.405 -4.88656 375.711 -6.25179C377.017 -7.61702 377.551 -8.38867 376.957 -7.91381C375.889 -7.0828 375.829 -7.14216 376.186 -8.09188C376.66 -9.39775 376.186 -9.10097 373.158 -6.42986C371.199 -4.58977 370.903 -4.11491 371.14 -2.21546C371.318 -0.672157 371.556 -0.31601 371.971 -0.850231C372.268 -1.38445 372.327 -0.790871 372.09 0.693073C371.378 4.90748 368.053 6.5695 364.255 4.61069C361.94 3.42353 359.328 2.88931 360.159 3.77968C360.396 3.95775 360.278 4.49197 359.921 4.90748C359.447 5.4417 359.625 5.56041 360.515 5.32298C361.583 5.02619 365.323 6.74757 365.323 7.51922C365.323 7.69729 364.255 8.52831 363.067 9.41867L360.812 11.0213L358.2 8.76574L355.588 6.51014L357.488 5.50106C358.497 4.96684 359.387 4.37326 359.387 4.25454C359.387 4.07647 358.319 4.49197 357.013 5.14491L354.639 6.39142L352.62 4.84812C350.78 3.42353 349.475 0.693073 350.484 0.277569C350.721 0.158852 351.018 -0.850231 351.255 -2.03739C351.552 -4.05555 351.315 -4.35234 347.16 -8.50739C344.726 -10.9411 342.767 -12.6624 342.767 -12.425C342.767 -12.1282 343.301 -11.4159 343.954 -10.8817C345.023 -9.99133 345.023 -9.7539 344.251 -9.45711C343.717 -9.27904 343.42 -9.3384 343.598 -9.63519C344.132 -10.4662 342.886 -10.5849 336.653 -10.4068L330.896 -10.2288L331.014 12.4459L331.192 35.1206H361.168H391.144V12.5646V-9.99133L385.98 -10.1694C383.071 -10.2288 380.756 -10.5256 380.756 -10.7036C380.756 -10.9411 381.29 -11.7127 382.003 -12.425C384.199 -14.7993 382.299 -15.571 377.195 -14.3838ZM380.162 -10.9411C379.391 -9.51647 378.322 -8.74482 378.5 -9.81326C378.679 -10.4662 380.103 -12.0095 380.637 -12.0689C380.697 -12.0689 380.519 -11.5346 380.162 -10.9411ZM345.794 -8.32932C344.963 -7.49831 346.685 -5.48014 347.872 -5.955C348.406 -6.13308 349.296 -5.71757 349.949 -5.06464C351.137 -3.69941 351.552 -2.45289 350.365 -3.64005C349.949 -4.05555 349.415 -4.35234 349.118 -4.35234C348.822 -4.35234 349.059 -3.93684 349.534 -3.40261C350.068 -2.92775 350.484 -1.91867 350.424 -1.20638C350.424 0.0401382 350.365 0.0401382 349.831 -1.08766C349.415 -2.03739 349.296 -1.91867 349.475 -0.375366C349.593 0.930504 349.415 1.58344 348.881 1.58344C348.05 1.58344 336.06 -7.14216 335.763 -7.97317C335.644 -8.26996 337.722 -8.50739 340.333 -8.50739C343.301 -8.50739 345.141 -8.74482 345.141 -9.16032C345.141 -9.45711 345.438 -9.57583 345.794 -9.3384C346.269 -9.10097 346.269 -8.80418 345.794 -8.32932ZM347.456 -7.37959C347.931 -7.0828 347.991 -6.72665 347.634 -6.48922C347.338 -6.31115 346.744 -6.54858 346.329 -7.02344C345.498 -7.97317 346.15 -8.2106 347.456 -7.37959ZM374.286 -5.59885C373.574 -4.88656 373.04 -4.53041 373.04 -4.76785C373.04 -5.36142 374.998 -7.37959 375.236 -7.0828C375.414 -6.96408 374.939 -6.25179 374.286 -5.59885ZM334.694 -5.59885C335.407 -5.00528 340.096 -1.50317 345.141 2.17702C350.187 5.8572 354.461 9.00317 354.639 9.12188C354.935 9.41867 333.745 30.6688 333.151 30.6688C332.854 30.6688 332.676 22.24 332.676 11.9711C332.676 1.70216 332.854 -6.72665 333.092 -6.72665C333.329 -6.72665 334.041 -6.25179 334.694 -5.59885ZM389.066 12.3866V31.5591L378.085 20.5779C369.181 11.6743 367.282 9.47803 367.875 8.88445C368.588 8.1128 388.591 -6.6673 388.947 -6.72665C389.007 -6.72665 389.066 1.88023 389.066 12.3866ZM364.195 5.20427C365.56 5.8572 366.51 6.5695 366.332 6.74757C366.154 6.92564 364.848 6.33207 363.424 5.50106C360.337 3.66096 360.871 3.48289 364.195 5.20427ZM358.972 12.2678C360.812 13.7518 360.871 13.7518 363.067 12.2085L364.848 10.9026L375.948 22.0025L386.989 33.0431H360.99C346.744 33.0431 335.051 32.865 335.051 32.6276C335.051 32.1527 356.538 11.0807 357.072 11.0807C357.25 11.0807 358.141 11.6149 358.972 12.2678Z" fill="white"/>
<path d="M357.31 6.33204C356.36 6.74755 356.301 6.86626 357.132 6.86626C357.666 6.92562 358.319 6.62883 358.497 6.33204C358.912 5.67911 358.912 5.67911 357.31 6.33204Z" fill="white"/>
<path d="M26.4649 7.99787C23.6158 9.42245 23.3783 9.71924 23.6751 11.2032C24.0313 12.6871 23.8532 12.8652 21.5382 13.5181C19.8169 14.0524 19.4014 14.4085 20.0543 14.6459C20.6479 14.824 18.8078 15.0021 16.018 15.1208C11.9816 15.1802 10.557 15.0021 9.01374 14.1117C7.9453 13.4588 5.86778 12.8059 4.38384 12.6278C2.30631 12.3903 2.06888 12.4497 3.19668 12.8652C4.38384 13.3401 4.1464 13.3994 2.00952 13.162C0.525578 13.0433 -1.1958 13.162 -1.84873 13.4588L-3.03589 13.993L-1.84873 14.0524L-0.661578 14.1117L-1.84873 14.6459C-2.50167 14.9427 -4.34176 15.0614 -6.00378 14.9427C-8.49681 14.824 -8.67488 14.824 -6.89415 15.2395L-4.81663 15.655L-7.19094 15.8331C-9.09039 15.9518 -9.2091 16.0705 -7.96259 16.2486C-7.07222 16.3673 -4.2824 15.9518 -1.78938 15.2395C2.84053 13.9336 6.52072 13.993 7.5298 15.4176C7.88595 15.8925 7.9453 15.7737 7.70787 15.0614C7.29237 13.8149 7.58916 13.8149 9.31053 14.8834C11.4474 16.1892 17.5019 16.5454 21.0634 15.477C23.3783 14.7647 23.9719 14.4085 23.319 13.993C22.666 13.5181 22.7254 13.4588 23.6751 13.5775C24.5655 13.6962 26.1682 16.308 29.789 23.4903C32.6382 29.1886 34.5376 33.6404 34.3595 34.1747C34.1815 34.6495 34.1815 34.887 34.4189 34.6495C34.6563 34.4121 35.3093 34.6495 35.9028 35.1837C36.8526 36.0148 37.2087 35.9554 40.5327 34.2934C42.5509 33.2843 44.1536 32.2159 44.1536 31.9784C44.0942 30.7913 31.0948 6.63264 30.3826 6.51392C29.9671 6.45457 28.1863 7.1075 26.4649 7.99787ZM35.7248 20.3443C38.752 26.4581 41.1857 31.4442 41.067 31.5629C40.5327 31.9784 38.2178 33.0469 37.8023 33.0469C37.5648 33.0469 34.775 28.1202 31.6884 22.125C26.1682 11.3813 26.0494 11.1438 27.2366 10.2535C27.8895 9.7786 28.8393 9.30374 29.3141 9.30374C29.9077 9.30374 32.1633 13.2214 35.7248 20.3443ZM6.93622 13.8743C6.52072 13.993 5.80842 13.993 5.45228 13.8743C5.03677 13.6962 5.33356 13.5775 6.16457 13.5775C6.99558 13.5775 7.29237 13.6962 6.93622 13.8743ZM22.6067 14.4085C22.4286 14.5866 21.8944 14.6459 21.4789 14.4679C21.004 14.2898 21.1821 14.1117 21.835 14.1117C22.488 14.0524 22.8441 14.2304 22.6067 14.4085ZM18.2142 15.655C17.7987 15.7737 17.0864 15.7737 16.7303 15.655C16.3148 15.477 16.6115 15.3582 17.4426 15.3582C18.2736 15.3582 18.5704 15.477 18.2142 15.655Z" fill="white"/>
<path d="M8.24186 15.833C8.00443 16.1892 7.41085 16.3673 6.93599 16.1892C5.68948 15.7143 0.0504848 20.463 0.525347 21.5908C0.762779 22.2437 0.584705 22.3624 -0.186946 22.125C-1.01796 21.7688 -1.07731 21.8282 -0.543093 22.4218C0.0504849 23.0153 0.940852 22.5405 3.73067 20.1068C7.11407 17.1389 7.41085 17.0202 11.0317 16.9015C13.7621 16.8421 14.1183 16.7828 12.3969 16.6047C11.091 16.4266 9.72581 16.0705 9.36966 15.7737C8.8948 15.3582 8.47929 15.4175 8.24186 15.833ZM6.16434 17.317C4.91783 18.8009 0.644063 22.0656 0.881494 21.3533C1.11893 20.7597 6.10498 16.5453 6.69856 16.486C6.81728 16.4266 6.57984 16.8421 6.16434 17.317Z" fill="white"/>
<path d="M-4.3419 24.7368C-5.76649 25.9833 -6.89429 27.4673 -6.89429 28.0015C-6.89429 29.1886 -4.63869 31.3849 -3.9264 30.9694C-3.57025 30.7319 -3.33282 30.91 -3.33282 31.2068C-3.33282 31.563 -2.62052 31.8597 -1.73016 31.8597C0.0505762 31.8597 4.97727 29.1886 4.97727 28.1796C4.97727 27.8234 5.15535 27.7047 5.33342 27.8828C5.57085 28.0608 6.28315 27.8828 6.99544 27.4079C7.64838 26.933 9.19168 26.5175 10.4382 26.5175C12.9312 26.5175 13.9403 25.6272 12.0409 25.0336C9.96333 24.3213 7.0548 25.271 3.2559 27.7641C0.525439 29.6635 -0.721075 30.1384 -2.14566 29.9603C-3.09539 29.7822 -3.9264 29.9009 -3.9264 30.1977C-3.9264 30.4945 -4.22319 30.5539 -4.51997 30.3758C-4.87612 30.1384 -4.99484 29.7229 -4.81676 29.4261C-4.57933 29.1293 -4.87612 28.8919 -5.35098 28.8919C-5.8852 28.8919 -6.30071 28.5951 -6.30071 28.2389C-6.30071 27.9421 -6.06328 27.7641 -5.76649 27.9421C-5.0542 28.417 -0.839791 23.6684 -1.2553 22.9561C-1.73016 22.1844 -1.49273 22.0657 -4.3419 24.7368ZM-3.62961 25.924C-4.57933 26.8737 -5.4697 27.586 -5.58842 27.4079C-6.00392 26.9924 -3.27346 24.1432 -2.50181 24.1432C-2.20502 24.1432 -2.67988 24.9149 -3.62961 25.924ZM11.3879 25.7459C10.7943 25.8646 9.84461 25.8646 9.31039 25.7459C8.71682 25.5678 9.19168 25.4491 10.3195 25.4491C11.4473 25.4491 11.9221 25.5678 11.3879 25.7459ZM6.99544 26.755C6.40186 27.2298 5.74893 27.4673 5.57085 27.3485C5.27406 26.9924 6.81737 25.924 7.58902 25.924C7.94516 25.924 7.64838 26.2801 6.99544 26.755ZM2.30617 29.7822C1.0003 30.6132 -0.721075 31.2068 -1.55208 31.2068C-2.85796 31.1474 -2.7986 31.0881 -1.19594 30.7319C-0.186855 30.4352 1.29709 29.8416 2.06874 29.3074C2.84039 28.7138 3.73076 28.2983 4.08691 28.2983C4.3837 28.2983 3.61204 29.0106 2.30617 29.7822Z" fill="white"/>
<path d="M13.6435 26.3394C13.2873 27.1704 13.3467 27.2298 13.9403 26.6956C14.3558 26.2801 14.5338 25.8052 14.3558 25.6271C14.1777 25.449 13.8215 25.7458 13.6435 26.3394Z" fill="white"/>
<path d="M14.8901 26.6955C14.5933 27.4672 30.5012 41.4756 32.0445 41.8317C32.5194 41.9505 32.8755 42.3066 32.8755 42.6034C32.8755 42.9595 32.5787 43.0189 32.1632 42.7815C31.6883 42.4847 31.629 42.6628 31.8664 43.3751C32.1039 43.9686 32.2819 44.7403 32.2819 45.0964C32.2819 46.2242 33.4691 44.1467 33.4691 43.0189C33.4691 42.4847 32.8755 41.4162 32.1632 40.6446C31.3916 39.8729 31.1541 39.6949 31.629 40.2884C32.7568 41.713 31.5696 41.6537 30.2638 40.2291C29.314 39.1606 29.314 39.0419 31.0948 37.7954C32.5194 36.7863 32.7568 36.3115 32.2819 35.7179C31.8664 35.243 31.8664 34.8275 32.2226 34.5901C32.5194 34.412 32.8755 34.412 33.0536 34.6495C33.1723 34.9462 33.1723 34.8275 33.1129 34.412C32.9942 34.0559 33.2316 33.581 33.6472 33.4029C34.0627 33.2842 34.0627 33.1061 33.7659 33.1061C33.4097 33.0468 32.0445 34.1746 30.798 35.5398C29.4921 36.905 28.8985 37.6767 29.4921 37.2612C30.6199 36.3708 30.9167 37.3206 29.7295 38.2703C29.2547 38.6858 28.6611 38.6264 27.8894 38.0328C27.2365 37.558 27.0584 37.2018 27.4146 37.2018C27.8301 37.2018 28.1269 36.9644 28.1269 36.6676C28.1269 36.3708 27.5333 36.2521 26.821 36.4302C25.8119 36.6083 25.6932 36.5489 26.2868 36.1334C27.4146 35.3617 17.858 27.3484 16.0179 27.5859C15.1275 27.7046 15.0088 27.5859 15.6024 27.2297C16.0772 26.8736 16.1366 26.5174 15.7805 26.28C15.4837 26.1019 15.0682 26.28 14.8901 26.6955ZM20.2323 30.7912C20.5291 30.7912 21.8349 31.7409 23.2595 32.9281C25.7526 34.9462 26.5242 36.2521 24.8622 35.6585C24.3873 35.4211 23.9718 34.9462 23.9718 34.4714C23.9718 33.9965 23.7344 33.6404 23.497 33.6404C23.2595 33.6404 22.4285 33.1655 21.6569 32.5719C17.9767 29.7821 16.8489 28.7137 16.8489 28.1201C16.8489 27.7046 17.5612 28.1201 18.3328 29.0698C19.1045 29.9602 19.9949 30.7318 20.2323 30.7912ZM31.9258 35.896C32.1039 36.1928 31.8664 36.4302 31.3916 36.4302C30.9167 36.4302 30.6793 36.1928 30.8573 35.896C31.0354 35.6585 31.2728 35.4211 31.3916 35.4211C31.5103 35.4211 31.7477 35.6585 31.9258 35.896Z" fill="white"/>
<path d="M20.1137 40.1105C19.9356 40.4073 21.4196 42.0693 23.3784 43.85C27.2366 47.2334 27.8302 48.9548 25.6933 50.4387C24.803 51.0917 24.6842 51.3885 25.2778 51.6259C25.6933 51.804 25.4559 51.982 24.6842 51.982C23.9126 52.0414 23.4377 51.804 23.6158 51.5072C23.7939 51.2104 22.1912 49.489 19.995 47.5896C17.2052 45.2152 15.9586 44.4436 15.6025 44.9778C15.3651 45.3933 15.3057 45.9869 15.4838 46.2837C15.6618 46.5805 16.018 46.5211 16.2554 46.1056C16.5522 45.5714 16.7896 45.5714 17.0864 46.0463C17.3239 46.4024 17.3239 46.6992 17.0864 46.6992C16.849 46.6992 18.0362 48.1831 19.7575 49.9639C22.4286 52.7537 22.7254 53.4066 22.1912 54.4157C21.7163 55.3061 21.7163 55.6029 22.2506 55.6029C23.4971 55.6029 22.3099 56.3745 20.8853 56.4932C19.995 56.5526 18.6297 55.7216 17.0271 54.1783C15.1276 52.4569 14.2966 51.982 13.8218 52.4569C13.3469 52.9318 13.4656 53.1098 14.2373 53.0505C14.9496 52.9911 15.3057 53.2879 15.187 53.7628C15.0683 54.1783 15.5431 55.128 16.1367 55.8403C16.7896 56.4932 17.7394 57.8585 18.2142 58.8675C18.9859 60.2921 19.164 60.4108 19.2233 59.4611C19.2233 58.7488 19.995 57.9178 21.1821 57.3836C22.6661 56.6713 23.0222 56.1964 22.9035 55.0093C22.7848 53.8221 22.8441 53.7034 23.319 54.4157C23.7345 54.9499 23.9719 55.0093 23.9719 54.5938C23.9719 54.2376 23.7345 53.7034 23.3784 53.5253C22.3099 52.8724 22.7848 52.2195 24.15 52.4569C25.9307 52.813 28.7206 50.5574 28.7206 48.7767C28.7206 47.827 29.1361 47.2928 30.3232 46.996C31.5697 46.6992 31.7478 46.5211 31.0355 46.0463C30.5013 45.6901 30.4419 45.512 30.9762 45.512C31.3323 45.512 31.6885 45.2152 31.6885 44.8591C31.6885 44.3842 31.451 44.3842 30.9762 44.7997C29.3735 46.0463 27.8302 45.8088 26.465 44.2062C25.6933 43.2564 24.803 42.6629 24.5062 42.9003C24.2094 43.0784 23.9719 42.9003 23.9719 42.5441C23.9719 42.1286 23.5564 42.0099 23.0222 42.188C22.3693 42.4254 22.1318 42.3067 22.3693 41.7131C22.9035 40.3479 20.8853 38.9233 20.1137 40.1105ZM21.8944 41.2383C21.7163 41.4163 21.2415 41.2383 20.826 40.8228C20.2918 40.2292 20.3511 40.1698 21.1821 40.526C21.7757 40.704 22.0725 41.0602 21.8944 41.2383ZM26.643 45.3933C26.2869 45.8088 24.5655 44.3249 24.5655 43.5532C24.5655 43.2564 25.0997 43.4345 25.7527 44.0281C26.4056 44.6217 26.8211 45.2152 26.643 45.3933ZM29.8484 46.2837C29.7296 46.343 29.1954 46.7585 28.6612 47.174C27.8896 47.7676 27.5928 47.7676 27.3553 47.1147C27.1773 46.6398 27.5928 46.2837 28.6019 46.2243C29.4329 46.165 30.0264 46.165 29.8484 46.2837ZM20.2324 48.8361C20.4105 49.2516 20.7666 49.5484 21.0041 49.3703C21.2415 49.2516 21.8944 49.6077 22.4286 50.2013C23.2003 51.0323 23.2596 51.4478 22.7254 51.804C22.2506 52.0414 22.1318 51.982 22.4286 51.5665C22.6661 51.151 22.488 50.8542 22.0725 50.8542C21.5976 50.8542 20.2918 49.9045 19.164 48.7174C17.6207 47.0553 17.4426 46.6992 18.511 47.2334C19.2827 47.6489 20.0543 48.3612 20.2324 48.8361ZM27.5334 50.5574C27.1179 51.0917 26.643 51.3291 26.465 51.151C26.2869 51.0323 26.5243 50.4981 26.9398 49.9639C27.3553 49.4296 27.8302 49.1922 28.0083 49.3703C28.1863 49.489 27.9489 50.0232 27.5334 50.5574ZM19.0452 57.7397C18.8672 57.9178 18.1549 57.1462 17.4426 56.0777L16.0774 54.1189L17.7394 55.7809C18.6297 56.7307 19.2233 57.621 19.0452 57.7397Z" fill="white"/>
<path d="M0.822317 40.7634C1.53461 41.2382 1.53461 41.3569 0.881675 41.3569C0.228739 41.3569 0.228739 41.535 0.822317 42.2473C1.23782 42.7222 1.89076 43.1377 2.30626 43.1377C2.78112 43.1377 3.25599 43.4938 3.3747 43.85C3.55278 44.3248 3.73085 44.2061 3.73085 43.5532C3.79021 42.4254 1.77204 40.1698 0.703601 40.1698C0.169381 40.1698 0.228739 40.4072 0.822317 40.7634ZM2.60305 41.9505C2.60305 42.2473 2.36562 42.5441 2.00947 42.5441C1.71268 42.5441 1.41589 42.2473 1.41589 41.9505C1.41589 41.5944 1.71268 41.3569 2.00947 41.3569C2.36562 41.3569 2.60305 41.5944 2.60305 41.9505Z" fill="white"/>
<path d="M2.0688 44.4435C2.0688 44.9777 0.822287 46.8178 -0.661659 48.5986C-2.1456 50.32 -3.09533 51.8039 -2.73918 51.9226C-2.44239 52.0413 -2.26432 52.3975 -2.44239 52.6349C-2.62047 52.9317 -3.21404 52.9911 -3.74826 52.813C-4.46056 52.5162 -4.63863 52.6943 -4.34184 53.4066C-4.04505 54.1189 -4.46056 54.4156 -6.18194 54.5937L-8.37817 54.8311L-6.12258 54.8905C-3.92634 55.0092 -3.86698 55.1279 -4.04505 56.79C-4.22313 58.8081 -3.2734 59.7578 -1.07716 59.7578C-0.36487 59.7578 0.228708 60.114 0.228708 60.5889C0.228708 61.5979 2.4843 64.5065 3.25596 64.5065C3.6121 64.5065 3.67146 64.2097 3.49339 63.9129C3.31531 63.5567 3.49339 63.3193 3.90889 63.3193C4.3244 63.3193 4.02761 62.9038 3.31531 62.3696C1.41586 61.0637 1.71265 59.4611 4.56183 56.3744C5.92706 54.8311 6.57999 53.7627 6.04577 54.0001C5.4522 54.1782 4.97733 54.1782 4.97733 53.8814C4.97733 52.9317 5.74898 52.6943 6.87678 53.2878C8.42009 54.1189 9.54788 53.1691 8.42009 51.982C7.52972 51.0322 7.35165 46.6991 8.24201 46.6991C8.59816 46.6991 8.30137 46.2836 7.70779 45.8088C7.05486 45.3339 5.98642 44.9184 5.33348 44.9777C4.26504 45.0371 4.26504 45.0965 5.51155 45.4526C6.63935 45.7494 6.9955 46.2836 7.17357 48.1831C7.35165 50.3793 7.11421 50.8542 3.37467 54.8311C-0.839732 59.3423 -2.38304 60.0546 -2.97661 57.799C-3.62955 55.3654 -3.33276 54.1782 -1.67074 52.4568C-0.780375 51.4478 -0.424228 50.8542 -0.780375 51.0916C-1.67074 51.5665 -1.7301 51.3884 -1.19588 50.0232C-1.01781 49.4889 -0.602301 49.2515 -0.246154 49.4296C0.0506344 49.6077 1.05972 49.1328 1.89073 48.3018C2.78109 47.5301 3.90889 46.6991 4.38375 46.5211C5.09605 46.2836 5.03669 46.1649 4.20568 46.1649C3.55275 46.1055 3.31531 45.8088 3.55275 45.3933C3.79018 45.0371 3.73082 44.9184 3.31531 45.1558C2.95917 45.3339 2.54366 45.0371 2.42495 44.5029C2.18752 43.5532 2.12816 43.5532 2.0688 44.4435ZM1.89073 47.4114C1.41586 48.1237 0.70357 48.836 0.288066 48.9547C-0.127439 49.0734 0.109993 48.5392 0.881644 47.6488C2.54366 45.7494 3.07788 45.6307 1.89073 47.4114ZM8.24201 53.1098C7.88587 53.5253 6.22385 52.4568 6.52064 51.982C6.69871 51.6852 7.17357 51.8039 7.64843 52.2194C8.06394 52.5755 8.36073 52.9911 8.24201 53.1098ZM3.07788 57.1461C2.00944 58.3333 1.17843 59.6391 1.29715 59.9953C1.47522 60.4701 1.29715 60.4701 0.822287 59.9359C0.288066 59.4611 0.644213 58.6894 2.36559 56.8493C5.15541 53.8814 5.80834 54.1189 3.07788 57.1461ZM2.30623 62.1322C2.89981 62.7851 3.07788 63.3193 2.72174 63.3193C2.36559 63.3193 1.77201 62.7851 1.41586 62.1322C1.05972 61.4792 0.881644 60.945 1.00036 60.945C1.11908 60.945 1.71265 61.4792 2.30623 62.1322Z" fill="white"/>
<path d="M8.65747 49.0735C8.65747 50.2013 8.77619 50.6761 8.95426 50.0826C9.07298 49.5483 9.07298 48.5986 8.95426 48.005C8.77619 47.4708 8.65747 47.9457 8.65747 49.0735Z" fill="white"/>
<path d="M10.0225 53.2285C10.2006 53.5846 10.0819 53.8221 9.66635 53.8221C9.19149 53.8221 9.3102 54.2376 9.96314 54.9499C11.3284 56.4932 10.9129 57.6803 7.64819 61.0637C4.62094 64.2097 4.50222 64.5065 6.10488 64.5065C6.69846 64.5065 8.00433 63.6161 8.95406 62.5477C10.6754 60.5295 10.7348 60.5295 12.0407 61.6573C12.8123 62.2509 14.2369 62.7257 15.3053 62.7257C16.7893 62.7257 16.9674 62.607 16.2551 62.0728C15.5428 61.5386 15.6021 61.4792 16.6706 61.7167C17.4422 61.8947 18.2139 61.7167 18.4513 61.4199C18.6294 61.0637 18.5107 60.945 18.1545 61.1824C17.7984 61.3605 17.3829 61.3011 17.2048 61.0044C17.0267 60.7076 16.3144 60.5889 15.6615 60.7669C15.0086 60.945 14.1182 60.7669 13.6433 60.4108C13.0497 59.8766 12.6936 59.8766 12.3968 60.3514C12.1 60.8263 11.7439 60.8263 11.269 60.4108C10.8535 60.0546 10.3193 59.9359 10.1412 60.1733C9.90378 60.3514 9.72571 60.2921 9.72571 59.9359C9.72571 59.5798 10.0819 58.9862 10.5567 58.63C11.2097 58.0958 11.4471 58.0958 11.6845 58.6894C11.8032 59.1049 11.8032 58.8081 11.6845 58.0958C11.5658 57.3242 11.6845 56.8493 12.0407 57.0274C12.3375 57.2055 12.5155 56.9087 12.3968 56.3744C12.2781 55.7809 12.1594 55.0092 12.1594 54.7124C12.1 54.3563 11.8626 54.475 11.5658 54.9499C11.1503 55.5434 10.9722 55.5434 10.6161 55.0092C10.3786 54.5937 10.4974 54.0595 10.9129 53.8221C11.3877 53.5253 11.3284 53.2878 10.6161 53.0504C10.0819 52.813 9.84442 52.8723 10.0225 53.2285ZM9.72571 60.8856C9.72571 61.4199 6.6391 63.9129 5.98617 63.9129C5.5113 63.9129 8.77598 60.5295 9.3102 60.4108C9.54764 60.4108 9.72571 60.5889 9.72571 60.8856ZM13.8808 61.5386C13.8808 61.8354 13.4653 61.9541 12.9904 61.776C12.5155 61.5386 12.1 61.3011 12.1 61.1824C12.1 61.0637 12.5155 60.945 12.9904 60.945C13.4653 60.945 13.8808 61.1824 13.8808 61.5386Z" fill="white"/>
<path d="M236.16 74.9802C235.092 77.5919 234.558 78.1261 232.005 79.1946C230.403 79.8475 229.097 80.6192 229.097 80.916C229.097 81.1534 230.462 82.0438 232.183 82.8748C234.854 84.1213 235.389 84.6555 236.101 86.8517C237.11 89.879 238.475 89.9977 239.425 87.1485C240.256 84.7149 241.681 83.2903 244.114 82.4593C246.963 81.5095 246.904 80.0849 243.995 79.1946C241.146 78.3636 240.671 77.8293 239.603 74.8021C238.475 71.5374 237.585 71.5968 236.16 74.9802ZM239.425 82.5186L237.882 84.0619L236.22 82.5186L234.617 80.9753L236.16 79.3133L237.704 77.7106L239.366 79.3133L241.028 80.916L239.425 82.5186Z" fill="white"/>
<path d="M215.741 80.6786C214.792 81.3909 214.673 82.1032 214.97 87.6235C215.148 91.0069 215.148 93.1437 214.91 92.3127C214.495 90.8881 214.435 90.9475 214.079 92.9657C213.248 97.2988 206.422 102.997 202.148 102.997C200.843 102.997 200.664 102.7 200.486 100.445L200.308 97.9517H194.373H188.437V113.978V130.005L194.551 130.183L200.605 130.361V128.462C200.605 126.918 200.783 126.681 201.674 127.037C202.208 127.274 203.098 127.571 203.573 127.749C204.345 127.987 204.345 127.987 203.573 127.393C202.801 126.859 202.801 126.74 203.573 126.74C204.285 126.681 204.226 126.562 203.395 126.087C202.861 125.791 202.148 125.612 201.852 125.791C200.843 126.443 200.605 124.247 200.605 114.513V104.778L202.267 104.719L203.87 104.659L202.386 104.125C201.199 103.709 201.317 103.65 203.217 103.888C206.007 104.184 208.915 102.76 212.002 99.6137C215.029 96.4678 216.038 93.7967 216.454 87.2673C216.869 81.0347 217.344 80.4412 219.837 83.4091C221.796 85.724 222.568 88.6919 222.568 93.6186C222.568 96.8239 222.746 97.6549 223.458 97.6549C223.933 97.6549 224.348 97.9517 224.348 98.3079C224.348 98.6047 223.992 98.7234 223.636 98.5453C223.22 98.3079 223.517 98.7234 224.289 99.3763C225.476 100.445 226.426 100.623 231.115 100.623C238.297 100.623 239.069 100.86 238.713 102.878C238.238 105.728 237.644 105.965 231.234 106.084L225.239 106.202L231.471 106.499C235.626 106.737 237.704 107.093 237.704 107.568C237.704 107.924 237.882 108.458 238.179 108.695C239.128 109.645 238.535 111.841 236.991 113.088C235.745 114.038 235.626 114.275 236.517 114.038C237.704 113.682 237.704 113.682 236.576 114.572C235.448 115.462 235.448 115.462 236.695 115.462C238.297 115.462 239.069 117.955 238.06 119.795C237.407 120.983 236.991 121.101 232.362 120.923C228.088 120.745 227.316 120.864 227.316 121.635C227.316 122.407 228.147 122.585 232.302 122.585C236.813 122.585 237.407 122.704 238.238 123.891C238.772 124.603 239.188 124.9 239.188 124.544C239.188 124.188 238.772 123.476 238.297 122.941C237.17 121.873 237.17 121.339 238.238 121.754C239.781 122.348 239.9 124.841 238.475 126.443L237.11 127.868L222.152 128.046C213.961 128.165 207.55 128.046 207.906 127.809C208.381 127.512 208.262 127.334 207.609 127.334C207.016 127.334 206.541 127.69 206.541 128.046C206.541 128.64 209.865 128.758 221.796 128.64C230.225 128.521 237.348 128.165 237.644 127.868C238.594 126.978 239.366 127.274 238.594 128.224C238.001 128.936 235.448 129.115 223.517 129.233L209.212 129.411L223.399 129.53C237.051 129.708 237.644 129.708 238.891 128.521C240.315 127.215 240.672 124.307 239.722 122.466C239.306 121.635 239.306 121.042 239.781 120.448C240.256 119.973 240.375 118.786 240.137 117.421C239.9 116.175 239.722 114.691 239.663 114.097C239.484 112.672 238.594 112.851 238.594 114.334C238.594 114.987 238.357 115.403 238.06 115.225C237.288 114.75 237.585 113.444 238.713 112.257C239.425 111.545 239.781 111.485 239.959 112.079C240.137 112.435 240.315 111.901 240.315 110.832C240.375 109.764 240.019 108.399 239.663 107.746C239.069 106.855 239.069 106.44 239.663 105.846C240.79 104.719 240.494 101.988 239.069 100.326C237.882 98.9014 237.466 98.8421 231.768 98.8421C227.91 98.8421 225.535 98.6047 225.061 98.1298C224.645 97.7143 224.289 95.5774 224.23 93.2031L224.17 89.048L223.755 92.3127C223.339 95.2806 223.339 95.1619 223.458 91.0662C223.636 86.1989 222.983 84.062 220.609 81.4503C218.887 79.6695 217.403 79.4321 215.741 80.6786ZM220.727 82.5187C221.736 83.7058 222.568 84.9524 222.568 85.2491C222.568 85.6053 221.677 84.8336 220.668 83.4684C219.362 81.9251 218.294 81.0941 217.522 81.2128C216.513 81.3315 216.276 81.9251 215.979 85.4866L215.682 89.6416L215.563 85.724C215.385 79.9663 217.403 78.7198 220.727 82.5187ZM222.983 88.2764C222.805 88.6919 222.686 88.3951 222.686 87.5641C222.686 86.7331 222.805 86.4363 222.983 86.7925C223.102 87.208 223.102 87.9203 222.983 88.2764ZM214.198 95.7555C213.367 97.4769 208.618 102.404 207.847 102.404C207.609 102.344 208.678 101.216 210.162 99.8512C211.646 98.4859 213.248 96.5271 213.664 95.4587C214.139 94.3903 214.614 93.678 214.792 93.856C214.91 93.9747 214.673 94.8058 214.198 95.7555ZM238.119 99.9105C238.357 100.148 235.686 100.267 232.183 100.148C228.681 100.029 225.654 99.7918 225.417 99.5544C225.179 99.317 227.85 99.1982 231.352 99.317C234.855 99.4357 237.882 99.6731 238.119 99.9105ZM198.231 114.275V128.521H194.373H190.514V114.275V100.029H194.373H198.231V114.275ZM238.95 105.668C238.416 106.084 238.238 106.618 238.475 106.855C238.713 107.152 238.535 107.152 238.119 106.915C237.466 106.499 237.526 106.262 238.238 105.431C238.772 104.837 239.247 103.769 239.247 102.938C239.366 101.751 239.425 101.81 239.603 103.294C239.781 104.422 239.544 105.253 238.95 105.668ZM206.541 102.997C206.066 103.294 205.235 103.531 204.76 103.531C204.167 103.531 204.285 103.353 205.057 102.997C206.66 102.285 207.609 102.285 206.541 102.997ZM239.781 117.777C239.781 118.727 239.306 119.855 238.772 120.27C237.822 121.042 237.763 120.983 238.535 120.092C238.95 119.499 239.188 118.252 239.069 117.302C238.95 116.293 239.01 115.64 239.306 115.818C239.544 115.996 239.781 116.887 239.781 117.777ZM234.914 121.814C233.667 121.932 231.531 121.932 230.165 121.814C228.741 121.695 229.75 121.576 232.362 121.576C234.973 121.576 236.101 121.695 234.914 121.814Z" fill="white"/>
<path d="M200.012 81.9251C200.012 83.1122 199.715 83.409 198.528 83.409C197.459 83.409 197.044 83.7058 197.044 84.5962C197.044 85.4865 197.459 85.7833 198.528 85.7833C199.715 85.7833 200.012 86.0801 200.012 87.2673C200.012 88.3357 200.308 88.7512 201.199 88.7512C202.089 88.7512 202.386 88.3357 202.386 87.2673C202.386 86.0801 202.683 85.7833 203.87 85.7833C204.938 85.7833 205.354 85.4865 205.354 84.5962C205.354 83.7058 204.938 83.409 203.87 83.409C202.683 83.409 202.386 83.1122 202.386 81.9251C202.386 80.8566 202.089 80.4411 201.199 80.4411C200.308 80.4411 200.012 80.8566 200.012 81.9251Z" fill="white"/>
<path d="M250.169 89.6416C248.388 91.3629 248.329 92.3127 249.931 94.3308C251.415 96.1709 253.552 96.349 255.214 94.687C256.876 93.025 256.698 90.8881 254.858 89.4041C252.84 87.8015 251.89 87.8608 250.169 89.6416ZM253.908 91.8972C254.146 93.0843 252.424 93.9153 251.534 93.025C250.644 92.1346 251.475 90.4132 252.662 90.6507C253.255 90.7694 253.79 91.3036 253.908 91.8972Z" fill="white"/>
<path d="M258.716 105.193C258.42 106.143 258.004 107.211 257.885 107.627C257.707 108.042 256.401 108.933 254.917 109.586C251.831 110.951 251.712 111.841 254.502 112.732C256.817 113.563 257.707 114.453 258.538 116.768C259.429 119.558 260.438 119.439 261.684 116.531C262.575 114.453 263.287 113.741 265.246 112.969C266.552 112.435 267.679 111.723 267.679 111.307C267.679 110.951 266.552 110.179 265.127 109.586C263.109 108.695 262.397 107.983 261.625 106.024C260.497 103.175 259.607 102.938 258.716 105.193ZM261.447 110.12C262.515 111.307 262.515 111.367 261.328 112.554L260.082 113.8L258.835 112.554C257.648 111.367 257.648 111.248 258.657 110.179C259.963 108.695 260.141 108.695 261.447 110.12Z" fill="white"/>
<path d="M228.385 107.568C230.106 107.686 232.777 107.686 234.32 107.568C235.864 107.449 234.439 107.39 231.174 107.39C227.91 107.39 226.663 107.449 228.385 107.568Z" fill="white"/>
<path d="M226.129 114.275C226.129 114.572 226.426 114.869 226.722 114.869C227.079 114.869 227.316 114.572 227.316 114.275C227.316 113.919 227.079 113.681 226.722 113.681C226.426 113.681 226.129 113.919 226.129 114.275Z" fill="white"/>
<path d="M227.91 114.275C227.91 114.572 228.206 114.869 228.503 114.869C228.859 114.869 229.097 114.572 229.097 114.275C229.097 113.919 228.859 113.681 228.503 113.681C228.206 113.681 227.91 113.919 227.91 114.275Z" fill="white"/>
<path d="M252.246 127.631C252.246 128.106 251.712 128.521 251.059 128.521C250.288 128.521 249.872 128.937 249.872 129.708C249.872 130.48 250.288 130.895 251.059 130.895C251.831 130.895 252.246 131.311 252.246 132.082C252.246 132.854 252.662 133.27 253.434 133.27C254.205 133.27 254.621 132.854 254.621 132.082C254.621 131.43 255.036 130.895 255.511 130.895C255.986 130.895 256.401 130.361 256.401 129.708C256.401 129.055 255.986 128.521 255.511 128.521C255.036 128.521 254.621 128.106 254.621 127.631C254.621 127.156 254.086 126.74 253.434 126.74C252.781 126.74 252.246 127.156 252.246 127.631Z" fill="white"/>
</g>
</svg>
