<svg width="32" height="32" viewBox="0 0 32 32" xmlns="http://www.w3.org/2000/svg">
<path d="M16 31.9987C24.8366 31.9987 32 24.8356 32 15.9994C32 7.16316 24.8366 0 16 0C7.16344 0 0 7.16316 0 15.9994C0 24.8356 7.16344 31.9987 16 31.9987Z" fill="#FFF7F7"/>
<g clip-path="url(#clip0)">
<path d="M21.9211 9.4249C20.7073 7.33021 18.5514 6.05049 16.1539 6.00158C16.0516 5.99947 15.9486 5.99947 15.8462 6.00158C13.4488 6.05049 11.2928 7.33021 10.079 9.4249C8.83829 11.566 8.80434 14.1379 9.98817 16.3047L14.9477 25.3823C14.9499 25.3863 14.9521 25.3904 14.9544 25.3944C15.1726 25.7736 15.5635 26 16.0001 26C16.4367 26 16.8276 25.7736 17.0457 25.3944C17.0481 25.3904 17.0503 25.3863 17.0525 25.3823L22.012 16.3047C23.1957 14.1379 23.1618 11.566 21.9211 9.4249ZM16 15.0625C14.4492 15.0625 13.1875 13.8008 13.1875 12.25C13.1875 10.6992 14.4492 9.43752 16 9.43752C17.5509 9.43752 18.8125 10.6992 18.8125 12.25C18.8125 13.8008 17.5509 15.0625 16 15.0625Z" fill="url(#paint0_linear)"/>
</g>
<defs>
<linearGradient id="paint0_linear" x1="9.56386" y1="6" x2="18.2106" y2="31.9422" gradientUnits="userSpaceOnUse">
<stop stop-color="#D12323"/>
<stop offset="1" stop-color="#750404"/>
</linearGradient>
<clipPath id="clip0">
<rect width="20" height="20" fill="white" transform="translate(6 6)"/>
</clipPath>
</defs>
</svg>
