<svg width="20" height="20" viewBox="0 0 20 20" xmlns="http://www.w3.org/2000/svg">
<path d="M11.6467 7.95218L12.8209 6.83527L11.185 6.60296C10.9957 6.57605 10.8309 6.4582 10.7445 6.2871L10.0001 4.81433L9.25565 6.2871C9.16924 6.4582 9.00444 6.57605 8.81506 6.60296L7.1792 6.83527L8.35334 7.95218C8.49526 8.08781 8.56049 8.28519 8.5267 8.478L8.24631 10.0727L9.73225 9.30996C9.9005 9.22414 10.0996 9.22414 10.2678 9.30996L11.7537 10.0727L11.4734 8.478C11.4396 8.28515 11.5049 8.08781 11.6467 7.95218Z" />
<path d="M9.99989 0C5.80009 0 2.38306 3.41703 2.38306 7.61684C2.38306 11.8166 5.80009 15.2337 9.99989 15.2337C14.1997 15.2337 17.6167 11.8166 17.6167 7.61684C17.6167 3.41703 14.1997 0 9.99989 0ZM14.5052 6.84953L12.6823 8.58437L13.112 11.031C13.195 11.5059 12.6966 11.8765 12.2668 11.6536L9.99989 10.4898L7.73294 11.6536C7.30442 11.8737 6.80415 11.5095 6.88782 11.0311L7.31755 8.58441L5.49458 6.84957C5.14024 6.51145 5.33317 5.91313 5.81614 5.8448L8.34747 5.48547L9.47696 3.25113C9.6761 2.85633 10.3238 2.85633 10.5229 3.25113L11.6524 5.48547L14.1837 5.8448C14.6666 5.91309 14.8595 6.51145 14.5052 6.84953Z" />
<path d="M10 16.4055C8.51892 16.4055 7.12419 16.0337 5.89868 15.384V19.4131C5.89868 19.8819 6.42345 20.1597 6.80958 19.9006L10 17.7739L13.1905 19.9007C13.5784 20.1593 14.1014 19.8813 14.1014 19.4132V15.384C12.8759 16.0337 11.4812 16.4055 10 16.4055Z" />
</svg>
