<svg width="375" height="130" viewBox="0 0 375 130" fill="none" xmlns="http://www.w3.org/2000/svg">
<g clip-path="url(#clip0)">
<path d="M0 0H375V80C375 107.614 352.614 130 325 130H50C22.3858 130 0 107.614 0 80V0Z"/>
<g opacity="0.1">
<path d="M111.778 59.0893C103.052 60.3952 94.386 66.9245 90.4684 75.0566C88.2721 79.6865 86.8476 86.3939 87.3224 89.9554C87.6786 92.5671 87.4411 92.6858 85.3636 91.0832C83.5829 89.7179 82.6332 89.5992 82.2177 90.727C81.9802 91.2612 83.108 92.2703 85.3636 93.6949C87.2631 94.8821 89.1032 95.8318 89.3999 95.8318C89.7561 95.8318 91.0026 94.2291 92.1898 92.211C93.7924 89.6586 94.2079 88.4121 93.7924 87.9966C93.0208 87.2249 91.5368 88.234 91.0026 89.9554C90.2903 92.1516 89.5187 91.0832 89.5187 87.9372C89.5187 80.933 92.071 74.8191 97.2945 69.3582C102.281 64.1941 109.938 60.8107 116.526 60.8107C125.608 60.87 134.927 66.0935 139.735 73.8694C141.101 76.125 142.169 77.2528 142.703 77.0154C143.89 76.5405 143.772 75.9469 141.575 72.5042C135.105 62.5321 123.531 57.3086 111.778 59.0893Z" fill="white"/>
<path d="M115.695 69.0021C115.28 69.7737 115.339 70.3673 115.814 70.9015C116.408 71.4951 116.348 71.6138 115.517 71.317C114.568 70.9609 113.618 72.2074 114.271 72.9197C114.864 73.5133 115.755 73.3352 115.339 72.7416C115.161 72.4448 115.517 72.0293 116.17 71.7919C116.823 71.6138 117.476 71.0202 117.654 70.486C117.951 69.7737 117.892 69.7144 117.239 70.1892C116.289 71.0202 115.577 70.5454 116.052 69.3582C116.23 68.8834 116.645 68.7053 117.001 68.9427C117.357 69.1208 117.417 69.0021 117.179 68.6459C116.586 67.6962 116.348 67.7556 115.695 69.0021Z" fill="white"/>
<path d="M117.832 71.7325C117.298 73.0384 120.444 79.4491 121.097 78.44C121.453 77.9651 121.572 78.1432 121.453 78.9148C121.216 80.7549 122.047 81.5859 124.124 81.5266C125.905 81.4672 125.964 81.4672 124.54 81.0517C123.174 80.6362 123.174 80.5769 124.243 80.2801C125.015 80.0426 124.896 79.9833 123.827 80.102C122.937 80.1613 122.343 80.0426 122.403 79.8646C122.522 79.6865 121.631 77.5496 120.444 75.1159C118.841 71.97 118.07 71.0202 117.832 71.7325ZM120.919 77.7277C120.919 78.0245 120.266 77.1341 119.494 75.6502C118.723 74.1662 118.07 72.6823 118.07 72.3855C118.07 72.0293 118.723 72.9791 119.494 74.463C120.266 75.9469 120.919 77.3715 120.919 77.7277Z" fill="white"/>
<path d="M112.727 74.8785C112.134 76.1844 112.134 76.3625 112.846 75.7689C113.321 75.3534 113.796 75.2347 114.033 75.4128C114.211 75.5908 114.211 75.2347 114.033 74.5224C113.618 72.9197 113.618 72.9791 112.727 74.8785Z" fill="white"/>
<path d="M112.965 76.8373C112.727 77.1935 112.371 77.3122 112.134 77.1341C111.837 77.0154 111.362 77.4903 111.006 78.3213C110.65 79.0929 109.76 79.8646 108.988 79.9833C108.216 80.102 108.513 80.1614 109.581 80.0427C110.828 79.9239 111.362 80.102 111.125 80.5175C110.887 80.8737 109.403 80.9924 106.97 80.6956C104.595 80.4582 103.171 80.5175 103.171 80.8737C103.171 81.2298 102.637 81.3485 101.984 81.1705C100.262 80.6956 97.8286 81.4672 97.8286 82.4763C97.8286 83.4854 105.308 90.1928 106.495 90.1928C106.97 90.1928 107.623 90.6084 107.919 91.0832C108.216 91.5581 108.513 91.6768 108.513 91.38C108.513 91.0239 106.91 89.1838 104.892 87.225C102.933 85.2661 101.39 83.9009 101.449 84.2571C101.628 85.5036 101.331 85.9784 100.856 85.2068C100.5 84.6726 100.5 83.9009 100.856 83.248C101.331 82.417 101.212 82.1795 100.44 82.1795C99.8468 82.1795 99.6093 82.4763 99.7874 83.0106C100.025 83.6041 99.8468 83.7822 99.2532 83.5448C98.8377 83.3667 98.4222 83.0106 98.4222 82.7731C98.4222 82.0015 100.856 81.4079 101.449 82.0015C102.043 82.595 110.056 81.6453 111.303 80.8143C111.659 80.5769 111.837 79.8052 111.659 79.0336C111.481 78.1432 111.54 77.9651 111.896 78.4994C112.312 79.0336 112.609 78.8555 113.143 77.7277C113.796 76.2438 113.677 75.6502 112.965 76.8373ZM106.317 81.4079C105.901 81.5266 105.07 81.5266 104.536 81.4079C103.942 81.2298 104.299 81.1111 105.248 81.1111C106.257 81.1111 106.673 81.2298 106.317 81.4079ZM104.892 87.8185C107.267 90.4896 106.554 90.4303 103.527 87.8185C102.162 86.572 101.568 85.741 102.102 85.741C102.577 85.741 103.824 86.6907 104.892 87.8185Z" fill="white"/>
<path d="M143.059 79.924C142.762 80.3395 141.635 82.1202 140.566 83.9009C139.141 86.394 138.904 87.225 139.498 87.5811C140.685 88.3528 140.863 88.234 142.05 85.8597L143.118 83.6635L143.593 85.741C143.89 86.9282 143.831 89.5993 143.475 91.9142C141.813 103.608 132.612 112.868 120.859 114.886C110.294 116.666 99.253 111.324 93.2579 101.649C92.0707 99.7495 90.7649 98.2062 90.3494 98.2062C89.2216 98.2062 89.2809 99.0372 90.6462 101.708C94.0296 108.356 100.737 113.877 108.038 116.073C111.362 117.082 113.261 117.319 118.188 117.082C123.708 116.904 124.658 116.666 128.873 114.708C139.616 109.543 145.908 99.7495 145.908 87.9373C145.908 85.4442 146.086 83.3667 146.264 83.3667C146.443 83.3667 147.392 83.8416 148.342 84.3758C149.707 85.1474 150.182 85.2662 150.776 84.6726C151.666 83.7822 151.31 83.4854 147.036 81.0517C144.424 79.6272 143.534 79.3897 143.059 79.924Z" fill="white"/>
<path d="M127.805 80.9329L129.585 81.4672L127.805 81.5859C126.202 81.764 126.261 81.764 128.398 82.1201C129.704 82.2982 130.891 82.2982 130.951 82.0014C131.069 81.764 131.604 81.5859 132.138 81.5859C132.731 81.5859 132.909 81.764 132.553 82.0607C132.256 82.2982 131.96 82.8918 131.96 83.3666C131.96 83.8415 132.256 84.4944 132.553 84.7318C132.909 85.0286 132.613 85.1473 131.841 84.9693C130.416 84.6725 128.339 86.4532 128.932 87.4029C129.111 87.6997 128.814 88.3527 128.28 88.7682C127.389 89.4805 127.33 89.4805 127.686 88.4714C128.101 87.5217 127.983 87.4623 127.152 88.1746C126.558 88.6495 126.439 89.065 126.855 89.1837C127.211 89.3024 127.389 89.6585 127.211 89.896C127.033 90.1928 126.499 90.3115 126.083 90.1334C124.896 89.6585 124.599 90.5489 125.134 92.8639C125.549 94.6446 125.608 94.704 125.727 93.4574C125.846 92.0329 125.905 92.0329 126.38 93.7542C126.855 95.4756 126.855 95.4756 126.618 93.4574C126.439 91.558 126.736 91.0831 130.951 87.1062C133.503 84.7318 135.165 82.773 134.809 82.773C134.393 82.773 134.037 83.0698 134.037 83.426C134.037 83.7228 133.74 83.8415 133.384 83.604C132.909 83.3666 133.206 82.8918 134.097 82.3575C134.868 81.8827 135.046 81.6452 134.512 81.8233C133.978 82.0014 133.444 81.8827 133.325 81.6452C133.206 81.3484 131.544 80.9923 129.585 80.8142C127.27 80.5768 126.618 80.6362 127.805 80.9329ZM131.425 85.8596C131.663 86.2751 131.604 86.3345 131.188 86.0971C130.773 85.8596 130.476 85.9784 130.476 86.2751C130.476 86.6313 130.179 86.9281 129.823 86.9281C129.348 86.9281 129.348 86.6313 129.882 86.0377C130.773 84.9693 130.891 84.9693 131.425 85.8596Z" fill="white"/>
<path d="M106.317 91.7955C106.317 92.211 106.139 93.873 106.02 95.535C105.842 97.1377 105.842 97.6719 106.02 96.7222L106.317 94.9415L106.792 96.7222C107.148 97.9687 107.207 97.5532 107.029 95.2382C106.851 92.9233 106.911 92.3891 107.267 93.4575C107.623 94.4072 107.801 94.5853 107.86 93.9324C107.92 92.6859 107.326 91.0832 106.792 91.0832C106.554 91.0832 106.317 91.4393 106.317 91.7955Z" fill="white"/>
<path d="M125.786 96.4847C125.786 97.019 125.905 98.3248 126.083 99.3933C126.38 100.699 126.617 101.055 126.973 100.462C127.33 99.9275 127.508 100.106 127.508 101.055C127.508 101.946 127.27 102.302 126.795 102.064C126.38 101.827 126.558 102.124 127.151 102.599C128.635 103.786 127.389 103.845 125.133 102.658C124.124 102.124 123.353 101.886 123.353 102.005C123.353 102.48 126.736 104.142 127.745 104.142C128.398 104.142 128.517 103.667 128.279 101.886C128.101 100.699 127.745 99.6307 127.508 99.512C127.33 99.4526 127.211 98.5029 127.27 97.4345L127.448 95.535L126.973 97.3158L126.499 99.0965L126.202 97.3158C126.024 96.3067 125.846 95.9505 125.786 96.4847Z" fill="white"/>
<path d="M115.042 97.6126C114.271 98.0874 114.271 98.2061 114.983 98.2061C115.636 98.2061 115.517 98.4436 114.686 99.0965C113.618 99.9275 113.677 99.9869 115.102 99.3339C116.408 98.7997 117.12 98.9184 119.791 100.284C121.453 101.115 122.7 101.53 122.403 101.115C122.106 100.58 122.284 100.521 123.115 100.818C127.033 102.421 126.677 101.946 122.225 99.7494C120.503 98.8591 119.257 98.4436 119.554 98.8591C119.85 99.3933 119.672 99.4527 118.96 99.2152C118.367 98.9778 117.773 98.7997 117.654 98.7997C117.535 98.7997 117.417 98.5029 117.417 98.1468C117.417 97.85 117.773 97.7313 118.188 97.9687C118.545 98.2061 118.723 98.1468 118.426 97.9094C117.773 97.1377 116.052 97.019 115.042 97.6126ZM121.572 99.9869C122.047 100.284 122.225 100.58 121.869 100.58C121.572 100.58 120.86 100.284 120.385 99.9869C119.91 99.6901 119.791 99.3933 120.088 99.3933C120.444 99.3933 121.097 99.6901 121.572 99.9869Z" fill="white"/>
<path d="M112.668 98.7997C112.134 99.1559 112.074 99.3933 112.49 99.3933C112.846 99.3933 113.38 99.0965 113.558 98.7997C114.033 98.0874 113.796 98.0874 112.668 98.7997Z" fill="white"/>
<path d="M104.951 100.046C104.951 100.343 105.308 100.462 105.723 100.224C106.198 99.9276 106.139 100.106 105.604 100.818C104.951 101.59 104.892 101.946 105.486 102.539C106.079 103.074 106.139 103.014 105.842 102.064C105.545 101.115 105.545 101.055 106.02 101.768C106.792 102.836 106.317 103.726 105.189 103.311C104.714 103.133 104.358 103.252 104.358 103.548C104.358 104.32 106.554 104.32 106.97 103.608C107.563 102.658 106.614 99.3933 105.782 99.3933C105.308 99.3933 104.951 99.6901 104.951 100.046Z" fill="white"/>
<path d="M111.303 100.343C111.422 100.759 111.956 100.937 112.431 100.759C113.559 100.343 113.499 100.165 112.134 99.8088C111.362 99.6308 111.066 99.7495 111.303 100.343Z" fill="white"/>
<path d="M109.166 100.521C107.979 101.293 107.801 102.955 108.929 102.539C109.641 102.242 109.641 102.124 108.988 101.649C108.454 101.233 108.573 101.174 109.522 101.352C110.413 101.53 110.709 101.411 110.472 100.818C110.116 99.8682 110.235 99.8682 109.166 100.521Z" fill="white"/>
<path d="M189.268 -18.3563C189.031 -18.0001 189.149 -17.5253 189.565 -17.4066C191.167 -16.8723 194.313 -13.6077 195.441 -11.2927C196.332 -9.45262 196.688 -9.15583 196.866 -9.98684C197.044 -10.5804 197.103 -9.27455 197.103 -7.07831C197.044 -4.94143 196.866 -3.39813 196.688 -3.75427C196.45 -4.05106 196.153 -3.63556 196.035 -2.80455C195.857 -1.97354 195.975 -1.43932 196.213 -1.61739C196.51 -1.79546 196.747 -1.55803 196.747 -1.14253C196.806 0.460132 197.816 -2.21097 198.172 -4.82271C198.409 -6.90024 198.35 -7.13767 197.934 -6.00987C197.519 -4.82271 197.459 -5.1195 197.697 -7.25638C197.994 -10.0462 197.459 -12.5392 196.806 -11.4114C196.569 -11.0553 196.094 -11.2927 195.619 -12.0644C194.966 -13.1328 194.966 -13.2515 195.797 -12.9547C197.103 -12.4205 196.213 -14.0825 194.076 -16.1007C192.77 -17.3472 192.592 -17.4066 192.948 -16.3975C193.364 -15.329 193.304 -15.2697 192.414 -16.0413C191.82 -16.5162 191.524 -16.9911 191.702 -17.1691C192.058 -17.5253 190.871 -19.0686 190.158 -19.0686C189.921 -19.0686 189.505 -18.7718 189.268 -18.3563ZM191.108 -17.8814C191.286 -17.5846 191.227 -17.2879 190.871 -17.2879C190.574 -17.2879 190.099 -17.5846 189.921 -17.8814C189.743 -18.2376 189.802 -18.475 190.158 -18.475C190.455 -18.475 190.93 -18.2376 191.108 -17.8814ZM195.026 -14.498C195.797 -13.6077 195.738 -13.6077 194.551 -14.2606C193.126 -14.9729 192.829 -15.5071 193.72 -15.5071C194.017 -15.5071 194.61 -15.0916 195.026 -14.498Z" fill="white"/>
<path d="M173.419 -15.0322C171.579 -12.8953 170.985 -10.8772 170.867 -6.60341C170.807 -3.63552 170.985 -2.56708 171.342 -3.33873C171.698 -4.2291 171.757 -4.05103 171.579 -2.62644C171.282 -0.726989 173.063 2.71576 175.319 4.55586C177.574 6.39595 181.136 7.64246 183.985 7.52375L186.953 7.46439L183.688 7.04889L180.423 6.63338L183.985 6.45531L187.546 6.27723L183.985 5.92109C180.008 5.50558 178.405 4.79329 175.378 2.06283C174.25 1.05375 173.716 0.697599 174.131 1.29118C174.606 1.8254 174.784 2.47833 174.606 2.65641C174.428 2.89384 173.716 2.12219 173.063 1.05375C171.757 -1.08314 171.46 -2.15158 172.351 -1.558C172.707 -1.37992 172.647 -2.15158 172.291 -3.39809C171.995 -4.6446 171.816 -6.18791 171.995 -6.95956C172.113 -7.73121 171.995 -8.20607 171.757 -8.028C171.46 -7.84993 171.223 -8.32479 171.223 -9.09644C171.223 -10.2242 171.342 -10.2836 171.816 -9.5713C172.291 -8.91837 172.351 -9.1558 172.054 -10.4617C171.876 -11.4708 171.935 -11.9456 172.232 -11.5895C172.529 -11.174 173.36 -11.8269 174.547 -13.4296C176.09 -15.4477 176.209 -15.8632 175.319 -15.9226C174.784 -15.9819 173.894 -15.5664 173.419 -15.0322ZM174.191 -14.2012C173.538 -13.4889 173.004 -12.6579 173.004 -12.3018C173.004 -12.005 172.826 -11.8863 172.647 -12.0643C172.232 -12.5392 174.131 -15.5071 174.903 -15.5071C175.2 -15.5071 174.903 -14.9135 174.191 -14.2012ZM175.971 3.3687C175.971 3.66549 177.099 4.37778 178.405 5.03072C179.77 5.6243 180.542 6.21788 180.186 6.33659C179.77 6.45531 178.405 5.86173 177.159 5.03072C174.784 3.42806 174.309 2.89384 175.378 2.89384C175.734 2.89384 175.971 3.13127 175.971 3.3687Z" fill="white"/>
<path d="M206.244 -6.48476C206.244 -5.71311 206.837 -5.2976 208.025 -5.06017C209.865 -4.64466 210.34 -3.99173 209.093 -3.45751C208.678 -3.27944 196.153 5.03065 181.314 15.0621C166.474 25.0342 153.89 33.463 153.415 33.7598C152.703 34.1753 152.703 34.4128 153.356 35.1844C154.187 36.1341 155.256 35.4219 201.851 3.96222L213.189 -3.7543L215.8 -3.22008C218.412 -2.68586 218.412 -2.68586 218.234 -0.311546C218.115 1.46919 217.641 2.35955 216.157 3.60607C215.148 4.49644 201.733 13.6375 186.418 23.9064C171.104 34.1753 158.461 42.7229 158.283 42.9009C158.105 43.079 158.283 43.6132 158.698 44.0881C159.292 44.741 164.278 41.5951 187.902 25.6872C203.573 15.1215 216.513 6.45525 216.631 6.45525C216.75 6.45525 216.691 7.40497 216.513 8.59212C216.216 10.4322 216.335 10.729 217.225 10.5509C218.056 10.3729 218.59 8.94827 219.718 4.08093C220.49 0.63818 221.024 -2.68586 220.965 -3.27944C220.787 -4.28852 219.599 -4.70403 213.545 -6.0099C206.6 -7.49384 206.244 -7.5532 206.244 -6.48476Z" fill="white"/>
<path d="M154.247 -3.3388C153.297 -2.56714 153.297 -2.50779 154.187 -2.80458C155.671 -3.3388 155.434 -2.74522 153.594 -1.55806C152.228 -0.667695 152.11 -0.608337 152.406 -1.4987C152.703 -2.211 152.347 -2.15164 150.744 -1.0832C148.548 0.28203 148.251 0.816251 149.26 1.40983C149.617 1.64726 149.795 1.46919 149.735 1.05368C149.617 0.697535 149.913 0.222672 150.388 0.0445991C150.922 -0.133474 151.041 0.0445991 150.744 0.519462C150.388 1.05368 150.507 1.1724 151.101 0.816251C153.416 -0.548979 156.977 -3.27944 156.977 -3.7543C156.977 -4.52595 155.552 -4.28852 154.247 -3.3388Z" fill="white"/>
<path d="M188.318 -1.43927C188.318 -1.20184 188.199 -0.726976 188.14 -0.370829C188.021 -0.0740399 187.962 0.46018 187.903 0.816327C187.843 1.11312 187.606 1.05376 187.309 0.578896C186.953 0.0446756 186.656 -0.0146823 186.419 0.46018C186.181 0.816327 186.359 1.11312 186.775 1.17247C187.19 1.17247 187.012 1.40991 186.359 1.70669C185.35 2.1222 185.35 2.24091 186.181 2.24091C187.19 2.30027 189.624 0.163391 189.624 -0.726976C189.624 -1.37991 188.437 -2.03285 188.318 -1.43927Z" fill="white"/>
<path d="M183.688 0.222717C182.917 1.05373 182.501 1.88474 182.679 2.12217C182.917 2.30024 183.095 2.18152 183.095 1.82538C183.095 1.40987 183.391 1.17244 183.748 1.2318C184.104 1.35052 184.638 0.816295 184.935 0.0446436C185.588 -1.61738 185.41 -1.61738 183.688 0.222717Z" fill="white"/>
<path d="M195.085 -0.370893C195.263 -0.133462 194.432 0.934978 193.126 2.12213C191.88 3.24993 190.989 4.49645 191.227 4.85259C191.464 5.20874 191.227 5.32746 190.574 5.09003C189.921 4.85259 189.684 4.91195 189.98 5.32746C190.218 5.74296 189.921 5.86168 188.971 5.62425C188.2 5.44617 187.903 5.44617 188.318 5.62425C188.912 5.92103 188.853 6.15847 188.022 6.8114C187.072 7.58305 187.131 7.58305 188.615 7.04883C191.405 6.03975 192.77 5.14938 192.177 4.73388C191.82 4.5558 192.058 3.90287 192.77 3.19058C193.957 2.00342 193.957 2.00342 193.601 3.36865C193.364 4.49645 193.423 4.61516 194.135 4.02158C194.61 3.66544 194.848 3.19058 194.67 3.0125C194.492 2.83443 194.907 2.35957 195.56 1.8847C197.044 0.87562 197.044 0.163327 195.738 -0.311536C195.144 -0.548967 194.848 -0.548967 195.085 -0.370893ZM196.154 0.816262C196.154 0.934978 195.56 1.35048 194.848 1.70663C193.542 2.35957 193.542 2.30021 194.61 1.4692C195.857 0.460115 196.154 0.3414 196.154 0.816262Z" fill="white"/>
<path d="M164.694 1.76602C163.507 2.71575 163.447 2.83446 164.397 2.53768C165.584 2.12217 165.584 2.18153 164.456 3.24997C163.625 4.08098 163.269 4.19969 163.091 3.60612C162.854 3.01254 162.616 3.01254 161.963 3.54676C161.489 3.9029 161.251 4.43713 161.429 4.67456C161.785 5.20878 159.47 7.04887 158.58 7.04887C158.283 7.04887 158.402 6.57401 158.817 5.98043C159.589 5.09006 159.53 5.0307 158.639 5.80236C158.046 6.21786 157.749 6.8708 157.986 7.22694C158.224 7.58309 157.986 7.70181 157.393 7.46437C156.799 7.2863 156.384 7.34566 156.384 7.64245C156.384 7.99859 156.206 8.17667 155.968 8.11731C155.672 7.99859 154.841 8.4141 154.01 8.94832C152.941 9.71997 152.763 10.1948 153.238 10.6697C153.772 11.2039 154.306 11.0852 155.434 10.1948C156.265 9.5419 156.74 8.8296 156.562 8.59217C156.384 8.4141 156.621 8.23603 157.215 8.23603C157.749 8.23603 160.361 6.81144 162.973 5.0307C166.593 2.59703 167.543 1.70667 166.95 1.2318C166.356 0.756941 165.762 0.935015 164.694 1.76602ZM155.197 9.71997C154.781 10.1948 154.128 10.6103 153.772 10.6103C153.416 10.6103 153.653 10.1948 154.247 9.71997C155.731 8.59217 156.146 8.59217 155.197 9.71997Z" fill="white"/>
<path d="M179.711 0.93495C180.245 1.05367 181.076 1.05367 181.492 0.93495C181.848 0.756877 181.432 0.638161 180.423 0.638161C179.474 0.638161 179.118 0.756877 179.711 0.93495Z" fill="white"/>
<path d="M179.414 2.12216C179.83 2.30023 180.364 2.24087 180.542 2.0628C180.78 1.88472 180.423 1.70665 179.77 1.76601C179.117 1.76601 178.939 1.94408 179.414 2.12216Z" fill="white"/>
<path d="M183.688 2.89373C183.688 3.19052 183.985 3.4873 184.341 3.4873C184.638 3.4873 184.756 3.19052 184.578 2.89373C184.4 2.53758 184.103 2.30015 183.925 2.30015C183.807 2.30015 183.688 2.53758 183.688 2.89373Z" fill="white"/>
<path d="M139.348 6.51467C137.211 7.8799 136.855 8.41412 138.458 7.82054C139.348 7.46439 139.348 7.52375 138.636 8.47347C138.101 9.12641 137.567 9.24513 137.211 8.88898C136.617 8.2954 132.047 10.9071 132.047 11.8569C132.047 12.8066 133.115 12.9253 134.184 12.0943C135.252 11.2039 135.252 11.2039 134.124 11.5601C133.234 11.8569 133.412 11.5007 134.718 10.4323C136.677 8.82962 137.448 8.77026 136.143 10.3729C135.668 10.9665 136.855 10.3729 138.695 9.18577C140.891 7.70182 141.96 6.63338 141.722 6.09916C141.366 5.09008 141.603 5.03072 139.348 6.51467ZM140.357 7.04889C140.357 7.34568 140.06 7.64247 139.704 7.64247C139.407 7.64247 139.289 7.34568 139.467 7.04889C139.645 6.69274 139.941 6.45531 140.12 6.45531C140.238 6.45531 140.357 6.69274 140.357 7.04889Z" fill="white"/>
<path d="M171.995 9.00766C171.104 9.77931 169.086 11.1445 167.543 12.0943C165.465 13.4001 164.931 14.0531 165.347 14.5873C165.821 15.1215 166.534 14.8841 168.433 13.5189C169.798 12.5098 170.926 11.4413 170.926 11.0852C170.926 10.729 171.282 10.3135 171.757 10.1355C172.291 9.95739 172.41 10.1355 172.113 10.6103C171.817 11.1445 171.876 11.2633 172.351 10.9665C172.766 10.729 172.944 10.1948 172.826 9.83867C172.707 9.42317 173.122 8.82959 173.835 8.41409C174.547 7.99858 174.784 7.70179 174.369 7.64243C174.013 7.64243 172.944 8.23601 171.995 9.00766ZM168.849 12.5098C167.721 13.2221 166.593 14.1124 166.356 14.4686C166.059 14.8841 165.881 14.8247 165.881 14.3499C165.881 13.6969 169.205 11.3226 170.333 11.2633C170.689 11.2633 169.976 11.7975 168.849 12.5098Z" fill="white"/>
<path d="M145.521 14.5279C143.325 16.0118 141.544 17.5551 141.544 18.03C141.544 18.5048 141.722 18.9203 141.9 18.9203C142.553 18.9203 150.448 13.4001 150.448 12.9252C150.448 11.6787 149.201 12.0942 145.521 14.5279ZM149.795 13.1626C149.676 13.2814 148.548 14.053 147.361 14.9434C146.174 15.8337 144.987 16.546 144.749 16.546C144.512 16.546 143.8 17.0209 143.147 17.5551C142.494 18.1487 142.078 18.2674 142.197 17.9113C142.494 17.0803 149.439 12.3316 149.795 12.7471C149.913 12.8659 149.913 13.0439 149.795 13.1626Z" fill="white"/>
<path d="M155.375 20.1669C153.297 21.4728 152.822 22.0664 154.306 21.5321C155.731 20.9979 155.375 21.6509 153.594 22.7786C152.11 23.7877 152.05 23.7877 152.407 22.7193C152.763 21.7102 152.763 21.7102 152.11 22.5412C151.694 23.0754 151.101 23.5503 150.745 23.669C148.845 24.2032 148.667 24.3813 149.32 25.2123C149.854 25.8653 150.626 25.5685 153.475 23.6097C155.434 22.3038 156.977 20.8198 156.977 20.2263C156.977 19.3359 157.096 19.3359 157.571 20.1075C158.046 20.8792 158.164 20.8198 158.164 19.9295C158.164 18.6236 157.689 18.683 155.375 20.1669ZM156.384 20.7011C156.384 20.9979 156.087 21.2947 155.731 21.2947C155.434 21.2947 155.315 20.9979 155.493 20.7011C155.671 20.345 155.968 20.1075 156.146 20.1075C156.265 20.1075 156.384 20.345 156.384 20.7011ZM150.567 24.9749C150.151 25.3904 149.854 25.4498 149.854 25.0936C149.854 24.7375 150.032 24.2626 150.27 24.0845C150.448 23.8471 150.804 23.7877 150.982 23.9658C151.101 24.1439 150.923 24.6187 150.567 24.9749Z" fill="white"/>
<path d="M377.195 -14.3838C375.651 -14.0276 375.948 -13.9682 378.5 -14.2057C380.519 -14.3838 382.003 -14.265 382.24 -13.9089C382.477 -13.4934 382.181 -13.3747 381.528 -13.6121C380.637 -13.9089 380.578 -13.8495 381.35 -13.3153C382.181 -12.7217 381.765 -12.3656 380.519 -12.603C379.747 -12.7811 377.788 -10.7629 378.144 -10.2287C378.322 -9.93192 378.144 -9.69448 377.729 -9.69448C377.313 -9.69448 377.195 -9.51641 377.432 -9.27898C377.669 -8.98219 379.925 -8.6854 382.418 -8.50733L386.929 -8.21054L380.341 -3.3432C376.779 -0.61274 373.514 1.5835 373.158 1.5835C372.743 1.5835 372.624 0.930565 372.861 -0.197231C373.099 -1.50311 372.98 -1.97797 372.387 -1.97797C371.734 -1.97797 371.734 -2.09668 372.446 -2.57154C373.04 -2.92769 373.099 -3.16512 372.624 -3.16512C372.209 -3.16512 371.852 -3.40255 371.852 -3.7587C371.852 -4.05549 372.209 -4.17421 372.624 -3.99613C373.04 -3.87742 374.405 -4.8865 375.711 -6.25173C377.017 -7.61696 377.551 -8.38861 376.957 -7.91375C375.889 -7.08274 375.829 -7.1421 376.186 -8.09182C376.66 -9.39769 376.186 -9.10091 373.158 -6.4298C371.199 -4.58971 370.903 -4.11485 371.14 -2.2154C371.318 -0.672096 371.556 -0.315948 371.971 -0.85017C372.268 -1.38439 372.327 -0.79081 372.09 0.693134C371.378 4.90754 368.053 6.56956 364.255 4.61075C361.94 3.42359 359.328 2.88937 360.159 3.77974C360.396 3.95781 360.278 4.49203 359.921 4.90754C359.447 5.44176 359.625 5.56047 360.515 5.32304C361.583 5.02625 365.323 6.74763 365.323 7.51928C365.323 7.69736 364.255 8.52837 363.067 9.41873L360.812 11.0214L358.2 8.7658L355.588 6.5102L357.488 5.50112C358.497 4.9669 359.387 4.37332 359.387 4.2546C359.387 4.07653 358.319 4.49203 357.013 5.14497L354.639 6.39149L352.62 4.84818C350.78 3.42359 349.475 0.693134 350.484 0.27763C350.721 0.158913 351.018 -0.85017 351.255 -2.03733C351.552 -4.05549 351.315 -4.35228 347.16 -8.50733C344.726 -10.941 342.767 -12.6624 342.767 -12.4249C342.767 -12.1282 343.301 -11.4159 343.954 -10.8816C345.023 -9.99127 345.023 -9.75384 344.251 -9.45705C343.717 -9.27898 343.42 -9.33834 343.598 -9.63512C344.132 -10.4661 342.886 -10.5849 336.653 -10.4068L330.896 -10.2287L331.014 12.446L331.192 35.1207H361.168H391.144V12.5647V-9.99127L385.98 -10.1693C383.071 -10.2287 380.756 -10.5255 380.756 -10.7036C380.756 -10.941 381.29 -11.7127 382.003 -12.4249C384.199 -14.7993 382.299 -15.5709 377.195 -14.3838ZM380.162 -10.941C379.391 -9.51641 378.322 -8.74476 378.5 -9.8132C378.679 -10.4661 380.103 -12.0094 380.637 -12.0688C380.697 -12.0688 380.519 -11.5346 380.162 -10.941ZM345.794 -8.32925C344.963 -7.49825 346.685 -5.48008 347.872 -5.95494C348.406 -6.13301 349.296 -5.71751 349.949 -5.06458C351.137 -3.69934 351.552 -2.45283 350.365 -3.63999C349.949 -4.05549 349.415 -4.35228 349.118 -4.35228C348.822 -4.35228 349.059 -3.93678 349.534 -3.40255C350.068 -2.92769 350.484 -1.91861 350.424 -1.20631C350.424 0.0401993 350.365 0.0401993 349.831 -1.0876C349.415 -2.03733 349.296 -1.91861 349.475 -0.375305C349.593 0.930565 349.415 1.5835 348.881 1.5835C348.05 1.5835 336.06 -7.1421 335.763 -7.97311C335.644 -8.2699 337.722 -8.50733 340.333 -8.50733C343.301 -8.50733 345.141 -8.74476 345.141 -9.16026C345.141 -9.45705 345.438 -9.57577 345.794 -9.33834C346.269 -9.10091 346.269 -8.80412 345.794 -8.32925ZM347.456 -7.37953C347.931 -7.08274 347.991 -6.72659 347.634 -6.48916C347.338 -6.31109 346.744 -6.54852 346.329 -7.02338C345.498 -7.97311 346.15 -8.21054 347.456 -7.37953ZM374.286 -5.59879C373.574 -4.8865 373.04 -4.53035 373.04 -4.76778C373.04 -5.36136 374.998 -7.37953 375.236 -7.08274C375.414 -6.96402 374.939 -6.25173 374.286 -5.59879ZM334.694 -5.59879C335.407 -5.00521 340.096 -1.50311 345.141 2.17708C350.187 5.85726 354.461 9.00323 354.639 9.12194C354.935 9.41873 333.745 30.6688 333.151 30.6688C332.854 30.6688 332.676 22.24 332.676 11.9711C332.676 1.70222 332.854 -6.72659 333.092 -6.72659C333.329 -6.72659 334.041 -6.25173 334.694 -5.59879ZM389.066 12.3866V31.5592L378.085 20.578C369.181 11.6743 367.282 9.47809 367.875 8.88451C368.588 8.11286 388.591 -6.66724 388.947 -6.72659C389.007 -6.72659 389.066 1.88029 389.066 12.3866ZM364.195 5.20433C365.56 5.85726 366.51 6.56956 366.332 6.74763C366.154 6.9257 364.848 6.33213 363.424 5.50112C360.337 3.66102 360.871 3.48295 364.195 5.20433ZM358.972 12.2679C360.812 13.7519 360.871 13.7519 363.067 12.2085L364.848 10.9027L375.948 22.0026L386.989 33.0431H360.99C346.744 33.0431 335.051 32.8651 335.051 32.6276C335.051 32.1528 356.538 11.0808 357.072 11.0808C357.25 11.0808 358.141 11.615 358.972 12.2679Z" fill="white"/>
<path d="M357.31 6.33204C356.36 6.74755 356.301 6.86626 357.132 6.86626C357.666 6.92562 358.319 6.62883 358.497 6.33204C358.912 5.67911 358.912 5.67911 357.31 6.33204Z" fill="white"/>
<path d="M26.4649 7.99787C23.6158 9.42245 23.3783 9.71924 23.6751 11.2032C24.0313 12.6871 23.8532 12.8652 21.5382 13.5181C19.8169 14.0524 19.4014 14.4085 20.0543 14.6459C20.6479 14.824 18.8078 15.0021 16.018 15.1208C11.9816 15.1802 10.557 15.0021 9.01374 14.1117C7.9453 13.4588 5.86778 12.8059 4.38384 12.6278C2.30631 12.3903 2.06888 12.4497 3.19668 12.8652C4.38384 13.3401 4.1464 13.3994 2.00952 13.162C0.525578 13.0433 -1.1958 13.162 -1.84873 13.4588L-3.03589 13.993L-1.84873 14.0524L-0.661578 14.1117L-1.84873 14.6459C-2.50167 14.9427 -4.34176 15.0614 -6.00378 14.9427C-8.49681 14.824 -8.67488 14.824 -6.89415 15.2395L-4.81663 15.655L-7.19094 15.8331C-9.09039 15.9518 -9.2091 16.0705 -7.96259 16.2486C-7.07222 16.3673 -4.2824 15.9518 -1.78938 15.2395C2.84053 13.9336 6.52072 13.993 7.5298 15.4176C7.88595 15.8925 7.9453 15.7737 7.70787 15.0614C7.29237 13.8149 7.58916 13.8149 9.31053 14.8834C11.4474 16.1892 17.5019 16.5454 21.0634 15.477C23.3783 14.7647 23.9719 14.4085 23.319 13.993C22.666 13.5181 22.7254 13.4588 23.6751 13.5775C24.5655 13.6962 26.1682 16.308 29.789 23.4903C32.6382 29.1886 34.5376 33.6404 34.3595 34.1747C34.1815 34.6495 34.1815 34.887 34.4189 34.6495C34.6563 34.4121 35.3093 34.6495 35.9028 35.1837C36.8526 36.0148 37.2087 35.9554 40.5327 34.2934C42.5509 33.2843 44.1536 32.2159 44.1536 31.9784C44.0942 30.7913 31.0948 6.63264 30.3826 6.51392C29.9671 6.45457 28.1863 7.1075 26.4649 7.99787ZM35.7248 20.3443C38.752 26.4581 41.1857 31.4442 41.067 31.5629C40.5327 31.9784 38.2178 33.0469 37.8023 33.0469C37.5648 33.0469 34.775 28.1202 31.6884 22.125C26.1682 11.3813 26.0494 11.1438 27.2366 10.2535C27.8895 9.7786 28.8393 9.30374 29.3141 9.30374C29.9077 9.30374 32.1633 13.2214 35.7248 20.3443ZM6.93622 13.8743C6.52072 13.993 5.80842 13.993 5.45228 13.8743C5.03677 13.6962 5.33356 13.5775 6.16457 13.5775C6.99558 13.5775 7.29237 13.6962 6.93622 13.8743ZM22.6067 14.4085C22.4286 14.5866 21.8944 14.6459 21.4789 14.4679C21.004 14.2898 21.1821 14.1117 21.835 14.1117C22.488 14.0524 22.8441 14.2304 22.6067 14.4085ZM18.2142 15.655C17.7987 15.7737 17.0864 15.7737 16.7303 15.655C16.3148 15.477 16.6115 15.3582 17.4426 15.3582C18.2736 15.3582 18.5704 15.477 18.2142 15.655Z" fill="white"/>
<path d="M8.24211 15.833C8.00468 16.1892 7.4111 16.3673 6.93624 16.1892C5.68972 15.7143 0.050729 20.463 0.525591 21.5908C0.763023 22.2437 0.584949 22.3624 -0.186702 22.125C-1.01771 21.7688 -1.07707 21.8282 -0.542849 22.4218C0.050729 23.0153 0.941096 22.5405 3.73091 20.1068C7.11431 17.1389 7.4111 17.0202 11.0319 16.9015C13.7624 16.8421 14.1185 16.7828 12.3972 16.6047C11.0913 16.4266 9.72605 16.0705 9.36991 15.7737C8.89504 15.3582 8.47954 15.4175 8.24211 15.833ZM6.16458 17.317C4.91807 18.8009 0.644307 22.0656 0.881738 21.3533C1.11917 20.7597 6.10523 16.5453 6.6988 16.486C6.81752 16.4266 6.58009 16.8421 6.16458 17.317Z" fill="white"/>
<path d="M-4.34166 24.7367C-5.76624 25.9833 -6.89404 27.4672 -6.89404 28.0014C-6.89404 29.1886 -4.63845 31.3848 -3.92615 30.9693C-3.57001 30.7319 -3.33257 30.91 -3.33257 31.2067C-3.33257 31.5629 -2.62028 31.8597 -1.72991 31.8597C0.0508204 31.8597 4.97752 29.1886 4.97752 28.1795C4.97752 27.8233 5.15559 27.7046 5.33366 27.8827C5.5711 28.0608 6.28339 27.8827 6.99568 27.4078C7.64862 26.933 9.19192 26.5175 10.4384 26.5175C12.9315 26.5175 13.9405 25.6271 12.0411 25.0335C9.96357 24.3212 7.05504 25.271 3.25614 27.764C0.525683 29.6634 -0.720831 30.1383 -2.14542 29.9602C-3.09514 29.7822 -3.92615 29.9009 -3.92615 30.1977C-3.92615 30.4945 -4.22294 30.5538 -4.51973 30.3757C-4.87588 30.1383 -4.99459 29.7228 -4.81652 29.426C-4.57909 29.1292 -4.87588 28.8918 -5.35074 28.8918C-5.88496 28.8918 -6.30046 28.595 -6.30046 28.2389C-6.30046 27.9421 -6.06303 27.764 -5.76624 27.9421C-5.05395 28.4169 -0.839547 23.6683 -1.25505 22.956C-1.72991 22.1844 -1.49248 22.0656 -4.34166 24.7367ZM-3.62936 25.9239C-4.57909 26.8736 -5.46946 27.5859 -5.58817 27.4078C-6.00368 26.9923 -3.27322 24.1432 -2.50157 24.1432C-2.20478 24.1432 -2.67964 24.9148 -3.62936 25.9239ZM11.3882 25.7458C10.7946 25.8645 9.84486 25.8645 9.31064 25.7458C8.71706 25.5678 9.19192 25.449 10.3197 25.449C11.4475 25.449 11.9224 25.5678 11.3882 25.7458ZM6.99568 26.7549C6.40211 27.2298 5.74917 27.4672 5.5711 27.3485C5.27431 26.9923 6.81761 25.9239 7.58926 25.9239C7.94541 25.9239 7.64862 26.28 6.99568 26.7549ZM2.30642 29.7822C1.00055 30.6132 -0.720831 31.2067 -1.55184 31.2067C-2.85771 31.1474 -2.79835 31.088 -1.19569 30.7319C-0.186611 30.4351 1.29733 29.8415 2.06899 29.3073C2.84064 28.7137 3.731 28.2982 4.08715 28.2982C4.38394 28.2982 3.61229 29.0105 2.30642 29.7822Z" fill="white"/>
<path d="M13.6437 26.3394C13.2876 27.1704 13.3469 27.2298 13.9405 26.6956C14.356 26.2801 14.5341 25.8052 14.356 25.6271C14.1779 25.449 13.8218 25.7458 13.6437 26.3394Z" fill="white"/>
<path d="M14.8898 26.6956C14.5931 27.4672 30.5009 41.4757 32.0443 41.8318C32.5191 41.9505 32.8753 42.3067 32.8753 42.6035C32.8753 42.9596 32.5785 43.019 32.163 42.7815C31.6881 42.4847 31.6287 42.6628 31.8662 43.3751C32.1036 43.9687 32.2817 44.7403 32.2817 45.0965C32.2817 46.2243 33.4688 44.1468 33.4688 43.019C33.4688 42.4847 32.8753 41.4163 32.163 40.6447C31.3913 39.873 31.1539 39.6949 31.6287 40.2885C32.7565 41.7131 31.5694 41.6537 30.2635 40.2291C29.3138 39.1607 29.3138 39.042 31.0945 37.7955C32.5191 36.7864 32.7565 36.3115 32.2817 35.718C31.8662 35.2431 31.8662 34.8276 32.2223 34.5902C32.5191 34.4121 32.8753 34.4121 33.0533 34.6495C33.172 34.9463 33.172 34.8276 33.1127 34.4121C32.994 34.0559 33.2314 33.5811 33.6469 33.403C34.0624 33.2843 34.0624 33.1062 33.7656 33.1062C33.4095 33.0469 32.0443 34.1746 30.7977 35.5399C29.4919 36.9051 28.8983 37.6768 29.4919 37.2613C30.6197 36.3709 30.9165 37.3206 29.7293 38.2703C29.2544 38.6858 28.6609 38.6265 27.8892 38.0329C27.2363 37.558 27.0582 37.2019 27.4143 37.2019C27.8298 37.2019 28.1266 36.9645 28.1266 36.6677C28.1266 36.3709 27.5331 36.2522 26.8208 36.4302C25.8117 36.6083 25.693 36.549 26.2865 36.1335C27.4143 35.3618 17.8577 27.3485 16.0176 27.5859C15.1273 27.7046 15.0086 27.5859 15.6021 27.2298C16.077 26.8736 16.1364 26.5175 15.7802 26.2801C15.4834 26.102 15.0679 26.2801 14.8898 26.6956ZM20.232 30.7913C20.5288 30.7913 21.8347 31.741 23.2593 32.9281C25.7523 34.9463 26.524 36.2522 24.862 35.6586C24.3871 35.4212 23.9716 34.9463 23.9716 34.4714C23.9716 33.9966 23.7342 33.6404 23.4967 33.6404C23.2593 33.6404 22.4283 33.1656 21.6566 32.572C17.9764 29.7822 16.8487 28.7137 16.8487 28.1202C16.8487 27.7046 17.5609 28.1202 18.3326 29.0699C19.1042 29.9602 19.9946 30.7319 20.232 30.7913ZM31.9255 35.896C32.1036 36.1928 31.8662 36.4302 31.3913 36.4302C30.9165 36.4302 30.679 36.1928 30.8571 35.896C31.0352 35.6586 31.2726 35.4212 31.3913 35.4212C31.51 35.4212 31.7475 35.6586 31.9255 35.896Z" fill="white"/>
<path d="M20.1137 40.1105C19.9356 40.4073 21.4196 42.0693 23.3784 43.85C27.2366 47.2334 27.8302 48.9548 25.6933 50.4387C24.803 51.0917 24.6842 51.3885 25.2778 51.6259C25.6933 51.804 25.4559 51.982 24.6842 51.982C23.9126 52.0414 23.4377 51.804 23.6158 51.5072C23.7939 51.2104 22.1912 49.489 19.995 47.5896C17.2052 45.2152 15.9586 44.4436 15.6025 44.9778C15.3651 45.3933 15.3057 45.9869 15.4838 46.2837C15.6618 46.5805 16.018 46.5211 16.2554 46.1056C16.5522 45.5714 16.7896 45.5714 17.0864 46.0463C17.3239 46.4024 17.3239 46.6992 17.0864 46.6992C16.849 46.6992 18.0362 48.1831 19.7575 49.9639C22.4286 52.7537 22.7254 53.4066 22.1912 54.4157C21.7163 55.3061 21.7163 55.6029 22.2506 55.6029C23.4971 55.6029 22.3099 56.3745 20.8853 56.4932C19.995 56.5526 18.6297 55.7216 17.0271 54.1783C15.1276 52.4569 14.2966 51.982 13.8218 52.4569C13.3469 52.9318 13.4656 53.1098 14.2373 53.0505C14.9496 52.9911 15.3057 53.2879 15.187 53.7628C15.0683 54.1783 15.5431 55.128 16.1367 55.8403C16.7896 56.4932 17.7394 57.8585 18.2142 58.8675C18.9859 60.2921 19.164 60.4108 19.2233 59.4611C19.2233 58.7488 19.995 57.9178 21.1821 57.3836C22.6661 56.6713 23.0222 56.1964 22.9035 55.0093C22.7848 53.8221 22.8441 53.7034 23.319 54.4157C23.7345 54.9499 23.9719 55.0093 23.9719 54.5938C23.9719 54.2376 23.7345 53.7034 23.3784 53.5253C22.3099 52.8724 22.7848 52.2195 24.15 52.4569C25.9307 52.813 28.7206 50.5574 28.7206 48.7767C28.7206 47.827 29.1361 47.2928 30.3232 46.996C31.5697 46.6992 31.7478 46.5211 31.0355 46.0463C30.5013 45.6901 30.4419 45.512 30.9762 45.512C31.3323 45.512 31.6885 45.2152 31.6885 44.8591C31.6885 44.3842 31.451 44.3842 30.9762 44.7997C29.3735 46.0463 27.8302 45.8088 26.465 44.2062C25.6933 43.2564 24.803 42.6629 24.5062 42.9003C24.2094 43.0784 23.9719 42.9003 23.9719 42.5441C23.9719 42.1286 23.5564 42.0099 23.0222 42.188C22.3693 42.4254 22.1318 42.3067 22.3693 41.7131C22.9035 40.3479 20.8853 38.9233 20.1137 40.1105ZM21.8944 41.2383C21.7163 41.4163 21.2415 41.2383 20.826 40.8228C20.2918 40.2292 20.3511 40.1698 21.1821 40.526C21.7757 40.704 22.0725 41.0602 21.8944 41.2383ZM26.643 45.3933C26.2869 45.8088 24.5655 44.3249 24.5655 43.5532C24.5655 43.2564 25.0997 43.4345 25.7527 44.0281C26.4056 44.6217 26.8211 45.2152 26.643 45.3933ZM29.8484 46.2837C29.7296 46.343 29.1954 46.7585 28.6612 47.174C27.8896 47.7676 27.5928 47.7676 27.3553 47.1147C27.1773 46.6398 27.5928 46.2837 28.6019 46.2243C29.4329 46.165 30.0264 46.165 29.8484 46.2837ZM20.2324 48.8361C20.4105 49.2516 20.7666 49.5484 21.0041 49.3703C21.2415 49.2516 21.8944 49.6077 22.4286 50.2013C23.2003 51.0323 23.2596 51.4478 22.7254 51.804C22.2506 52.0414 22.1318 51.982 22.4286 51.5665C22.6661 51.151 22.488 50.8542 22.0725 50.8542C21.5976 50.8542 20.2918 49.9045 19.164 48.7174C17.6207 47.0553 17.4426 46.6992 18.511 47.2334C19.2827 47.6489 20.0543 48.3612 20.2324 48.8361ZM27.5334 50.5574C27.1179 51.0917 26.643 51.3291 26.465 51.151C26.2869 51.0323 26.5243 50.4981 26.9398 49.9639C27.3553 49.4296 27.8302 49.1922 28.0083 49.3703C28.1863 49.489 27.9489 50.0232 27.5334 50.5574ZM19.0452 57.7397C18.8672 57.9178 18.1549 57.1462 17.4426 56.0777L16.0774 54.1189L17.7394 55.7809C18.6297 56.7307 19.2233 57.621 19.0452 57.7397Z" fill="white"/>
<path d="M0.822317 40.7634C1.53461 41.2382 1.53461 41.3569 0.881675 41.3569C0.228739 41.3569 0.228739 41.535 0.822317 42.2473C1.23782 42.7222 1.89076 43.1377 2.30626 43.1377C2.78112 43.1377 3.25599 43.4938 3.3747 43.85C3.55278 44.3248 3.73085 44.2061 3.73085 43.5532C3.79021 42.4254 1.77204 40.1698 0.703601 40.1698C0.169381 40.1698 0.228739 40.4072 0.822317 40.7634ZM2.60305 41.9505C2.60305 42.2473 2.36562 42.5441 2.00947 42.5441C1.71268 42.5441 1.41589 42.2473 1.41589 41.9505C1.41589 41.5944 1.71268 41.3569 2.00947 41.3569C2.36562 41.3569 2.60305 41.5944 2.60305 41.9505Z" fill="white"/>
<path d="M2.06856 44.4435C2.06856 44.9777 0.822042 46.8178 -0.661903 48.5986C-2.14585 50.32 -3.09557 51.8039 -2.73943 51.9226C-2.44264 52.0413 -2.26456 52.3975 -2.44264 52.6349C-2.62071 52.9317 -3.21429 52.9911 -3.74851 52.813C-4.4608 52.5162 -4.63888 52.6943 -4.34209 53.4066C-4.0453 54.1189 -4.4608 54.4156 -6.18218 54.5937L-8.37842 54.8311L-6.12282 54.8905C-3.92658 55.0092 -3.86722 55.1279 -4.0453 56.79C-4.22337 58.8081 -3.27365 59.7578 -1.07741 59.7578C-0.365114 59.7578 0.228464 60.114 0.228464 60.5889C0.228464 61.5979 2.48406 64.5065 3.25571 64.5065C3.61186 64.5065 3.67122 64.2097 3.49314 63.9129C3.31507 63.5567 3.49314 63.3193 3.90865 63.3193C4.32415 63.3193 4.02736 62.9038 3.31507 62.3696C1.41562 61.0637 1.71241 59.4611 4.56158 56.3744C5.92681 54.8311 6.57975 53.7627 6.04553 54.0001C5.45195 54.1782 4.97709 54.1782 4.97709 53.8814C4.97709 52.9317 5.74874 52.6943 6.87654 53.2878C8.41984 54.1189 9.54764 53.1691 8.41984 51.982C7.52947 51.0322 7.3514 46.6991 8.24177 46.6991C8.59792 46.6991 8.30113 46.2836 7.70755 45.8088C7.05461 45.3339 5.98617 44.9184 5.33324 44.9777C4.2648 45.0371 4.2648 45.0965 5.51131 45.4526C6.63911 45.7494 6.99525 46.2836 7.17333 48.1831C7.3514 50.3793 7.11397 50.8542 3.37443 54.8311C-0.839976 59.3423 -2.38328 60.0546 -2.97686 57.799C-3.62979 55.3654 -3.333 54.1782 -1.67099 52.4568C-0.780619 51.4478 -0.424472 50.8542 -0.780619 51.0916C-1.67099 51.5665 -1.73034 51.3884 -1.19612 50.0232C-1.01805 49.4889 -0.602545 49.2515 -0.246398 49.4296C0.0503902 49.6077 1.05947 49.1328 1.89048 48.3018C2.78085 47.5301 3.90865 46.6991 4.38351 46.5211C5.0958 46.2836 5.03645 46.1649 4.20544 46.1649C3.5525 46.1055 3.31507 45.8088 3.5525 45.3933C3.78993 45.0371 3.73057 44.9184 3.31507 45.1558C2.95892 45.3339 2.54342 45.0371 2.4247 44.5029C2.18727 43.5532 2.12791 43.5532 2.06856 44.4435ZM1.89048 47.4114C1.41562 48.1237 0.703326 48.836 0.287822 48.9547C-0.127683 49.0734 0.109749 48.5392 0.8814 47.6488C2.54342 45.7494 3.07764 45.6307 1.89048 47.4114ZM8.24177 53.1098C7.88562 53.5253 6.2236 52.4568 6.52039 51.982C6.69847 51.6852 7.17333 51.8039 7.64819 52.2194C8.06369 52.5755 8.36048 52.9911 8.24177 53.1098ZM3.07764 57.1461C2.0092 58.3333 1.17819 59.6391 1.2969 59.9953C1.47498 60.4701 1.2969 60.4701 0.822042 59.9359C0.287822 59.4611 0.643969 58.6894 2.36535 56.8493C5.15516 53.8814 5.8081 54.1189 3.07764 57.1461ZM2.30599 62.1322C2.89957 62.7851 3.07764 63.3193 2.72149 63.3193C2.36535 63.3193 1.77177 62.7851 1.41562 62.1322C1.05947 61.4792 0.8814 60.945 1.00012 60.945C1.11883 60.945 1.71241 61.4792 2.30599 62.1322Z" fill="white"/>
<path d="M8.65771 49.0735C8.65771 50.2013 8.77643 50.6761 8.9545 50.0826C9.07322 49.5483 9.07322 48.5986 8.9545 48.005C8.77643 47.4708 8.65771 47.9457 8.65771 49.0735Z" fill="white"/>
<path d="M10.0225 53.2285C10.2006 53.5846 10.0819 53.8221 9.66635 53.8221C9.19149 53.8221 9.3102 54.2376 9.96314 54.9499C11.3284 56.4932 10.9129 57.6803 7.64819 61.0637C4.62094 64.2097 4.50222 64.5065 6.10488 64.5065C6.69846 64.5065 8.00433 63.6161 8.95406 62.5477C10.6754 60.5295 10.7348 60.5295 12.0407 61.6573C12.8123 62.2509 14.2369 62.7257 15.3053 62.7257C16.7893 62.7257 16.9674 62.607 16.2551 62.0728C15.5428 61.5386 15.6021 61.4792 16.6706 61.7167C17.4422 61.8947 18.2139 61.7167 18.4513 61.4199C18.6294 61.0637 18.5107 60.945 18.1545 61.1824C17.7984 61.3605 17.3829 61.3011 17.2048 61.0044C17.0267 60.7076 16.3144 60.5889 15.6615 60.7669C15.0086 60.945 14.1182 60.7669 13.6433 60.4108C13.0497 59.8766 12.6936 59.8766 12.3968 60.3514C12.1 60.8263 11.7439 60.8263 11.269 60.4108C10.8535 60.0546 10.3193 59.9359 10.1412 60.1733C9.90378 60.3514 9.72571 60.2921 9.72571 59.9359C9.72571 59.5798 10.0819 58.9862 10.5567 58.63C11.2097 58.0958 11.4471 58.0958 11.6845 58.6894C11.8032 59.1049 11.8032 58.8081 11.6845 58.0958C11.5658 57.3242 11.6845 56.8493 12.0407 57.0274C12.3375 57.2055 12.5155 56.9087 12.3968 56.3744C12.2781 55.7809 12.1594 55.0092 12.1594 54.7124C12.1 54.3563 11.8626 54.475 11.5658 54.9499C11.1503 55.5434 10.9722 55.5434 10.6161 55.0092C10.3786 54.5937 10.4974 54.0595 10.9129 53.8221C11.3877 53.5253 11.3284 53.2878 10.6161 53.0504C10.0819 52.813 9.84442 52.8723 10.0225 53.2285ZM9.72571 60.8856C9.72571 61.4199 6.6391 63.9129 5.98617 63.9129C5.5113 63.9129 8.77598 60.5295 9.3102 60.4108C9.54764 60.4108 9.72571 60.5889 9.72571 60.8856ZM13.8808 61.5386C13.8808 61.8354 13.4653 61.9541 12.9904 61.776C12.5155 61.5386 12.1 61.3011 12.1 61.1824C12.1 61.0637 12.5155 60.945 12.9904 60.945C13.4653 60.945 13.8808 61.1824 13.8808 61.5386Z" fill="white"/>
<path d="M236.16 74.9802C235.092 77.592 234.558 78.1262 232.005 79.1946C230.403 79.8476 229.097 80.6192 229.097 80.916C229.097 81.1534 230.462 82.0438 232.183 82.8748C234.854 84.1213 235.389 84.6556 236.101 86.8518C237.11 89.879 238.475 89.9978 239.425 87.1486C240.256 84.7149 241.681 83.2903 244.114 82.4593C246.963 81.5096 246.904 80.085 243.995 79.1946C241.146 78.3636 240.671 77.8294 239.603 74.8022C238.475 71.5375 237.585 71.5968 236.16 74.9802ZM239.425 82.5187L237.882 84.062L236.22 82.5187L234.617 80.9754L236.16 79.3134L237.704 77.7107L239.366 79.3134L241.028 80.916L239.425 82.5187Z" fill="white"/>
<path d="M215.741 80.6786C214.791 81.3909 214.673 82.1032 214.969 87.6235C215.148 91.0069 215.148 93.1437 214.91 92.3127C214.495 90.8881 214.435 90.9475 214.079 92.9657C213.248 97.2988 206.422 102.997 202.148 102.997C200.842 102.997 200.664 102.7 200.486 100.445L200.308 97.9517H194.372H188.437V113.978V130.005L194.55 130.183L200.605 130.361V128.462C200.605 126.918 200.783 126.681 201.673 127.037C202.208 127.274 203.098 127.571 203.573 127.749C204.344 127.987 204.344 127.987 203.573 127.393C202.801 126.859 202.801 126.74 203.573 126.74C204.285 126.681 204.226 126.562 203.395 126.087C202.86 125.791 202.148 125.612 201.851 125.791C200.842 126.443 200.605 124.247 200.605 114.513V104.778L202.267 104.719L203.87 104.659L202.386 104.125C201.198 103.709 201.317 103.65 203.217 103.888C206.006 104.184 208.915 102.76 212.002 99.6137C215.029 96.4678 216.038 93.7967 216.453 87.2673C216.869 81.0347 217.344 80.4412 219.837 83.4091C221.796 85.724 222.567 88.6919 222.567 93.6186C222.567 96.8239 222.745 97.6549 223.458 97.6549C223.932 97.6549 224.348 97.9517 224.348 98.3079C224.348 98.6047 223.992 98.7234 223.636 98.5453C223.22 98.3079 223.517 98.7234 224.289 99.3763C225.476 100.445 226.426 100.623 231.115 100.623C238.297 100.623 239.069 100.86 238.713 102.878C238.238 105.728 237.644 105.965 231.234 106.084L225.238 106.202L231.471 106.499C235.626 106.737 237.704 107.093 237.704 107.568C237.704 107.924 237.882 108.458 238.178 108.695C239.128 109.645 238.535 111.841 236.991 113.088C235.745 114.038 235.626 114.275 236.516 114.038C237.704 113.682 237.704 113.682 236.576 114.572C235.448 115.462 235.448 115.462 236.694 115.462C238.297 115.462 239.069 117.955 238.06 119.795C237.407 120.983 236.991 121.101 232.361 120.923C228.088 120.745 227.316 120.864 227.316 121.635C227.316 122.407 228.147 122.585 232.302 122.585C236.813 122.585 237.407 122.704 238.238 123.891C238.772 124.603 239.187 124.9 239.187 124.544C239.187 124.188 238.772 123.476 238.297 122.941C237.169 121.873 237.169 121.339 238.238 121.754C239.781 122.348 239.9 124.841 238.475 126.443L237.11 127.868L222.152 128.046C213.96 128.165 207.55 128.046 207.906 127.809C208.381 127.512 208.262 127.334 207.609 127.334C207.016 127.334 206.541 127.69 206.541 128.046C206.541 128.64 209.865 128.758 221.796 128.64C230.224 128.521 237.347 128.165 237.644 127.868C238.594 126.978 239.366 127.274 238.594 128.224C238 128.936 235.448 129.115 223.517 129.233L209.212 129.411L223.398 129.53C237.051 129.708 237.644 129.708 238.891 128.521C240.315 127.215 240.671 124.307 239.722 122.466C239.306 121.635 239.306 121.042 239.781 120.448C240.256 119.973 240.375 118.786 240.137 117.421C239.9 116.175 239.722 114.691 239.662 114.097C239.484 112.672 238.594 112.851 238.594 114.334C238.594 114.987 238.356 115.403 238.06 115.225C237.288 114.75 237.585 113.444 238.713 112.257C239.425 111.545 239.781 111.485 239.959 112.079C240.137 112.435 240.315 111.901 240.315 110.832C240.375 109.764 240.018 108.399 239.662 107.746C239.069 106.855 239.069 106.44 239.662 105.846C240.79 104.719 240.493 101.988 239.069 100.326C237.882 98.9014 237.466 98.8421 231.768 98.8421C227.909 98.8421 225.535 98.6047 225.06 98.1298C224.645 97.7143 224.289 95.5774 224.229 93.2031L224.17 89.048L223.754 92.3127C223.339 95.2806 223.339 95.1619 223.458 91.0662C223.636 86.1989 222.983 84.062 220.608 81.4503C218.887 79.6695 217.403 79.4321 215.741 80.6786ZM220.727 82.5187C221.736 83.7058 222.567 84.9524 222.567 85.2491C222.567 85.6053 221.677 84.8336 220.668 83.4684C219.362 81.9251 218.294 81.0941 217.522 81.2128C216.513 81.3315 216.275 81.9251 215.979 85.4866L215.682 89.6416L215.563 85.724C215.385 79.9663 217.403 78.7198 220.727 82.5187ZM222.983 88.2764C222.805 88.6919 222.686 88.3951 222.686 87.5641C222.686 86.7331 222.805 86.4363 222.983 86.7925C223.101 87.208 223.101 87.9203 222.983 88.2764ZM214.198 95.7555C213.367 97.4769 208.618 102.404 207.847 102.404C207.609 102.344 208.678 101.216 210.161 99.8512C211.645 98.4859 213.248 96.5271 213.664 95.4587C214.138 94.3903 214.613 93.678 214.791 93.856C214.91 93.9747 214.673 94.8058 214.198 95.7555ZM238.119 99.9105C238.356 100.148 235.685 100.267 232.183 100.148C228.681 100.029 225.654 99.7918 225.416 99.5544C225.179 99.317 227.85 99.1982 231.352 99.317C234.854 99.4357 237.882 99.6731 238.119 99.9105ZM198.231 114.275V128.521H194.372H190.514V114.275V100.029H194.372H198.231V114.275ZM238.95 105.668C238.416 106.084 238.238 106.618 238.475 106.855C238.713 107.152 238.535 107.152 238.119 106.915C237.466 106.499 237.525 106.262 238.238 105.431C238.772 104.837 239.247 103.769 239.247 102.938C239.366 101.751 239.425 101.81 239.603 103.294C239.781 104.422 239.544 105.253 238.95 105.668ZM206.541 102.997C206.066 103.294 205.235 103.531 204.76 103.531C204.166 103.531 204.285 103.353 205.057 102.997C206.659 102.285 207.609 102.285 206.541 102.997ZM239.781 117.777C239.781 118.727 239.306 119.855 238.772 120.27C237.822 121.042 237.763 120.983 238.535 120.092C238.95 119.499 239.187 118.252 239.069 117.302C238.95 116.293 239.009 115.64 239.306 115.818C239.544 115.996 239.781 116.887 239.781 117.777ZM234.914 121.814C233.667 121.932 231.53 121.932 230.165 121.814C228.74 121.695 229.75 121.576 232.361 121.576C234.973 121.576 236.101 121.695 234.914 121.814Z" fill="white"/>
<path d="M200.011 81.9251C200.011 83.1122 199.715 83.409 198.527 83.409C197.459 83.409 197.043 83.7058 197.043 84.5962C197.043 85.4865 197.459 85.7833 198.527 85.7833C199.715 85.7833 200.011 86.0801 200.011 87.2673C200.011 88.3357 200.308 88.7512 201.199 88.7512C202.089 88.7512 202.386 88.3357 202.386 87.2673C202.386 86.0801 202.682 85.7833 203.87 85.7833C204.938 85.7833 205.354 85.4865 205.354 84.5962C205.354 83.7058 204.938 83.409 203.87 83.409C202.682 83.409 202.386 83.1122 202.386 81.9251C202.386 80.8566 202.089 80.4411 201.199 80.4411C200.308 80.4411 200.011 80.8566 200.011 81.9251Z" fill="white"/>
<path d="M250.169 89.6416C248.388 91.363 248.329 92.3127 249.931 94.3309C251.415 96.171 253.552 96.3491 255.214 94.687C256.876 93.025 256.698 90.8881 254.858 89.4042C252.84 87.8015 251.89 87.8609 250.169 89.6416ZM253.908 91.8972C254.146 93.0844 252.424 93.9154 251.534 93.025C250.644 92.1347 251.475 90.4133 252.662 90.6507C253.255 90.7694 253.79 91.3037 253.908 91.8972Z" fill="white"/>
<path d="M258.716 105.193C258.42 106.143 258.004 107.212 257.885 107.627C257.707 108.043 256.401 108.933 254.917 109.586C251.831 110.951 251.712 111.841 254.502 112.732C256.817 113.563 257.707 114.453 258.538 116.768C259.429 119.558 260.438 119.439 261.684 116.531C262.575 114.453 263.287 113.741 265.246 112.969C266.552 112.435 267.679 111.723 267.679 111.307C267.679 110.951 266.552 110.179 265.127 109.586C263.109 108.695 262.397 107.983 261.625 106.024C260.497 103.175 259.607 102.938 258.716 105.193ZM261.447 110.12C262.515 111.307 262.515 111.367 261.328 112.554L260.082 113.8L258.835 112.554C257.648 111.367 257.648 111.248 258.657 110.179C259.963 108.695 260.141 108.695 261.447 110.12Z" fill="white"/>
<path d="M228.384 107.568C230.105 107.686 232.777 107.686 234.32 107.568C235.863 107.449 234.439 107.39 231.174 107.39C227.909 107.39 226.663 107.449 228.384 107.568Z" fill="white"/>
<path d="M226.129 114.275C226.129 114.572 226.426 114.869 226.722 114.869C227.079 114.869 227.316 114.572 227.316 114.275C227.316 113.919 227.079 113.681 226.722 113.681C226.426 113.681 226.129 113.919 226.129 114.275Z" fill="white"/>
<path d="M227.91 114.275C227.91 114.572 228.206 114.869 228.503 114.869C228.859 114.869 229.097 114.572 229.097 114.275C229.097 113.919 228.859 113.681 228.503 113.681C228.206 113.681 227.91 113.919 227.91 114.275Z" fill="white"/>
<path d="M252.246 127.631C252.246 128.106 251.712 128.521 251.059 128.521C250.287 128.521 249.872 128.937 249.872 129.708C249.872 130.48 250.287 130.895 251.059 130.895C251.83 130.895 252.246 131.311 252.246 132.082C252.246 132.854 252.661 133.27 253.433 133.27C254.205 133.27 254.62 132.854 254.62 132.082C254.62 131.43 255.036 130.895 255.511 130.895C255.985 130.895 256.401 130.361 256.401 129.708C256.401 129.055 255.985 128.521 255.511 128.521C255.036 128.521 254.62 128.106 254.62 127.631C254.62 127.156 254.086 126.74 253.433 126.74C252.78 126.74 252.246 127.156 252.246 127.631Z" fill="white"/>
</g>
<g clip-path="url(#clip1)">
</g>
</g>
<defs>
<clipPath id="clip0">
<rect width="375" height="130" fill="white"/>
</clipPath>
<clipPath id="clip1">
<rect width="20" height="20" fill="white" transform="translate(20 78)"/>
</clipPath>
</defs>
</svg>
