<svg width="46" height="46" viewBox="0 0 46 46" xmlns="http://www.w3.org/2000/svg">
<circle cx="23" cy="23" r="23" fill="url(#paint0_linear)"/>
<path d="M16.2088 23C15.6588 23 15.2088 22.55 15.2088 22C15.2088 21.45 15.6588 21 16.2088 21H27.3788L22.5088 16.11C22.1188 15.72 22.1188 15.09 22.5088 14.7C22.6956 14.5127 22.9492 14.4075 23.2138 14.4075C23.4783 14.4075 23.7319 14.5127 23.9188 14.7L30.4988 21.3C30.8888 21.69 30.8888 22.32 30.4988 22.71L23.9088 29.3C23.5188 29.69 22.8888 29.69 22.4988 29.3C22.1088 28.91 22.1088 28.27 22.4988 27.88L27.3788 23H16.2088Z" fill="white"/>
<mask id="mask0" style="mask-type:alpha" maskUnits="userSpaceOnUse" x="15" y="14" width="16" height="16">
<path d="M16.2088 23C15.6588 23 15.2088 22.55 15.2088 22C15.2088 21.45 15.6588 21 16.2088 21H27.3788L22.5088 16.11C22.1188 15.72 22.1188 15.09 22.5088 14.7C22.6956 14.5127 22.9492 14.4075 23.2138 14.4075C23.4783 14.4075 23.7319 14.5127 23.9188 14.7L30.4988 21.3C30.8888 21.69 30.8888 22.32 30.4988 22.71L23.9088 29.3C23.5188 29.69 22.8888 29.69 22.4988 29.3C22.1088 28.91 22.1088 28.27 22.4988 27.88L27.3788 23H16.2088Z" fill="white"/>
</mask>
<g mask="url(#mask0)">
</g>
<defs>
<linearGradient id="paint0_linear" x1="1.472" y1="-1.59998e-07" x2="15.908" y2="62.9871" gradientUnits="userSpaceOnUse">
<stop stop-color="#D12323"/>
<stop offset="1" stop-color="#750404"/>
</linearGradient>
</defs>
</svg>
