<svg width="20" height="20" viewBox="0 0 20 20" xmlns="http://www.w3.org/2000/svg">
<g clip-path="url(#clip0)">
<path d="M12.7856 19.513C12.1329 20.1623 11.0791 20.1623 10.4298 19.513L1.25231 10.9055C0.739184 10.4243 0.127588 9.51225 0.0835017 8.81021C-0.034479 6.91097 0.0487005 3.27425 0.106442 1.34614C0.127198 0.643401 0.718038 0.0542779 1.42124 0.0381257C3.88448 -0.019148 9.10341 -0.0803232 9.58852 0.405255L19.6949 9.54869C20.3438 10.198 19.7552 11.8405 19.1012 12.4932L12.7856 19.513ZM4.74351 2.8312C4.19309 2.28202 3.30308 2.28202 2.75219 2.8312C2.20302 3.38208 2.20302 4.27162 2.75219 4.82079C3.30347 5.37043 4.19348 5.37043 4.74351 4.82079C5.29315 4.27162 5.29315 3.38162 4.74351 2.8312Z" />
</g>
<defs>
<clipPath id="clip0">
<rect width="20" height="20" fill="white"/>
</clipPath>
</defs>
</svg>
