<svg width="20" height="20" viewBox="0 0 20 20" xmlns="http://www.w3.org/2000/svg">
<g clip-path="url(#clip0)">
<path d="M10 0C6.55332 0 3.75 2.80332 3.75 6.25C3.75 9.575 9.4275 17.0217 9.66918 17.3367C9.74836 17.44 9.87 17.5 10 17.5C10.13 17.5 10.2517 17.44 10.3308 17.3367C10.5725 17.0217 16.25 9.575 16.25 6.25C16.25 2.80332 13.4467 0 10 0ZM10 9.16668C8.39168 9.16668 7.08332 7.85836 7.08332 6.25C7.08332 4.64164 8.39164 3.33332 10 3.33332C11.6084 3.33332 12.9167 4.64164 12.9167 6.25C12.9167 7.85836 11.6083 9.16668 10 9.16668Z" />
<path d="M19.5132 19.3525L16.1798 14.3525C16.1023 14.2367 15.9723 14.1667 15.8332 14.1667H13.579C12.3715 16.0242 11.254 17.5025 10.9923 17.8434C10.7581 18.1492 10.3865 18.3334 9.9998 18.3334C9.61312 18.3334 9.24148 18.1492 9.00648 17.8425C8.74566 17.5017 7.6273 16.0234 6.42066 14.1667H4.16648C4.0273 14.1667 3.8973 14.2367 3.8198 14.3525L0.486482 19.3525C0.401482 19.48 0.393161 19.645 0.465661 19.7809C0.538161 19.915 0.678982 20 0.833161 20H19.1665C19.3207 20 19.4615 19.915 19.5332 19.78C19.6065 19.6442 19.599 19.48 19.5132 19.3525Z" />
</g>
<defs>
<clipPath id="clip0">
<rect width="20" height="20" fill="white"/>
</clipPath>
</defs>
</svg>
