<svg width="300" height="227" viewBox="0 0 300 227" xmlns="http://www.w3.org/2000/svg">
<path opacity="0.73" d="M214.973 166.567C214.973 166.567 212.355 160.972 215.798 158.932C219.24 156.892 224.67 160.589 223.298 163.432C222.842 164.27 222.198 164.992 221.418 165.54C220.637 166.089 219.741 166.451 218.798 166.597L214.973 166.567Z" fill="url(#paint0_linear)"/>
<path d="M190.455 94.4993C190.455 94.4993 203.205 114.059 190.455 152.167" stroke="#24285B" stroke-width="8.12" stroke-linecap="round" stroke-linejoin="round"/>
<path d="M108.12 106.304C108.12 106.304 92.7973 124.304 99.3073 133.304C105.817 142.304 122.152 134.504 127.485 117.082" stroke="#24285B" stroke-width="8.12" stroke-linecap="round" stroke-linejoin="round"/>
<path d="M103.268 101.924C103.268 101.924 96.9076 102.937 97.6276 107.729C98.3476 112.522 105.795 118.724 110.993 116.729C116.19 114.734 113.483 106.304 113.483 106.304L103.268 101.924Z" fill="#FFD200"/>
<path opacity="0.44" d="M103.268 101.924C103.268 101.924 96.9076 102.937 97.6276 107.729C98.3476 112.522 105.795 118.724 110.993 116.729C116.19 114.734 113.483 106.304 113.483 106.304L103.268 101.924Z" fill="white"/>
<path d="M129.383 62.5118C129.384 61.5138 129.188 60.5254 128.806 59.6032C128.425 58.681 127.865 57.843 127.16 57.1374C126.454 56.4317 125.616 55.8721 124.694 55.4906C123.771 55.1092 122.783 54.9133 121.785 54.9143C121.375 54.9154 120.966 54.9505 120.563 55.0193C119.69 53.3911 118.392 52.0299 116.807 51.0804C115.222 50.1308 113.41 49.6285 111.563 49.6268H111.188C111.431 48.6655 111.557 47.6783 111.563 46.6868C111.563 43.4624 110.282 40.3701 108.002 38.0901C105.722 35.8102 102.629 34.5293 99.4051 34.5293C96.1807 34.5293 93.0884 35.8102 90.8085 38.0901C88.5285 40.3701 87.2476 43.4624 87.2476 46.6868C87.2535 47.6783 87.3794 48.6655 87.6226 49.6268H87.2476C84.5794 49.699 82.0448 50.8097 80.1831 52.7224C78.3215 54.6351 77.2798 57.1989 77.2798 59.868C77.2798 62.5372 78.3215 65.101 80.1831 67.0137C82.0448 68.9264 84.5794 70.0371 87.2476 70.1093H122.775V70.0343C124.602 69.7974 126.281 68.9031 127.497 67.5187C128.713 66.1343 129.383 64.3544 129.383 62.5118Z" fill="#EFEFEF"/>
<path d="M188.25 46.6568C188.25 45.155 188.847 43.7147 189.909 42.6528C190.971 41.5908 192.411 40.9943 193.913 40.9943C194.217 40.995 194.521 41.0226 194.82 41.0768C195.475 39.8579 196.449 38.84 197.638 38.1319C198.827 37.4239 200.186 37.0522 201.57 37.0568H201.848C201.667 36.338 201.574 35.6002 201.57 34.8593C201.535 33.6471 201.744 32.4402 202.184 31.31C202.624 30.1799 203.286 29.1494 204.131 28.2797C204.976 27.4099 205.987 26.7185 207.104 26.2464C208.221 25.7743 209.421 25.531 210.634 25.531C211.847 25.531 213.047 25.7743 214.164 26.2464C215.281 26.7185 216.292 27.4099 217.137 28.2797C217.982 29.1494 218.644 30.1799 219.084 31.31C219.524 32.4402 219.732 33.6471 219.698 34.8593C219.695 35.6008 219.599 36.339 219.413 37.0568H219.698C221.723 37.0568 223.665 37.8612 225.096 39.293C226.528 40.7248 227.333 42.6668 227.333 44.6918C227.333 46.7167 226.528 48.6587 225.096 50.0905C223.665 51.5224 221.723 52.3268 219.698 52.3268H193.14V52.3043C191.778 52.1168 190.531 51.4404 189.632 50.4013C188.732 49.3622 188.241 48.0312 188.25 46.6568Z" fill="#EFEFEF"/>
<path opacity="0.45" d="M157.642 186.689C206.988 186.689 246.99 182.556 246.99 177.457C246.99 172.358 206.988 168.224 157.642 168.224C108.297 168.224 68.2949 172.358 68.2949 177.457C68.2949 182.556 108.297 186.689 157.642 186.689Z" fill="#E6E6E6"/>
<path d="M168.818 123.592C168.818 123.592 169.26 146.744 164.595 162.997" stroke="#24285B" stroke-width="8.12" stroke-linecap="round" stroke-linejoin="round"/>
<path d="M173.835 146.744H157.98V176.992H188.212L172.117 167.122L173.835 146.744Z" fill="#FFD200"/>
<path d="M144.503 123.592C144.503 123.592 139.838 146.744 144.503 162.997" stroke="#24285B" stroke-width="8.12" stroke-linecap="round" stroke-linejoin="round"/>
<path opacity="0.7" d="M153.457 133.334C179.226 133.334 200.115 112.445 200.115 86.6768C200.115 60.9086 179.226 40.0193 153.457 40.0193C127.689 40.0193 106.8 60.9086 106.8 86.6768C106.8 112.445 127.689 133.334 153.457 133.334Z" fill="url(#paint1_linear)"/>
<path opacity="0.09" d="M181.643 49.5818C188.846 58.4473 192.546 69.6476 192.041 81.0594C191.537 92.4712 186.862 103.301 178.905 111.496C170.947 119.692 160.26 124.682 148.868 125.522C137.476 126.362 126.171 122.993 117.098 116.054C121.245 121.19 126.435 125.387 132.324 128.368C138.213 131.349 144.668 133.047 151.262 133.349C157.856 133.651 164.439 132.55 170.577 130.12C176.714 127.689 182.265 123.984 186.865 119.249C191.464 114.514 195.006 108.857 197.257 102.652C199.508 96.4464 200.417 89.8341 199.923 83.2516C199.43 76.6692 197.545 70.2663 194.394 64.4661C191.243 58.666 186.897 53.6005 181.643 49.6043V49.5818Z" fill="black"/>
<path d="M139.598 88.2655C142.035 87.7755 143.134 83.0197 142.052 77.6432C140.971 72.2666 138.12 68.3053 135.683 68.7952C133.247 69.2852 132.148 74.0409 133.229 79.4175C134.31 84.794 137.162 88.7554 139.598 88.2655Z" fill="#24285B"/>
<path d="M166.546 82.8419C168.982 82.3519 170.081 77.5962 169 72.2196C167.919 66.8431 165.067 62.8817 162.63 63.3716C160.194 63.8616 159.095 68.6173 160.176 73.9939C161.258 79.3705 164.109 83.3318 166.546 82.8419Z" fill="#24285B"/>
<path d="M181.117 110.459C181.117 110.459 176.085 92.4591 155.797 97.1841C135.51 101.909 138.33 119.054 138.33 119.054" stroke="#24285B" stroke-width="3.045" stroke-linecap="round" stroke-linejoin="round"/>
<path opacity="0.36" d="M130.854 97.3073C134.509 96.5724 137.156 94.4096 136.767 92.4767C136.379 90.5437 133.101 89.5725 129.446 90.3075C125.791 91.0424 123.144 93.2052 123.532 95.1381C123.921 97.0711 127.199 98.0423 130.854 97.3073Z" fill="white"/>
<path opacity="0.36" d="M178.993 87.6254C182.648 86.8905 185.295 84.7278 184.907 82.7948C184.518 80.8618 181.24 79.8906 177.585 80.6256C173.931 81.3605 171.283 83.5233 171.672 85.4562C172.06 87.3892 175.338 88.3604 178.993 87.6254Z" fill="white"/>
<path d="M134.797 145.169L150.442 147.787L145.447 177.622L115.635 172.634L133.132 165.554L134.797 145.169Z" fill="#FFD200"/>
<path d="M187.807 142.454C187.807 142.454 178.282 143.114 179.137 148.319C179.992 153.524 184.117 153.517 184.117 153.517C184.117 153.517 180.367 163.612 189.532 163.844C198.697 164.077 203.497 152.489 200.782 145.439C198.067 138.389 187.807 142.454 187.807 142.454Z" fill="#FFD200"/>
<path d="M202.08 135.262C202.08 135.262 181.508 128.294 182.198 136.867C182.888 145.439 193.973 144.112 200.093 145.342C206.213 146.572 209.588 138.757 202.08 135.262Z" fill="#FFD200"/>
<path opacity="0.44" d="M202.08 135.262C202.08 135.262 181.508 128.294 182.198 136.867C182.888 145.439 193.973 144.112 200.093 145.342C206.213 146.572 209.588 138.757 202.08 135.262Z" fill="white"/>
<path d="M211.575 166.567L213.045 176.602L222.278 176.639L223.643 166.619L211.575 166.567Z" fill="#24285B"/>
<path d="M130.65 73.0942C132.311 72.0877 133.734 70.732 134.819 69.1209C135.905 67.5099 136.626 65.682 136.935 63.7642" stroke="#24285B" stroke-width="3.045" stroke-linecap="round" stroke-linejoin="round"/>
<path d="M159.473 59.4668C161.976 62.9182 165.595 65.3982 169.718 66.4868" stroke="#24285B" stroke-width="3.045" stroke-linecap="round" stroke-linejoin="round"/>
<path d="M103.35 92.4816C103.35 92.4816 99.885 71.5491 109.568 74.4816C115.71 76.3566 109.77 86.8266 111.818 92.4816C113.865 98.1366 118.313 106.882 113.925 110.062C109.538 113.242 101.49 112.739 103.35 92.4816Z" fill="#FFD200"/>
<path d="M217.605 166.597C217.605 166.597 217.395 161.872 221.798 161.549C226.2 161.227 230.16 168.569 226.778 172.972L223.328 166.717L217.605 166.597Z" fill="url(#paint2_linear)"/>
<path opacity="0.58" d="M217.605 166.597C217.605 166.597 216.233 161.017 211.605 161.542C206.978 162.067 205.17 168.187 207.72 172.207L211.605 166.567L217.605 166.597Z" fill="url(#paint3_linear)"/>
<defs>
<linearGradient id="paint0_linear" x1="214.324" y1="158.344" x2="216.603" y2="169.784" gradientUnits="userSpaceOnUse">
<stop stop-color="#D12323"/>
<stop offset="1" stop-color="#750404"/>
</linearGradient>
<linearGradient id="paint1_linear" x1="109.786" y1="40.0193" x2="139.071" y2="167.794" gradientUnits="userSpaceOnUse">
<stop stop-color="#D12323"/>
<stop offset="1" stop-color="#750404"/>
</linearGradient>
<linearGradient id="paint2_linear" x1="217.938" y1="161.539" x2="221.827" y2="177.04" gradientUnits="userSpaceOnUse">
<stop stop-color="#D12323"/>
<stop offset="1" stop-color="#750404"/>
</linearGradient>
<linearGradient id="paint3_linear" x1="206.913" y1="161.507" x2="210.175" y2="176.203" gradientUnits="userSpaceOnUse">
<stop stop-color="#D12323"/>
<stop offset="1" stop-color="#750404"/>
</linearGradient>
</defs>
</svg>
