<svg width="179" height="173" viewBox="0 0 179 173" xmlns="http://www.w3.org/2000/svg">
<path d="M120.061 53.6955C121.681 44.5028 115.542 35.7369 106.35 34.1164C97.157 32.4959 88.3911 38.6345 86.7706 47.8272C85.1501 57.02 91.2886 65.7858 100.481 67.4063C109.674 69.0268 118.44 62.8883 120.061 53.6955Z" fill="#F5D66E"/>
<path d="M102.482 64.4277C94.946 63.911 89.2355 57.36 89.7522 49.8238C90.2689 42.2883 96.8199 36.5778 104.356 37.0942C111.892 37.6109 117.602 44.1619 117.085 51.6974C116.569 59.2339 110.018 64.9444 102.482 64.4277ZM104.311 37.7431C97.1328 37.2512 90.8926 42.6901 90.4007 49.8686C89.9085 57.0468 95.3481 63.2873 102.527 63.7792C109.705 64.2714 115.945 58.8315 116.437 51.6533C116.929 44.4748 111.489 38.2353 104.311 37.7431Z" fill="#241726"/>
<path d="M103.011 56.5762C101.731 56.4885 100.36 55.883 99.5752 54.3758L100.152 54.0755C100.999 55.704 102.675 56.0843 103.958 55.8927C105.209 55.7085 106.19 55.0131 106.345 54.2003C106.688 52.3956 104.984 51.488 102.345 50.3098C100.928 49.677 100.057 48.2339 100.227 46.7998C100.377 45.5394 101.3 44.6322 102.697 44.3735C105.962 43.7693 107.434 46.9826 107.449 47.0148L106.855 47.2794C106.804 47.1665 105.573 44.5032 102.815 45.0129C101.697 45.2199 100.989 45.8995 100.873 46.8767C100.736 48.0311 101.45 49.1988 102.61 49.7158C104.989 50.778 107.448 51.8768 106.983 54.3216C106.775 55.419 105.597 56.3088 104.053 56.5364C103.723 56.585 103.371 56.6011 103.011 56.5762Z" fill="#241726"/>
<path d="M103.768 42.7765L102.716 58.1194L103.365 58.1638L104.417 42.8209L103.768 42.7765Z" fill="#241726"/>
<path d="M94.766 49.3832C101.367 42.7827 101.367 32.0811 94.766 25.4806C88.1655 18.88 77.4639 18.8801 70.8634 25.4806C64.2629 32.0811 64.2629 42.7827 70.8634 49.3832C77.4639 55.9837 88.1655 55.9837 94.766 49.3832Z" fill="#F5D66E"/>
<path d="M85.4278 50.879C78.0129 52.3191 70.8089 47.4585 69.3685 40.0432C67.9284 32.6287 72.789 25.4247 80.2039 23.9843C87.6188 22.5439 94.8228 27.4049 96.2632 34.8194C97.7033 42.2349 92.8426 49.439 85.4278 50.879ZM80.328 24.6223C73.2649 25.9942 68.6346 32.856 70.0065 39.9191C71.3784 46.9823 78.2405 51.6125 85.3037 50.2406C92.3668 48.8688 96.9967 42.0063 95.6248 34.9431C94.253 27.8803 87.3912 23.2508 80.328 24.6223Z" fill="#241726"/>
<path d="M83.9183 43.1559C82.659 43.4006 81.1788 43.1681 80.0324 41.9137L80.5125 41.4753C81.7508 42.8307 83.467 42.7671 84.6581 42.2518C85.8192 41.7518 86.5887 40.8271 86.5285 40.0021C86.3957 38.1698 84.5155 37.7313 81.6623 37.272C80.1303 37.0251 78.9172 35.8546 78.7127 34.4251C78.5333 33.1686 79.1916 32.0544 80.4747 31.445C83.475 30.0211 85.7244 32.747 85.7464 32.7742L85.2409 33.1829C85.1626 33.0868 83.288 30.8301 80.7537 32.0324C79.7265 32.5204 79.2171 33.3591 79.3566 34.3331C79.5213 35.4841 80.5117 36.4283 81.7658 36.6297C84.3379 37.044 86.9973 37.473 87.1774 39.9549C87.2582 41.0691 86.3492 42.2319 84.9154 42.8489C84.6088 42.9811 84.2725 43.0874 83.9183 43.1559Z" fill="#241726"/>
<path d="M81.742 29.5057L81.104 29.6296L84.0366 44.7265L84.6747 44.6025L81.742 29.5057Z" fill="#241726"/>
<path d="M72.8571 68.43C81.0818 64.0166 84.1715 53.7713 79.7581 45.5465C75.3447 37.3218 65.0994 34.2321 56.8747 38.6455C48.6499 43.0589 45.5602 53.3042 49.9736 61.5289C54.387 69.7537 64.6323 72.8434 72.8571 68.43Z" fill="#F5D66E"/>
<path d="M70.105 66.1971C63.1243 69.0831 55.0976 65.752 52.2116 58.771C49.3259 51.7907 52.657 43.7641 59.6373 40.878C66.618 37.992 74.6447 41.3234 77.5303 48.3034C80.4167 55.2844 77.0856 63.3114 70.105 66.1971ZM59.8859 41.479C53.2367 44.228 50.0636 51.8736 52.8126 58.5228C55.5616 65.172 63.2075 68.3454 69.8568 65.5965C76.506 62.8475 79.679 55.2015 76.9301 48.552C74.1807 41.9027 66.5351 38.73 59.8859 41.479Z" fill="#241726"/>
<path d="M67.0898 58.9284C65.9043 59.4185 64.4073 59.485 63.0343 58.4837L63.4175 57.9586C64.9006 59.041 66.5703 58.6372 67.6348 57.8953C68.6735 57.1748 69.2434 56.1154 69.0207 55.3187C68.5264 53.5497 66.5962 53.4937 63.7087 53.6108C62.1582 53.6734 60.7367 52.7676 60.2521 51.4072C59.8263 50.2116 60.2501 48.9886 61.3863 48.1363C64.0433 46.1439 66.7898 48.3684 66.8171 48.3908L66.4028 48.8918C66.307 48.8131 64.0213 46.9742 61.7764 48.6565C60.8668 49.339 60.5343 50.2623 60.8647 51.1891C61.2548 52.2841 62.4134 53.013 63.6825 52.9609C66.2857 52.8553 68.9773 52.747 69.6472 55.1435C69.9479 56.2193 69.2881 57.5398 68.0058 58.4299C67.7317 58.6197 67.423 58.7907 67.0898 58.9284Z" fill="#241726"/>
<path d="M62.2363 45.9848L61.6357 46.2332L67.5118 60.4442L68.1124 60.1959L62.2363 45.9848Z" fill="#241726"/>
<path d="M47.1728 56.3635L120.736 55.6887C120.736 55.6887 109.244 69.4556 124.111 100.906C140.966 136.564 93.0657 136.001 93.0657 138.026C93.0657 140.05 93.9554 156.451 93.9554 156.451L111.963 172.445L62.6594 172.099L79.2557 157.874L82.2673 138.7C82.2673 138.7 37.4494 138.871 44.0676 110.471C49.4159 87.5224 62.857 78.3504 47.1728 56.3635Z" fill="url(#paint0_linear)"/>
<path d="M67.9 84.5658C67.9 84.5658 45.9932 50.7097 26.0777 81.4361C6.16217 112.163 51.9676 108.749 61.641 125.819L66.4775 124.396C66.4775 124.396 65.7258 110.67 50.8297 107.611C18.9649 101.067 33.0887 74.1443 47.4157 76.3151C56.8045 77.7376 64.4861 89.6869 64.4861 89.6869L67.9 84.5658Z" fill="url(#paint1_linear)"/>
<path d="M103.653 84.5658C103.653 84.5658 125.56 50.7097 145.475 81.4361C165.391 112.163 119.585 108.749 109.912 125.819L105.075 124.396C105.075 124.396 105.827 110.67 120.723 107.611C152.588 101.067 138.464 74.1443 124.137 76.3151C114.748 77.7376 107.067 89.6869 107.067 89.6869L103.653 84.5658Z" fill="url(#paint2_linear)"/>
<path d="M119.766 106.495C119.736 106.495 119.705 106.492 119.674 106.485C119.46 106.434 119.328 106.22 119.378 106.006C119.741 104.468 118.846 103.121 118.836 103.107C118.713 102.925 118.761 102.678 118.943 102.555C119.125 102.432 119.373 102.479 119.495 102.661C119.541 102.728 120.595 104.314 120.153 106.188C120.109 106.372 119.946 106.495 119.766 106.495Z" fill="#241726"/>
<path d="M117.528 110.259C117.498 110.259 117.467 110.255 117.437 110.248C117.223 110.198 117.09 109.983 117.14 109.77C117.503 108.231 116.608 106.884 116.599 106.87C116.475 106.689 116.523 106.441 116.705 106.318C116.887 106.195 117.135 106.243 117.258 106.424C117.303 106.491 118.357 108.078 117.915 109.952C117.871 110.135 117.708 110.259 117.528 110.259Z" fill="#241726"/>
<path d="M122.424 111.594C122.394 111.594 122.363 111.591 122.333 111.584C122.119 111.534 121.986 111.319 122.036 111.105C122.399 109.567 121.504 108.22 121.495 108.207C121.371 108.024 121.419 107.777 121.601 107.654C121.784 107.531 122.031 107.579 122.154 107.761C122.199 107.827 123.253 109.414 122.811 111.288C122.768 111.471 122.605 111.594 122.424 111.594Z" fill="#241726"/>
<path d="M114.976 104.104C114.946 104.104 114.915 104.101 114.884 104.094C114.671 104.043 114.538 103.829 114.588 103.615C114.948 102.088 114.055 100.729 114.046 100.715C113.924 100.533 113.972 100.286 114.154 100.164C114.336 100.041 114.583 100.089 114.705 100.27C114.75 100.337 115.804 101.923 115.363 103.797C115.32 103.98 115.156 104.104 114.976 104.104Z" fill="#241726"/>
<path d="M119.876 116.193C119.845 116.193 119.815 116.189 119.784 116.182C119.57 116.132 119.438 115.918 119.488 115.704C119.848 114.177 118.955 112.818 118.946 112.804C118.824 112.622 118.872 112.375 119.054 112.253C119.236 112.13 119.482 112.178 119.605 112.359C119.65 112.426 120.705 114.012 120.263 115.886C120.219 116.069 120.056 116.193 119.876 116.193Z" fill="#241726"/>
<path d="M119.225 122.537C119.153 122.537 119.081 122.517 119.015 122.477C118.829 122.361 118.772 122.116 118.887 121.929C119.716 120.597 119.303 119.024 119.299 119.008C119.242 118.796 119.366 118.578 119.578 118.52C119.787 118.461 120.008 118.585 120.066 118.796C120.088 118.874 120.58 120.714 119.563 122.349C119.488 122.47 119.358 122.537 119.225 122.537Z" fill="#241726"/>
<path d="M116.163 117.941C116.096 117.941 116.029 117.924 115.966 117.888C115.776 117.78 115.708 117.537 115.817 117.346C116.597 115.972 116.117 114.427 116.112 114.412C116.045 114.203 116.16 113.978 116.37 113.912C116.58 113.845 116.803 113.96 116.869 114.169C116.894 114.246 117.46 116.065 116.509 117.739C116.436 117.869 116.301 117.941 116.163 117.941Z" fill="#241726"/>
<path d="M63.2183 80.3017C63.1589 80.3017 63.0987 80.2884 63.0421 80.2601C62.8453 80.1626 62.7648 79.9238 62.8627 79.7273C63.5654 78.3114 62.9998 76.7958 62.9942 76.7808C62.9152 76.5756 63.0183 76.3459 63.2232 76.2672C63.4277 76.1885 63.6581 76.291 63.7368 76.4966C63.7654 76.5714 64.4311 78.3565 63.5752 80.0808C63.5053 80.221 63.3648 80.3017 63.2183 80.3017Z" fill="#241726"/>
<path d="M60.1839 83.4579C60.1244 83.4579 60.0643 83.4446 60.0077 83.4163C59.8108 83.3187 59.7304 83.08 59.8283 82.8835C60.531 81.4679 59.965 79.952 59.9591 79.937C59.8801 79.7317 59.9832 79.502 60.1884 79.4234C60.3926 79.3454 60.623 79.4475 60.702 79.6524C60.7307 79.7272 61.3974 81.5127 60.5408 83.2369C60.4709 83.3771 60.33 83.4579 60.1839 83.4579Z" fill="#241726"/>
<path d="M64.648 85.8717C64.5885 85.8717 64.5284 85.8584 64.4718 85.8301C64.2749 85.7326 64.1945 85.4938 64.2924 85.2973C64.9951 83.8818 64.4291 82.3662 64.4232 82.3512C64.3445 82.1459 64.4473 81.9162 64.6525 81.8376C64.8574 81.76 65.0871 81.8614 65.1661 82.0669C65.1948 82.1417 65.8615 83.9265 65.0049 85.6508C64.9354 85.791 64.7945 85.8717 64.648 85.8717Z" fill="#241726"/>
<path d="M59.0972 76.8842C59.0378 76.8842 58.9776 76.871 58.921 76.8426C58.7242 76.7451 58.6437 76.5063 58.7416 76.3098C59.4444 74.8943 58.8787 73.3787 58.8731 73.3637C58.7941 73.1585 58.8972 72.9288 59.1021 72.8501C59.3063 72.7728 59.537 72.8742 59.6157 73.0794C59.6443 73.1543 60.3107 74.9394 59.4541 76.6633C59.3842 76.8035 59.2437 76.8842 59.0972 76.8842Z" fill="#241726"/>
<path d="M61.1211 89.7701C61.0617 89.7701 61.0016 89.7568 60.9449 89.7285C60.7481 89.6309 60.6677 89.3921 60.7656 89.1957C61.4683 87.7804 60.9023 86.2645 60.8963 86.2495C60.8177 86.0443 60.9204 85.8146 61.1257 85.7359C61.3291 85.658 61.5606 85.7597 61.6392 85.9653C61.6679 86.0401 62.3346 87.8252 61.4781 89.5491C61.4085 89.6893 61.2676 89.7701 61.1211 89.7701Z" fill="#241726"/>
<path d="M59.0474 95.801C58.9457 95.801 58.8439 95.7622 58.7663 95.6846C58.6111 95.5293 58.6111 95.2773 58.7663 95.1221C59.884 94.0051 59.8323 92.3874 59.8312 92.3717C59.8221 92.1521 59.9927 91.9668 60.2123 91.9581C60.4364 91.9417 60.6171 92.1193 60.6259 92.3392C60.6294 92.4196 60.6902 94.3239 59.3285 95.6846C59.2509 95.7618 59.1491 95.801 59.0474 95.801Z" fill="#241726"/>
<path d="M57.11 90.6287C57.0132 90.6287 56.9167 90.5938 56.8401 90.5231C56.679 90.3746 56.6688 90.1228 56.8181 89.961C57.89 88.8003 57.7733 87.1865 57.7719 87.1704C57.7544 86.9512 57.9176 86.7596 58.1361 86.7414C58.3554 86.7246 58.5473 86.8872 58.5651 87.1057C58.5714 87.1861 58.7088 89.0862 57.4027 90.5004C57.3237 90.5857 57.217 90.6287 57.11 90.6287Z" fill="#241726"/>
<path d="M11.4308 144.553C11.1347 144.553 10.8546 144.553 10.0722 141.435C7.42706 140.926 7.19632 140.616 7.11871 140.512C7.04494 140.413 7.01313 140.23 7.04634 140.111C7.09424 139.942 7.20436 139.55 10.2257 138.333C11.3098 135.506 11.6755 135.506 11.9195 135.506C12.0451 135.506 12.2185 135.596 12.2936 135.697C12.4873 135.957 12.6628 136.634 12.9296 137.717C13.0135 138.057 13.1145 138.469 13.1725 138.648C13.3306 138.719 13.6812 138.845 13.9724 138.949C15.5247 139.505 15.9247 139.695 15.997 140.064C16.024 140.201 15.9537 140.403 15.8492 140.497C15.5345 140.779 14.0319 141.337 13.2453 141.617C11.9664 144.526 11.6947 144.54 11.4539 144.553C11.4462 144.553 11.4378 144.553 11.4308 144.553ZM8.12733 140.169C8.65454 140.322 9.62401 140.542 10.4694 140.7C10.6228 140.729 10.7452 140.844 10.7826 140.996C10.9987 141.871 11.2815 142.869 11.4839 143.434C11.7769 142.908 12.223 141.97 12.5849 141.141C12.6293 141.039 12.7135 140.961 12.8177 140.924C13.5403 140.67 14.3567 140.357 14.8612 140.136C14.5063 139.986 14.0189 139.811 13.704 139.698C12.8184 139.381 12.6516 139.312 12.5384 139.16C12.4394 139.027 12.3775 138.804 12.1569 137.907C12.0734 137.567 11.9444 137.043 11.8307 136.655C11.5664 137.157 11.1959 138.017 10.9074 138.779C10.8679 138.883 10.7861 138.966 10.683 139.007C9.74462 139.382 8.68006 139.859 8.12733 140.169Z" fill="#241726"/>
<path d="M11.9695 36.7329C11.6734 36.7329 11.394 36.7329 10.6109 33.614C7.96578 33.1046 7.73503 32.7949 7.65777 32.6907C7.584 32.5918 7.55219 32.4096 7.5854 32.2907C7.6333 32.1219 7.74342 31.7303 10.764 30.513C11.8482 27.686 12.2139 27.686 12.4579 27.686C12.5834 27.686 12.7568 27.7766 12.832 27.8773C13.0257 28.137 13.2019 28.8142 13.4683 29.8977C13.5518 30.2378 13.6529 30.649 13.7109 30.8283C13.8689 30.8989 14.2206 31.0252 14.5119 31.1293C16.0631 31.6856 16.4627 31.8747 16.5354 32.2432C16.5623 32.3806 16.4921 32.5823 16.3879 32.676C16.0729 32.9588 14.5699 33.5165 13.7833 33.7962C12.5044 36.706 12.2328 36.7199 11.9919 36.7325C11.9849 36.7329 11.9765 36.7329 11.9695 36.7329ZM8.66639 32.3484C9.1936 32.5016 10.1627 32.7222 11.0081 32.8795C11.1616 32.9082 11.2839 33.0239 11.321 33.1756C11.537 34.051 11.8199 35.0488 12.0223 35.6134C12.3153 35.088 12.7614 34.1489 13.1232 33.3203C13.1676 33.219 13.2519 33.1406 13.3561 33.1039C14.079 32.8498 14.8954 32.5372 15.3995 32.3159C15.0454 32.1659 14.558 31.9915 14.2437 31.8786C13.3571 31.5608 13.1903 31.4922 13.0767 31.3395C12.9778 31.2066 12.9159 30.9836 12.6956 30.0879C12.6121 29.7477 12.4831 29.2236 12.3691 28.8349C12.1048 29.3365 11.7342 30.1969 11.4458 30.9587C11.4063 31.0629 11.3245 31.1458 11.2213 31.187C10.2833 31.5611 9.21913 32.038 8.66639 32.3484Z" fill="#241726"/>
<path d="M104.595 26.0169C104.298 26.0169 104.019 26.0169 103.236 22.8981C100.591 22.3894 100.36 22.0793 100.283 21.9751C100.209 21.8761 100.177 21.6936 100.21 21.5744C100.258 21.4059 100.369 21.0144 103.39 19.797C104.474 16.9697 104.839 16.9697 105.083 16.9697C105.209 16.9697 105.382 17.0603 105.457 17.161C105.651 17.4211 105.827 18.0979 106.094 19.1814C106.178 19.5215 106.279 19.9327 106.337 20.1124C106.495 20.183 106.846 20.3088 107.137 20.413C108.689 20.9696 109.089 21.1587 109.161 21.5276C109.188 21.665 109.117 21.8667 109.013 21.96C108.698 22.2429 107.195 22.8005 106.409 23.0805C105.13 25.9903 104.858 26.0043 104.617 26.0169C104.61 26.0169 104.601 26.0169 104.595 26.0169ZM101.291 21.6325C101.819 21.7856 102.788 22.0058 103.633 22.1635C103.787 22.1922 103.909 22.3079 103.946 22.4596C104.162 23.3351 104.445 24.3325 104.648 24.8975C104.941 24.372 105.387 23.4333 105.749 22.6044C105.793 22.503 105.877 22.4247 105.981 22.388C106.704 22.1335 107.521 21.8213 108.025 21.6C107.67 21.4496 107.183 21.2752 106.868 21.1622C105.982 20.8448 105.816 20.7763 105.702 20.6238C105.603 20.4906 105.542 20.2676 105.321 19.3715C105.237 19.0314 105.108 18.5077 104.994 18.1189C104.731 18.6206 104.36 19.481 104.071 20.2428C104.032 20.347 103.95 20.4298 103.847 20.4711C102.909 20.8451 101.844 21.322 101.291 21.6325Z" fill="#241726"/>
<path d="M149.141 137.385C148.846 137.385 148.566 137.385 147.783 134.266C145.138 133.757 144.907 133.447 144.83 133.343C144.756 133.244 144.724 133.061 144.757 132.942C144.805 132.773 144.916 132.382 147.937 131.164C149.02 128.337 149.386 128.337 149.63 128.337C149.756 128.337 149.929 128.428 150.004 128.528C150.198 128.789 150.374 129.465 150.64 130.549C150.724 130.889 150.825 131.3 150.884 131.48C151.042 131.55 151.393 131.676 151.684 131.78C153.236 132.337 153.636 132.526 153.708 132.895C153.735 133.032 153.665 133.234 153.561 133.327C153.246 133.61 151.743 134.168 150.956 134.448C149.677 137.357 149.406 137.372 149.165 137.384C149.157 137.385 149.148 137.385 149.141 137.385ZM145.838 133C146.365 133.153 147.335 133.374 148.18 133.531C148.333 133.56 148.456 133.676 148.493 133.827C148.709 134.703 148.992 135.7 149.195 136.265C149.488 135.74 149.934 134.801 150.296 133.972C150.34 133.871 150.424 133.792 150.528 133.756C151.251 133.501 152.068 133.189 152.572 132.968C152.217 132.817 151.73 132.643 151.415 132.53C150.529 132.213 150.363 132.144 150.249 131.992C150.15 131.858 150.088 131.635 149.868 130.739C149.784 130.399 149.655 129.875 149.541 129.487C149.278 129.988 148.907 130.849 148.618 131.611C148.579 131.715 148.497 131.798 148.394 131.839C147.456 132.213 146.391 132.69 145.838 133Z" fill="#241726"/>
<path d="M5.65276 59.5649C5.65276 59.5649 4.82803 53.7429 10.4574 55.5745C16.0872 57.4061 14.3108 62.7614 12.1537 60.9556C9.99666 59.1499 13.95 52.9164 18.2709 55.6328C22.5917 58.3493 21.6834 63.7109 18.6414 64.1357C15.5995 64.5605 20.4245 57.8857 24.3009 61.9408C28.1777 65.9963 19.8735 73.5395 16.4207 70.8297C12.968 68.1198 15.6058 63.6655 16.4539 66.3561C17.3021 69.0467 15.1118 71.7145 9.03453 71.6694C2.95762 71.6243 5.63213 62.2492 7.78223 64.9496C9.93268 67.65 6.43658 70.7555 2.11926 67.5916C-2.19737 64.4276 2.62759 57.7529 5.65276 59.5649Z" fill="white"/>
<path d="M9.18626 72.0672L9.03208 72.0669C7.03756 72.0522 5.62374 71.0449 5.11051 69.2913C4.06099 69.1672 2.95238 68.6942 1.88467 67.9121C0.180673 66.6633 -0.404573 64.7488 0.278913 62.6596C0.975685 60.5294 2.84784 58.8604 4.541 58.8604C4.77209 58.8604 4.99619 58.8897 5.2126 58.9485C5.19862 58.1311 5.31399 56.748 6.13382 55.8037C7.047 54.7535 8.55626 54.5378 10.5802 55.1957C11.3594 55.4496 12.0433 55.7813 12.6194 56.1855C14.2248 54.463 16.527 54.0665 18.4824 55.2957C20.3496 56.4697 21.495 58.2908 21.6093 60.2312C22.698 60.2535 23.7003 60.736 24.589 61.6656C25.806 62.9389 26.0385 64.6632 25.2445 66.5206C24.0419 69.334 20.7492 71.8015 18.1978 71.8015C17.4133 71.8015 16.7326 71.5795 16.1757 71.1425C15.9072 70.9324 15.6645 70.7044 15.4492 70.4618C14.0822 71.5134 11.9296 72.0672 9.18626 72.0672ZM5.95482 69.3133C6.31212 70.2859 7.14384 71.2575 9.03838 71.2715L9.18626 71.2718C12.3485 71.2718 14.0595 70.5303 14.9709 69.8259C14.1 68.4425 14.1556 66.9251 14.629 65.9815C14.902 65.4372 15.302 65.125 15.7268 65.125C16.0092 65.125 16.5288 65.2694 16.8336 66.2361C17.2584 67.5842 16.9675 68.9092 16.0369 69.9255C16.2218 70.1353 16.4326 70.3328 16.6662 70.5163C17.0797 70.8411 17.5947 71.0058 18.1974 71.0058C20.4293 71.0058 23.4391 68.7186 24.5128 66.2077C24.9806 65.1138 25.2732 63.5336 24.0135 62.2156C23.2783 61.4464 22.4658 61.0465 21.597 61.0265C21.4289 62.892 20.2745 64.3087 18.6963 64.5293C18.5817 64.5454 18.4761 64.5527 18.3799 64.5527H18.3796C17.6038 64.5527 17.3056 64.0744 17.2853 63.6273C17.2357 62.5299 18.8009 60.6706 20.8157 60.2969C20.7227 58.6069 19.7116 57.0085 18.0586 55.9694C16.4344 54.9486 14.5877 55.2709 13.2393 56.6875C14.5804 57.9426 14.8377 59.497 14.4713 60.5395C14.2154 61.2674 13.6606 61.7195 13.0229 61.7198C12.6411 61.7198 12.2628 61.5653 11.8989 61.2604C10.7064 60.2623 11.0658 58.2898 12.116 56.8043C11.6146 56.4603 11.0172 56.1743 10.3344 55.9527C8.64122 55.4013 7.43332 55.5219 6.7348 56.3257C5.76638 57.4409 6.04327 59.489 6.04642 59.5092C6.06774 59.661 6.00027 59.812 5.87231 59.8966C5.74471 59.9812 5.57864 59.985 5.44824 59.9064C5.171 59.7407 4.86614 59.6564 4.54135 59.6564C3.19431 59.6564 1.62176 61.115 1.03512 62.9074C0.765569 63.7308 0.355128 65.805 2.35489 67.2709C3.22227 67.9065 4.10749 68.3127 4.9448 68.4634C4.78817 67.1045 5.13009 65.5718 5.81568 64.7121C6.1541 64.288 6.55125 64.0639 6.96449 64.0639C7.24803 64.0639 7.67385 64.1748 8.09408 64.702C8.86392 65.6686 9.04432 66.7643 8.58948 67.7083C8.14512 68.6291 7.15153 69.228 5.95482 69.3133ZM15.7271 65.9207C15.6586 65.9207 15.4929 66.034 15.3401 66.3382C14.9964 67.0237 14.9471 68.1816 15.561 69.2619C16.2148 68.4743 16.398 67.501 16.075 66.4759C15.9323 66.0228 15.7722 65.9207 15.7271 65.9207ZM6.96449 64.8586C6.80402 64.8586 6.61698 64.9827 6.43728 65.2075C5.92301 65.8522 5.55452 67.2276 5.75449 68.5271C6.73095 68.4994 7.5368 68.0586 7.87243 67.3625C8.18952 66.7045 8.04339 65.9151 7.47143 65.197C7.34871 65.0425 7.16132 64.8586 6.96449 64.8586ZM20.7877 61.1146C19.1749 61.4964 18.0531 62.9931 18.0803 63.5909C18.0835 63.665 18.0877 63.757 18.3799 63.757C18.4296 63.7846 18.5121 63.7524 18.5866 63.7416C19.7455 63.5797 20.6066 62.5274 20.7877 61.1146ZM12.7351 57.3046C11.8353 58.5898 11.6748 60.0354 12.4093 60.6504C12.6233 60.8294 12.8355 60.9241 13.0229 60.9241C13.3176 60.9237 13.5784 60.6815 13.7214 60.2756C13.9965 59.4924 13.7815 58.3073 12.7351 57.3046Z" fill="#241726"/>
<path d="M121.931 27.5451C121.931 27.5451 121.106 21.723 126.736 23.5547C132.365 25.3863 130.589 30.7416 128.432 28.9358C126.275 27.1305 130.228 20.8966 134.549 23.613C138.87 26.3295 137.962 31.6911 134.92 32.1159C131.878 32.5407 136.703 25.8659 140.58 29.921C144.456 33.9765 136.152 41.5197 132.699 38.8099C129.247 36.1 131.884 31.6457 132.733 34.3363C133.581 37.0268 131.39 39.6947 125.313 39.6496C119.236 39.6042 121.91 30.2294 124.061 32.9298C126.211 35.6302 122.715 38.7357 118.398 35.5718C114.081 32.4078 118.905 25.7331 121.931 27.5451Z" fill="white"/>
<path d="M125.466 40.0475L125.31 40.0471C123.316 40.0324 121.902 39.0252 121.389 37.2716C120.339 37.1478 119.231 36.6744 118.163 35.8924C116.459 34.6436 115.873 32.7291 116.557 30.6398C117.254 28.5097 119.126 26.8406 120.819 26.8406C121.05 26.8406 121.275 26.87 121.491 26.9287C121.477 26.1117 121.592 24.7283 122.412 23.7843C123.325 22.7324 124.835 22.5181 126.859 23.176C127.638 23.4298 128.322 23.7616 128.897 24.1658C130.503 22.4436 132.806 22.0464 134.761 23.276C136.628 24.4497 137.773 26.2715 137.887 28.2114C138.976 28.2342 139.978 28.7166 140.867 29.6462C142.084 30.9192 142.317 32.6431 141.523 34.5006C140.32 37.3139 137.028 39.7814 134.476 39.7814C133.691 39.7814 133.011 39.5598 132.454 39.1224C132.186 38.9123 131.943 38.6843 131.728 38.4417C130.361 39.494 128.209 40.0475 125.466 40.0475ZM122.233 37.2936C122.59 38.2662 123.422 39.2378 125.316 39.2518L125.466 39.2521C128.628 39.2521 130.338 38.5106 131.249 37.8061C130.378 36.4231 130.434 34.9054 130.907 33.9618C131.18 33.4175 131.58 33.1053 132.005 33.1053C132.288 33.1053 132.807 33.2497 133.112 34.2167C133.537 35.5648 133.246 36.8898 132.315 37.9054C132.5 38.1152 132.711 38.3134 132.945 38.4966C133.358 38.8214 133.873 38.9861 134.476 38.9861C136.708 38.9861 139.718 36.6989 140.791 34.188C141.259 33.0941 141.551 31.5139 140.292 30.1962C139.556 29.4267 138.744 29.0271 137.875 29.0068C137.707 30.8723 136.553 32.2889 134.974 32.5095C134.86 32.5256 134.754 32.533 134.658 32.533H134.657C133.881 32.533 133.583 32.0547 133.563 31.6069C133.513 30.5094 135.079 28.6502 137.094 28.2768C137.001 26.5868 135.989 24.9884 134.337 23.9494C132.712 22.9282 130.866 23.2508 129.517 24.6675C130.858 25.9226 131.116 27.4769 130.749 28.5195C130.493 29.2473 129.938 29.6994 129.301 29.6997H129.3C128.918 29.6997 128.54 29.5452 128.176 29.2403C126.984 28.2422 127.343 26.2697 128.394 24.7846C127.892 24.4406 127.295 24.1546 126.612 23.9326C124.92 23.3816 123.711 23.5008 123.013 24.3056C122.044 25.4209 122.321 27.4685 122.324 27.4892C122.345 27.6409 122.278 27.7919 122.15 27.8765C122.023 27.9615 121.857 27.9657 121.726 27.8863C121.449 27.7206 121.143 27.6363 120.819 27.6363C119.472 27.6363 117.899 29.0949 117.312 30.8874C117.043 31.7107 116.633 33.7849 118.633 35.2508C119.5 35.8861 120.385 36.2927 121.222 36.4434C121.066 35.0844 121.407 33.5514 122.093 32.692C122.431 32.268 122.829 32.0439 123.242 32.0439C123.525 32.0439 123.951 32.1547 124.371 32.6819C125.141 33.6482 125.322 34.7439 124.867 35.6882C124.423 36.6091 123.43 37.2083 122.233 37.2936ZM132.005 33.9006C131.937 33.9006 131.771 34.0139 131.619 34.3181C131.275 35.0033 131.226 36.1616 131.839 37.2419C132.493 36.4542 132.676 35.4805 132.353 34.4558C132.21 34.0031 132.05 33.9006 132.005 33.9006ZM123.243 32.8389C123.082 32.8389 122.895 32.9626 122.715 33.1878C122.201 33.8325 121.833 35.2078 122.033 36.5073C123.009 36.4797 123.816 36.0389 124.151 35.3424C124.468 34.6848 124.322 33.8954 123.749 33.1773C123.627 33.0224 123.439 32.8389 123.243 32.8389ZM137.066 29.0949C135.453 29.4763 134.331 30.973 134.358 31.5712C134.362 31.6453 134.366 31.7376 134.658 31.7376H134.658C134.721 31.7376 134.79 31.7327 134.865 31.7222C136.024 31.5597 136.885 30.5077 137.066 29.0949ZM129.013 25.2849C128.113 26.57 127.953 28.016 128.687 28.6306C128.901 28.8096 129.113 28.9044 129.301 28.9044C129.301 28.9044 129.301 28.9044 129.301 28.9044C129.595 28.904 129.856 28.6617 129.999 28.2555C130.275 27.4724 130.06 26.2875 129.013 25.2849Z" fill="#241726"/>
<path d="M119.407 156.614C119.407 156.614 118.582 150.792 124.212 152.624C129.841 154.455 128.065 159.81 125.908 158.005C123.751 156.199 127.704 149.965 132.025 152.682C136.346 155.398 135.438 160.76 132.396 161.185C129.354 161.61 134.179 154.935 138.056 158.99C141.933 163.045 133.628 170.589 130.176 167.879C126.723 165.169 129.361 160.715 130.209 163.405C131.057 166.096 128.867 168.764 122.789 168.719C116.712 168.673 119.387 159.299 121.537 161.999C123.688 164.699 120.191 167.805 115.874 164.641C111.557 161.477 116.382 154.802 119.407 156.614Z" fill="white"/>
<path d="M122.941 169.116L122.787 169.116C120.792 169.101 119.378 168.094 118.865 166.34C117.816 166.217 116.707 165.743 115.639 164.961C113.935 163.712 113.35 161.798 114.034 159.709C114.73 157.578 116.602 155.909 118.296 155.909C118.527 155.909 118.751 155.939 118.967 155.997C118.953 155.18 119.069 153.797 119.888 152.853C120.801 151.803 122.312 151.587 124.335 152.245C125.114 152.498 125.798 152.831 126.374 153.235C127.979 151.512 130.281 151.116 132.237 152.345C134.104 153.518 135.25 155.34 135.364 157.28C136.453 157.303 137.455 157.785 138.344 158.715C139.561 159.988 139.793 161.712 138.999 163.57C137.797 166.383 134.504 168.851 131.952 168.851C131.168 168.851 130.487 168.629 129.93 168.192C129.662 167.981 129.419 167.753 129.204 167.511C127.836 168.562 125.684 169.116 122.941 169.116ZM119.709 166.362C120.066 167.335 120.898 168.307 122.793 168.321L122.941 168.321C126.103 168.321 127.814 167.579 128.725 166.875C127.854 165.491 127.91 163.974 128.383 163.031C128.656 162.487 129.056 162.174 129.481 162.174C129.764 162.174 130.283 162.318 130.588 163.285C131.013 164.634 130.722 165.959 129.791 166.975C129.976 167.184 130.187 167.382 130.42 167.565C130.834 167.89 131.349 168.055 131.952 168.055C134.184 168.055 137.193 165.768 138.267 163.257C138.735 162.163 139.027 160.583 137.768 159.265C137.033 158.495 136.22 158.095 135.352 158.076C135.184 159.941 134.029 161.358 132.451 161.578C132.336 161.594 132.231 161.602 132.135 161.602H132.134C131.358 161.602 131.06 161.123 131.04 160.676C130.99 159.579 132.556 157.72 134.57 157.346C134.477 155.656 133.467 154.057 131.813 153.018C130.189 151.997 128.342 152.32 126.994 153.737C128.335 154.992 128.592 156.546 128.226 157.589C127.97 158.316 127.415 158.768 126.778 158.769H126.777C126.395 158.769 126.017 158.614 125.653 158.309C124.461 157.311 124.82 155.339 125.87 153.854C125.369 153.51 124.771 153.224 124.089 153.002C122.395 152.45 121.187 152.571 120.489 153.375C119.521 154.49 119.798 156.538 119.801 156.558C119.822 156.71 119.755 156.861 119.627 156.946C119.499 157.03 119.334 157.034 119.203 156.955C118.925 156.79 118.62 156.705 118.296 156.705C116.949 156.705 115.376 158.164 114.789 159.956C114.52 160.78 114.109 162.854 116.109 164.32C116.977 164.956 117.862 165.362 118.699 165.512C118.542 164.154 118.884 162.621 119.57 161.761C119.908 161.337 120.306 161.113 120.719 161.113C121.002 161.113 121.428 161.224 121.848 161.751C122.618 162.718 122.798 163.813 122.344 164.757C121.899 165.678 120.906 166.277 119.709 166.362ZM129.481 162.97C129.413 162.97 129.247 163.083 129.094 163.387C128.751 164.073 128.701 165.231 129.315 166.311C129.969 165.523 130.152 164.55 129.829 163.525C129.687 163.072 129.526 162.97 129.481 162.97ZM120.719 161.908C120.559 161.908 120.372 162.031 120.192 162.257C119.678 162.901 119.309 164.277 119.509 165.576C120.486 165.548 121.291 165.108 121.627 164.412C121.944 163.754 121.798 162.964 121.226 162.246C121.103 162.092 120.916 161.908 120.719 161.908ZM134.542 158.164C132.929 158.545 131.807 160.042 131.835 160.64C131.838 160.714 131.842 160.806 132.134 160.806C132.134 160.806 132.134 160.806 132.135 160.806C132.198 160.806 132.266 160.801 132.341 160.791C133.5 160.629 134.361 159.576 134.542 158.164ZM126.489 154.354C125.59 155.639 125.429 157.084 126.164 157.699C126.378 157.878 126.59 157.973 126.777 157.973C127.072 157.973 127.333 157.73 127.476 157.325C127.751 156.541 127.536 155.356 126.489 154.354Z" fill="#241726"/>
<path d="M60.0905 26.5505C60.0898 26.5505 60.0783 26.5505 60.0783 26.5505C58.5236 26.5439 57.2646 25.2738 57.2713 23.7197C57.2776 22.172 58.5417 20.9131 60.0891 20.9131C61.6557 20.9197 62.915 22.1899 62.9087 23.7439C62.9024 25.2916 61.6375 26.5505 60.0905 26.5505ZM60.0986 21.7084C58.9788 21.7084 58.0715 22.6118 58.0666 23.7229C58.0614 24.8388 58.9655 25.7499 60.0811 25.7552L60.0905 26.153V25.7552C61.2009 25.7552 62.1088 24.8514 62.1133 23.7407C62.1179 22.6248 61.2142 21.7133 60.0986 21.7084Z" fill="#241726"/>
<path d="M39.2115 172.721C39.2108 172.721 39.1996 172.721 39.1996 172.721C37.6449 172.715 36.386 171.444 36.3926 169.89C36.3989 168.343 37.6631 167.084 39.2105 167.084C40.7774 167.09 42.0363 168.361 42.0297 169.915C42.0231 171.462 40.7589 172.721 39.2115 172.721ZM39.2195 167.879C38.0997 167.879 37.1925 168.782 37.1876 169.894C37.1827 171.009 38.0865 171.921 39.2021 171.926L39.2115 172.324V171.926C40.3219 171.926 41.2294 171.022 41.234 169.911C41.2389 168.795 40.3351 167.884 39.2195 167.879Z" fill="#241726"/>
<path d="M147.397 152.834C147.396 152.834 147.385 152.834 147.385 152.834C145.83 152.827 144.572 151.557 144.578 150.003C144.584 148.455 145.849 147.197 147.396 147.197C148.963 147.203 150.222 148.473 150.215 150.027C150.209 151.575 148.945 152.834 147.397 152.834ZM147.405 147.992C146.286 147.992 145.378 148.895 145.374 150.006C145.369 151.122 146.272 152.033 147.388 152.039L147.397 152.436V152.039C148.508 152.039 149.415 151.135 149.42 150.024C149.425 148.908 148.521 147.997 147.405 147.992Z" fill="#241726"/>
<path d="M13.7449 151.375L37.0788 134.405L49.2764 148.194L62.0042 138.648L74.2018 153.497L101.778 117.965L113.976 137.587L146.856 106.828L137.84 100.465L162.766 93.5703V119.026L153.75 111.071L114.506 154.558L101.778 134.405L74.2018 169.407L61.4739 149.784L48.746 165.694L37.6092 145.542L23.2906 166.224L13.7449 151.375Z" fill="#EA7E94"/>
<path d="M171.91 51.8356C171.91 51.8356 153.759 34.647 134.594 47.5487C123.005 55.3505 127.066 74.7923 129.706 77.3819C132.346 79.9714 126.69 86.9825 128.958 86.8619C131.227 86.7413 137.53 85.4967 137.53 85.4967C137.53 85.4967 145.64 92.5728 158.869 93.2349C172.098 93.8978 188.705 69.2923 171.91 51.8356Z" fill="#668E9D"/>
<path d="M140.849 65.1869C140.849 65.1869 148.269 60.7343 149.902 58.3597C151.535 55.9852 149.308 49.6034 150.793 49.8999C152.277 50.1967 156.878 51.5326 155.69 57.0239C155.69 57.0239 161.775 56.5788 162.369 57.6175C162.962 58.6566 166.376 67.8583 166.079 69.936C165.782 72.0137 155.097 71.8655 153.167 73.6464C151.238 75.4273 148.566 77.2082 147.527 76.9114C146.489 76.6149 140.849 65.1869 140.849 65.1869Z" fill="#F5D66E"/>
<path d="M144.41 62.0703C144.41 62.0703 151.979 74.0919 152.128 75.131C152.276 76.17 146.934 80.6223 145.895 79.2868C144.855 77.9509 138.771 66.0779 138.771 65.1874C138.771 64.2962 143.965 61.1795 144.41 62.0703Z" fill="#FDFFFF"/>
<path d="M8.28708 89.5982C8.28708 89.5982 26.4384 72.4093 45.6037 85.3113C57.1929 93.1132 53.1311 112.555 50.4912 115.144C47.8513 117.734 53.5073 124.745 51.239 124.625C48.9708 124.504 42.6673 123.259 42.6673 123.259C42.6673 123.259 34.5571 130.335 21.3282 130.998C8.09899 131.66 -8.50711 107.055 8.28708 89.5982Z" fill="white"/>
<path d="M20.8017 131.409C14.0808 131.409 6.57753 125.24 2.95942 116.739C-1.19849 106.968 0.638711 96.9747 8.00079 89.3224C8.11126 89.2176 17.8731 80.113 30.4887 80.113C35.8671 80.113 41.0273 81.751 45.8264 84.982C51.5216 88.8159 53.2273 95.1767 53.6559 99.8376C54.3128 106.983 52.3858 113.844 50.7703 115.429C49.4739 116.701 50.5839 119.48 51.3943 121.51C52.0159 123.066 52.426 124.094 52.032 124.675C51.924 124.835 51.709 125.025 51.2957 125.025C49.1467 124.912 43.8557 123.897 42.7761 123.687C41.5888 124.652 33.5807 130.784 21.3482 131.396C21.1667 131.405 20.9839 131.409 20.8017 131.409ZM30.4887 80.9084C18.1964 80.9084 8.6556 89.7976 8.56086 89.8871C1.44351 97.2855 -0.336 106.964 3.6915 116.427C7.28199 124.864 14.7699 130.937 21.3083 130.601C34.2502 129.953 42.3258 123.03 42.4058 122.96C42.4981 122.879 42.6222 122.846 42.7443 122.87C42.8072 122.882 49.0463 124.11 51.2604 124.228C51.3751 124.245 51.3866 124.218 51.3863 124.217C51.5226 123.975 51.001 122.669 50.6556 121.805C49.7623 119.568 48.5387 116.504 50.2133 114.861C51.4663 113.631 53.5378 107.24 52.8641 99.9097C52.4515 95.4203 50.8185 89.3008 45.3824 85.6411C40.7165 82.5012 35.7059 80.9084 30.4887 80.9084Z" fill="#241726"/>
<path d="M27.2927 118.773C35.7079 118.773 42.5297 111.951 42.5297 103.536C42.5297 95.1207 35.7079 88.2988 27.2927 88.2988C18.8775 88.2988 12.0557 95.1207 12.0557 103.536C12.0557 111.951 18.8775 118.773 27.2927 118.773Z" fill="url(#paint3_linear)"/>
<path d="M27.2926 119.17C27.0727 119.17 26.8948 118.992 26.8948 118.773V88.2985C26.8948 88.0786 27.0727 87.9006 27.2926 87.9006C27.5125 87.9006 27.6905 88.0786 27.6905 88.2985V118.773C27.6905 118.992 27.5125 119.17 27.2926 119.17Z" fill="#241726"/>
<path d="M33.7268 117.121C33.6638 117.121 33.5999 117.106 33.5401 117.075C33.3464 116.971 33.2726 116.73 33.3761 116.536C40.4089 103.344 31.8864 89.4392 31.7994 89.3C31.683 89.114 31.7392 88.8686 31.9256 88.7519C32.1119 88.6351 32.3566 88.6921 32.4738 88.8777C32.5633 89.0207 41.3304 103.306 34.0785 116.911C34.0065 117.045 33.8691 117.121 33.7268 117.121Z" fill="#241726"/>
<path d="M24.2968 118.875C24.1773 118.875 24.0591 118.822 23.9811 118.72C13.1541 104.615 23.8329 88.5364 23.942 88.3756C24.0657 88.1938 24.3133 88.147 24.4944 88.27C24.6762 88.3931 24.7237 88.6406 24.5999 88.8224C24.4944 88.9787 14.1386 104.592 24.6118 118.235C24.7457 118.41 24.7129 118.659 24.5388 118.793C24.4664 118.849 24.3811 118.875 24.2968 118.875Z" fill="#241726"/>
<path d="M42.5296 103.933H12.0556C11.8357 103.933 11.6577 103.755 11.6577 103.536C11.6577 103.316 11.8357 103.138 12.0556 103.138H42.5293C42.7492 103.138 42.9271 103.316 42.9271 103.536C42.9275 103.755 42.7495 103.933 42.5296 103.933Z" fill="#241726"/>
<path d="M27.9895 98.299C20.5016 98.299 14.6505 95.2872 14.5631 95.241C14.3687 95.1389 14.2942 94.8984 14.3963 94.7044C14.4984 94.5093 14.7396 94.4352 14.9337 94.5372C15.0616 94.6044 27.8629 101.182 39.642 94.5428C39.8336 94.4341 40.0762 94.5019 40.1839 94.6939C40.2919 94.8855 40.2241 95.1277 40.0328 95.2358C35.956 97.533 31.7642 98.299 27.9895 98.299Z" fill="#241726"/>
<path d="M15.1521 113.141C14.9863 113.141 14.8311 113.037 14.7752 112.871C14.7049 112.663 14.8164 112.437 15.0245 112.367C15.7607 112.118 33.1384 106.328 40.0848 111.873C40.2565 112.011 40.2844 112.261 40.1474 112.433C40.0107 112.604 39.7604 112.632 39.5884 112.495C32.9825 107.221 15.4559 113.061 15.279 113.121C15.2374 113.135 15.1947 113.141 15.1521 113.141Z" fill="#241726"/>
<path d="M22.1022 48.3658C21.5299 48.3658 19.2679 48.8363 18.9676 48.7108C18.6628 48.5836 18.4327 48.3354 18.303 47.9931C17.501 45.8748 20.4258 39.5343 24.038 32.0827C25.3267 29.4243 26.6573 26.6798 26.7524 26.0051C25.2728 24.7402 10.956 12.2553 11.2874 9.87098C11.3231 9.61262 11.4846 9.41159 11.7307 9.31929C12.6159 9.09554 32.4632 4.15137 38.3098 4.15137C39.1768 4.15137 40.0833 4.23667 40.233 4.86947C40.7308 6.98041 34.1124 21.306 32.8143 24.085C37.5141 27.3749 51.1869 37.2552 49.5109 39.6783C47.9013 42.0043 27.8778 47.4987 22.1022 48.3658ZM12.0744 10.0507C12.2286 11.9735 26.0329 24.5011 27.346 25.4671C27.8589 25.8443 27.5677 26.6253 24.754 32.4295C22.1844 37.7303 18.3009 45.7412 19.0473 47.7113C19.1162 47.8934 19.2096 47.9501 19.2739 47.977C19.4106 48.034 23.0109 47.3834 23.5769 47.3082C28.1414 46.7034 47.5244 41.1512 48.8568 39.2252C49.7165 37.9824 40.82 30.6378 32.0843 24.5458C31.9255 24.435 31.8696 24.2259 31.9518 24.0504C35.0318 17.4883 39.7879 6.54235 39.46 5.0586C39.4558 5.08762 39.246 4.94673 38.3098 4.94673C32.7779 4.94673 13.6913 9.64967 12.0744 10.0507Z" fill="#241726"/>
<path d="M8.47332 7.84775C8.47332 7.84775 40.0787 0.360511 40.8269 1.39081C41.5754 2.42111 42.2725 5.40118 42.2725 5.40118C42.2725 5.40118 11.0587 12.1798 9.6959 11.5193C8.33313 10.8589 8.47332 7.84775 8.47332 7.84775Z" fill="#EA7E94"/>
<path d="M15.8193 46.2426C15.8193 46.2426 50.6023 36.0074 51.3504 37.0377C52.0989 38.068 53.3876 40.4293 53.3876 40.4293C53.3876 40.4293 18.4046 50.5749 17.0419 49.9142C15.6791 49.2534 15.8193 46.2426 15.8193 46.2426Z" fill="#EA7E94"/>
<path d="M21.4465 15.4199C21.4465 15.4199 34.5709 11.5763 34.2244 12.6926C33.878 13.8089 29.5603 25.2985 29.5603 25.2985C29.5603 25.2985 19.6209 15.9412 21.4465 15.4199Z" fill="#F5D66E"/>
<path d="M22.5676 42.9158C22.5676 42.9158 45.1541 37.7437 44.3849 36.6543C43.6158 35.5649 33.6855 31.8097 32.6699 32.2443C31.6539 32.6789 22.519 41.5603 22.5676 42.9158Z" fill="#F5D66E"/>
<path d="M28.9859 21.056C28.9859 21.056 34.6345 36.974 33.6067 37.2069C32.5788 37.4397 32.5788 37.4397 32.5788 37.4397C32.5788 37.4397 27.0277 21.472 27.4105 20.9826C27.7934 20.4935 28.9859 21.056 28.9859 21.056Z" fill="#F5D66E"/>
<path d="M77.03 15.0794C76.9388 15.0794 76.7094 15.05 76.5567 14.7788C76.5486 14.7644 75.5792 13.08 74.4685 10.9893C71.1098 11.6116 69.4058 11.6424 69.0404 10.8925C68.946 10.6995 68.9034 10.3796 69.2355 9.95484C69.7963 9.23674 70.8965 7.89949 72.2005 6.42833C70.8528 3.43078 70.9133 2.63682 71.1552 2.26029C71.3164 2.01102 71.602 1.90648 71.9369 1.97711C72.5848 2.118 73.8933 2.52669 75.3897 3.05425C77.9418 0.570976 78.9162 0.279053 79.428 0.279053C79.8842 0.279053 80.2181 0.547903 80.3436 1.01673C80.5045 1.61631 80.4317 2.9256 80.1283 4.91103C83.7279 6.49336 84.2386 7.23768 84.2547 7.7565C84.2603 7.92711 84.2054 8.24525 83.7803 8.46166C83.0972 8.80882 81.3306 9.37099 79.1382 9.93946C77.9222 15.0794 77.3436 15.0794 77.03 15.0794ZM75.2855 10.8313C76.0546 12.2721 76.7395 13.4908 77.0584 14.053C77.3146 13.5324 77.7446 12.2997 78.2677 10.1601C77.245 10.4132 76.2319 10.6408 75.2855 10.8313ZM69.7921 10.5485C69.884 10.5876 70.1176 10.6523 70.6588 10.6523C71.4447 10.652 72.6204 10.5139 74.08 10.2517C73.4962 9.13361 72.9886 8.11764 72.5648 7.21845C71.3751 8.57109 70.3833 9.77864 69.8627 10.4446C69.8281 10.4887 69.8061 10.523 69.7921 10.5485ZM73.1403 6.57062C73.6116 7.58834 74.2014 8.77211 74.8971 10.0975C76.0183 9.87653 77.2444 9.59964 78.4736 9.28884C78.7735 7.9827 79.0434 6.62027 79.2462 5.39559C77.8894 4.81873 76.5574 4.31774 75.5928 3.97093C74.8415 4.71909 74.0178 5.59207 73.1403 6.57062ZM79.9975 5.72317C79.8182 6.78423 79.5909 7.9376 79.3399 9.06404C81.2467 8.5571 82.8437 8.04562 83.4202 7.7523C83.4279 7.74846 83.4345 7.74601 83.4398 7.74566C83.3419 7.58274 82.8122 6.97792 79.9975 5.72317ZM71.8121 2.76478C71.7946 2.97874 71.8642 3.68425 72.7823 5.77876C73.4805 5.00752 74.1433 4.30341 74.7621 3.67761C73.4962 3.2392 72.3837 2.89413 71.8121 2.76478ZM76.2252 3.35422C77.1105 3.6776 78.2271 4.10343 79.3731 4.58589C79.7259 2.2033 79.6346 1.44395 79.5755 1.22265C79.536 1.07476 79.4955 1.07476 79.4284 1.07476C79.1766 1.07476 78.3753 1.30725 76.2252 3.35422Z" fill="#241726"/>
<defs>
<linearGradient id="paint0_linear" x1="46.0984" y1="55.6887" x2="94.6211" y2="208.557" gradientUnits="userSpaceOnUse">
<stop stop-color="#D12323"/>
<stop offset="1" stop-color="#750404"/>
</linearGradient>
<linearGradient id="paint1_linear" x1="22.6114" y1="68.5466" x2="44.0795" y2="145.065" gradientUnits="userSpaceOnUse">
<stop stop-color="#D12323"/>
<stop offset="1" stop-color="#750404"/>
</linearGradient>
<linearGradient id="paint2_linear" x1="105.15" y1="68.5466" x2="126.618" y2="145.065" gradientUnits="userSpaceOnUse">
<stop stop-color="#D12323"/>
<stop offset="1" stop-color="#750404"/>
</linearGradient>
<linearGradient id="paint3_linear" x1="13.0308" y1="88.2988" x2="22.5944" y2="130.026" gradientUnits="userSpaceOnUse">
<stop stop-color="#D12323"/>
<stop offset="1" stop-color="#750404"/>
</linearGradient>
</defs>
</svg>
