<svg width="20" height="20" viewBox="0 0 20 20" xmlns="http://www.w3.org/2000/svg">
<path d="M10.0013 0C7.14418 0 4.80859 2.33559 4.80859 5.19275C4.80859 8.04991 7.14418 10.3855 10.0013 10.3855C12.8585 10.3855 15.1941 8.04991 15.1941 5.19275C15.1941 2.33559 12.8585 0 10.0013 0Z" />
<path d="M18.913 14.5351C18.7769 14.1949 18.5955 13.8775 18.3915 13.5827C17.3484 12.0407 15.7384 11.0203 13.9244 10.7709C13.6976 10.7482 13.4482 10.7935 13.2668 10.9296C12.3144 11.6326 11.1806 11.9954 10.0014 11.9954C8.82228 11.9954 7.68851 11.6326 6.73612 10.9296C6.5547 10.7935 6.30526 10.7255 6.07853 10.7709C4.26446 11.0203 2.63183 12.0407 1.61143 13.5827C1.40735 13.8775 1.22592 14.2176 1.0899 14.5351C1.02189 14.6711 1.04454 14.8299 1.11256 14.9659C1.29398 15.2834 1.52071 15.6009 1.72479 15.873C2.04224 16.3038 2.38239 16.6893 2.76789 17.0521C3.08534 17.3695 3.44815 17.6643 3.81099 17.9591C5.60236 19.297 7.75657 19.9999 9.97879 19.9999C12.201 19.9999 14.3552 19.297 16.1466 17.9591C16.5094 17.687 16.8722 17.3695 17.1897 17.0521C17.5525 16.6893 17.9153 16.3038 18.2328 15.873C18.4595 15.5782 18.6636 15.2834 18.845 14.9659C18.9583 14.8299 18.981 14.6711 18.913 14.5351Z" />
</svg>
