<svg width="40" height="40" viewBox="0 0 40 40" xmlns="http://www.w3.org/2000/svg">
<rect width="40" height="40" rx="4" fill="#A33491"/>
<path d="M29.4231 18.2693C29.7417 18.2693 30 18.011 30 17.6924V14.6155C30 14.2969 29.7417 14.0386 29.4231 14.0386H16.7308V16.9232C16.7308 17.2418 16.4725 17.5001 16.1539 17.5001C15.8353 17.5001 15.577 17.2418 15.577 16.9232V14.0386H10.577C10.2583 14.0386 10 14.2969 10 14.6155V17.6924C10 18.011 10.2583 18.2693 10.5769 18.2693C11.5312 18.2693 12.3077 19.0457 12.3077 20.0001C12.3077 20.9545 11.5313 21.7309 10.5769 21.7309C10.2583 21.7309 10 21.9892 10 22.3078V25.3847C10 25.7033 10.2583 25.9616 10.5769 25.9616H15.5769V23.077C15.5769 22.7584 15.8352 22.5001 16.1538 22.5001C16.4724 22.5001 16.7307 22.7584 16.7307 23.077V25.9616H29.423C29.7417 25.9616 30 25.7033 30 25.3847V22.3078C30 21.9892 29.7416 21.7309 29.423 21.7309C28.4687 21.7309 27.6923 20.9545 27.6923 20.0001C27.6923 19.0457 28.4687 18.2693 29.4231 18.2693ZM16.7308 20.7693C16.7308 21.0879 16.4725 21.3462 16.1539 21.3462C15.8353 21.3462 15.577 21.0879 15.577 20.7693V19.2308C15.577 18.9122 15.8353 18.6539 16.1539 18.6539C16.4725 18.6539 16.7308 18.9122 16.7308 19.2308V20.7693Z" fill="white"/>
</svg>
