<svg width="40" height="40" viewBox="0 0 40 40" xmlns="http://www.w3.org/2000/svg">
<rect width="40" height="40" rx="4" fill="#A37634"/>
<path d="M20.0501 19.7546C19.9755 19.68 19.9587 19.6054 19.9549 19.5755C19.9538 19.5673 19.9567 19.559 19.9626 19.5531L20.0229 19.4928C20.0318 19.4839 20.0334 19.4701 20.0267 19.4595L19.9307 19.3103C19.9233 19.2985 19.9082 19.2942 19.8958 19.3005L19.7415 19.3731C19.7315 19.378 19.7256 19.3887 19.7267 19.3999C19.7348 19.4766 19.7683 19.6654 19.9537 19.8509C20.1392 20.0364 20.3279 20.0698 20.4047 20.0779C20.4159 20.079 20.4266 20.0731 20.4315 20.0631L20.5042 19.9088C20.5103 19.8965 20.5061 19.8814 20.4944 19.874L20.3452 19.7779C20.3346 19.7713 20.3207 19.7729 20.3119 19.7817L20.2515 19.8421C20.2457 19.848 20.2374 19.8508 20.2291 19.8498C20.1993 19.846 20.1247 19.8291 20.0501 19.7546Z" fill="white"/>
<path d="M20.3463 19.7145C20.3314 19.7145 20.3193 19.7024 20.3193 19.6876C20.3192 19.576 20.2288 19.4856 20.1173 19.4855C20.1024 19.4855 20.0903 19.4735 20.0903 19.4586C20.0903 19.4437 20.1024 19.4316 20.1173 19.4316C20.2586 19.4318 20.373 19.5463 20.3732 19.6876C20.3732 19.7024 20.3611 19.7145 20.3463 19.7145Z" fill="white"/>
<path d="M20.481 19.7144C20.4661 19.7144 20.454 19.7024 20.454 19.6875C20.4538 19.5016 20.3032 19.351 20.1173 19.3508C20.1024 19.3508 20.0903 19.3387 20.0903 19.3238C20.0903 19.3089 20.1024 19.2969 20.1173 19.2969C20.3329 19.2971 20.5077 19.4719 20.5079 19.6875C20.5079 19.6946 20.5051 19.7015 20.5 19.7065C20.495 19.7116 20.4881 19.7144 20.481 19.7144Z" fill="white"/>
<path d="M10 27.8383C10 29.0301 10.9699 30 12.1617 30H27.8383C29.0301 30 30 29.0301 30 27.8383V20.5859H10V27.8383ZM23.3453 25.625H25.2039C25.4574 25.625 25.6641 25.4184 25.6641 25.1648V23.3063C25.6641 22.5311 26.8359 22.5309 26.8359 23.3063V25.1648C26.8359 26.0648 26.1039 26.7969 25.2039 26.7969H23.3453C22.5702 26.7969 22.5699 25.625 23.3453 25.625ZM13.1641 23.3063C13.1641 22.5311 14.3359 22.5309 14.3359 23.3063V25.1648C14.3359 25.4184 14.5426 25.625 14.7961 25.625H16.6547C17.4298 25.625 17.4301 26.7969 16.6547 26.7969H14.7961C13.8961 26.7969 13.1641 26.0648 13.1641 25.1648V23.3063Z" fill="white"/>
<path d="M27.8383 10C23.7204 10 37.0591 10 12.1617 10C10.9699 10 10 10.9699 10 12.1617V19.4141H30V12.1617C30 10.9699 29.0301 10 27.8383 10ZM16.6547 14.2969H14.7961C14.5426 14.2969 14.3359 14.5035 14.3359 14.757V16.6156C14.3359 17.3907 13.1641 17.391 13.1641 16.6156V14.757C13.1641 13.857 13.8961 13.125 14.7961 13.125H16.6547C17.4298 13.125 17.4301 14.2969 16.6547 14.2969ZM26.8359 16.6156C26.8359 17.3907 25.6641 17.391 25.6641 16.6156V14.757C25.6641 14.5035 25.4574 14.2969 25.2039 14.2969H23.3453C22.5702 14.2969 22.5699 13.125 23.3453 13.125H25.2039C26.1039 13.125 26.8359 13.857 26.8359 14.757V16.6156Z" fill="white"/>
</svg>
