<svg width="160" height="160" viewBox="0 0 160 160" xmlns="http://www.w3.org/2000/svg">
<g clip-path="url(#clip0)">
<path d="M80 160C124.183 160 160 124.183 160 80C160 35.8172 124.183 0 80 0C35.8172 0 0 35.8172 0 80C0 124.183 35.8172 160 80 160Z" fill="url(#paint0_linear)"/>
<path d="M160 80.0002C160 78.3408 159.943 76.6949 159.844 75.0608L124.042 39.2593L35.0342 119.72L75.1648 159.851C76.7648 159.946 78.3757 160 79.9998 160C124.183 160 160 124.183 160 80.0002Z" fill="#7C0E0E"/>
<path d="M80 140C113.137 140 140 113.137 140 80C140 46.8629 113.137 20 80 20C46.8629 20 20 46.8629 20 80C20 113.137 46.8629 140 80 140Z" fill="#E6D687"/>
<path d="M80.0004 20C79.9954 20 79.9904 20 79.9854 20V140C79.9904 140 79.9954 140 80.0004 140C113.138 140 140 113.137 140 80C140 46.8628 113.138 20 80.0004 20Z" fill="#F6E58D"/>
<path d="M65.8622 116.033L39.3057 89.4767L50.7963 77.9864L65.8622 93.0523L109.203 49.7117L120.694 61.202L65.8622 116.033Z" fill="white"/>
<path d="M109.204 49.7117L79.9854 78.9298V101.911L120.694 61.202L109.204 49.7117Z" fill="white"/>
</g>
<defs>
<linearGradient id="paint0_linear" x1="5.12" y1="-5.56516e-07" x2="55.3322" y2="219.086" gradientUnits="userSpaceOnUse">
<stop stop-color="#D12323"/>
<stop offset="1" stop-color="#750404"/>
</linearGradient>
<clipPath id="clip0">
<rect width="160" height="160" fill="white"/>
</clipPath>
</defs>
</svg>
