<svg width="160" height="160" viewBox="0 0 160 160" xmlns="http://www.w3.org/2000/svg">
<path d="M80 5C38.7793 5 5 38.7793 5 80C5 121.221 38.7793 155 80 155C121.221 155 155 121.221 155 80C155 38.7793 121.221 5 80 5Z" fill="#FF3636"/>
<path d="M155 80C155 121.221 121.221 155 80 155V5C121.221 5 155 38.7793 155 80Z" fill="#F40000"/>
<path d="M92.3923 80L117.266 104.873L104.873 117.266L80 92.3923L55.1267 117.266L42.7344 104.873L67.6077 80L42.7344 55.1267L55.1267 42.7344L80 67.6077L104.873 42.7344L117.266 55.1267L92.3923 80Z" fill="#E7E7E7"/>
<path d="M92.3923 80L117.266 104.873L104.873 117.266L80 92.3923V67.6077L104.873 42.7344L117.266 55.1267L92.3923 80Z" fill="#D3D3D8"/>
</svg>
